<?xml version="1.0" standalone="no"?>
<!DOCTYPE svg PUBLIC "-//W3C//DTD SVG 1.1//EN" "http://www.w3.org/Graphics/SVG/1.1/DTD/svg11.dtd" >
<svg>
<metadata>
Created by FontForge 20110222 at Sun Jan 27 04:38:03 2013
 By Artūrs Jansons
Copyright (c) 2011 by Marcelo Magalha~es (marcelomagalhaes.net), with Reserved Font Name "Londrina Solid"
</metadata>
<defs>
<font id="LondrinaSolid-Regular" horiz-adv-x="464" >
  <font-face 
    font-family="Londrina Solid"
    font-weight="400"
    font-stretch="normal"
    units-per-em="1000"
    panose-1="2 0 5 6 0 0 0 2 0 3"
    ascent="800"
    descent="-200"
    x-height="498"
    cap-height="708"
    bbox="2 -207.991 995 935.741"
    underline-thickness="50"
    underline-position="-50"
    unicode-range="U+0020-FB04"
  />
<missing-glyph horiz-adv-x="238" 
 />
    <glyph glyph-name=".notdef" horiz-adv-x="238" 
 />
    <glyph glyph-name=".null" horiz-adv-x="0" 
 />
    <glyph glyph-name="CR" horiz-adv-x="238" 
 />
    <glyph glyph-name="space" unicode=" " horiz-adv-x="238" 
 />
    <glyph glyph-name="h" unicode="h" horiz-adv-x="445" 
d="M166 446c7 4 18 10 25 15c55 40 146 50 201 3c42 -38 13 -324 21 -462c-47 -7 -78 -4 -125 -4c-5 61 1 160 -4 232c-3 33 -4 81 -25 97c-1 1 -3 1 -4 2c-22 11 -90 18 -95 -54c-5 -92 10 -180 -1 -268v-4c-46 -13 -60 -1 -124 -6c0 164 -4 550 0 726c32 -3 38 -3 70 0
c11 0 60 10 60 1c4 -20 1 -262 1 -278z" />
    <glyph glyph-name="i" unicode="i" horiz-adv-x="204" 
d="M158 503h17v-3c-1 -161 -10 -333 -1 -494c-13 -15 -123 -1 -141 -6c13 169 -10 348 6 505v1c5 1 21 -1 28 -1c17 -1 48 -3 91 -2zM35 721l136 -3c0 -17 3 -88 3 -128c-12 -18 -83 -4 -135 -7c0 39 -5 77 -4 138z" />
    <glyph glyph-name="j" unicode="j" horiz-adv-x="340" 
d="M177 363v134c43 -5 95 8 129 3c8 -65 -3 -188 2 -237c0 -130 6 -233 -15 -362c-34 -81 -168 -93 -274 -88c-14 41 -5 98 0 135c45 -3 128 3 154 40c3 112 -1 270 4 375zM171 721l133 -3c0 -17 3 -88 3 -128c-12 -18 -79 -4 -132 -7c0 39 -5 77 -4 138z" />
    <glyph glyph-name="k" unicode="k" horiz-adv-x="450" 
d="M174 726v-219c0 -44 -4 -99 0 -130c46 40 62 97 102 143c35 -13 120 0 158 -3c-49 -76 -109 -149 -165 -224c60 -97 123 -190 174 -293c-39 0 -121 -8 -161 0c-40 64 -62 134 -108 193c0 -48 7 -134 -4 -193c-30 3 -92 -5 -132 0c-9 248 1 483 0 726c40 0 102 5 136 0z
" />
    <glyph glyph-name="l" unicode="l" horiz-adv-x="208" 
d="M43 727l136 -3c0 -164 -9 -557 -1 -718c-13 -15 -123 -1 -141 -6c19 241 -18 485 6 727z" />
    <glyph glyph-name="m" unicode="m" horiz-adv-x="696" 
d="M167 446c7 4 18 10 25 15c55 40 146 50 201 3c3 -3 7 -9 10 -17c7 4 17 9 24 14c55 40 146 50 201 3c42 -38 13 -324 21 -462c-47 -7 -78 -4 -125 -4c-5 61 1 160 -4 232c-3 33 -4 81 -25 97c-1 1 -3 1 -4 2c-17 8 -50 12 -75 -7c3 -104 -7 -239 -2 -320
c-47 -7 -78 -4 -125 -4c-5 61 1 160 -4 232c-3 33 -4 81 -25 97c-1 1 -3 1 -4 2c-22 11 -90 18 -95 -54c-5 -92 10 -180 -1 -268v-4c-46 -13 -60 -1 -124 -6c0 164 -6 325 -1 501c32 -3 38 -3 70 0c11 0 60 10 60 1c3 -23 1 -34 2 -53z" />
    <glyph glyph-name="n" unicode="n" horiz-adv-x="458" 
d="M166 446c7 4 18 10 25 15c55 40 146 50 201 3c42 -38 13 -324 21 -462c-47 -7 -78 -4 -125 -4c-5 61 1 160 -4 232c-3 33 -4 81 -25 97c-1 1 -3 1 -4 2c-22 11 -90 18 -95 -54c-5 -92 10 -180 -1 -268v-4c-46 -13 -60 -1 -124 -6c0 164 -6 325 -1 501c32 -3 38 -3 70 0
c11 0 60 10 60 1c3 -23 1 -34 2 -53z" />
    <glyph glyph-name="o" unicode="o" horiz-adv-x="468" 
d="M62 456c19 41 87 58 150 58c27 -3 50 2 78 -1c43 -3 83 -16 111 -43c38 -25 38 -110 41 -198c-3 -78 -6 -209 -32 -235c-46 -65 -155 -44 -232 -44c-34 6 -63 21 -86 44c-72 64 -43 201 -51 288c0 24 1 47 5 72c1 15 12 44 16 59zM187 338c-4 -3 -7 -9 -9 -20
c-5 -43 -3 -83 -6 -130c-3 -61 80 -64 115 -45c11 5 19 16 23 33c5 43 11 87 3 126c-7 47 -40 70 -92 58c-14 -4 -25 -11 -34 -22z" />
    <glyph glyph-name="p" unicode="p" horiz-adv-x="454" 
d="M167 -192v-11c0 -3 -82 -9 -126 -1v66c0 222 -11 445 -6 637c41 0 95 4 135 -1c1 -1 1 -4 1 -7c0 -13 1 -18 1 -33c3 -7 6 -12 10 -4c20 40 56 48 93 43c153 -11 163 -148 168 -282c0 -93 -22 -182 -81 -203c-72 -27 -187 -11 -192 13c4 -188 1 -138 -3 -217zM322 185
c7 19 7 39 7 58c0 67 -34 131 -91 131c-68 0 -72 -61 -72 -145c0 -103 4 -115 61 -115c55 0 88 24 95 71z" />
    <glyph glyph-name="q" unicode="q" horiz-adv-x="454" 
d="M287 -203v11c-4 79 -7 29 -3 217c-5 -24 -120 -40 -192 -13c-59 21 -81 110 -81 203c3 134 17 271 168 282c37 5 73 -3 93 -43c4 -8 7 -3 10 4c0 15 1 20 1 33c0 3 0 6 1 7c40 5 94 1 135 1c5 -192 -6 -415 -6 -637v-66c-44 -8 -126 -2 -126 1zM132 185
c7 -47 40 -71 95 -71c57 0 61 12 61 115c0 84 -4 145 -72 145c-57 0 -91 -64 -91 -131c0 -19 0 -39 7 -58z" />
    <glyph glyph-name="r" unicode="r" horiz-adv-x="363" 
d="M170 465c5 3 28 12 47 19c51 16 138 17 138 13c0 -91 -3 -135 0 -176l-9 3c-7 3 -14 4 -21 7c-16 4 -37 7 -38 7c-71 8 -125 5 -122 -69c3 -92 4 -163 4 -262v-4c-46 -13 -70 -1 -134 -6c0 164 -6 325 -1 501c32 -3 38 -3 70 0c11 0 65 7 65 1c0 -22 1 -16 1 -34z" />
    <glyph glyph-name="s" unicode="s" horiz-adv-x="500" 
d="M473 346c-43 -7 -98 -9 -143 0c8 34 -35 65 -69 62c-61 -11 -62 -81 1 -103c75 -11 146 -25 177 -65c29 -48 38 -93 13 -166c-31 -65 -102 -91 -179 -90c-134 -5 -225 61 -225 168v3v2c44 5 107 1 148 1c3 -61 128 -83 125 -6c8 66 -83 51 -157 83
c-150 51 -131 240 -2 274c52 14 154 14 224 -2c63 -27 87 -89 87 -161z" />
    <glyph glyph-name="t" unicode="t" horiz-adv-x="402" 
d="M218 684v-134c0 -17 1 -36 1 -56c41 1 83 4 151 8c19 -21 1 -89 6 -125h-155c0 -72 0 -142 1 -202c26 -37 109 -43 154 -40c5 -37 14 -94 0 -135c-106 -5 -240 7 -274 88c-17 103 -17 190 -16 287c-21 -1 -44 -1 -72 -1l3 122c27 -1 50 -1 71 -1c0 58 -4 142 1 192
c35 5 85 -8 129 -3z" />
    <glyph glyph-name="u" unicode="u" horiz-adv-x="459" 
d="M292 54c-7 -4 -18 -10 -25 -15c-55 -40 -146 -50 -201 -3c-42 38 -13 324 -21 462c47 7 78 4 125 4c5 -61 -1 -160 4 -232c3 -33 4 -81 25 -97c1 -1 3 -1 4 -2c22 -11 90 -18 95 54c5 91 -12 181 1 268v4c46 13 60 1 124 6c0 -164 6 -325 1 -501c-32 3 -38 3 -70 0
c-11 0 -60 -10 -60 -1c-3 23 -1 34 -2 53z" />
    <glyph glyph-name="v" unicode="v" horiz-adv-x="450" 
d="M156 497c19 -95 37 -263 66 -342c29 79 46 260 78 341c45 0 79 6 134 3c-56 -151 -80 -332 -125 -500c-52 -8 -137 -2 -188 -2c-27 167 -61 346 -104 503c48 -5 96 2 139 -3z" />
    <glyph glyph-name="w" unicode="w" horiz-adv-x="714" 
d="M162 497c19 -95 36 -262 65 -342c29 80 34 129 66 275c1 0 13 70 13 70c50 -5 71 7 111 -1c19 -96 35 -264 64 -344c32 78 58 280 82 341c43 0 77 7 130 3c-56 -151 -80 -332 -125 -500c-52 -8 -125 -2 -176 -2c-12 72 -24 157 -39 232c-16 -73 -20 -158 -39 -230
c-52 -8 -137 -2 -188 -2c-27 167 -61 346 -104 503c48 -5 97 2 140 -3z" />
    <glyph glyph-name="x" unicode="x" 
d="M437 500c-27 -83 -67 -167 -82 -254c15 -80 52 -169 71 -246c-7 1 -11 1 -18 1c-15 0 -33 -1 -49 -1c-11 0 -69 0 -78 3h-1c-21 46 -27 112 -48 158v1c-24 -53 -30 -115 -53 -163c-10 0 -62 -1 -73 -1c-21 0 -55 -1 -72 6c19 70 58 165 77 243c-16 83 -53 170 -84 250
c30 2 53 3 70 3c26 0 83 0 86 -3c11 -40 34 -135 47 -170c16 37 35 131 48 171c24 3 106 3 159 3h1c0 -1 0 -1 -1 -1z" />
    <glyph glyph-name="y" unicode="y" horiz-adv-x="493" 
d="M192 497c19 -96 49 -280 78 -360c29 80 34 282 66 362c45 -1 90 4 146 0c-21 -80 -37 -152 -53 -221c-52 -195 -54 -475 -394 -455c-13 40 -13 96 -6 133c65 0 144 -21 131 68c-28 161 -75 325 -116 476c48 -5 105 2 148 -3z" />
    <glyph glyph-name="z" unicode="z" horiz-adv-x="473" 
d="M443 497c0 -51 -5 -90 0 -134c-68 -73 -154 -147 -222 -223c67 5 145 -5 217 6c0 -43 2 -92 2 -139c-123 -3 -280 -6 -407 -6c3 77 -5 88 -2 128c64 83 162 154 229 234c-70 -3 -165 -8 -223 -16c-5 73 3 91 0 150c108 0 206 1 278 1c21 -5 117 4 128 -1z" />
    <glyph glyph-name="A" unicode="A" 
d="M374 351l75 -350v-1c-40 -8 -91 -5 -134 4h-1c-16 43 -29 124 -47 163c-34 5 -32 1 -62 1c-18 -42 -21 -123 -44 -167c-1 0 -2 -1 -3 -1c-11 -3 -49 2 -140 1c-1 0 -1 0 -2 1c8 27 57 378 153 698c19 3 35 -3 123 5c12 -52 66 -287 82 -354zM272 286
c-40 345 -46 205 -74 0c23 -1 49 0 74 0z" />
    <glyph glyph-name="B" unicode="B" horiz-adv-x="485" 
d="M386 331c42 -52 84 -100 68 -186c-32 -189 -252 -147 -397 -143c-8 0 -15 -1 -22 2c-8 231 1 456 -3 688l1 1c160 44 397 39 397 -185c0 -56 -22 -111 -49 -156c-5 -9 -2 -13 5 -21zM292 165c15 20 12 51 3 74c-8 16 -26 30 -43 34c-25 7 -53 5 -78 8
c-10 -39 -19 -108 3 -140l2 -1c37 0 86 -7 113 25zM291 450c9 16 20 39 9 60s-28 32 -49 37c-27 5 -60 8 -80 -3c3 -31 -8 -77 4 -124c40 -5 95 -10 116 30z" />
    <glyph glyph-name="C" unicode="C" horiz-adv-x="527" 
d="M187 542c-3 -3 -5 -10 -6 -13c-4 -7 -12 -194 -4 -285c4 -39 18 -81 57 -92c29 -3 58 8 71 35c15 31 6 66 13 99c38 -5 96 5 134 -6c45 -138 -49 -288 -195 -291c-95 -13 -216 21 -227 133c-5 96 -6 199 -3 415c-3 23 3 47 11 67c12 35 30 64 55 87c15 11 32 18 51 23
c183 60 373 -108 309 -293c-49 -11 -95 -5 -146 4c-8 53 8 136 -70 133c-17 -3 -39 -5 -50 -16z" />
    <glyph glyph-name="D" unicode="D" horiz-adv-x="482" 
d="M392 617c29 -45 48 -94 60 -147c7 -21 8 -42 9 -63c-3 -63 -2 -127 -14 -188c0 -1 -1 -1 -1 -2c-27 -79 -76 -149 -127 -212c-88 -3 -179 -3 -263 -3l-1 -1c-29 211 -11 454 -16 686c1 1 2 3 3 4c76 19 164 7 241 10c43 -11 85 -45 109 -84zM300 254c23 35 35 76 24 125
c-8 41 -20 91 -65 107c-23 3 -51 4 -75 -1h-2h-1v-4c5 -72 -3 -169 2 -259c15 -13 44 -9 68 -6c7 -1 11 3 18 6c13 8 23 20 31 32z" />
    <glyph glyph-name="E" unicode="E" horiz-adv-x="490" 
d="M459 136v-2c3 -43 3 -91 -8 -131c-136 1 -281 -9 -410 2c0 232 -12 455 1 684c155 8 414 12 414 6c7 -47 0 -95 0 -142v-1c-85 -19 -174 -4 -262 -12h-3l-1 -1c1 -39 -8 -81 1 -117l1 -1c40 -3 82 -2 123 -3v-1c7 -45 1 -90 2 -139c-41 -11 -107 0 -121 -11
c-7 -39 -3 -93 0 -125l1 -1c88 0 171 -8 262 -5z" />
    <glyph glyph-name="F" unicode="F" horiz-adv-x="488" 
d="M342 261c-41 -7 -88 -8 -128 -15h-1c-7 -84 -7 -169 -8 -245c-52 -5 -163 -6 -174 0l-1 1c0 242 2 366 2 677v1c69 12 335 30 447 2c0 -35 3 -114 0 -148c-72 -5 -184 -8 -267 -16c-15 -35 -10 -69 2 -90c1 -1 1 -1 2 -1c38 -5 96 -3 126 0c8 -20 -2 -116 3 -164
c0 -1 -1 -2 -3 -2z" />
    <glyph glyph-name="G" unicode="G" horiz-adv-x="488" 
d="M242 348c34 21 178 4 205 4h2l1 -1c8 -71 13 -154 0 -226c-7 -68 -44 -100 -95 -119c-66 -19 -148 -34 -212 -7c-53 23 -78 61 -94 118c-4 15 -9 43 -12 70c-8 85 -13 130 -10 229c1 43 3 88 10 131c7 44 20 88 59 115c27 23 61 32 97 37c149 19 275 -55 256 -218l-1 -6
c-3 -4 -11 -3 -32 -4c-39 0 -54 -2 -94 3c-8 27 -29 83 -68 83c-23 1 -45 5 -61 -11c-3 -3 -8 -16 -11 -27c-19 -64 -23 -188 -15 -288c3 -29 8 -69 33 -89c6 -4 14 -7 23 -9c20 -3 43 2 62 9c15 7 26 17 31 36c3 11 9 57 1 60c-16 3 -61 -3 -74 2c-5 43 1 59 -4 105v1
c0 1 0 1 1 1c0 0 1 0 2 1z" />
    <glyph glyph-name="H" unicode="H" horiz-adv-x="491" 
d="M436 706l27 -700c-46 -8 -107 -3 -140 -6h-1c-13 89 -4 190 -15 276l-1 1c-39 7 -77 7 -116 -2c-8 -92 7 -184 -6 -268c-33 -19 -112 7 -136 -6c-8 113 -18 493 -14 697v1h1h2c40 -8 89 8 127 -3c12 -92 5 -178 21 -263h1c33 -8 75 -2 108 1h1c8 92 8 165 4 261
c34 11 97 14 137 11z" />
    <glyph glyph-name="I" unicode="I" horiz-adv-x="248" 
d="M196 703h24v-4c0 -229 -14 -467 -1 -694c-22 -22 -154 -1 -182 -9c19 241 -16 486 8 710v2c7 1 32 -2 41 -2c24 -1 50 -4 110 -3z" />
    <glyph glyph-name="J" unicode="J" horiz-adv-x="469" 
d="M285 710l146 2c-3 -125 7 -254 4 -383c-5 -109 8 -267 -116 -313c-56 -28 -127 -29 -187 -16c-109 32 -127 186 -122 288c36 8 107 6 155 -2v-1v-5c3 -41 12 -111 60 -114c40 -8 58 31 61 70c-3 149 -6 308 -1 467v7z" />
    <glyph glyph-name="K" unicode="K" horiz-adv-x="485" 
d="M289 359l171 -355c-43 -9 -96 -3 -139 -2c-56 64 -96 187 -138 261c-3 -77 3 -183 3 -258c-36 -10 -111 -8 -146 0c-11 229 3 461 2 694c44 1 91 -2 134 -2c3 -76 -1 -164 2 -240c0 -1 2 3 5 6c56 73 84 156 140 235c43 -3 93 4 136 -3c-32 -112 -122 -224 -170 -336z
" />
    <glyph glyph-name="L" unicode="L" horiz-adv-x="462" 
d="M451 91c5 -96 2 -91 -26 -91c-28 3 -73 -6 -395 -1v18c12 300 7 405 3 686c27 11 122 13 160 -3c-5 -173 4 -369 1 -541v-1c26 8 227 -10 259 -6c0 -7 0 -15 -1 -22c-1 -13 -2 -28 -1 -39z" />
    <glyph glyph-name="M" unicode="M" horiz-adv-x="485" 
d="M449 318l-3 -319c-40 5 -100 1 -132 1c-5 114 -1 277 -14 389c-17 -27 -52 -146 -63 -146c-20 1 -61 141 -62 139c-11 -125 -5 -255 3 -379c-43 -7 -97 -3 -140 -3c-1 0 -2 1 -3 3c-5 18 -5 140 -1 683c36 11 92 2 136 5h1c25 -28 45 -120 66 -151c2 -2 4 -3 6 -3
c8 -3 35 125 59 156c19 -3 106 4 148 4c-5 -128 6 -251 -1 -379z" />
    <glyph glyph-name="N" unicode="N" horiz-adv-x="480" 
d="M416 -5c-27 0 -65 5 -92 5c-44 99 -90 192 -121 277l-10 30c-5 15 -10 30 -13 30c-4 0 -7 -142 -7 -254c0 -31 0 -60 1 -83c-15 -4 -29 -5 -44 -5c-32 0 -65 6 -96 6v70c0 127 -3 236 -3 361c0 92 2 183 9 268c13 3 29 4 45 4c17 0 83 -4 83 -10c19 -49 28 -56 52 -112
c8 -19 81 -167 84 -167c4 3 7 32 7 55c0 53 -3 97 -3 145c0 28 1 56 2 89c23 4 47 6 72 6s47 -2 66 -6v-322c1 -56 1 -114 1 -171c0 -39 -1 -74 -1 -111c0 -27 1 -53 1 -80v-20c-3 -1 -10 -5 -33 -5z" />
    <glyph glyph-name="O" unicode="O" horiz-adv-x="483" 
d="M438 592c9 -20 13 -41 16 -62c3 -33 3 -66 2 -99c-4 -71 0 -136 -5 -205l-3 -33c-3 -47 -14 -96 -38 -135c-23 -32 -62 -50 -103 -61c-37 -11 -75 -13 -114 -10c-55 5 -108 17 -132 70c-19 33 -23 72 -24 111c-4 104 -12 209 -5 314c1 60 12 124 53 171c7 7 14 13 23 18
c88 43 212 41 289 -18c19 -17 33 -38 41 -61zM331 348l-2 68c0 1 -3 34 -4 57c-3 37 -21 70 -52 85c-27 11 -57 2 -78 -14c-23 -18 -39 -41 -47 -69c-11 -51 -12 -108 -9 -164c7 -47 6 -97 19 -141c26 -53 110 -59 151 -13c25 33 15 33 20 91c1 27 2 49 2 52v48z" />
    <glyph glyph-name="P" unicode="P" horiz-adv-x="484" 
d="M477 491v-1c0 -9 0 -18 -1 -26c-16 -127 -146 -222 -273 -201c3 -37 -1 -57 4 -251v-1c-1 0 -2 -1 -3 -1c-37 -10 -122 -9 -167 -4c-8 194 1 467 -7 689c165 44 435 23 447 -204zM302 533c-33 27 -80 34 -123 23c-1 0 -2 0 -3 -1c3 -48 -4 -110 9 -150h3
c42 3 100 -3 132 29c22 30 17 78 -18 99z" />
    <glyph glyph-name="Q" unicode="Q" horiz-adv-x="499" 
d="M459 165c-1 -8 -2 -17 -5 -26c-4 -16 -12 -36 -23 -61c9 -11 19 -21 19 -30c0 -19 -12 -27 -27 -38c-11 -7 -28 -18 -43 -18c-8 0 -29 21 -37 32c-16 -19 -68 -33 -109 -30c-66 5 -102 23 -141 60c-67 64 -60 155 -60 253c0 93 -5 215 22 311c19 56 99 96 201 96
c93 0 141 -5 186 -112c23 -72 29 -154 29 -234c0 -41 0 -64 -3 -104c-3 -33 -1 -67 -9 -99zM297 232c17 0 23 -33 40 -50c3 13 5 50 8 63c3 29 1 86 1 116c0 47 -2 75 -7 123c-4 48 -23 81 -86 81c-76 0 -85 -9 -90 -77c-5 -56 -7 -89 -7 -145c0 -37 -5 -132 8 -172
c15 -40 50 -56 90 -56c7 0 11 0 18 1c-8 8 -15 16 -22 23c-11 13 -21 28 -21 40c0 19 18 21 33 32c11 7 20 21 35 21z" />
    <glyph glyph-name="R" unicode="R" horiz-adv-x="568" 
d="M513 3h1c-47 0 -106 -6 -166 -2h-1c-26 61 -82 181 -139 251l-2 3c-8 -60 2 -193 5 -244c-45 -19 -161 -8 -174 -11c8 0 3 632 -7 699c75 11 166 25 263 14c158 -8 260 -181 177 -320c-25 -48 -66 -83 -130 -87h-4h-1v-1c56 -99 138 -192 178 -302zM176 559
c3 -34 0 -93 5 -123h1c31 -3 69 -5 101 0c51 11 55 91 18 120c-29 27 -78 22 -125 3z" />
    <glyph glyph-name="S" unicode="S" horiz-adv-x="550" 
d="M510 474h-1c-47 -8 -103 -12 -150 1c16 73 -114 100 -125 25c-3 -9 -1 -18 0 -27c11 -32 37 -39 65 -43c71 -8 134 -48 173 -105c47 -60 48 -146 16 -215c-32 -82 -111 -118 -193 -115c-117 3 -244 78 -236 205v3v3c47 7 108 0 153 1c5 -85 151 -87 135 6
c-8 64 -87 73 -143 84c-27 5 -49 18 -68 34c-123 117 -62 299 66 352c65 27 158 18 222 -11c64 -33 105 -98 86 -198z" />
    <glyph glyph-name="T" unicode="T" horiz-adv-x="461" 
d="M441 695c3 -44 3 -107 -4 -155c-25 5 -59 3 -122 0h-2h-1c0 -1 -1 -2 -1 -3c-4 -19 -3 -92 5 -529v-1v-1c-49 -8 -116 1 -164 -7c-3 12 9 160 -7 533l-1 1c-31 16 -104 7 -120 12c-5 10 -9 94 -4 157c0 1 -1 1 -1 2c136 1 285 6 422 -9z" />
    <glyph glyph-name="U" unicode="U" horiz-adv-x="496" 
d="M461 669c8 -171 7 -346 -12 -518c-11 -88 -68 -156 -164 -165c-113 -11 -251 38 -256 161c0 176 7 356 4 532l-1 1h1c41 0 101 6 141 -5v-1c-7 -161 -4 -325 9 -491c19 -65 110 -56 123 5c7 160 5 329 9 484c37 3 114 16 146 -3z" />
    <glyph glyph-name="V" unicode="V" horiz-adv-x="465" 
d="M450 684c-45 -237 -102 -451 -166 -683c-11 0 -35 -4 -63 -4c-29 0 -62 1 -83 8c-60 216 -98 445 -117 676v1c15 18 121 15 142 10c10 -52 0 -253 53 -469c51 216 59 356 88 468c0 1 1 2 2 2c45 -10 98 -1 144 -9z" />
    <glyph glyph-name="W" unicode="W" horiz-adv-x="472" 
d="M447 697l1 -1c-20 -231 -47 -459 -66 -691c-9 -3 -21 -2 -34 -2h-36h-12c-23 31 -35 133 -59 170h-1c-24 -24 -33 -132 -54 -166c-17 -3 -30 -5 -49 -5c-11 0 -23 1 -38 3h-1c-32 228 -69 459 -73 690v1c20 3 42 5 65 5c27 0 54 -2 78 -3c11 -118 -8 -302 21 -417
c17 60 30 117 45 177c1 3 1 4 2 5c12 -9 39 -155 55 -195c11 115 7 308 18 425v1c23 5 47 6 71 6c23 0 45 -1 67 -3z" />
    <glyph glyph-name="X" unicode="X" horiz-adv-x="493" 
d="M466 698c-37 -116 -89 -233 -108 -357c19 -113 66 -229 93 -339c-9 1 -17 1 -26 1c-21 0 -41 -2 -64 -2c-17 0 -31 1 -44 4l-1 1c-29 64 -36 161 -68 224l-1 1c-34 -76 -43 -161 -75 -229c-15 -1 -31 -2 -47 -2c-31 0 -64 0 -89 9c27 99 80 226 104 338
c-23 117 -70 229 -114 342c43 3 76 4 100 4c36 0 48 2 52 -5c16 -56 47 -170 66 -221c24 54 50 169 69 228v1c35 3 77 4 153 4h1c0 -1 -1 -1 -1 -2z" />
    <glyph glyph-name="Y" unicode="Y" horiz-adv-x="472" 
d="M466 693v-1c-74 -239 -214 -457 -294 -692c-8 1 -16 1 -25 1c-28 0 -63 -3 -94 -3c-8 0 -16 0 -24 1h-2c35 108 84 229 131 346v2c-29 117 -99 232 -126 345c27 0 57 6 86 6c16 0 32 -1 47 -8c13 -59 53 -169 77 -219c27 48 57 163 81 217c24 5 70 7 105 7
c16 0 30 -1 38 -2z" />
    <glyph glyph-name="Z" unicode="Z" horiz-adv-x="501" 
d="M466 535v-1c-77 -131 -173 -254 -257 -383l-1 -1c107 13 138 8 252 13v-3c7 -51 2 -112 -2 -160v-2c-127 7 -266 9 -409 1c-16 47 -4 105 -9 160c58 129 167 266 245 376c-60 8 -193 13 -241 13c-16 27 -1 95 -14 137v1c0 1 -1 3 -2 4c137 13 285 5 438 4
c7 -52 -1 -108 0 -159z" />
    <glyph glyph-name="bracketleft" unicode="[" horiz-adv-x="319" 
d="M286 1l-97 -1c-34 0 -125 1 -154 -2v4c3 225 -6 474 10 702v1c85 11 166 -7 244 1c0 -43 2 -93 -6 -118h-1h-2c-33 3 -71 -5 -106 -2h-1c-13 -135 3 -313 3 -443v-1c35 -8 75 -7 107 -10c3 -43 6 -88 3 -131z" />
    <glyph glyph-name="bracketright" unicode="]" horiz-adv-x="318" 
d="M130 0l-97 1c-3 43 0 88 3 131c32 3 72 2 107 10v1c0 130 16 308 3 443h-1c-35 -3 -73 5 -106 2h-2h-1c-8 25 -6 75 -6 118c78 -8 159 10 244 -1v-1c16 -228 5 -477 10 -702v-4c-29 3 -120 2 -154 2z" />
    <glyph glyph-name="exclam" unicode="!" horiz-adv-x="193" 
d="M113 2l-75 -1c-9 0 3 80 3 117v1c32 13 83 2 122 2c-1 -37 -3 -81 -3 -120h-7c-16 0 -23 1 -38 1h-2zM35 702h3c35 3 86 13 123 2c-3 -171 -7 -358 1 -529c-35 -4 -90 -4 -129 -5h-1c3 176 -8 350 3 532z" />
    <glyph glyph-name="dollar" unicode="$" horiz-adv-x="438" 
d="M336 325c52 -37 82 -110 82 -165c0 -43 -16 -81 -59 -116c-7 -7 -58 -38 -63 -38c0 -9 -1 -62 -1 -71v-4c0 -16 -10 -27 -38 -27c-13 0 -27 -1 -42 -1h-28c-73 0 2 88 -65 108c-97 32 -106 91 -106 180c0 40 0 51 46 51c15 0 27 -2 39 -3c32 -3 69 8 69 -33
c0 -11 1 -20 1 -31c0 -21 7 -44 42 -44c21 0 46 15 46 36c0 85 -123 142 -181 206c-31 35 -54 86 -54 134c0 33 11 65 36 90c23 23 59 43 90 52c7 3 3 7 3 14c0 5 -5 69 -5 74c0 20 34 16 58 16c-5 0 78 3 86 -13v-82c0 -9 4 -13 13 -14c50 -5 88 -52 103 -83s14 -57 14 -93
c0 -20 -13 -26 -34 -26h-16c-20 0 -36 -2 -56 -2c-86 0 -22 81 -86 81c-21 0 -47 -21 -47 -45c0 -58 97 -111 153 -151z" />
    <glyph glyph-name="parenleft" unicode="(" horiz-adv-x="314" 
d="M100 41c-15 11 -27 24 -38 39c-1 1 -2 3 -4 7c-25 45 -31 81 -34 116c3 71 7 149 6 217v24c3 58 -8 124 24 177c33 64 90 89 150 90c23 -1 50 -3 73 -6l1 -1c5 -41 1 -84 0 -123c-37 -11 -84 -35 -92 -80c-3 -9 -5 -17 -6 -26c-7 -33 -9 -64 -12 -95
c1 -57 -6 -121 10 -177c19 -43 63 -73 103 -74h1v-5c-3 -35 0 -82 -3 -115c-8 -11 -27 -9 -42 -9h-17c-21 1 -43 4 -65 11c-19 7 -38 17 -55 30z" />
    <glyph glyph-name="parenright" unicode=")" horiz-adv-x="314" 
d="M213 41c-17 -13 -36 -23 -55 -30c-22 -7 -44 -10 -65 -11h-17c-15 0 -34 -2 -42 9c-3 33 0 80 -3 115v5h1c40 1 84 31 103 74c16 56 9 120 10 177c-3 31 -5 62 -12 95c-1 9 -3 17 -6 26c-8 45 -55 69 -92 80c-1 39 -5 82 0 123l1 1c23 3 50 5 73 6c60 -1 117 -26 150 -90
c32 -53 21 -119 24 -177v-24c-1 -68 3 -146 6 -217c-3 -35 -9 -71 -34 -116c-2 -4 -3 -6 -4 -7c-11 -15 -23 -28 -38 -39z" />
    <glyph glyph-name="plus" unicode="+" horiz-adv-x="432" 
d="M136 114c0 1 -1 0 -1 3c-5 41 1 55 -2 102c0 11 -1 19 -2 20h-2c-14 0 -100 4 -111 10c-1 1 -1 1 -1 2c3 29 -4 125 -4 133c7 -2 120 8 127 10c0 15 1 35 2 63c1 19 3 36 4 49c1 8 2 11 3 18c16 -11 123 -1 145 -4c0 -29 -2 -113 2 -124c31 -3 91 1 121 -4
c-3 -56 1 -96 -4 -145c-8 -5 -106 1 -119 -7c3 -23 -7 -102 -7 -122v-2c0 -9 -146 1 -151 -2z" />
    <glyph glyph-name="hyphen" unicode="-" horiz-adv-x="512" 
d="M31 202c0 31 3 152 3 160h443c1 -56 -6 -112 3 -167h-1c-21 0 -427 7 -448 7z" />
    <glyph glyph-name="slash" unicode="/" horiz-adv-x="394" 
d="M202 151l-57 -144c-1 -3 -2 -4 -3 -5c-16 -3 -34 0 -125 -3h-1c-12 0 24 81 26 91c9 29 19 59 32 88c5 18 14 44 94 260c15 39 25 77 38 116c3 5 30 80 49 155c38 -8 100 8 132 -8c-3 -7 -3 -10 -6 -18c-5 -19 -17 -57 -44 -145c-13 -37 -27 -74 -39 -110
c-25 -73 -47 -145 -74 -217c-7 -20 -14 -40 -22 -60z" />
    <glyph glyph-name="question" unicode="?" horiz-adv-x="449" 
d="M137 199l2 38c7 43 14 82 39 119c30 57 146 160 50 195c-61 26 -60 -42 -95 -55c-41 -4 -82 1 -122 2v1c5 101 83 203 197 208c123 11 231 -77 217 -196c-5 -43 -24 -77 -47 -106c-21 -29 -40 -42 -60 -69c-28 -39 -40 -75 -49 -122c-3 -11 -7 -23 -4 -34v-1
c-41 -5 -82 1 -123 -2h-1c-5 5 -4 15 -4 22zM254 0l-113 1h-3c-5 30 -1 97 -1 116c27 11 107 10 125 2c0 -2 -6 -98 -6 -117v-1v-1h-2z" />
    <glyph glyph-name="zero" unicode="0" horiz-adv-x="517" 
d="M81 618c3 5 6 9 10 13c40 45 87 76 155 79c137 5 212 -105 233 -217c7 -43 11 -81 8 -120c8 -156 -56 -383 -244 -371c-27 1 -50 6 -70 13c-135 50 -139 181 -142 300c-5 102 -9 212 50 303zM230 169c12 -4 26 -6 37 -2c27 8 34 27 41 48c11 33 9 62 12 97
c3 71 4 174 -28 220c-15 19 -35 25 -61 16c-13 -3 -27 -15 -34 -27c-7 -11 -11 -40 -15 -73c-7 -84 -10 -147 9 -218c8 -23 9 -56 39 -61z" />
    <glyph glyph-name="one" unicode="1" horiz-adv-x="358" 
d="M318 18c0 -16 -36 -18 -61 -18c-33 0 -71 4 -98 7v1v97c0 129 12 255 12 384c0 7 0 11 -1 18c-13 3 -21 -55 -43 -55c-12 0 -121 25 -121 37c4 45 113 215 121 223c31 1 60 2 91 2c35 0 69 -1 105 -4c4 -57 5 -112 5 -168c0 -153 -11 -301 -11 -454c0 -23 0 -47 1 -70z
" />
    <glyph glyph-name="two" unicode="2" horiz-adv-x="501" 
d="M458 4l-380 -5h-45c-1 1 -1 2 -1 3c8 90 -8 178 35 248c64 72 144 97 213 153c54 35 45 135 -17 143c-65 0 -71 -73 -74 -121v-2h-1c-60 -7 -103 -10 -148 -5h-1v2c-16 92 1 176 50 231c53 69 214 71 286 42c60 -31 91 -95 98 -167c1 -28 3 -63 2 -90
c-12 -148 -186 -147 -258 -235c-5 -13 -22 -53 -11 -58c89 -3 160 2 247 2c11 -27 8 -63 7 -96c0 -15 -2 -29 2 -44c0 -1 -1 -1 -4 -1z" />
    <glyph glyph-name="three" unicode="3" horiz-adv-x="476" 
d="M64 44c-19 19 -30 44 -33 71c-5 31 -4 62 -9 103c0 1 0 1 1 1h1c40 -3 81 12 130 9h1l1 -1c16 -48 94 -93 134 -38c16 27 12 66 -16 87c-29 21 -77 20 -110 13c-16 35 0 100 -5 138v1c45 16 144 -17 139 67c-3 90 -123 50 -144 -6c-21 -3 -128 -2 -132 -2v2
c0 27 -7 64 4 93c48 161 340 162 408 41c13 -21 15 -47 14 -72c3 -113 2 -223 -2 -331c-3 -39 0 -80 -17 -116c-19 -44 -51 -77 -100 -93c-49 -15 -112 -14 -163 -7c-19 3 -36 9 -55 14c-28 8 -44 23 -47 26z" />
    <glyph glyph-name="four" unicode="4" horiz-adv-x="468" 
d="M382 329l6 1c17 3 45 -2 61 -2l-6 -145c-21 -7 -42 1 -61 -3c0 4 -10 -160 -14 -176c-8 -9 -52 -6 -144 -7c-3 3 11 184 11 192c-15 4 -211 0 -214 5c-3 9 -13 65 -10 145c26 36 68 138 218 362c0 1 0 1 1 1c12 0 136 5 157 2h2c0 -4 -11 -346 -7 -375zM262 327l3 214
c-3 20 -130 -203 -135 -213c0 0 113 -4 132 -1z" />
    <glyph glyph-name="five" unicode="5" horiz-adv-x="496" 
d="M30 216l142 5v-1c0 -1 1 -3 1 -4c5 -49 32 -65 63 -58c93 16 86 168 7 192c-68 10 -159 -5 -216 0c-1 0 -2 0 -2 1c0 133 -2 220 -2 345h1c13 0 400 10 426 6c4 -3 -3 -145 -3 -148c-29 -4 -249 -7 -273 -7h-1v-2v-1c0 -1 1 -2 1 -3c3 -11 1 -26 6 -34l1 -1l1 -1h1
c37 7 72 8 105 2c161 -24 190 -216 169 -373c-40 -186 -437 -203 -433 22c0 17 2 37 6 58v2z" />
    <glyph glyph-name="six" unicode="6" horiz-adv-x="521" 
d="M484 227l2 -24c16 -159 -137 -220 -284 -204c-180 32 -171 292 -159 490c3 28 0 55 8 82c1 5 2 9 5 14c35 80 143 123 238 123c126 3 200 -116 171 -223c-39 -7 -85 -4 -132 -7h-2v1c-1 23 -7 52 -23 69c-19 21 -54 18 -73 -1c-50 -42 -23 -147 -26 -221v-1
c16 9 33 17 51 22c36 9 82 18 121 7c29 -9 52 -24 69 -43c20 -19 30 -53 34 -84zM367 202v2c0 6 0 10 -1 13c-4 16 -15 29 -32 32c-27 4 -55 -5 -74 -30c-17 -24 -3 -53 17 -64c15 -7 41 -8 61 3c15 7 26 18 29 33v9v2z" />
    <glyph glyph-name="seven" unicode="7" horiz-adv-x="481" 
d="M33 570h-2c5 44 4 96 5 136v1c139 3 304 11 435 -2v-1c-3 -52 1 -87 1 -139c-80 -185 -199 -369 -295 -558c-40 0 -112 -11 -152 0c91 195 183 373 263 554c-77 5 -187 12 -255 9z" />
    <glyph glyph-name="eight" unicode="8" horiz-adv-x="540" 
d="M498 519v-6v-18c0 -11 -1 -22 -4 -31c-11 -48 -30 -83 -73 -118v-1c99 -72 92 -220 20 -300c-68 -80 -272 -76 -336 12c-63 79 -65 216 17 295c-104 108 -52 348 113 356c94 3 139 3 183 -23c19 -14 29 -17 53 -55c4 -7 12 -26 15 -38c5 -21 7 -32 10 -51
c1 -7 2 -11 2 -18v-4zM231 507c-1 0 -1 0 -1 -1v-2c-3 -28 10 -64 47 -67c65 -5 70 113 -15 92c-3 -1 -4 0 -8 -3c-7 -3 -8 -5 -12 -8c-3 -3 -10 -8 -11 -11zM336 213c0 1 1 3 1 6s0 8 -1 11c-3 11 -8 23 -17 30c-15 13 -38 21 -61 16c-38 -14 -55 -80 -11 -98
c17 -7 40 -6 57 -3c7 2 12 4 15 7c7 4 9 11 13 18c3 4 3 10 4 13z" />
    <glyph glyph-name="nine" unicode="9" horiz-adv-x="489" 
d="M466 471l2 -148c1 -44 6 -87 1 -131c-7 -49 -22 -96 -50 -135c-84 -100 -304 -69 -373 32c-23 34 -31 77 -24 128v5c47 1 108 9 157 2c7 -27 32 -50 63 -47c50 6 56 71 53 123l-1 1c-89 -38 -193 1 -243 77c-38 56 -39 162 -15 220c7 12 13 23 22 34c44 52 117 74 190 77
c68 -3 144 6 184 -56c31 -47 33 -114 34 -182zM314 482c1 3 1 8 1 13c3 40 -49 67 -91 47c-17 -7 -31 -18 -31 -38c1 -13 3 -26 7 -37v-1c19 -41 83 -41 104 -9c4 7 3 7 6 12c3 7 1 6 4 13z" />
    <glyph glyph-name="braceleft" unicode="{" horiz-adv-x="320" 
d="M290 1c-110 -13 -172 47 -169 107c11 74 3 191 -102 186c-4 0 -7 0 -8 1c-7 32 -3 67 2 98c105 -11 119 87 111 169c-11 54 16 106 66 114c39 4 65 5 97 2c5 -32 4 -64 1 -93c-21 -7 -47 -15 -52 -40c-11 -76 25 -174 -55 -203c44 -24 56 -73 53 -129
c-3 -45 1 -105 57 -110c0 -31 2 -71 -1 -102z" />
    <glyph glyph-name="braceright" unicode="}" horiz-adv-x="320" 
d="M30 1c-3 31 -1 71 -1 102c56 5 60 65 57 110c-3 56 9 105 53 129c-80 29 -44 127 -55 203c-5 25 -31 33 -52 40c-3 29 -4 61 1 93c32 3 58 2 97 -2c50 -8 77 -60 66 -114c-8 -82 6 -180 111 -169c5 -31 9 -66 2 -98c-1 -1 -4 -1 -8 -1c-105 5 -113 -112 -102 -186
c3 -60 -59 -120 -169 -107z" />
    <glyph glyph-name="Euro" unicode="&#x20ac;" horiz-adv-x="496" 
d="M246 1l-18 2c-37 7 -65 18 -94 35c-15 9 -27 19 -37 32c-77 90 -67 256 -64 401c3 51 11 99 42 148c75 110 245 85 379 90h1v-1c5 -43 7 -102 2 -147c0 -1 0 -2 -1 -3c-78 5 -184 21 -226 -51h4c29 0 62 2 85 -5v-1c4 -33 3 -71 0 -99v-1c-34 -11 -89 -4 -127 -7h-1
c0 -13 0 -21 3 -33c47 0 78 1 125 -2c7 -29 5 -72 1 -99c-39 -7 -71 -3 -116 -6c21 -108 169 -76 259 -92v-1c-3 -48 9 -103 -2 -154c-76 -12 -138 -9 -215 -6z" />
    <glyph glyph-name="plusminus" unicode="&#xb1;" horiz-adv-x="488" 
d="M160 256c0 1 -1 0 -1 3c-5 41 1 55 -2 102c0 11 -1 19 -2 20h-2c-14 0 -100 4 -111 10c-1 1 -1 1 -1 2c3 29 -4 125 -4 133c7 -2 120 8 127 10c0 15 1 35 2 63c1 19 3 36 4 49c1 8 2 11 3 18c16 -11 123 -1 145 -4c0 -29 -2 -113 2 -124c31 -3 91 1 121 -4
c-3 -56 1 -96 -4 -145c-8 -5 -106 1 -119 -7c3 -23 -7 -102 -7 -122v-2c0 -9 -146 1 -151 -2zM20 11c0 31 3 152 3 160h443c1 -56 -6 -112 3 -167h-1c-21 0 -427 7 -448 7z" />
    <glyph glyph-name="Agrave" unicode="&#xc0;" horiz-adv-x="462" 
d="M69 847l69 70c47 -37 121 -120 167 -163c-19 -5 -92 -9 -134 -4c-13 20 -82 77 -101 96zM377 351l75 -350v-1c-40 -8 -91 -5 -134 4h-1c-16 43 -29 124 -47 163c-34 5 -32 1 -62 1c-18 -42 -21 -123 -44 -167c-1 0 -2 -1 -3 -1c-11 -3 -49 2 -140 1c-1 0 -1 0 -2 1
c4 27 57 379 153 698c19 3 35 -3 123 5c15 -50 66 -287 82 -354zM275 286c-40 345 -46 205 -74 0c23 -1 49 0 74 0z" />
    <glyph glyph-name="Aacute" unicode="&#xc1;" horiz-adv-x="463" 
d="M307 917l69 -70l-1 -1c-18 -18 -91 -76 -101 -96c-43 -5 -116 -1 -134 4c46 43 120 126 167 163zM370 351l75 -350v-1c-40 -8 -91 -5 -134 4h-1c-16 43 -29 124 -47 163c-34 5 -32 1 -62 1c-18 -42 -21 -123 -44 -167c-1 0 -2 -1 -3 -1c-11 -3 -49 2 -140 1
c-1 0 -1 0 -2 1c4 27 57 379 153 698c19 3 35 -3 123 5c15 -50 66 -287 82 -354zM268 286c-40 345 -46 205 -74 0c23 -1 49 0 74 0z" />
    <glyph glyph-name="Acircumflex" unicode="&#xc2;" 
d="M233 918l163 -162c-3 3 -51 -13 -115 -5c-10 0 -38 41 -51 49c-10 -5 -42 -46 -52 -49c-24 -3 -19 -1 -107 4c45 61 103 108 162 163zM374 351l75 -350v-1c-40 -8 -91 -5 -134 4h-1c-16 43 -29 124 -47 163c-34 5 -32 1 -62 1c-18 -42 -21 -123 -44 -167
c-1 0 -2 -1 -3 -1c-11 -3 -49 2 -140 1c-1 0 -1 0 -2 1c8 27 57 378 153 698c19 3 35 -3 123 5c12 -52 66 -287 82 -354zM272 286c-40 345 -46 205 -74 0c23 -1 49 0 74 0z" />
    <glyph glyph-name="Atilde" unicode="&#xc3;" horiz-adv-x="477" 
d="M151 755v-1c-13 3 -41 4 -68 4c-15 0 -32 0 -49 -1c8 29 35 101 60 129c36 36 92 48 135 19c21 -13 30 -37 47 -48c40 -34 69 29 77 53c27 3 54 2 82 3l1 -1c0 -1 0 -1 1 -1v-1c8 -62 -25 -148 -95 -159c-41 -7 -85 8 -102 49c-8 13 -18 22 -35 23c-15 0 -40 -5 -51 -22
l-3 -6c-5 -15 -5 -24 0 -40zM379 351l75 -350v-1c-40 -8 -91 -5 -134 4h-1c-16 43 -29 124 -47 163c-34 5 -32 1 -62 1c-18 -42 -21 -123 -44 -167c-1 0 -2 -1 -3 -1c-11 -3 -49 2 -140 1c-1 0 -1 0 -2 1c8 27 57 378 153 698c19 3 35 -3 123 5c15 -50 66 -287 82 -354z
M277 286c-40 345 -46 205 -74 0c23 -1 49 0 74 0z" />
    <glyph glyph-name="Egrave" unicode="&#xc8;" horiz-adv-x="471" 
d="M103 847l69 70c47 -37 121 -120 167 -163c-19 -5 -92 -9 -134 -4c-13 20 -82 77 -101 96zM455 136v-2c3 -43 3 -91 -8 -131c-136 1 -281 -9 -410 2c0 232 -12 455 1 684c155 8 414 12 414 6c7 -47 0 -95 0 -142v-1c-85 -19 -174 -4 -262 -12h-3l-1 -1
c1 -39 -8 -81 1 -117l1 -1c40 -3 82 -2 123 -3v-1c7 -45 1 -90 2 -139c-41 -11 -107 0 -121 -11c-7 -39 -3 -93 0 -125l1 -1c88 0 171 -8 262 -5z" />
    <glyph glyph-name="Eacute" unicode="&#xc9;" horiz-adv-x="474" 
d="M451 136v-2c3 -43 3 -91 -8 -131c-136 1 -281 -9 -410 2c0 232 -12 455 1 684c155 8 414 12 414 6c7 -47 0 -95 0 -142v-1c-85 -19 -174 -4 -262 -12h-3l-1 -1c1 -39 -8 -81 1 -117l1 -1c40 -3 82 -2 123 -3v-1c7 -45 1 -90 2 -139c-41 -11 -107 0 -121 -11
c-7 -39 -3 -93 0 -125l1 -1c88 0 171 -8 262 -5zM315 917l69 -70l-1 -1c-18 -18 -91 -76 -101 -96c-43 -5 -116 -1 -134 4c46 43 120 126 167 163z" />
    <glyph glyph-name="Ecircumflex" unicode="&#xca;" horiz-adv-x="475" 
d="M243 918l163 -162c-3 3 -51 -13 -115 -5c-10 0 -38 41 -51 49c-10 -5 -42 -46 -52 -49c-24 -3 -19 -1 -107 4c45 61 103 108 162 163zM454 136v-2c3 -43 3 -91 -8 -131c-136 1 -281 -9 -410 2c0 232 -12 455 1 684c155 8 414 12 414 6c7 -47 0 -95 0 -142v-1
c-85 -19 -174 -4 -262 -12h-3l-1 -1c1 -39 -8 -81 1 -117l1 -1c40 -3 82 -2 123 -3v-1c7 -45 1 -90 2 -139c-41 -11 -107 0 -121 -11c-7 -39 -3 -93 0 -125l1 -1c88 0 171 -8 262 -5z" />
    <glyph glyph-name="Ugrave" unicode="&#xd9;" horiz-adv-x="481" 
d="M82 847l69 70c47 -37 121 -120 167 -163c-19 -5 -92 -9 -134 -4c-13 20 -82 77 -101 96zM456 670v-1c8 -171 7 -346 -12 -518c-11 -88 -68 -156 -164 -165c-113 -11 -251 38 -256 161c0 176 7 356 4 532l-1 1h1c41 0 101 6 141 -5v-1c-7 -161 -4 -325 9 -491
c19 -65 110 -56 123 5c7 160 5 329 9 484c34 3 115 16 146 -2z" />
    <glyph glyph-name="Uacute" unicode="&#xda;" horiz-adv-x="482" 
d="M451 670v-1c8 -171 7 -346 -12 -518c-11 -88 -68 -156 -164 -165c-113 -11 -251 38 -256 161c0 176 7 356 4 532l-1 1h1c41 0 101 6 141 -5v-1c-7 -161 -4 -325 9 -491c19 -65 110 -56 123 5c7 160 5 329 9 484c34 3 115 16 146 -2zM332 917l69 -70l-1 -1
c-18 -18 -91 -76 -101 -96c-43 -5 -116 -1 -134 4c46 43 120 126 167 163z" />
    <glyph glyph-name="Ucircumflex" unicode="&#xdb;" horiz-adv-x="484" 
d="M234 918l163 -162c-3 3 -51 -13 -115 -5c-10 0 -38 41 -51 49c-10 -5 -42 -46 -52 -49c-24 -3 -19 -1 -107 4c45 61 103 108 162 163zM455 670v-1c8 -171 7 -346 -12 -518c-11 -88 -68 -156 -164 -165c-113 -11 -251 38 -256 161c0 176 7 356 4 532l-1 1h1
c41 0 101 6 141 -5v-1c-7 -161 -4 -325 9 -491c19 -65 110 -56 123 5c7 160 5 329 9 484c34 3 115 16 146 -2z" />
    <glyph glyph-name="ugrave" unicode="&#xf9;" horiz-adv-x="443" 
d="M85 684l69 70c47 -37 121 -120 167 -163c-19 -5 -92 -9 -134 -4c-13 20 -82 77 -101 96zM288 54c-7 -4 -18 -10 -25 -15c-55 -40 -146 -50 -201 -3c-43 36 -13 326 -21 462c47 7 78 4 125 4c5 -61 -1 -160 4 -232c3 -33 4 -81 25 -97c1 -1 3 -1 4 -2c22 -11 90 -18 95 54
c5 91 -12 181 1 268v4c46 13 60 1 124 6c0 -164 6 -325 1 -501c-32 3 -38 3 -70 0c-11 0 -60 -10 -60 -1c-3 23 -1 34 -2 53z" />
    <glyph glyph-name="uacute" unicode="&#xfa;" horiz-adv-x="444" 
d="M310 754l69 -70l-1 -1c-18 -18 -91 -76 -101 -96c-43 -5 -116 -1 -134 4c46 43 120 126 167 163zM281 54c-7 -4 -18 -10 -25 -15c-55 -40 -146 -50 -201 -3c-43 36 -13 326 -21 462c47 7 78 4 125 4c5 -61 -1 -160 4 -232c3 -33 4 -81 25 -97c1 -1 3 -1 4 -2
c22 -11 90 -18 95 54c5 91 -12 181 1 268v4c46 13 60 1 124 6c0 -164 6 -325 1 -501c-32 3 -38 3 -70 0c-11 0 -60 -10 -60 -1c-3 23 -1 34 -2 53z" />
    <glyph glyph-name="ucircumflex" unicode="&#xfb;" horiz-adv-x="446" 
d="M236 757l163 -162c-3 3 -51 -13 -115 -5c-10 0 -38 41 -51 49c-10 -5 -42 -46 -52 -49c-24 -3 -19 -1 -107 4c45 61 103 108 162 163zM286 54c-7 -4 -18 -10 -25 -15c-55 -40 -146 -50 -201 -3c-43 36 -13 326 -21 462c47 7 78 4 125 4c5 -61 -1 -160 4 -232
c3 -33 4 -81 25 -97c1 -1 3 -1 4 -2c22 -11 90 -18 95 54c5 91 -12 181 1 268v4c46 13 60 1 124 6c0 -164 6 -325 1 -501c-32 3 -38 3 -70 0c-11 0 -60 -10 -60 -1c-3 23 -1 34 -2 53z" />
    <glyph glyph-name="egrave" unicode="&#xe8;" horiz-adv-x="446" 
d="M93 684l69 70c47 -37 121 -120 167 -163c-19 -5 -92 -9 -134 -4c-13 20 -82 77 -101 96zM157 251v-18c1 -40 0 -62 15 -86c32 -62 130 -63 125 45c27 -3 97 6 126 -2c-5 -68 -9 -140 -28 -156c-45 -64 -154 -44 -230 -44c-19 3 -36 9 -52 18c-71 50 -96 168 -91 276
c4 49 6 95 22 139c35 79 152 108 247 84c124 -21 142 -136 134 -248c-28 -8 -226 -16 -268 -8zM278 406c-11 7 -20 10 -35 10c-63 0 -78 -29 -83 -65c-5 -28 -5 -22 94 -22c69 0 63 -8 63 12c0 27 -15 53 -39 65z" />
    <glyph glyph-name="eacute" unicode="&#xe9;" horiz-adv-x="448" 
d="M307 754l69 -70l-1 -1c-18 -18 -91 -76 -101 -96c-43 -5 -116 -1 -134 4c46 43 120 126 167 163zM152 251v-18c1 -40 0 -62 15 -86c32 -62 130 -63 125 45c27 -3 97 6 126 -2c-5 -68 -9 -140 -28 -156c-45 -64 -154 -44 -230 -44c-19 3 -36 9 -52 18
c-71 50 -96 168 -91 276c4 49 6 95 22 139c35 79 152 108 247 84c124 -21 142 -136 134 -248c-29 -8 -225 -16 -268 -8zM273 406c-11 7 -20 10 -35 10c-63 0 -78 -29 -83 -65c-5 -28 -5 -22 94 -22c69 0 63 -8 63 12c0 27 -15 53 -39 65z" />
    <glyph glyph-name="ecircumflex" unicode="&#xea;" horiz-adv-x="449" 
d="M234 757l163 -162c-3 3 -51 -13 -115 -5c-10 0 -38 41 -51 49c-10 -5 -42 -46 -52 -49c-24 -3 -19 -1 -107 4c45 61 103 108 162 163zM156 251v-18c1 -40 0 -62 15 -86c32 -62 130 -63 125 45c27 -3 97 6 126 -2c-5 -68 -9 -140 -28 -156c-45 -64 -154 -44 -230 -44
c-19 3 -36 9 -52 18c-71 50 -96 168 -91 276c4 49 6 95 22 139c35 79 152 108 247 84c124 -21 142 -136 134 -248c-29 -8 -225 -16 -268 -8zM277 406c-11 7 -20 10 -35 10c-63 0 -78 -29 -83 -65c-5 -28 -5 -22 94 -22c69 0 63 -8 63 12c0 27 -15 53 -39 65z" />
    <glyph glyph-name="igrave" unicode="&#xec;" horiz-adv-x="263" 
d="M222 503h17v-3c-1 -161 -10 -333 -1 -494c-13 -15 -123 -1 -141 -6c13 169 -10 348 6 505v1c5 1 21 -1 28 -1c17 -1 48 -3 91 -2zM8 684l69 70c47 -37 121 -120 167 -163c-19 -5 -92 -9 -134 -4c-13 20 -82 77 -101 96z" />
    <glyph glyph-name="iacute" unicode="&#xed;" horiz-adv-x="264" 
d="M25 503h17c43 -1 74 1 91 2c7 0 23 2 28 1v-1c16 -157 -7 -336 6 -505c-18 5 -128 -9 -141 6c9 161 0 333 -1 494v3zM187 754l69 -70l-1 -1c-18 -18 -91 -76 -101 -96c-43 -5 -116 -1 -134 4c46 43 120 126 167 163z" />
    <glyph glyph-name="icircumflex" unicode="&#xee;" horiz-adv-x="341" 
d="M221 503h17v-3c-1 -161 -10 -333 -1 -494c-13 -15 -123 -1 -141 -6c13 169 -10 348 6 505v1c5 1 21 -1 28 -1c17 -1 48 -3 91 -2zM171 757l163 -162c-3 3 -51 -13 -115 -5c-10 0 -38 41 -51 49c-10 -5 -42 -46 -52 -49c-24 -3 -19 -1 -107 4c45 61 103 108 162 163z" />
    <glyph glyph-name="Ograve" unicode="&#xd2;" horiz-adv-x="472" 
d="M64 847l69 70c47 -37 121 -120 167 -163c-19 -5 -92 -9 -134 -4c-13 20 -82 77 -101 96zM436 597c9 -20 13 -41 16 -62c3 -33 3 -66 2 -99c-4 -71 0 -136 -5 -205l-3 -33c-3 -47 -14 -96 -38 -135c-23 -32 -62 -50 -103 -61c-37 -11 -75 -13 -114 -10
c-55 5 -108 17 -132 70c-19 33 -23 72 -24 111c-4 104 -12 209 -5 314c1 60 12 124 53 171c7 7 14 13 23 18c88 43 212 41 289 -18c19 -17 33 -38 41 -61zM329 353l-2 68c0 1 -3 34 -4 57c-3 37 -21 70 -52 85c-27 11 -57 2 -78 -14c-23 -18 -39 -41 -47 -69
c-11 -51 -12 -108 -9 -164c7 -47 6 -97 19 -141c26 -53 110 -59 151 -13c25 33 15 33 20 91c1 27 2 49 2 52v48z" />
    <glyph glyph-name="Oacute" unicode="&#xd3;" horiz-adv-x="472" 
d="M430 597c9 -20 13 -41 16 -62c3 -33 3 -66 2 -99c-4 -71 0 -136 -5 -205l-3 -33c-3 -47 -14 -96 -38 -135c-23 -32 -62 -50 -103 -61c-37 -11 -75 -13 -114 -10c-55 5 -108 17 -132 70c-19 33 -23 72 -24 111c-4 104 -12 209 -5 314c1 60 12 124 53 171c7 7 14 13 23 18
c88 43 212 41 289 -18c19 -17 33 -38 41 -61zM323 353l-2 68c0 1 -3 34 -4 57c-3 37 -21 70 -52 85c-27 11 -57 2 -78 -14c-23 -18 -39 -41 -47 -69c-11 -51 -12 -108 -9 -164c7 -47 6 -97 19 -141c26 -53 110 -59 151 -13c25 33 15 33 20 91c1 27 2 49 2 52v48zM325 917
l69 -70l-1 -1c-18 -18 -91 -76 -101 -96c-43 -5 -116 -1 -134 4c46 43 120 126 167 163z" />
    <glyph glyph-name="Ocircumflex" unicode="&#xd4;" horiz-adv-x="474" 
d="M243 918l163 -162c-3 3 -51 -13 -115 -5c-10 0 -38 41 -51 49c-10 -5 -42 -46 -52 -49c-24 -3 -19 -1 -107 4c45 61 103 108 162 163zM433 597c9 -20 13 -41 16 -62c3 -33 3 -66 2 -99c-4 -71 0 -136 -5 -205l-3 -33c-3 -47 -14 -96 -38 -135c-23 -32 -62 -50 -103 -61
c-37 -11 -75 -13 -114 -10c-55 5 -108 17 -132 70c-19 33 -23 72 -24 111c-4 104 -12 209 -5 314c1 60 12 124 53 171c7 7 14 13 23 18c88 43 212 41 289 -18c19 -17 33 -38 41 -61zM326 353l-2 68c0 1 -3 34 -4 57c-3 37 -21 70 -52 85c-27 11 -57 2 -78 -14
c-23 -18 -39 -41 -47 -69c-11 -51 -12 -108 -9 -164c7 -47 6 -97 19 -141c26 -53 110 -59 151 -13c25 33 15 33 20 91c1 27 2 49 2 52v48z" />
    <glyph glyph-name="Otilde" unicode="&#xd5;" horiz-adv-x="482" 
d="M437 597c9 -20 13 -41 16 -62c3 -33 3 -66 2 -99c-4 -71 0 -136 -5 -205l-3 -33c-3 -47 -14 -96 -38 -135c-23 -32 -62 -50 -103 -61c-37 -11 -75 -13 -114 -10c-55 5 -108 17 -132 70c-19 33 -23 72 -24 111c-4 104 -12 209 -5 314c1 60 12 124 53 171c7 7 14 13 23 18
c88 43 212 41 289 -18c19 -17 33 -38 41 -61zM330 353l-2 68c0 1 -3 34 -4 57c-3 37 -21 70 -52 85c-27 11 -57 2 -78 -14c-23 -18 -39 -41 -47 -69c-11 -51 -12 -108 -9 -164c7 -47 6 -97 19 -141c26 -53 110 -59 151 -13c25 33 15 33 20 91c1 27 2 49 2 52v48zM156 744v-1
c-13 3 -41 4 -68 4c-15 0 -32 0 -49 -1c8 29 35 101 60 129c36 36 92 48 135 19c21 -13 30 -37 47 -48c40 -34 69 29 77 53c27 3 54 2 82 3l1 -1c0 -1 0 -1 1 -1c9 -43 -12 -92 -36 -127c-12 -14 -25 -23 -40 -28c-43 -15 -102 -4 -121 44c-9 15 -19 23 -39 23
c-11 0 -22 -4 -35 -9c-7 -5 -12 -11 -15 -19c-5 -15 -5 -24 0 -40z" />
    <glyph glyph-name="agrave" unicode="&#xe0;" horiz-adv-x="467" 
d="M438 498c1 -8 2 -16 2 -24v-10c-4 -144 7 -281 -2 -424c0 -17 3 -38 -13 -41h-12c-21 0 -44 3 -65 3c-15 0 -28 -3 -43 -3c-9 3 -12 11 -12 22c0 15 4 22 4 35c-32 -32 -85 -58 -132 -58c-103 0 -147 161 -147 268c0 133 74 228 168 231c48 0 83 0 102 -46
c-1 21 4 35 4 51c0 3 40 1 48 1c23 -1 55 -2 98 -5zM147 299c-5 -17 -6 -36 -6 -53c0 -60 33 -108 89 -108c66 0 62 46 62 121c0 93 3 104 -52 104s-86 -31 -93 -64zM113 684l69 70c47 -37 121 -120 167 -163c-19 -5 -92 -9 -134 -4c-13 20 -82 77 -101 96z" />
    <glyph glyph-name="aacute" unicode="&#xe1;" horiz-adv-x="468" 
d="M433 498c1 -8 2 -16 2 -24v-10c-4 -144 7 -281 -2 -424c0 -17 3 -38 -13 -41h-12c-21 0 -44 3 -65 3c-15 0 -28 -3 -43 -3c-9 3 -12 11 -12 22c0 15 4 22 4 35c-32 -32 -85 -58 -132 -58c-103 0 -147 161 -147 268c0 133 74 228 168 231c48 0 83 0 102 -46
c-1 21 4 35 4 51c0 3 40 1 48 1c23 -1 55 -2 98 -5zM142 299c-5 -17 -6 -36 -6 -53c0 -60 33 -108 89 -108c66 0 62 46 62 121c0 93 3 104 -52 104s-86 -31 -93 -64zM320 754l69 -70l-1 -1c-18 -18 -91 -76 -101 -96c-43 -5 -116 -1 -134 4c46 43 120 126 167 163z" />
    <glyph glyph-name="acircumflex" unicode="&#xe2;" horiz-adv-x="470" 
d="M250 757l163 -162c-3 3 -51 -13 -115 -5c-10 0 -38 41 -51 49c-10 -5 -42 -46 -52 -49c-24 -3 -19 -1 -107 4c45 61 103 108 162 163zM437 498c1 -8 2 -16 2 -24v-10c-4 -144 7 -281 -2 -424c0 -17 3 -38 -13 -41h-12c-21 0 -44 3 -65 3c-15 0 -28 -3 -43 -3
c-9 3 -12 11 -12 22c0 15 4 22 4 35c-32 -32 -85 -58 -132 -58c-103 0 -147 161 -147 268c0 133 74 228 168 231c48 0 83 0 102 -46c-1 21 4 35 4 51c0 3 40 1 48 1c23 -1 55 -2 98 -5zM146 299c-5 -17 -6 -36 -6 -53c0 -60 33 -108 89 -108c66 0 62 46 62 121
c0 93 3 104 -52 104s-86 -31 -93 -64z" />
    <glyph glyph-name="ograve" unicode="&#xf2;" horiz-adv-x="454" 
d="M92 684l69 70c47 -37 121 -120 167 -163c-19 -5 -92 -9 -134 -4c-13 20 -82 77 -101 96zM58 456c19 41 87 58 150 58c27 -3 50 2 78 -1c43 -3 83 -16 111 -43c38 -25 38 -110 41 -198c-3 -78 -6 -209 -32 -235c-46 -65 -155 -44 -232 -44c-34 6 -63 21 -86 44
c-72 64 -43 201 -51 288c0 24 1 47 5 72c1 15 12 44 16 59zM183 338c-4 -3 -7 -9 -9 -20c-5 -43 -3 -83 -6 -130c-3 -61 80 -64 115 -45c11 5 19 16 23 33c5 43 11 87 3 126c-7 47 -40 70 -92 58c-14 -4 -25 -11 -34 -22z" />
    <glyph glyph-name="oacute" unicode="&#xf3;" horiz-adv-x="456" 
d="M319 754l69 -70l-1 -1c-18 -18 -91 -76 -101 -96c-43 -5 -116 -1 -134 4c46 43 120 126 167 163zM53 456c19 41 87 58 150 58c27 -3 50 2 78 -1c43 -3 83 -16 111 -43c38 -25 38 -110 41 -198c-3 -78 -6 -209 -32 -235c-46 -65 -155 -44 -232 -44c-34 6 -63 21 -86 44
c-72 64 -43 201 -51 288c0 24 1 47 5 72c1 15 12 44 16 59zM178 338c-4 -3 -7 -9 -9 -20c-5 -43 -3 -83 -6 -130c-3 -61 80 -64 115 -45c11 5 19 16 23 33c5 43 11 87 3 126c-7 47 -40 70 -92 58c-14 -4 -25 -11 -34 -22z" />
    <glyph glyph-name="ocircumflex" unicode="&#xf4;" horiz-adv-x="458" 
d="M244 757l163 -162c-3 3 -51 -13 -115 -5c-10 0 -38 41 -51 49c-10 -5 -42 -46 -52 -49c-24 -3 -19 -1 -107 4c45 61 103 108 162 163zM57 456c19 41 87 58 150 58c27 -3 50 2 78 -1c43 -3 83 -16 111 -43c38 -25 38 -110 41 -198c-3 -78 -6 -209 -32 -235
c-46 -65 -155 -44 -232 -44c-34 6 -63 21 -86 44c-72 64 -43 201 -51 288c0 24 1 47 5 72c1 15 12 44 16 59zM182 338c-4 -3 -7 -9 -9 -20c-5 -43 -3 -83 -6 -130c-3 -61 80 -64 115 -45c11 5 19 16 23 33c5 43 11 87 3 126c-7 47 -40 70 -92 58c-14 -4 -25 -11 -34 -22z
" />
    <glyph glyph-name="otilde" unicode="&#xf5;" horiz-adv-x="474" 
d="M156 590v-1c-13 3 -41 4 -68 4c-15 0 -32 0 -49 -1c8 29 35 101 60 129c36 36 92 48 135 19c21 -13 30 -37 47 -48c40 -34 69 29 77 53c27 3 54 2 82 3l1 -1c0 -1 0 -1 1 -1v-1c8 -62 -25 -148 -95 -159c-41 -7 -85 8 -102 49c-8 13 -18 22 -35 23c-15 0 -40 -5 -51 -22
l-3 -6c-5 -15 -5 -24 0 -40zM61 456c19 41 87 58 150 58c27 -3 50 2 78 -1c43 -3 83 -16 111 -43c38 -25 38 -110 41 -198c-3 -78 -6 -209 -32 -235c-46 -65 -155 -44 -232 -44c-34 6 -63 21 -86 44c-72 64 -43 201 -51 288c0 24 1 47 5 72c1 15 12 44 16 59zM186 338
c-4 -3 -7 -9 -9 -20c-5 -43 -3 -83 -6 -130c-3 -61 80 -64 115 -45c11 5 19 16 23 33c5 43 11 87 3 126c-7 47 -40 70 -92 58c-14 -4 -25 -11 -34 -22z" />
    <glyph glyph-name="Edieresis" unicode="&#xcb;" horiz-adv-x="478" 
d="M456 136v-2c3 -43 3 -91 -8 -131c-136 1 -281 -9 -410 2c0 232 -12 455 1 684c155 8 414 12 414 6c7 -47 0 -95 0 -142v-1c-85 -19 -174 -4 -262 -12h-3l-1 -1c1 -39 -8 -81 1 -117l1 -1c40 -3 82 -2 123 -3v-1c7 -45 1 -90 2 -139c-41 -11 -107 0 -121 -11
c-7 -39 -3 -93 0 -125l1 -1c88 0 171 -8 262 -5zM201 758l-97 1h-3c-5 26 -1 84 -1 101c25 8 90 9 109 1c0 -2 -6 -83 -6 -101v-1v-1h-2zM375 758l-97 1h-3c-5 26 -1 84 -1 101c25 8 90 9 109 1c0 -2 -6 -83 -6 -101v-1v-1h-2z" />
    <glyph glyph-name="exclamdown" unicode="&#xa1;" horiz-adv-x="193" 
d="M80 630l75 1c9 0 -3 -80 -3 -117v-1c-32 -13 -83 -2 -122 -2c1 37 3 81 3 120h7c16 0 23 -1 38 -1h2zM158 -70h-3c-35 -3 -86 -13 -123 -2c3 171 7 358 -1 529c35 4 90 4 129 5h1c-3 -176 6 -351 -3 -532z" />
    <glyph glyph-name="Odieresis" unicode="&#xd6;" horiz-adv-x="477" 
d="M435 597c9 -20 13 -41 16 -62c3 -33 3 -66 2 -99c-4 -71 0 -136 -5 -205l-3 -33c-3 -47 -14 -96 -38 -135c-23 -32 -62 -50 -103 -61c-37 -11 -75 -13 -114 -10c-55 5 -108 17 -132 70c-19 33 -23 72 -24 111c-4 104 -12 209 -5 314c1 60 12 124 53 171c7 7 14 13 23 18
c88 43 212 41 289 -18c19 -17 33 -38 41 -61zM328 353l-2 68c0 1 -3 34 -4 57c-3 37 -21 70 -52 85c-27 11 -57 2 -78 -14c-23 -18 -39 -41 -47 -69c-11 -51 -12 -108 -9 -164c7 -47 6 -97 19 -141c26 -53 110 -59 151 -13c25 33 15 33 20 91c1 27 2 49 2 52v48zM204 758
l-97 1h-3c-5 26 -1 84 -1 101c25 8 90 9 109 1c0 -2 -6 -83 -6 -101v-1v-1h-2zM378 758l-97 1h-3c-5 26 -1 84 -1 101c25 8 90 9 109 1c0 -2 -6 -83 -6 -101v-1v-1h-2z" />
    <glyph glyph-name="Udieresis" unicode="&#xdc;" horiz-adv-x="486" 
d="M199 758l-97 1h-3c-5 26 -1 84 -1 101c25 8 90 9 109 1c0 -2 -6 -83 -6 -101v-1v-1h-2zM373 758l-97 1h-3c-5 26 -1 84 -1 101c25 8 90 9 109 1c0 -2 -6 -83 -6 -101v-1v-1h-2zM456 670v-1c8 -171 7 -346 -12 -518c-11 -88 -68 -156 -164 -165c-113 -11 -251 38 -256 161
c0 176 7 356 4 532l-1 1h1c41 0 101 6 141 -5v-1c-7 -161 -4 -325 9 -491c19 -65 110 -56 123 5c7 160 5 329 9 484c34 3 115 16 146 -2z" />
    <glyph glyph-name="atilde" unicode="&#xe3;" horiz-adv-x="487" 
d="M441 498c1 -8 2 -16 2 -24v-10c-4 -144 7 -281 -2 -424c0 -17 3 -38 -13 -41h-12c-21 0 -44 3 -65 3c-15 0 -28 -3 -43 -3c-9 3 -12 11 -12 22c0 15 4 22 4 35c-32 -32 -85 -58 -132 -58c-103 0 -147 161 -147 268c0 133 74 228 168 231c48 0 83 0 102 -46
c-1 21 4 35 4 51c0 3 40 1 48 1c23 -1 55 -2 98 -5zM150 299c-5 -17 -6 -36 -6 -53c0 -60 33 -108 89 -108c66 0 62 46 62 121c0 93 3 104 -52 104s-86 -31 -93 -64zM166 590v-1c-13 3 -41 4 -68 4c-15 0 -32 0 -49 -1c8 29 35 101 60 129c36 36 92 48 135 19
c21 -13 30 -37 47 -48c40 -34 69 29 77 53c27 3 54 2 82 3l1 -1c0 -1 0 -1 1 -1v-1c8 -62 -25 -148 -95 -159c-41 -7 -85 8 -102 49c-8 13 -18 22 -35 23c-15 0 -40 -5 -51 -22l-3 -6c-5 -15 -5 -24 0 -40z" />
    <glyph glyph-name="adieresis" unicode="&#xe4;" horiz-adv-x="480" 
d="M440 498c1 -8 2 -16 2 -24v-10c-4 -144 7 -281 -2 -424c0 -17 3 -38 -13 -41h-12c-21 0 -44 3 -65 3c-15 0 -28 -3 -43 -3c-9 3 -12 11 -12 22c0 15 4 22 4 35c-32 -32 -85 -58 -132 -58c-103 0 -147 161 -147 268c0 133 74 228 168 231c48 0 83 0 102 -46
c-1 21 4 35 4 51c0 3 40 1 48 1c23 -1 55 -2 98 -5zM149 299c-5 -17 -6 -36 -6 -53c0 -60 33 -108 89 -108c66 0 62 46 62 121c0 93 3 104 -52 104s-86 -31 -93 -64zM116 760l136 -3c0 -17 3 -88 3 -128c-12 -18 -83 -4 -135 -7c0 39 -5 77 -4 138zM300 760l136 -3
c0 -17 3 -88 3 -128c-12 -18 -83 -4 -135 -7c0 39 -5 77 -4 138z" />
    <glyph glyph-name="edieresis" unicode="&#xeb;" horiz-adv-x="459" 
d="M67 760l136 -3c0 -17 3 -88 3 -128c-12 -18 -83 -4 -135 -7c0 39 -5 77 -4 138zM251 760l136 -3c0 -17 3 -88 3 -128c-12 -18 -83 -4 -135 -7c0 39 -5 77 -4 138zM161 251v-18c1 -40 0 -62 15 -86c32 -62 130 -63 125 45c27 -3 97 6 126 -2c-5 -68 -9 -140 -28 -156
c-45 -64 -154 -44 -230 -44c-19 3 -36 9 -52 18c-71 50 -96 168 -91 276c4 49 6 95 22 139c35 79 152 108 247 84c124 -21 142 -136 134 -248c-28 -8 -226 -16 -268 -8zM282 406c-11 7 -20 10 -35 10c-63 0 -78 -29 -83 -65c-5 -28 -5 -22 94 -22c69 0 63 -8 63 12
c0 27 -15 53 -39 65z" />
    <glyph glyph-name="idieresis" unicode="&#xef;" horiz-adv-x="355" 
d="M17 760l136 -3c0 -17 3 -88 3 -128c-12 -18 -83 -4 -135 -7c0 39 -5 77 -4 138zM201 760l136 -3c0 -17 3 -88 3 -128c-12 -18 -83 -4 -135 -7c0 39 -5 77 -4 138zM230 503h17v-3c-1 -161 -10 -333 -1 -494c-13 -15 -123 -1 -141 -6c13 169 -10 348 6 505v1
c5 1 21 -1 28 -1c17 -1 48 -3 91 -2z" />
    <glyph glyph-name="odieresis" unicode="&#xf6;" horiz-adv-x="466" 
d="M74 760l136 -3c0 -17 3 -88 3 -128c-12 -18 -83 -4 -135 -7c0 39 -5 77 -4 138zM258 760l136 -3c0 -17 3 -88 3 -128c-12 -18 -83 -4 -135 -7c0 39 -5 77 -4 138zM61 456c19 41 87 58 150 58c27 -3 50 2 78 -1c43 -3 83 -16 111 -43c38 -25 38 -110 41 -198
c-3 -78 -6 -209 -32 -235c-46 -65 -155 -44 -232 -44c-34 6 -63 21 -86 44c-72 64 -43 201 -51 288c0 24 1 47 5 72c1 15 12 44 16 59zM186 338c-4 -3 -7 -9 -9 -20c-5 -43 -3 -83 -6 -130c-3 -61 80 -64 115 -45c11 5 19 16 23 33c5 43 11 87 3 126c-7 47 -40 70 -92 58
c-14 -4 -25 -11 -34 -22z" />
    <glyph glyph-name="udieresis" unicode="&#xfc;" horiz-adv-x="456" 
d="M67 760l136 -3c0 -17 3 -88 3 -128c-12 -18 -83 -4 -135 -7c0 39 -5 77 -4 138zM251 760l136 -3c0 -17 3 -88 3 -128c-12 -18 -83 -4 -135 -7c0 39 -5 77 -4 138zM291 54c-7 -4 -18 -10 -25 -15c-55 -40 -146 -50 -201 -3c-43 36 -13 326 -21 462c47 7 78 4 125 4
c5 -61 -1 -160 4 -232c3 -33 4 -81 25 -97c1 -1 3 -1 4 -2c22 -11 90 -18 95 54c5 91 -12 181 1 268v4c46 13 60 1 124 6c0 -164 6 -325 1 -501c-32 3 -38 3 -70 0c-11 0 -60 -10 -60 -1c-3 23 -1 34 -2 53z" />
    <glyph glyph-name="yacute" unicode="&#xfd;" horiz-adv-x="483" 
d="M324 754l69 -70l-1 -1c-18 -18 -91 -76 -101 -96c-43 -5 -116 -1 -134 4c46 43 120 126 167 163zM182 497c19 -96 49 -280 78 -360c29 80 34 282 66 362c45 -1 90 4 146 0c-21 -80 -37 -152 -53 -221c-52 -195 -54 -475 -394 -455c-13 40 -13 96 -6 133
c65 0 144 -21 131 68c-28 161 -75 325 -116 476c48 -5 105 2 148 -3z" />
    <glyph glyph-name="ydieresis" unicode="&#xff;" horiz-adv-x="489" 
d="M102 760l136 -3c0 -17 3 -88 3 -128c-12 -18 -83 -4 -135 -7c0 39 -5 77 -4 138zM286 760l136 -3c0 -17 3 -88 3 -128c-12 -18 -83 -4 -135 -7c0 39 -5 77 -4 138zM187 497c19 -96 49 -280 78 -360c29 80 34 282 66 362c45 -1 90 4 146 0c-21 -80 -37 -152 -53 -221
c-52 -195 -54 -475 -394 -455c-13 40 -13 96 -6 133c65 0 144 -21 131 68c-28 161 -75 325 -116 476c48 -5 105 2 148 -3z" />
    <glyph glyph-name="Igrave" unicode="&#xcc;" horiz-adv-x="274" 
d="M12 847l69 70c47 -37 121 -120 167 -163c-19 -5 -92 -9 -134 -4c-13 20 -82 77 -101 96zM226 703h24v-4c0 -229 -14 -467 -1 -694c-22 -22 -154 -1 -182 -9c19 241 -16 486 8 710v2c7 1 32 -2 41 -2c24 -1 50 -4 110 -3z" />
    <glyph glyph-name="Iacute" unicode="&#xcd;" horiz-adv-x="301" 
d="M193 703h24v-4c0 -229 -14 -467 -1 -694c-22 -22 -154 -1 -182 -9c19 241 -16 486 8 710v2c7 1 32 -2 41 -2c24 -1 50 -4 110 -3zM221 917l69 -70l-1 -1c-18 -18 -91 -76 -101 -96c-43 -5 -116 -1 -134 4c46 43 120 126 167 163z" />
    <glyph glyph-name="Icircumflex" unicode="&#xce;" horiz-adv-x="348" 
d="M176 918l163 -162c-3 3 -51 -13 -115 -5c-10 0 -38 41 -51 49c-10 -5 -42 -46 -52 -49c-24 -3 -19 -1 -107 4c45 61 103 108 162 163zM230 703h24v-4c0 -229 -14 -467 -1 -694c-22 -22 -154 -1 -182 -9c19 241 -16 486 8 710v2c7 1 32 -2 41 -2c24 -1 50 -4 110 -3z" />
    <glyph glyph-name="d" unicode="d" horiz-adv-x="456" 
d="M288 692v11c0 3 82 9 126 1v-66c0 -223 11 -445 6 -637c-41 0 -95 -4 -135 1c-1 1 -1 4 -1 7c0 13 -1 18 -1 33c-3 7 -6 12 -10 4c-20 -40 -56 -48 -93 -43c-151 11 -165 148 -168 282c0 93 22 182 81 203c72 27 187 11 192 -13c-4 188 -1 138 3 217zM133 315
c-7 -19 -7 -39 -7 -58c0 -67 34 -131 91 -131c68 0 72 61 72 145c0 103 -4 115 -61 115c-55 0 -88 -24 -95 -71z" />
    <glyph glyph-name="period" unicode="." horiz-adv-x="188" 
d="M150 0l-113 1h-3c-5 30 -1 97 -1 116c27 11 107 10 125 2c0 -2 -6 -98 -6 -117v-1v-1h-2z" />
    <glyph glyph-name="ellipsis" unicode="&#x2026;" horiz-adv-x="522" 
d="M152 0l-113 1h-3c-5 30 -1 97 -1 116c27 11 107 10 125 2c0 -2 -6 -98 -6 -117v-1v-1h-2zM317 0l-113 1h-3c-5 32 -1 95 -1 116c27 11 107 10 125 2c0 -2 -6 -98 -6 -117v-1v-1h-2zM483 0l-113 1h-3c-5 30 -1 97 -1 116c27 11 107 10 125 2c0 -2 -6 -98 -6 -117v-1v-1h-2
z" />
    <glyph glyph-name="equal" unicode="=" horiz-adv-x="447" 
d="M31 326c0 27 3 129 3 137h379c1 -47 -5 -98 3 -143h-1c-20 0 -364 6 -384 6zM31 119c0 27 3 129 3 137h379c1 -47 -5 -98 3 -143h-1c-20 0 -364 6 -384 6z" />
    <glyph glyph-name="grave" unicode="`" horiz-adv-x="255" 
d="M13 620l69 70c47 -37 121 -120 167 -163c-19 -5 -92 -9 -134 -4c-13 20 -82 77 -101 96z" />
    <glyph glyph-name="Adieresis" unicode="&#xc4;" horiz-adv-x="463" 
d="M181 758l-97 1h-3c-5 26 -1 84 -1 101c25 8 90 9 109 1c0 -2 -6 -83 -6 -101v-1v-1h-2zM355 758l-97 1h-3c-5 26 -1 84 -1 101c25 8 90 9 109 1c0 -2 -6 -83 -6 -101v-1v-1h-2zM374 351l75 -350v-1c-40 -8 -91 -5 -134 4h-1c-16 43 -29 124 -47 163c-34 5 -32 1 -62 1
c-18 -42 -21 -123 -44 -167c-1 0 -2 -1 -3 -1c-11 -3 -49 2 -140 1c-1 0 -1 0 -2 1c8 27 57 378 153 698c19 3 35 -3 123 5c12 -52 66 -287 82 -354zM272 286c-40 345 -46 205 -74 0c23 -1 49 0 74 0z" />
    <glyph glyph-name="Idieresis" unicode="&#xcf;" horiz-adv-x="316" 
d="M218 703h24v-4c0 -229 -14 -467 -1 -694c-22 -22 -154 -1 -182 -9c19 241 -16 486 8 710v2c7 1 32 -2 41 -2c24 -1 50 -4 110 -3zM122 758l-97 1h-3c-5 26 -1 84 -1 101c25 8 90 9 109 1c0 -2 -6 -83 -6 -101v-1v-1h-2zM296 758l-97 1h-3c-5 26 -1 84 -1 101
c25 8 90 9 109 1c0 -2 -6 -83 -6 -101v-1v-1h-2z" />
    <glyph glyph-name="colon" unicode=":" horiz-adv-x="189" 
d="M150 0l-113 1h-3c-5 30 -1 97 -1 116c27 11 107 10 125 2c0 -2 -6 -98 -6 -117v-1v-1h-2zM150 336l-113 1h-3c-5 30 -1 97 -1 116c27 11 107 10 125 2c0 -2 -6 -98 -6 -117v-1v-1h-2z" />
    <glyph glyph-name="divide" unicode="&#xf7;" horiz-adv-x="440" 
d="M9 171c0 23 2 110 2 116h419c1 -40 -5 -82 2 -121h-1c-16 0 -406 5 -422 5zM271 0l-113 1h-3c-5 30 -1 97 -1 116c27 11 107 10 125 2c0 -2 -6 -98 -6 -117v-1v-1h-2zM271 336l-113 1h-3c-5 30 -1 97 -1 116c27 11 107 10 125 2c0 -2 -6 -98 -6 -117v-1v-1h-2z" />
    <glyph glyph-name="semicolon" unicode=";" horiz-adv-x="176" 
d="M141 336l-113 1h-3c-5 30 -1 97 -1 116c27 11 107 10 125 2c0 -2 -6 -98 -6 -117v-1v-1h-2zM138 -21l-8 -40c-3 -13 -5 -26 -8 -39c-7 3 -30 1 -69 2c-4 4 15 61 20 97l-47 4c-1 0 -2 0 -3 1c0 3 -1 6 4 115v1h1c35 11 73 2 120 -1h1l-4 -115h-2c0 -1 -1 -2 -1 -3
c0 -5 -3 -15 -4 -22z" />
    <glyph glyph-name="comma" unicode="," horiz-adv-x="171" 
d="M136 -21l-8 -40c-3 -13 -5 -26 -8 -39c-7 3 -30 1 -69 2c-4 4 15 61 20 97l-47 4c-1 0 -2 0 -3 1c0 3 -1 6 4 115v1h1c35 11 73 2 120 -1h1l-4 -115h-2c0 -1 -1 -2 -1 -3c0 -5 -3 -15 -4 -22z" />
    <glyph glyph-name="quotesinglbase" unicode="&#x201a;" horiz-adv-x="206" 
d="M125 -92h-1c-11 0 -106 -14 -108 -2c12 44 60 227 64 246c-1 -1 86 2 113 1v-1c-32 -120 -35 -150 -67 -242c0 0 0 -1 -1 -2z" />
    <glyph glyph-name="quotedblleft" unicode="&#x201c;" horiz-adv-x="380" 
d="M89 702h1c11 0 105 14 108 2c-10 -44 -59 -228 -64 -246c1 1 -86 -2 -113 -1v1c32 120 35 150 67 242c0 0 0 1 1 2zM249 702h1c11 0 105 14 108 2c-10 -44 -59 -228 -64 -246c1 1 -86 -2 -113 -1v1c32 120 35 150 67 242c0 0 0 1 1 2z" />
    <glyph glyph-name="quotedblright" unicode="&#x201d;" horiz-adv-x="380" 
d="M291 464h-1c-11 0 -106 -14 -108 -2c12 44 60 227 64 246c-1 -1 86 2 113 1v-1c-32 -120 -35 -150 -67 -242c0 0 0 -1 -1 -2zM131 464h-1c-11 0 -106 -14 -108 -2c12 44 60 227 64 246c-1 -1 86 2 113 1v-1c-32 -120 -35 -150 -67 -242c0 0 0 -1 -1 -2z" />
    <glyph glyph-name="quoteleft" unicode="&#x2018;" horiz-adv-x="206" 
d="M125 464h-1c-11 0 -106 -14 -108 -2c12 44 60 227 64 246c-1 -1 86 2 113 1v-1c-32 -120 -35 -150 -67 -242c0 0 0 -1 -1 -2z" />
    <glyph glyph-name="quoteright" unicode="&#x2019;" horiz-adv-x="206" 
d="M125 464h-1c-11 0 -106 -14 -108 -2c12 44 60 227 64 246c-1 -1 86 2 113 1v-1c-32 -120 -35 -150 -67 -242c0 0 0 -1 -1 -2z" />
    <glyph glyph-name="quotedblbase" unicode="&#x201e;" horiz-adv-x="380" 
d="M89 146h1c11 0 105 14 108 2c-10 -44 -59 -228 -64 -246c1 1 -86 -2 -113 -1v1c32 120 35 150 67 242c0 0 0 1 1 2zM249 146h1c11 0 105 14 108 2c-10 -44 -59 -228 -64 -246c1 1 -86 -2 -113 -1v1c32 120 35 150 67 242c0 0 0 1 1 2z" />
    <glyph glyph-name="questiondown" unicode="&#xbf;" horiz-adv-x="449" 
d="M312 417l-2 -38c-7 -43 -14 -82 -39 -119c-28 -56 -148 -162 -50 -195c59 -27 61 42 95 55c41 4 82 -1 122 -2v-1c-5 -101 -83 -203 -197 -208c-123 -13 -230 79 -217 196c5 43 24 77 47 106c21 29 40 42 60 69c28 39 40 75 49 122c3 11 7 23 4 34v1c41 5 82 -1 123 2h1
c5 -5 4 -15 4 -22zM195 616l113 -1h3c5 -30 1 -97 1 -116c-29 -10 -106 -10 -125 -2c0 3 6 97 6 117v1v1h2z" />
    <glyph glyph-name="bar" unicode="|" horiz-adv-x="176" 
d="M145 -28h-9c-32 0 -95 3 -103 3v626v125c55 0 56 -5 110 3v-1c0 -22 2 -734 2 -756z" />
    <glyph glyph-name="backslash" unicode="\" horiz-adv-x="394" 
d="M249 7l-57 144c-8 20 -15 40 -22 60c-27 72 -49 144 -74 217c-12 36 -26 73 -39 110c-27 88 -39 126 -44 145c-3 8 -3 11 -6 18c32 16 94 0 132 8c19 -75 46 -150 49 -155c13 -39 23 -77 38 -116c80 -216 89 -242 94 -260c13 -29 23 -59 32 -88c2 -10 38 -91 26 -91h-1
c-92 3 -110 0 -125 3c-1 1 -2 2 -3 5z" />
    <glyph glyph-name="percent" unicode="%" horiz-adv-x="610" 
d="M298 151l-57 -144c-1 -3 -2 -4 -3 -5c-16 -3 -34 0 -125 -3h-1c-12 0 24 81 26 91c9 29 19 59 32 88c5 18 14 44 94 260c15 39 25 77 38 116c3 5 30 80 49 155c38 -8 100 8 132 -8c-3 -7 -3 -10 -6 -18c-5 -19 -17 -57 -44 -145c-13 -37 -27 -74 -39 -110
c-25 -73 -47 -145 -74 -217c-7 -20 -14 -40 -22 -60zM21 488l-1 25l2 25c5 37 5 78 32 107c19 23 43 37 74 38c68 3 102 -51 113 -104c3 -21 5 -39 4 -58c3 -75 -27 -184 -119 -179c-17 1 -33 5 -48 13c-31 20 -42 41 -49 73c-3 21 -5 40 -8 59v1zM99 552l5 -73
c1 -13 1 -25 2 -38c0 -16 17 -24 32 -19c20 7 21 24 24 40c0 4 1 7 1 11c3 39 2 80 -9 119c-1 3 -2 2 -3 5c-7 9 -17 15 -30 8c-6 -2 -11 -6 -16 -13c-7 -11 -7 -24 -6 -39v-1zM364 171l-1 25l2 25c5 37 5 78 32 107c19 23 43 37 74 38c68 3 102 -51 113 -104
c3 -21 5 -39 4 -58c3 -75 -27 -184 -119 -179c-17 1 -33 5 -48 13c-31 20 -42 41 -49 73c-3 21 -5 40 -8 59v1zM442 235l5 -73c1 -13 1 -25 2 -38c0 -16 17 -24 32 -19c20 7 21 24 24 40c0 4 1 7 1 11c3 39 2 80 -9 119c-1 3 -2 2 -3 5c-7 9 -17 15 -30 8
c-6 -2 -11 -6 -16 -13c-7 -11 -7 -24 -6 -39v-1z" />
    <glyph glyph-name="less" unicode="&#x3c;" horiz-adv-x="355" 
d="M334 93l-11 -10l-16 -16c-6 -6 -11 -13 -51 -48l-1 1c-80 82 -176 148 -251 250c50 63 127 135 188 199c20 21 38 40 57 59c23 -13 52 -53 76 -69c-39 -50 -125 -128 -176 -192c63 -55 121 -122 185 -174z" />
    <glyph glyph-name="greater" unicode="&#x3e;" horiz-adv-x="356" 
d="M33 83l-11 10c64 52 122 119 185 174c-53 64 -136 142 -176 192c24 16 52 56 76 69c19 -19 37 -38 57 -59c61 -64 138 -136 188 -199c-77 -101 -171 -167 -251 -250l-1 -1c-40 35 -46 43 -51 48z" />
    <glyph glyph-name="endash" unicode="&#x2013;" horiz-adv-x="444" 
d="M31 166c0 32 3 181 3 190h375c0 -55 0 -80 3 -197h-1c-22 0 -358 7 -380 7z" />
    <glyph glyph-name="at" unicode="@" horiz-adv-x="554" 
d="M386 464l3 -2c7 -8 11 -19 10 -34c0 -8 -1 -18 -1 -29c-1 -17 -1 -38 -1 -58c0 -51 4 -101 21 -104c10 8 16 61 16 83c1 23 0 41 -1 60v28c-3 57 -17 117 -71 147h1c-19 9 -49 14 -72 17c-8 1 -19 2 -27 2c-36 0 -72 -9 -99 -36c-38 -41 -41 -109 -44 -166
c-1 -15 -1 -30 -1 -45c0 -41 3 -85 10 -126c8 -53 21 -90 57 -113c25 -15 66 -19 99 -19c11 0 22 1 30 1h-1c48 3 124 30 172 54l38 -82c-36 -23 -101 -52 -139 -57c-31 -7 -64 -8 -99 -8c-24 0 -47 1 -69 3c-53 7 -102 30 -134 73c-25 36 -47 103 -50 142
c-4 68 -7 117 -7 181v30c1 64 7 129 50 184c37 47 90 59 146 66c15 3 35 3 51 3c28 0 56 -3 83 -7c39 -5 76 -21 107 -50c61 -55 63 -149 63 -222v-54c0 -40 -1 -59 -6 -90c-9 -51 -52 -81 -109 -82c-15 0 -29 6 -41 13c-3 3 -11 11 -18 20c-22 -18 -49 -27 -81 -27
c-35 0 -63 12 -85 36c-27 31 -30 82 -29 119c1 43 15 80 42 111c21 27 75 53 127 53c21 0 42 -4 59 -15zM243 289v-3c0 -24 20 -39 43 -28c23 9 27 35 27 62c0 12 2 62 5 62c-27 3 -49 1 -61 -23c-15 -24 -14 -47 -14 -70z" />
    <glyph glyph-name="quotesingle" unicode="'" horiz-adv-x="175" 
d="M34 704h1c11 0 102 14 108 2c0 -44 2 -227 2 -246c1 1 -86 -2 -113 -1v1c0 121 -3 149 2 242v2z" />
    <glyph glyph-name="quotedbl" unicode="&#x22;" horiz-adv-x="373" 
d="M36 704h1c11 0 102 14 108 2c0 -44 2 -227 2 -246c1 1 -86 -2 -113 -1v1c0 121 -3 149 2 242v2zM229 704h1c11 0 102 14 108 2c0 -44 2 -227 2 -246c1 1 -86 -2 -113 -1v1c0 121 -3 149 2 242v2z" />
    <glyph glyph-name="emdash" unicode="&#x2014;" horiz-adv-x="682" 
d="M32 160c0 32 3 186 3 196h515h97c0 -55 -5 -149 3 -203h-1c-22 0 -595 7 -617 7z" />
    <glyph glyph-name="underscore" unicode="_" horiz-adv-x="632" 
d="M31 -42c23 0 546 5 569 5h1c-8 -54 -4 -58 -4 -113c-46 0 -560 2 -564 2c0 8 -2 74 -2 106z" />
    <glyph glyph-name="a" unicode="a" horiz-adv-x="484" 
d="M444 498c1 -8 2 -16 2 -24v-10c-4 -144 7 -281 -2 -424c0 -17 3 -38 -13 -41h-12c-21 0 -44 3 -65 3c-15 0 -28 -3 -43 -3c-9 3 -12 11 -12 22c0 15 4 22 4 35c-32 -32 -85 -58 -132 -58c-103 0 -147 161 -147 268c0 133 74 228 168 231c48 0 83 0 102 -46
c-1 21 4 35 4 51c0 3 40 1 48 1c23 -1 55 -2 98 -5zM153 299c-5 -17 -6 -36 -6 -53c0 -60 33 -108 89 -108c66 0 62 46 62 121c0 93 3 104 -52 104s-86 -31 -93 -64z" />
    <glyph glyph-name="Ccedilla" unicode="&#xc7;" horiz-adv-x="491" 
d="M31 524c0 5 0 8 1 11c5 55 23 106 64 141c27 17 63 18 94 17c47 1 93 1 134 -14c98 -40 148 -170 116 -271c-1 0 -2 -1 -3 -1c-45 -11 -85 -5 -132 2h-2c-16 41 5 117 -54 130c-2 1 -5 1 -10 1c-37 3 -63 -25 -66 -60c-4 -88 -6 -175 2 -262c7 -32 21 -63 53 -72
c28 -3 56 7 69 34c13 28 8 63 12 94c32 0 93 7 130 -4c40 -125 -33 -272 -172 -280h-2l-1 1c-7 -29 -19 -81 -30 -116v-2c-31 3 -65 -5 -89 -1c-1 0 -1 1 -1 3c0 14 21 77 26 115v3c-108 -13 -139 94 -142 191v10c-3 103 -4 221 3 330z" />
    <glyph glyph-name="ccedilla" unicode="&#xe7;" horiz-adv-x="457" 
d="M295 -12c-8 -29 -41 -111 -46 -135v-1c-21 0 -109 -1 -109 1c40 106 32 88 48 137l-13 1c-34 6 -63 21 -86 44c-72 64 -41 201 -52 288c0 24 2 48 6 72c1 15 12 46 16 59c19 41 87 58 150 58c27 -3 50 2 78 -1c43 -3 83 -15 111 -42c38 -27 36 -92 39 -180
c-34 -8 -93 0 -127 5c-7 47 -40 77 -92 64c-14 -4 -25 -11 -34 -22c-4 -3 -7 -9 -9 -20c-5 -41 -3 -83 -6 -130c-5 -62 84 -66 115 -45c13 9 20 36 24 53c27 -3 99 6 127 -2c-5 -69 -10 -139 -28 -157c-24 -35 -65 -44 -112 -47zM438 -88l1 -2c-1 0 -1 0 -1 1v1z" />
    <glyph glyph-name="AE" unicode="&#xc6;" horiz-adv-x="755" 
d="M722 137v-3c3 -45 1 -87 -6 -128l-2 -2c-137 0 -281 -7 -410 1c-9 39 -21 73 -28 110v1c-34 0 -9 2 -69 2h-2s0 -1 -1 -2c-11 -37 -24 -77 -32 -113c-1 -1 -2 -1 -3 -2c-44 0 -89 4 -137 -1c-3 0 -3 -1 -6 -1c53 298 -4 38 151 694c181 8 524 8 542 8v-1v-1
c5 -47 0 -95 0 -142v-2c-85 -19 -180 0 -267 -13c3 -37 -10 -82 3 -117c37 -7 82 1 121 -6c9 -43 2 -92 2 -139c-39 -8 -110 1 -121 -10c-3 -41 -7 -101 6 -127h1c88 -4 178 1 258 -6zM278 287c-7 43 -24 88 -35 131l-1 3c-24 -66 -27 -78 -32 -137h1h1c19 6 52 -8 66 3z
" />
    <glyph glyph-name="ae" unicode="&#xe6;" horiz-adv-x="783" 
d="M505 249v-17c1 -39 0 -59 15 -82c32 -55 123 -60 118 43c25 -3 92 6 118 -2c-5 -65 -8 -132 -26 -148c-43 -59 -146 -40 -217 -40c-40 7 -69 28 -89 56c-15 -12 -31 -25 -52 -38c-156 -88 -363 37 -260 212c43 67 177 72 243 35c-3 58 2 68 -3 83
c-16 72 -121 56 -121 -12c-32 -5 -98 -12 -124 1c-20 158 247 182 322 111c49 43 130 58 203 39c118 -21 134 -128 126 -233c-27 -8 -213 -16 -253 -8zM244 97c127 -21 114 84 82 103c-40 19 -80 24 -115 -7c-23 -23 -42 -85 33 -96zM620 395c-11 5 -20 9 -33 9
c-60 0 -73 -28 -79 -61c-5 -27 -5 -21 89 -21c66 0 59 -9 59 11c0 25 -13 51 -36 62z" />
    <glyph glyph-name="Oslash" unicode="&#xd8;" horiz-adv-x="482" 
d="M452 434c-1 -103 2 -203 -17 -303c-16 -72 -71 -121 -144 -128c-37 -4 -78 -1 -110 -5h-1h-1c0 -1 -2 -7 -13 -15l-1 -1h1c-26 -5 -91 0 -132 -3c-5 8 19 69 26 88c0 1 1 1 1 2s-1 1 -1 2c-33 131 -34 261 -26 394c5 48 -1 100 22 144c11 23 24 43 40 59l3 3
c49 38 121 35 180 30c5 3 0 22 10 22h1c42 -5 112 8 135 -7c-1 -27 -21 -48 -18 -71c50 -58 50 -138 45 -211zM142 279c27 85 64 188 93 283v1h-1h-7c-27 -3 -57 -26 -68 -53c-7 -43 -5 -84 -12 -127c-1 -8 -2 -15 -3 -23c-3 -24 -7 -65 -2 -81zM323 391v4
c-27 -72 -64 -181 -93 -264c1 0 1 -1 2 -1c27 5 77 23 87 57c21 88 4 161 4 204z" />
    <glyph glyph-name="oslash" unicode="&#xf8;" horiz-adv-x="358" 
d="M329 298c0 -73 2 -144 -11 -216c-12 -51 -52 -86 -103 -91c-27 -3 -56 -1 -79 -4h-1c0 -1 -3 -4 -9 -10l-1 -1h1c-18 -5 -65 -2 -94 -2c-3 6 13 48 18 63l1 1c0 1 -1 1 -1 2c-23 92 -25 184 -18 280c4 33 -1 71 15 102c8 17 17 31 28 42l3 3c35 27 86 26 129 21
c3 3 -1 16 6 16h1c31 -6 79 5 96 -6c-1 -19 -15 -34 -12 -50c35 -41 35 -98 31 -150zM109 188c19 60 45 133 66 201v1h-1h-4c-20 -3 -41 -19 -49 -38c-5 -31 -5 -59 -8 -90c-1 -7 -2 -12 -3 -17c-1 -17 -6 -46 -1 -57zM238 268v2c-21 -50 -46 -129 -67 -188c1 0 1 0 1 -1
c20 4 55 17 63 41c16 63 3 114 3 146z" />
    <glyph glyph-name="numbersign" unicode="#" horiz-adv-x="656" 
d="M632 478l7 -92l-106 -3c-15 -43 -27 -83 -42 -126c15 -1 62 1 130 -4c8 -21 2 -33 7 -93v-2c-43 -5 -65 -1 -171 -4h-1h-2c-6 -9 -33 -104 -59 -152l-1 -1h-2c-3 0 -33 -3 -114 0c15 59 38 107 51 156h-1s-25 2 -116 0c-21 -62 -15 -37 -47 -120c-4 -13 -6 -20 -14 -35
c-1 -1 -4 -2 -8 -2c-13 1 -47 3 -107 0c11 56 32 104 51 155c-23 0 -46 -3 -66 -2c-3 35 -2 73 -3 109c2 -2 20 -8 110 -5c7 7 9 33 41 126c0 0 -7 0 -138 -1l-2 108c1 1 6 -8 143 -5c9 0 23 -1 31 0c0 1 1 1 1 2c8 16 39 114 47 150v1c7 -2 33 -2 119 -5
c0 -6 -9 -31 -44 -147c36 -1 71 1 119 0c11 17 29 73 50 153h1h1c37 -7 76 3 113 -4c3 -16 -4 -24 -41 -152c21 0 42 -1 63 -1v-4zM247 257l125 1c0 1 1 2 1 3c9 41 28 78 40 122v1h-1h-1c-43 1 -80 2 -119 2h-2v-1c-15 -43 -28 -85 -43 -128z" />
    <glyph glyph-name="ampersand" unicode="&#x26;" horiz-adv-x="576" 
d="M559 34l-1 -5c-8 -29 -45 -30 -76 -30h-5c-48 0 -70 2 -109 39c-40 -27 -91 -36 -143 -39c-132 0 -201 114 -201 221c0 71 49 142 100 190c-32 43 -77 109 -77 170c0 85 97 151 193 151c102 0 172 -72 172 -152c0 -49 -28 -88 -53 -127c-8 -12 -16 -23 -23 -35
c-5 -7 -7 -12 -7 -13c0 -7 -9 -35 42 -102c7 11 10 25 10 40c3 25 15 46 58 46h71c23 0 37 -6 37 -37c0 -43 -14 -72 -29 -107v1c-3 -7 -5 -12 -8 -21c-3 -4 -6 -12 -10 -19c-7 -15 -17 -33 -17 -40c0 -8 14 -21 26 -37v1c19 -24 43 -51 50 -86v-9zM240 618
c-27 0 -43 -14 -43 -41c0 -26 18 -78 31 -75v-1c24 4 32 48 32 96c0 12 -5 21 -20 21zM268 142c8 3 25 11 25 12c0 16 35 149 -79 133c-25 -3 -43 -56 -38 -87c3 -28 17 -61 65 -61c11 0 20 2 27 3z" />
    <glyph glyph-name="asterisk" unicode="*" horiz-adv-x="370" 
d="M319 414l-65 -52c-1 -1 -2 -1 -3 0c-3 4 -16 18 -19 19c-10 10 -48 47 -53 49c-11 -5 -47 -46 -66 -59c-3 -3 -4 -4 -7 -4c-35 33 -57 55 -86 79c8 13 47 52 69 77c1 1 0 2 -1 5c-8 16 -64 73 -69 85c10 3 69 70 87 83l1 1c7 -2 68 -62 79 -70c2 2 77 71 74 68
c5 -7 77 -77 84 -84c-3 -24 -58 -60 -66 -82c5 0 65 -76 70 -79c3 -11 -24 -29 -29 -36z" />
    <glyph glyph-name="bullet" unicode="&#x2022;" horiz-adv-x="244" 
d="M39 201c-3 5 -6 11 -7 18c-3 20 -4 40 -3 60c0 17 1 36 4 52c1 3 0 5 3 8c3 7 7 13 12 16s9 6 14 8c3 1 8 3 15 4c3 0 6 1 9 1c15 1 31 0 47 0c12 0 24 1 35 -3c23 -7 44 -23 47 -46c4 -29 0 -59 -3 -88c-4 -19 -12 -36 -31 -44c-11 -5 -24 -6 -36 -7
c-19 -1 -37 0 -57 -3h-1c-19 -3 -37 9 -48 24z" />
    <glyph glyph-name="Ntilde" unicode="&#xd1;" horiz-adv-x="501" 
d="M472 17l-1 -14c-10 -23 -107 0 -147 -8h-1c-44 97 -85 207 -120 299c-7 -100 -9 -190 -5 -294c0 -1 0 -1 -1 -1c-41 -14 -111 9 -158 1c-1 0 -1 0 -1 1c3 226 -13 470 6 694c32 13 105 4 146 -7v-1c5 -26 85 -150 122 -213c13 48 -11 147 2 222v3c49 11 140 6 156 3
l-1 -320c3 -121 -1 -245 3 -365zM172 753v-1c-13 3 -41 4 -68 4c-15 0 -32 0 -49 -1c8 29 35 101 60 129c36 36 92 48 135 19c21 -13 30 -37 47 -48c40 -34 69 29 77 53c27 3 54 2 82 3l1 -1c0 -1 0 -1 1 -1c9 -43 -12 -92 -36 -127c-12 -14 -25 -23 -40 -28
c-43 -15 -102 -4 -121 44c-9 15 -19 23 -39 23c-11 0 -22 -4 -35 -9c-7 -5 -12 -11 -15 -19c-5 -15 -5 -24 0 -40z" />
    <glyph glyph-name="aring" unicode="&#xe5;" horiz-adv-x="470" 
d="M325 594c-12 -19 -37 -23 -60 -24c-19 -3 -37 -2 -56 -1s-38 12 -45 29c-7 37 -10 78 -1 114c2 7 6 13 11 20c19 17 47 23 78 20c28 -1 64 -8 79 -29c12 -41 10 -89 -6 -129zM219 702c-8 -5 -13 -11 -15 -20c-1 -7 -2 -12 -2 -17c0 -15 -1 -33 10 -44c7 -6 15 -9 25 -9
h10c15 1 36 0 43 15c3 13 6 30 5 45c-1 9 -4 17 -7 22c-11 11 -24 14 -39 14c-11 0 -21 -2 -30 -6zM437 498c1 -8 2 -16 2 -24v-10c-4 -144 7 -281 -2 -424c0 -17 3 -38 -13 -41h-12c-21 0 -44 3 -65 3c-15 0 -28 -3 -43 -3c-9 3 -12 11 -12 22c0 15 4 22 4 35
c-32 -32 -85 -58 -132 -58c-103 0 -147 161 -147 268c0 133 74 228 168 231c48 0 83 0 102 -46c-1 21 4 35 4 51c0 3 40 1 48 1c23 -1 55 -2 98 -5zM146 299c-5 -17 -6 -36 -6 -53c0 -60 33 -108 89 -108c66 0 62 46 62 121c0 93 3 104 -52 104s-86 -31 -93 -64z" />
    <glyph glyph-name="Yacute" unicode="&#xdd;" horiz-adv-x="455" 
d="M449 689v-1c-75 -238 -213 -455 -293 -689c-36 4 -95 -4 -142 -1h-2c35 108 85 228 130 344v2c-29 117 -98 231 -125 344c42 0 111 14 152 -2c15 -60 34 -122 59 -173c27 48 56 116 79 171c0 0 1 0 2 1c36 5 116 9 140 4zM317 917l69 -70l-1 -1c-18 -18 -91 -76 -101 -96
c-43 -5 -116 -1 -134 4c46 43 120 126 167 163z" />
    <glyph glyph-name="cent" unicode="&#xa2;" horiz-adv-x="353" 
d="M128 398c-3 -45 -3 -89 1 -133c1 -23 8 -48 28 -59c1 87 2 179 -1 266c-32 0 -25 -48 -28 -74zM193 206h1c35 13 25 58 30 87c24 -3 66 4 91 -4v-1c-1 -27 7 -55 4 -82c-8 -60 -65 -104 -124 -112h-2v-1c-3 -21 3 -44 -1 -63c-1 0 -2 -1 -3 -1c-7 -3 -23 -10 -30 1
c-3 20 -1 36 -2 63c-51 -8 -118 22 -126 83c-11 97 -4 165 -4 266c-8 75 41 165 129 144c4 16 1 40 2 60c4 7 24 12 35 4v-1c0 -24 -3 -46 0 -65h1c94 -3 149 -115 122 -199v-1c-36 -5 -65 -4 -100 3c-6 28 5 70 -23 87c-3 -109 0 -145 0 -268z" />
    <glyph glyph-name="sterling" unicode="&#xa3;" horiz-adv-x="474" 
d="M136 370h3h5h1c-5 117 -1 284 4 299c9 0 82 -2 117 6v-1c3 -108 3 -201 0 -308c100 -5 114 -7 131 -1h1c8 -61 -9 -125 -1 -133c-97 3 -111 -1 -132 -1c-5 -8 8 -60 11 -63c20 -1 175 -10 185 -11c-7 -111 -7 -150 -8 -155c-206 0 -297 -2 -310 9c5 68 1 156 -2 224
c-102 3 -122 0 -127 2c0 95 -4 116 -2 123c0 1 0 2 1 3c40 16 81 1 123 7z" />
    <glyph glyph-name="yen" unicode="&#xa5;" horiz-adv-x="522" 
d="M462 250v-1c-39 5 -94 -2 -139 -1c-15 -7 -15 -30 -26 -45l-1 -1c55 0 116 3 164 0c0 -25 -3 -69 2 -91c-59 1 -134 -2 -203 -5c-17 -31 -28 -70 -43 -105v-1h-1c-37 8 -93 -3 -140 1h-3c3 27 24 68 35 100c-22 8 -61 -4 -84 9v1c1 29 -2 69 5 88c41 -3 83 3 116 2v1
c7 13 11 24 18 39c0 1 0 2 1 3v1h-1c-38 3 -100 -7 -138 6c-4 29 0 52 0 85h2c57 7 116 2 176 5c0 1 -1 1 -1 2c-35 121 -100 236 -121 349c48 -5 95 5 144 0c19 -57 35 -123 62 -180c27 48 56 115 79 171c1 1 3 1 4 2c37 5 113 9 140 4c-39 -116 -88 -232 -147 -341
c16 -13 79 1 97 -9h1v-1c1 -27 -2 -65 2 -88z" />
    <glyph glyph-name="Ydieresis" unicode="&#x178;" horiz-adv-x="460" 
d="M454 689v-1c-75 -238 -213 -455 -293 -689c-36 4 -95 -4 -142 -1h-2c35 108 85 228 130 344v2c-29 117 -98 231 -125 344c42 0 111 14 152 -2c15 -60 34 -122 59 -173c27 48 56 116 79 171c0 0 1 0 2 1c36 5 116 9 140 4zM196 758l-97 1h-3c-5 26 -1 84 -1 101
c25 8 90 9 109 1c0 -2 -6 -83 -6 -101v-1v-1h-2zM370 758l-97 1h-3c-5 26 -1 84 -1 101c25 8 90 9 109 1c0 -2 -6 -83 -6 -101v-1v-1h-2z" />
    <glyph glyph-name="oe" unicode="&#x153;" horiz-adv-x="729" 
d="M496 -1l-14 2c-89 14 -110 76 -116 76c-32 -85 -147 -79 -193 -79c-103 0 -147 161 -147 268c0 134 74 230 168 233c48 0 154 14 178 -54c61 69 151 51 205 54c97 -16 127 -130 119 -242c-28 -8 -226 -16 -268 -8v-18c1 -40 0 -62 15 -86c32 -62 130 -63 125 45
c27 -3 97 6 126 -2c-5 -68 -9 -140 -28 -156c-15 -20 -83 -46 -170 -33zM549 404c-11 7 -20 10 -35 10c-63 0 -78 -29 -83 -65c-5 -28 -5 -22 94 -22c69 0 63 -8 63 12c0 27 -15 53 -39 65zM141 349c-5 -17 -11 -50 -11 -67c0 -60 -4 -182 76 -187c103 -8 90 129 90 204
c0 93 -16 109 -71 109s-77 -26 -84 -59z" />
    <glyph glyph-name="tilde" unicode="&#x2dc;" horiz-adv-x="449" 
d="M134 498c-13 3 -41 3 -68 3c-15 0 -32 0 -49 -1c8 30 36 100 60 129c35 35 95 49 136 19c21 -15 30 -35 49 -47c36 -36 68 28 76 51c28 3 53 2 82 3c1 0 2 -1 2 -2c11 -40 -12 -92 -38 -124c-11 -15 -21 -23 -38 -30c-47 -16 -101 -3 -122 43c-11 13 -20 24 -41 23
c-9 0 -19 -3 -32 -10c-8 -5 -14 -12 -17 -19c-5 -11 -4 -21 0 -38z" />
    <glyph glyph-name="dagger" unicode="&#x2020;" horiz-adv-x="249" 
d="M162 243v-1c-17 -1 -47 0 -66 -3c-8 59 -1 189 -4 261c-21 3 -59 -8 -82 5c-3 19 0 57 -1 76c27 4 60 -2 83 5c0 36 1 74 4 106c16 5 44 8 65 3c-4 -37 2 -68 -1 -109v-2c28 1 54 4 81 0c-1 -23 -2 -54 1 -77v-1c-19 1 -55 -3 -83 -2h-1c3 -88 0 -188 4 -261z" />
    <glyph glyph-name="daggerdbl" unicode="&#x2021;" horiz-adv-x="258" 
d="M14 426c29 4 57 2 82 3c1 27 3 44 0 73v1c-20 3 -55 -5 -79 3c-8 17 0 59 -3 77c28 4 58 1 82 4c-1 36 2 70 3 105v1c16 5 44 8 65 3c-1 -37 2 -69 1 -109c28 1 55 4 80 0c0 -23 0 -57 1 -78c-16 3 -53 -6 -81 -3h-1c-3 -23 -1 -55 2 -76c23 3 60 4 79 1
c1 -23 -1 -56 2 -77v-1c-19 -1 -50 -4 -81 -4h-2c3 -25 -1 -64 2 -104c-23 -4 -45 -3 -68 -3h-1c0 16 -4 75 -1 103c-21 5 -56 -3 -80 5c-5 16 1 57 -2 76z" />
    <glyph glyph-name="OE" unicode="&#x152;" horiz-adv-x="853" 
d="M825 137v-2c3 -44 4 -93 -9 -132h-1c-128 -3 -236 3 -367 -5c-95 -3 -162 -19 -250 -8c-76 8 -121 56 -144 119c-29 128 -7 264 -4 395c1 76 40 144 104 177c54 32 111 13 173 16c204 -4 462 1 497 1c1 -47 1 -100 -3 -147c-87 -16 -181 1 -265 -13l-1 -1
c3 -36 -10 -84 5 -115c39 -4 83 0 122 -5c0 -1 1 -2 1 -3c4 -47 0 -91 0 -140v-1h-1c-53 3 -70 0 -116 0h-1c-7 -5 -14 -107 2 -131h2c87 -3 175 -1 256 -5zM347 498c-3 5 -4 10 -7 15c-8 16 -18 28 -30 36c-29 19 -78 21 -105 2c-19 -15 -29 -39 -33 -67
c-3 -27 -2 -51 -2 -72c8 -64 -5 -124 3 -185c3 -27 15 -69 40 -92c23 -21 57 -13 82 6c35 31 43 72 50 117c7 67 13 129 10 194c-1 15 -3 31 -8 46z" />
    <glyph glyph-name="florin" unicode="&#x192;" horiz-adv-x="467" 
d="M139 319h-3c-41 3 -84 -9 -123 7c-1 1 -1 2 -1 3c-2 7 2 28 2 123c5 2 25 -1 127 2c3 68 0 136 -5 204c12 10 104 9 310 9c0 -6 3 -43 8 -155c-9 -3 -166 -11 -185 -11c-2 -4 -10 -34 -4 -43c21 0 35 -4 132 -1c-8 -9 4 -56 1 -133h-1c-17 6 -31 4 -131 -1
c3 -108 -4 -220 -7 -328v-1c-35 8 -108 6 -117 6c-5 14 -2 203 3 319h-1h-5z" />
    <glyph glyph-name="asciitilde" unicode="~" horiz-adv-x="575" 
d="M170 134v-1c-16 4 -53 4 -88 4c-20 0 -41 0 -64 -1c10 39 44 131 78 170c45 45 121 62 177 25c27 -19 39 -48 61 -64c50 -45 92 38 100 69c35 3 72 3 108 4l3 -3c11 -57 -16 -119 -48 -165c-15 -18 -32 -30 -52 -37c-60 -22 -131 -3 -158 58c-12 17 -24 30 -51 29
c-14 0 -29 -4 -45 -12c-11 -7 -18 -15 -21 -24c-7 -19 -5 -31 0 -52z" />
    <glyph glyph-name="copyright" unicode="&#xa9;" horiz-adv-x="557" 
d="M497 249c-8 -31 -24 -58 -48 -81c-53 -53 -133 -50 -203 -55c-37 0 -73 3 -108 14c-59 27 -95 64 -102 120c-11 65 -10 131 -5 199c3 31 15 60 37 86c29 37 74 57 121 64c55 3 110 8 163 -3c28 -5 56 -15 83 -32c4 -3 8 -5 12 -8c91 -64 61 -195 50 -304zM419 482
c-15 19 -47 34 -82 41c-49 6 -99 6 -148 0c-3 0 -2 -1 -5 -1c-45 -8 -75 -42 -80 -81c-8 -60 -2 -121 2 -178c0 -45 49 -76 100 -79c44 4 99 2 146 11c52 8 76 58 81 104c3 35 5 71 4 107c-1 27 1 53 -18 76zM239 426c-1 -1 -2 -3 -3 -6c0 -4 -4 -74 -1 -109
c1 -16 6 -31 21 -36c12 -1 23 2 30 13c3 12 2 25 3 38c15 -1 37 3 53 -2c16 -53 -19 -112 -76 -112c-35 -5 -84 7 -87 50c-3 37 -3 79 -2 162c-1 9 2 18 5 25c5 15 12 26 21 34c5 4 13 7 20 10c69 21 144 -42 120 -115c-21 -3 -37 -1 -56 2c-3 22 0 53 -29 53
c-5 -3 -15 -3 -19 -7z" />
    <glyph glyph-name="ordfeminine" unicode="&#xaa;" horiz-adv-x="274" 
d="M238 723c0 -4 2 -8 2 -12v-4c-3 -75 3 -144 -2 -217c0 -9 2 -20 -7 -21h-6c-11 0 -22 1 -33 1c-8 0 -15 -1 -23 -1c-4 1 -6 5 -6 11c0 8 3 11 3 18c-16 -17 -44 -30 -68 -30c-53 0 -74 81 -74 137c0 68 37 118 85 118c23 0 44 0 52 -24c0 11 2 18 2 26c0 3 21 0 25 1
c12 -1 27 -2 50 -3zM90 621c-4 -8 -4 -17 -4 -26c0 -31 19 -56 46 -56c33 0 31 24 31 63c0 47 3 52 -26 52c-28 0 -44 -14 -47 -33z" />
    <glyph glyph-name="dieresis" unicode="&#xa8;" horiz-adv-x="349" 
d="M136 521l-97 1h-3c-5 26 -1 84 -1 101c25 8 90 9 109 1c0 -2 -6 -83 -6 -101v-1v-1h-2zM310 521l-97 1h-3c-5 26 -1 84 -1 101c25 8 90 9 109 1c0 -2 -6 -83 -6 -101v-1v-1h-2z" />
    <glyph glyph-name="circumflex" unicode="&#x2c6;" horiz-adv-x="347" 
d="M173 691l163 -162c-3 3 -51 -13 -115 -5c-10 0 -38 41 -51 49c-10 -5 -42 -46 -52 -49c-24 -3 -19 -1 -107 4c45 61 103 108 162 163z" />
    <glyph glyph-name="registered" unicode="&#xae;" horiz-adv-x="552" 
d="M494 237c-9 -26 -24 -49 -45 -69c-53 -53 -133 -50 -203 -55c-37 0 -73 3 -108 14c-59 27 -95 64 -102 120c-11 65 -10 131 -5 199c3 31 15 60 37 86c29 37 74 57 121 64c55 3 110 8 163 -3c28 -5 56 -15 83 -32c4 -3 8 -5 12 -8c82 -61 66 -174 53 -279
c-3 -12 -2 -25 -6 -37zM419 482c-15 19 -47 34 -82 41c-49 6 -99 6 -148 0c-3 0 -2 -1 -5 -1c-45 -8 -75 -42 -80 -81l-3 -33c-3 -40 1 -81 2 -120s8 -74 51 -91c8 -4 17 -7 26 -9c49 -7 104 0 157 4l15 3c52 8 76 58 81 104c3 35 5 71 4 107c-1 27 1 53 -18 76zM368 216
c-19 0 -42 -3 -65 -2h-1c-13 26 -34 76 -57 102l-1 2c-6 -25 2 -78 2 -99c-19 -5 -67 -5 -71 -5c3 0 2 257 -2 284c29 4 66 9 107 6c63 -5 104 -73 71 -131c-11 -20 -27 -34 -52 -35h-2h-1v-1c24 -39 56 -77 72 -121zM232 442c1 -15 0 -38 1 -51h1c15 -1 28 -3 40 0
c21 5 24 38 9 50c-15 11 -32 8 -51 1z" />
    <glyph glyph-name="degree" unicode="&#xb0;" horiz-adv-x="301" 
d="M81 410c-22 11 -37 24 -44 41c-4 11 -5 20 -6 29c-3 35 -6 75 3 108c11 33 40 53 76 60c4 0 9 1 13 1c15 1 26 1 39 1c15 0 28 -1 41 -5c7 -3 11 -4 18 -7c11 -4 20 -10 28 -17c15 -12 21 -28 24 -47c3 -15 2 -29 2 -44c0 -47 -11 -101 -61 -119c-7 -3 -13 -4 -20 -5
c-39 -7 -77 -7 -113 4zM115 588c-14 -5 -23 -15 -26 -30c-3 -21 -1 -41 -1 -61c0 -19 11 -34 30 -37c19 -1 35 -1 54 2c3 0 5 1 8 1h1c23 3 29 18 32 37c3 11 3 20 4 31c3 15 3 30 -8 43c-5 6 -10 10 -16 12c-27 8 -54 6 -78 2z" />
    <glyph glyph-name="perthousand" unicode="&#x2030;" horiz-adv-x="856" 
d="M301 151l-57 -144c-1 -3 -2 -4 -3 -5c-16 -3 -34 0 -125 -3h-1c-12 0 24 81 26 91c9 29 19 59 32 88c5 18 14 44 94 260c15 39 25 77 38 116c3 5 30 80 49 155c38 -8 100 8 132 -8c-3 -7 -3 -10 -6 -18c-5 -19 -17 -57 -44 -145c-13 -37 -27 -74 -39 -110
c-25 -73 -47 -145 -74 -217c-7 -20 -14 -40 -22 -60zM24 488l-1 25l2 25c5 37 5 78 32 107c19 23 43 37 74 38c68 3 102 -51 113 -104c3 -21 5 -39 4 -58c3 -75 -27 -184 -119 -179c-17 1 -33 5 -48 13c-31 20 -42 41 -49 73c-3 21 -5 40 -8 59v1zM102 552l5 -73
c1 -13 1 -25 2 -38c0 -16 17 -24 32 -19c20 7 21 24 24 40c0 4 1 7 1 11c3 39 2 80 -9 119c-1 3 -2 2 -3 5c-7 9 -17 15 -30 8c-6 -2 -11 -6 -16 -13c-7 -11 -7 -24 -6 -39v-1zM367 149l-1 25l2 25c5 37 5 78 32 107c19 23 43 37 74 38c68 3 102 -51 113 -104
c3 -21 5 -39 4 -58c3 -75 -27 -184 -119 -179c-17 1 -33 5 -48 13c-31 20 -42 41 -49 73c-3 21 -5 40 -8 59v1zM445 213l5 -73c1 -13 1 -25 2 -38c0 -16 17 -24 32 -19c20 7 21 24 24 40c0 4 1 7 1 11c3 39 2 80 -9 119c-1 3 -2 2 -3 5c-7 9 -17 15 -30 8
c-6 -2 -11 -6 -16 -13c-7 -11 -7 -24 -6 -39v-1zM615 149l-1 25l2 25c5 37 5 78 32 107c19 23 43 37 74 38c68 3 102 -51 113 -104c3 -21 5 -39 4 -58c3 -75 -27 -184 -119 -179c-17 1 -33 5 -48 13c-31 20 -42 41 -49 73c-3 21 -5 40 -8 59v1zM693 213l5 -73
c1 -13 1 -25 2 -38c0 -16 17 -24 32 -19c20 7 21 24 24 40c0 4 1 7 1 11c3 39 2 80 -9 119c-1 3 -2 2 -3 5c-7 9 -17 15 -30 8c-6 -2 -11 -6 -16 -13c-7 -11 -7 -24 -6 -39v-1z" />
    <glyph glyph-name="Aring" unicode="&#xc5;" 
d="M304 777c-12 -19 -37 -23 -60 -24c-19 -3 -37 -2 -56 -1s-38 12 -45 29c-7 37 -10 78 -1 114c2 7 6 13 11 20c19 17 47 23 78 20c28 -1 64 -8 79 -29c12 -41 10 -89 -6 -129zM198 885c-8 -5 -13 -11 -15 -20c-1 -7 -2 -12 -2 -17c0 -15 -1 -33 10 -44c7 -6 15 -9 25 -9
h10c15 1 36 0 43 15c3 13 6 30 5 45c-1 9 -4 17 -7 22c-11 11 -24 14 -39 14c-11 0 -21 -2 -30 -6zM374 351l75 -350v-1c-40 -8 -91 -5 -134 4h-1c-16 43 -29 124 -47 163c-34 5 -32 1 -62 1c-18 -42 -21 -123 -44 -167c-1 0 -2 -1 -3 -1c-11 -3 -49 2 -140 1
c-1 0 -1 0 -2 1c8 27 57 378 153 698c19 3 35 -3 123 5c12 -52 66 -287 82 -354zM272 286c-40 345 -46 205 -74 0c23 -1 49 0 74 0z" />
    <glyph glyph-name="ordmasculine" unicode="&#xba;" horiz-adv-x="254" 
d="M50 606c1 3 3 4 4 5c19 21 38 35 69 36c59 3 94 -47 102 -96c3 -19 4 -36 3 -53c5 -69 -24 -168 -107 -163c-9 0 -20 2 -31 5c-59 24 -62 79 -62 132c-3 45 -5 94 22 134zM116 408c6 -3 11 -3 16 -1c11 4 15 13 18 21c4 15 4 28 5 43c3 30 2 78 -12 97c-7 9 -16 11 -27 7
c-7 -1 -12 -7 -15 -12c-3 -4 -5 -17 -6 -32c-4 -37 -5 -65 3 -96c4 -11 5 -24 18 -27z" />
    <glyph glyph-name="ntilde" unicode="&#xf1;" horiz-adv-x="462" 
d="M170 446c7 4 18 10 25 15c55 40 146 50 201 3c42 -38 13 -324 21 -462c-47 -7 -78 -4 -125 -4c-5 61 1 160 -4 232c-3 33 -4 81 -25 97c-1 1 -3 1 -4 2c-22 11 -90 18 -95 -54c-5 -92 10 -180 -1 -268v-4c-46 -13 -60 -1 -124 -6c0 164 -6 325 -1 501c32 -3 38 -3 70 0
c11 0 60 10 60 1c3 -23 1 -34 2 -53zM143 590v-1c-13 3 -41 4 -68 4c-15 0 -32 0 -49 -1c8 29 35 101 60 129c36 36 92 48 135 19c21 -13 30 -37 47 -48c40 -34 69 29 77 53c27 3 54 2 82 3l1 -1c0 -1 0 -1 1 -1v-1c8 -62 -25 -148 -95 -159c-41 -7 -85 8 -102 49
c-8 13 -18 22 -35 23c-15 0 -40 -5 -51 -22l-3 -6c-5 -15 -5 -24 0 -40z" />
    <glyph glyph-name="onequarter" unicode="&#xbc;" horiz-adv-x="593" 
d="M215 8c-1 -1 -1 -2 -2 -3l-2 -4c-11 -3 -75 3 -87 0c80 243 176 471 240 708c15 -5 78 7 92 -4v-1c-80 -236 -156 -476 -241 -696zM574 180l-3 -76h-1c-9 -3 -17 1 -26 -2h-1c1 1 -7 -88 -8 -96c-4 -4 -28 -3 -75 -3c0 2 1 102 1 107c-8 3 -101 0 -103 2v1
c-1 4 -6 33 -5 72v1c1 1 2 2 3 4c8 13 35 56 107 165c6 0 70 1 80 1h1c1 -1 -2 -161 2 -174c9 3 20 -2 28 -2zM479 182l2 70c0 11 -50 -68 -53 -71c0 -1 41 -1 50 0h1v1zM169 312c0 -7 -18 -9 -31 -9c-16 0 -33 3 -48 3v1v48c0 64 6 126 6 190c0 4 0 7 -1 10
c-5 0 -10 -28 -21 -28c-6 0 -60 13 -60 18c3 23 56 107 60 111c15 0 30 1 45 1c17 0 35 -1 52 -2c3 -28 2 -56 2 -83c0 -76 -5 -149 -5 -225c0 -12 0 -23 1 -35z" />
    <glyph glyph-name="onehalf" unicode="&#xbd;" horiz-adv-x="596" 
d="M215 8c-1 -1 -1 -2 -2 -3l-2 -4c-11 -3 -75 3 -87 0c80 243 176 471 240 708c15 -5 78 7 92 -4v-1c-80 -236 -156 -476 -241 -696zM569 4l-190 -2h-23v1c3 44 -4 90 17 124c32 36 72 49 107 77c27 16 23 68 -9 71c-31 0 -37 -36 -37 -60v-1c-31 -3 -51 -6 -74 -3h-1v1
c-8 47 1 89 25 116c26 34 107 36 143 21c31 -16 46 -48 49 -84c1 -15 2 -30 1 -45c-5 -73 -94 -74 -129 -117c-3 -7 -10 -26 -5 -29c45 -1 80 1 123 1c7 -15 4 -32 4 -48c0 -8 -2 -15 1 -22c0 -1 -1 -1 -2 -1zM169 312c0 -7 -18 -9 -31 -9c-16 0 -33 3 -48 3v1v48
c0 64 6 126 6 190c0 4 0 7 -1 10c-5 0 -10 -28 -21 -28c-6 0 -60 13 -60 18c3 23 56 107 60 111c15 0 30 1 45 1c17 0 35 -1 52 -2c3 -28 2 -56 2 -83c0 -76 -5 -149 -5 -225c0 -12 0 -23 1 -35z" />
    <glyph glyph-name="threequarters" unicode="&#xbe;" horiz-adv-x="621" 
d="M243 8c-1 -1 -1 -2 -2 -3l-2 -4c-11 -3 -75 3 -87 0c80 243 176 471 240 708c15 -5 78 7 92 -4v-1c-80 -236 -156 -476 -241 -696zM602 180l-3 -76h-1c-9 -3 -17 1 -26 -2h-1c1 1 -7 -88 -8 -96c-4 -4 -28 -3 -75 -3c0 2 1 102 1 107c-8 3 -101 0 -103 2v1
c-1 4 -6 33 -5 72v1c1 1 2 2 3 4c8 13 35 56 107 165c6 0 70 1 80 1h1c1 -1 -2 -161 2 -174c9 3 20 -2 28 -2zM507 182l2 70c0 11 -50 -68 -53 -71c0 -1 41 -1 50 0h1v1zM38 324c-9 11 -15 23 -16 36c-3 15 -2 31 -5 51c0 1 0 1 1 1c20 -1 41 5 65 4h1c8 -25 47 -47 67 -19
c8 13 7 32 -8 43s-38 10 -55 7c-8 17 -1 50 -2 69c23 8 72 -8 69 34c0 46 -61 24 -72 -3c-11 0 -63 -1 -66 -1v1c0 13 -3 31 2 46c24 81 169 79 204 21c7 -11 8 -24 7 -36c1 -56 2 -111 -1 -166c-1 -19 0 -39 -8 -58c-9 -23 -26 -38 -50 -46c-25 -7 -55 -7 -82 -4
c-9 1 -18 4 -27 7c-15 4 -21 12 -24 13z" />
    <glyph glyph-name="acute" unicode="&#xb4;" horiz-adv-x="255" 
d="M173 692l69 -70l-1 -1c-18 -18 -91 -76 -101 -96c-43 -5 -116 -1 -134 4c46 43 120 126 167 163z" />
    <glyph glyph-name="guillemotleft" unicode="&#xab;" horiz-adv-x="589" 
d="M49 222c1 3 0 -4 0 0zM342 85l-11 -10l-16 -16c-6 -6 -11 -13 -51 -48l-1 1c-80 82 -176 148 -251 250c50 63 127 135 188 199c20 21 38 40 57 59c23 -13 52 -53 76 -69c-39 -50 -125 -128 -176 -192c63 -55 121 -122 185 -174zM563 85l-11 -10l-16 -16
c-6 -6 -11 -13 -51 -48l-1 1c-80 82 -176 148 -251 250c50 63 127 135 188 199c20 21 38 40 57 59c23 -13 52 -53 76 -69c-39 -50 -125 -128 -176 -192c63 -55 121 -122 185 -174z" />
    <glyph glyph-name="guillemotright" unicode="&#xbb;" horiz-adv-x="589" 
d="M258 75l-11 10c64 52 122 119 185 174c-53 64 -136 142 -176 192c24 16 52 56 76 69c19 -19 37 -38 57 -59c61 -64 138 -136 188 -199c-77 -101 -171 -167 -251 -250l-1 -1c-40 35 -46 43 -51 48zM37 75l-11 10c64 52 122 119 185 174c-53 64 -136 142 -176 192
c24 16 52 56 76 69c19 -19 37 -38 57 -59c61 -64 138 -136 188 -199c-77 -101 -171 -167 -251 -250l-1 -1c-40 35 -46 43 -51 48z" />
    <glyph glyph-name="twosuperior" unicode="&#xb2;" horiz-adv-x="256" 
d="M222 336l-173 -3h-21v2c4 40 -4 79 16 112c31 33 66 44 97 69c24 16 20 62 -7 65c-30 0 -35 -34 -35 -55v-1c-27 -3 -46 -3 -67 -2v1c-8 40 0 80 23 105c24 29 96 33 130 19c27 -13 41 -44 44 -76c1 -13 2 -28 2 -41c-5 -67 -86 -67 -118 -106c-3 -7 -10 -25 -5 -28
c41 0 72 1 112 1c5 -12 4 -28 3 -43c0 -7 -2 -12 1 -19h-2z" />
    <glyph glyph-name="threesuperior" unicode="&#xb3;" horiz-adv-x="242" 
d="M40 351c-8 7 -12 21 -15 32c-3 13 -1 29 -4 48h1c19 -1 36 4 59 3h1c8 -21 42 -42 61 -17c7 12 5 31 -7 39c-13 11 -35 10 -50 6c-8 16 0 47 -3 64c23 9 64 -9 64 30c0 41 -58 24 -66 -3c-11 0 -57 -1 -60 -1v1c0 12 -3 30 2 43c21 72 154 73 186 18c7 -9 7 -21 6 -32
c1 -52 2 -102 -1 -150c-3 -19 0 -37 -8 -54c-8 -20 -23 -34 -44 -41c-23 -7 -53 -7 -76 -4c-8 1 -17 4 -24 7c-13 3 -19 10 -22 11z" />
    <glyph glyph-name="trademark" unicode="&#x2122;" horiz-adv-x="541" 
d="M244 642c1 -23 1 -56 -2 -81c-13 3 -32 3 -64 0h-1l-1 -1c-3 -11 0 -47 3 -275v-1c-27 -4 -61 0 -86 -4c0 5 5 85 -3 277l-1 1c-16 8 -55 4 -62 6c-3 5 -5 49 -2 82l-1 1c71 0 148 2 220 -5zM506 447l-1 -166c-21 3 -52 0 -69 0c-3 60 0 124 -7 184
c-11 -12 -19 -26 -28 -37c-14 5 -17 36 -37 33c-1 -65 -3 -114 1 -178c-23 -4 -50 -2 -73 -2c0 0 0 1 -1 2c-3 8 -4 73 -1 355c19 5 48 1 71 2h1c13 -15 18 -32 29 -48c1 -1 2 -1 3 -1c13 15 23 34 36 50c24 0 54 3 77 2c-3 -67 3 -129 -1 -196z" />
    <glyph glyph-name="asciicircum" unicode="^" horiz-adv-x="440" 
d="M220 689l210 -210c-5 3 -65 -17 -147 -6c-13 0 -50 54 -66 62c-16 -5 -55 -59 -68 -62c-33 -3 -23 0 -138 5c57 79 133 140 209 211z" />
    <glyph glyph-name="onesuperior" unicode="&#xb9;" horiz-adv-x="175" 
d="M139 372v-30c0 -7 -14 -7 -25 -7c-15 0 -31 2 -43 3v1v41c0 56 6 109 6 165v8c-5 0 -10 -24 -20 -24c-4 0 -51 12 -51 16c0 19 49 92 51 96c15 0 27 1 40 1c15 0 30 -1 45 -2c3 -24 2 -48 2 -73c0 -64 -5 -127 -5 -195z" />
    <glyph glyph-name="brokenbar" unicode="&#xa6;" horiz-adv-x="833" 
 />
    <glyph glyph-name="nbspace" unicode="&#xa0;" horiz-adv-x="180" 
 />
    <glyph glyph-name="b" unicode="b" horiz-adv-x="456" 
d="M168 703v-11c4 -79 7 -29 3 -217c5 24 120 40 192 13c59 -21 81 -110 81 -203c-5 -134 -15 -271 -168 -282c-37 -5 -73 3 -93 43c-4 8 -7 3 -10 -4c0 -15 -1 -20 -1 -33c0 -3 0 -6 -1 -7c-40 -5 -94 -1 -135 -1c-5 192 6 415 6 637v66c44 8 126 2 126 -1zM323 315
c-7 47 -40 71 -95 71c-57 0 -61 -12 -61 -115c0 -84 4 -145 72 -145c57 0 91 64 91 131c0 19 0 39 -7 58z" />
    <glyph glyph-name="c" unicode="c" 
d="M438 192c-5 -69 -10 -139 -28 -157c-46 -65 -155 -44 -232 -44c-34 6 -63 21 -86 44c-72 64 -41 201 -52 288c0 24 2 48 6 72c1 15 12 46 16 59c19 41 87 58 150 58c27 -3 50 2 78 -1c43 -3 83 -15 111 -42c38 -27 36 -92 39 -180c-34 -8 -93 0 -127 5
c-7 47 -40 77 -92 64c-14 -4 -25 -11 -34 -22c-4 -3 -7 -9 -9 -20c-5 -41 -3 -83 -6 -130c-5 -62 84 -66 115 -45c13 9 20 36 24 53c27 -3 99 6 127 -2z" />
    <glyph glyph-name="germandbls" unicode="&#xdf;" horiz-adv-x="452" 
d="M216 355c5 31 17 54 35 71c37 35 41 63 30 84s-28 32 -49 37c-27 5 -72 8 -92 -3c-1 -20 -3 -40 -4 -60c-1 -19 0 -45 1 -77c2 -32 3 -57 3 -76c1 -37 2 -82 3 -117c1 -17 1 -57 2 -120s-2 -95 -9 -94c-41 0 -74 0 -98 1c-8 0 -15 -1 -22 2c-8 232 1 457 -3 689l1 1
c160 44 397 39 397 -185c0 -56 -22 -111 -49 -156c-5 -9 -2 -13 5 -21c42 -52 84 -100 68 -186c-11 -63 -42 -101 -85 -122s-72 -28 -143 -23c-8 29 -9 69 -3 122c3 12 14 19 32 20c64 10 45 104 12 134c-23 24 -34 50 -32 79z" />
    <glyph glyph-name="currency" unicode="&#xa4;" horiz-adv-x="619" 
d="M223 558c11 1 41 8 52 8c39 3 83 0 122 -7c33 36 64 74 95 107l103 -88c-24 -28 -54 -61 -83 -94c9 -17 16 -36 20 -58c5 -27 3 -53 3 -81c0 -49 -6 -102 -29 -145c29 -36 65 -78 89 -89l-19 -16c-19 -8 -75 -73 -94 -70c-50 55 -49 44 -91 94c-61 -12 -126 -14 -185 -1
c-15 -20 -36 -48 -69 -93c-20 -2 -94 78 -113 86c48 56 61 73 74 89v1c-7 20 -8 36 -11 53c-5 62 -5 176 11 237c-48 64 -39 39 -74 87l103 88c29 -32 60 -67 96 -108zM242 452c-27 -9 -43 -27 -48 -55c-7 -39 -2 -75 -2 -112c0 -33 20 -61 55 -68c35 -3 66 -3 99 4
c5 0 8 2 15 2h2c40 5 53 33 58 68c4 19 5 38 8 57c4 27 4 54 -15 78c-8 11 -18 19 -29 22c-48 15 -99 12 -143 4z" />
    <glyph glyph-name="Thorn" unicode="&#xde;" horiz-adv-x="465" 
d="M181 187c0 -158 -7 -167 -2 -183c-13 -15 -126 -3 -144 -8c19 289 -6 478 7 734l136 -3c0 -55 2 -25 2 -141c19 46 60 46 108 46c94 -3 168 -98 168 -231c0 -107 -44 -268 -147 -268c-45 0 -96 23 -128 54zM327 434c-7 33 -38 64 -93 64s-52 -11 -52 -104
c0 -75 -4 -121 62 -121c56 0 89 48 89 108c0 17 -1 36 -6 53z" />
    <glyph glyph-name="periodcentered" unicode="&#xb7;" horiz-adv-x="149" 
d="M29 393l90 -1c0 -17 3 -88 3 -128c-11 -17 -37 -6 -89 -9c0 39 -5 77 -4 138z" />
    <glyph glyph-name="section" unicode="&#xa7;" horiz-adv-x="833" 
 />
    <glyph glyph-name="paragraph" unicode="&#xb6;" horiz-adv-x="678" 
d="M397 728l162 2l95 -2c0 -16 3 -97 3 -137c-8 -14 -55 -10 -100 -7c-4 -241 -13 -653 -5 -782c-13 -15 -123 -1 -141 -6c16 206 5 539 13 789l-77 1c-4 -239 -11 -653 -3 -784c-13 -15 -123 -1 -141 -6c11 125 10 346 7 524c-104 -16 -134 11 -177 92
c-17 79 -14 149 -3 233c8 33 24 55 49 66c35 16 90 13 142 16z" />
    <glyph glyph-name="cedilla" unicode="&#xb8;" horiz-adv-x="190" 
d="M87 -4l87 -2h-1c-5 -20 -39 -117 -47 -141v-1c-21 0 -109 -1 -109 1c40 113 30 88 51 147c3 -1 6 -1 9 -2c7 -1 10 -2 10 -2z" />
    <glyph glyph-name="mu" unicode="&#xb5;" horiz-adv-x="436" 
d="M169 4c0 -163 4 -115 4 -162c-13 -15 -123 -1 -141 -6c0 22 -3 315 1 371c0 100 6 216 3 291c47 7 78 4 125 4c5 -61 -1 -160 4 -232c3 -33 4 -81 25 -97c1 -1 3 -1 4 -2c22 -11 90 -18 95 54c5 92 -14 185 -1 272c66 8 62 -2 126 6c0 -164 6 -325 1 -501
c-17 0 -128 -12 -130 -1c-3 23 -1 34 -2 53c-24 -40 -71 -45 -114 -50z" />
    <glyph glyph-name="eth" unicode="&#xf0;" horiz-adv-x="555" 
d="M156 208l2 -16c16 -52 79 -69 130 -64c59 7 90 36 83 87c-8 75 -98 100 -151 95c-56 -7 -71 -51 -64 -102zM288 779c52 37 93 68 108 76c33 -43 51 -31 89 -72c-37 -23 -57 -34 -94 -58c25 -21 46 -46 62 -78c35 -69 46 -166 57 -259c24 -200 7 -385 -188 -409
c-138 -16 -276 34 -292 176c-1 7 -2 15 -2 23l-1 28c-5 137 26 225 152 241c99 11 142 -11 164 -22c-7 32 -4 60 -11 91c-8 40 -24 84 -65 119c-83 -56 -150 -99 -158 -104c-19 27 -69 58 -74 66c1 0 56 40 121 87c-35 8 -66 35 -119 58c-2 2 110 105 131 97
c48 -19 69 -44 120 -60z" />
    <glyph glyph-name="thorn" unicode="&#xfe;" horiz-adv-x="457" 
d="M177 52c0 -165 -2 -145 3 -218c-13 -15 -130 -1 -149 -6c11 278 0 653 11 898l136 -3c0 -56 -1 -155 -2 -272c19 46 60 46 108 46c94 -3 168 -98 168 -231c0 -107 -44 -268 -147 -268c-45 0 -96 23 -128 54zM323 299c-7 33 -38 64 -93 64s-52 -11 -52 -104
c0 -75 -4 -121 62 -121c56 0 89 48 89 108c0 17 -1 36 -6 53z" />
    <glyph glyph-name="Eth" unicode="&#xd0;" horiz-adv-x="511" 
d="M21 410l57 -1c1 92 2 181 -1 278c113 16 269 54 341 -69c19 -31 33 -59 42 -94c11 -36 21 -77 24 -116c7 -63 3 -128 -12 -189c-37 -165 -90 -203 -127 -211c-86 -16 -181 -1 -263 -4c-3 96 -4 183 -4 267c-19 1 -37 1 -53 1c0 39 -5 77 -4 138zM332 205
c21 34 31 117 23 175c-8 51 -13 113 -61 145c-27 16 -79 7 -101 -1c3 -27 2 -71 1 -118l59 -1c0 -17 3 -88 3 -128l-63 1c0 -39 -1 -78 2 -105c0 -14 62 -7 69 -7c31 3 51 14 68 39z" />
    <glyph glyph-name="multiply" unicode="&#xd7;" horiz-adv-x="771" 
d="M31 726l647 -2c0 -180 -3 -534 5 -711c-9 -14 67 -31 -647 -11c13 257 -5 468 -5 724zM245 372c-24 75 -27 122 -107 271c-3 -155 -3 -389 -3 -542c86 180 78 199 110 271zM455 370c11 -74 91 -188 120 -263c5 157 0 384 0 531c-29 -71 -109 -197 -120 -268zM347 410
c13 37 73 141 102 231c-46 0 -146 -1 -192 -1c24 -84 79 -198 90 -230zM453 103l-107 225c-18 -47 -78 -169 -97 -231c63 -5 181 1 204 6z" />
    <glyph glyph-name="uni00AD" unicode="&#xad;" horiz-adv-x="359" 
d="M31 304c11 0 285 2 297 2c-5 -27 -2 -31 -2 -58c-24 -1 -293 1 -294 1c0 3 -1 39 -1 55z" />
    <glyph glyph-name="logicalnot" unicode="&#xac;" horiz-adv-x="449" 
d="M413 251h-55c0 7 -1 102 -1 161c-111 1 -353 4 -354 5c0 3 -1 39 -1 55c12 0 402 -2 414 -2c0 -1 -1 -2 -1 -3h1c0 -24 -3 -214 -3 -216z" />
    <glyph glyph-name="f_f" unicode="&#xfb00;" horiz-adv-x="837" 
d="M243 498l253 1c-5 69 16 177 109 206c59 20 133 23 198 20c14 -41 8 -103 0 -143c-32 3 -95 -5 -131 -13c-32 -5 -39 -43 -31 -79h155c3 -29 0 -94 0 -119c-68 4 -116 2 -159 3v-372c-46 5 -101 -8 -136 -3c0 210 -6 298 -9 371c-93 3 -222 4 -253 4v-372
c-47 5 -102 -8 -137 -3c-8 53 -2 312 -2 374c-23 0 -46 0 -75 -1l-3 129c31 0 53 0 76 -1c-8 68 14 176 109 205c57 20 131 23 198 20c14 -42 5 -103 0 -143c-33 3 -94 -5 -132 -13c-32 -5 -38 -36 -30 -71z" />
    <glyph glyph-name="f_f_i" unicode="&#xfb03;" horiz-adv-x="965" 
d="M243 497l252 1c-5 68 17 176 109 205c59 20 131 23 198 20c13 -43 5 -102 0 -142c-33 3 -94 -5 -132 -13c-32 -5 -37 -43 -30 -78h154c0 11 -1 30 0 41v1c5 1 23 -1 30 -1c17 -1 51 -3 95 -2h18v-4c-1 -169 -10 -349 -1 -518c-17 -17 -128 1 -148 -7c8 121 6 246 6 371
c-68 4 -115 2 -158 3v-369c-48 5 -98 -9 -136 -4c0 211 -6 297 -9 369c-94 3 -221 4 -252 4v-369c-46 5 -99 -9 -136 -4c-4 53 -2 311 -2 372c-23 0 -46 0 -74 -1l-3 128c29 0 52 0 75 -1c-5 70 13 171 108 204c59 20 133 23 198 20c13 -43 5 -102 0 -142
c-33 3 -94 -5 -132 -13c-32 -5 -37 -36 -30 -71z" />
    <glyph glyph-name="ij" unicode="&#x133;" horiz-adv-x="498" 
d="M157 503h17v-3c-1 -161 -10 -333 -1 -494c-13 -15 -123 -1 -141 -6c13 169 -10 348 6 505v1c5 1 21 -1 28 -1c17 -1 48 -3 91 -2zM34 721l136 -3c0 -17 3 -88 3 -128c-12 -18 -83 -4 -135 -7c0 39 -5 77 -4 138zM333 363v134c43 -5 95 8 129 3c8 -65 -3 -188 2 -237
c0 -130 6 -233 -15 -362c-34 -81 -168 -93 -274 -88c-14 41 -5 98 0 135c45 -3 128 3 154 40c3 112 -1 270 4 375zM327 721l133 -3c0 -17 3 -88 3 -128c-12 -18 -79 -4 -132 -7c0 39 -5 77 -4 138z" />
    <glyph glyph-name="f_f_l" unicode="&#xfb04;" horiz-adv-x="1026" 
d="M245 498l253 1c-5 69 16 177 109 206c59 20 133 23 198 20c14 -41 8 -103 0 -143c-32 3 -95 -5 -131 -13c-32 -5 -39 -43 -31 -79h155c3 -29 0 -94 0 -119c-68 4 -116 2 -159 3v-372c-46 5 -101 -8 -136 -3c0 210 -6 298 -9 371c-93 3 -222 4 -253 4v-372
c-47 5 -102 -8 -137 -3c-8 53 -2 312 -2 374c-23 0 -46 0 -75 -1l-3 129c31 0 53 0 76 -1c-8 68 14 176 109 205c57 20 131 23 198 20c14 -42 5 -103 0 -143c-33 3 -94 -5 -132 -13c-32 -5 -38 -36 -30 -71zM846 725l144 -3c0 -173 -7 -548 5 -718c-16 -16 -128 0 -149 -6
c19 256 -24 471 0 727z" />
    <glyph glyph-name="fi" unicode="&#xfb01;" horiz-adv-x="558" 
d="M391 370c-68 4 -117 2 -158 3v-368c-46 5 -100 -9 -135 -4c-8 53 -3 310 -3 371c-23 0 -46 0 -74 -1l-3 120c29 0 52 0 75 -1c-5 71 13 178 108 211c59 20 132 23 197 20c13 -43 5 -102 0 -142c-32 3 -92 -7 -131 -12c-32 -5 -38 -45 -30 -79h154c0 11 -1 30 0 41v1
c5 1 22 -1 29 -1c19 -1 51 -3 95 -2h18v-3c0 -168 -12 -349 -1 -517c-17 -17 -128 1 -148 -7c9 121 7 245 7 370z" />
    <glyph glyph-name="fl" unicode="&#xfb02;" horiz-adv-x="573" 
d="M396 376c-68 4 -117 2 -160 3v-374c-47 5 -100 -8 -137 -3c-8 54 -2 313 -2 376c-23 0 -47 0 -76 -1l-3 122c31 0 54 0 77 -1c-8 70 14 182 109 214c56 19 130 23 195 20c7 0 21 -1 28 -1c19 -1 52 -3 97 -2h18v-4c0 -170 -14 -549 -2 -718c-16 -16 -130 0 -150 -6
c9 123 6 248 6 375zM240 496h156v92c-35 1 -89 4 -125 -1c-32 -5 -39 -56 -31 -91z" />
    <glyph glyph-name="H18533" unicode="&#x25cf;" horiz-adv-x="552" 
d="M494 130c-9 -26 -24 -49 -45 -69c-53 -53 -133 -50 -203 -55c-37 0 -73 3 -108 14c-59 27 -95 64 -102 120c-11 65 -10 131 -5 199c3 31 15 60 37 86c29 37 74 57 121 64c55 3 110 8 163 -3c28 -5 56 -15 83 -32c4 -3 8 -5 12 -8c82 -61 66 -174 53 -279
c-3 -12 -2 -25 -6 -37z" />
    <glyph glyph-name="oneeighth" unicode="&#x215b;" horiz-adv-x="582" 
d="M214 8c-1 -1 -1 -2 -2 -3l-2 -4c-11 -3 -75 3 -87 0c80 243 176 471 240 708c15 -5 78 7 92 -4v-1c-80 -236 -156 -476 -241 -696zM168 312c0 -7 -18 -9 -31 -9c-16 0 -33 3 -48 3v1v48c0 64 6 126 6 190c0 4 0 7 -1 10c-5 0 -10 -28 -21 -28c-6 0 -60 13 -60 18
c3 23 56 107 60 111c15 0 30 1 45 1c17 0 35 -1 52 -2c3 -28 2 -56 2 -83c0 -76 -5 -149 -5 -225c0 -12 0 -23 1 -35zM561 264v-14c0 -28 -13 -54 -33 -73c21 -19 32 -48 32 -76c0 -55 -29 -99 -93 -99s-96 42 -96 102c0 27 7 56 26 76c-15 19 -23 42 -23 71
c0 49 26 101 73 104c27 1 52 1 77 -12c12 -6 37 -34 37 -79zM438 276l-1 -5c-1 -3 -1 -7 -1 -12c0 -20 8 -38 32 -39c19 0 30 17 30 37c0 19 -10 38 -33 38c-7 0 -20 0 -27 -19zM435 125c-1 -3 -1 -8 -1 -14c0 -21 11 -43 31 -43c19 0 29 18 29 37c0 20 -11 39 -34 39
c-11 0 -21 -7 -25 -19z" />
    <glyph glyph-name="threeeighths" unicode="&#x215c;" horiz-adv-x="622" 
d="M254 8c-1 -1 -1 -2 -2 -3l-2 -4c-11 -3 -75 3 -87 0c80 243 176 471 240 708c15 -5 78 7 92 -4v-1c-80 -236 -156 -476 -241 -696zM601 264v-14c0 -28 -13 -54 -33 -73c21 -19 32 -48 32 -76c0 -55 -29 -99 -93 -99s-96 42 -96 102c0 27 7 56 26 76c-15 19 -23 42 -23 71
c0 49 26 101 73 104c27 1 52 1 77 -12c12 -6 37 -34 37 -79zM478 276l-1 -5c-1 -3 -1 -7 -1 -12c0 -20 8 -38 32 -39c19 0 30 17 30 37c0 19 -10 38 -33 38c-7 0 -20 0 -27 -19zM475 125c-1 -3 -1 -8 -1 -14c0 -21 11 -43 31 -43c19 0 29 18 29 37c0 20 -11 39 -34 39
c-11 0 -21 -7 -25 -19zM37 324c-9 11 -15 23 -16 36c-3 15 -2 31 -5 51c0 1 0 1 1 1c20 -1 41 5 65 4h1c8 -25 47 -47 67 -19c8 13 7 32 -8 43s-38 10 -55 7c-8 17 -1 50 -2 69c23 8 72 -8 69 34c0 46 -61 24 -72 -3c-11 0 -63 -1 -66 -1v1c0 13 -3 31 2 46
c24 81 169 79 204 21c7 -11 8 -24 7 -36c1 -56 2 -111 -1 -166c-1 -19 0 -39 -8 -58c-9 -23 -26 -38 -50 -46c-25 -7 -55 -7 -82 -4c-9 1 -18 4 -27 7c-15 4 -21 12 -24 13z" />
    <glyph glyph-name="seveneighths" unicode="&#x215e;" horiz-adv-x="609" 
d="M241 8c-1 -1 -1 -2 -2 -3l-2 -4c-11 -3 -75 3 -87 0c80 243 176 471 240 708c15 -5 78 7 92 -4v-1c-80 -236 -156 -476 -241 -696zM588 264v-14c0 -28 -13 -54 -33 -73c21 -19 32 -48 32 -76c0 -55 -29 -99 -93 -99s-96 42 -96 102c0 27 7 56 26 76c-15 19 -23 42 -23 71
c0 49 26 101 73 104c27 1 52 1 77 -12c12 -6 37 -34 37 -79zM465 276l-1 -5c-1 -3 -1 -7 -1 -12c0 -20 8 -38 32 -39c19 0 30 17 30 37c0 19 -10 38 -33 38c-7 0 -20 0 -27 -19zM462 125c-1 -3 -1 -8 -1 -14c0 -21 11 -43 31 -43c19 0 29 18 29 37c0 20 -11 39 -34 39
c-11 0 -21 -7 -25 -19zM15 565h-2c3 20 3 45 3 64c65 3 142 6 203 -1c-1 -24 0 -41 0 -65c-37 -87 -93 -172 -137 -260c-19 0 -52 -5 -71 0c43 91 86 174 122 258c-36 1 -87 5 -118 4z" />
    <glyph glyph-name="fiveeighths" unicode="&#x215d;" horiz-adv-x="619" 
d="M251 8c-1 -1 -1 -2 -2 -3l-2 -4c-11 -3 -75 3 -87 0c80 243 176 471 240 708c15 -5 78 7 92 -4v-1c-80 -236 -156 -476 -241 -696zM598 264v-14c0 -28 -13 -54 -33 -73c21 -19 32 -48 32 -76c0 -55 -29 -99 -93 -99s-96 42 -96 102c0 27 7 56 26 76c-15 19 -23 42 -23 71
c0 49 26 101 73 104c27 1 52 1 77 -12c12 -6 37 -34 37 -79zM475 276l-1 -5c-1 -3 -1 -7 -1 -12c0 -20 8 -38 32 -39c19 0 30 17 30 37c0 19 -10 38 -33 38c-7 0 -20 0 -27 -19zM472 125c-1 -3 -1 -8 -1 -14c0 -21 11 -43 31 -43c19 0 29 18 29 37c0 20 -11 39 -34 39
c-11 0 -21 -7 -25 -19zM20 414l71 3v-3c3 -24 16 -31 31 -28c46 8 44 83 4 94c-35 7 -79 -1 -107 0c-1 0 -1 0 -1 1c0 65 0 109 -1 172h1c5 0 199 6 211 2c1 0 -2 -73 -2 -73c-13 -3 -124 -3 -135 -3h-1v-2c0 -1 1 -1 1 -2c1 -5 0 -12 3 -16h1v-1h1c18 3 35 3 51 1
c80 -13 95 -107 84 -185c-20 -92 -218 -101 -214 11c0 9 1 17 2 28v1z" />
    <glyph glyph-name="g" unicode="g" horiz-adv-x="470" 
d="M140 237v-9c0 -34 10 -63 30 -87c24 -29 69 -34 104 -23c23 8 26 37 29 61c0 53 0 110 -13 161c-17 42 -77 43 -108 17c-20 -23 -35 -50 -40 -81c-3 -13 -2 -26 -2 -39zM313 -200c-13 -3 -48 0 -103 0c-63 0 -113 29 -144 74c-11 20 -19 63 -16 84c27 11 97 6 128 1
c0 -70 103 -84 119 -9c1 13 3 28 2 39s-1 23 0 35c-26 -29 -76 -23 -114 -26c-51 0 -106 13 -130 63c-19 36 -25 76 -28 117c0 125 -4 308 167 319c43 3 83 -10 99 -47c11 -5 -1 36 6 48c44 5 90 1 135 1c5 -167 7 -350 -1 -542c-1 -32 4 -66 -9 -87
c-37 -58 -78 -67 -111 -70z" />
    <glyph glyph-name="e" unicode="e" horiz-adv-x="456" 
d="M160 251v-18c1 -40 0 -62 15 -86c32 -62 130 -63 125 45c27 -3 97 6 126 -2c-5 -68 -9 -140 -28 -156c-45 -64 -154 -44 -230 -44c-19 3 -36 9 -52 18c-71 50 -96 168 -91 276c4 49 6 95 22 139c35 79 152 108 247 84c124 -21 142 -136 134 -248c-28 -8 -226 -16 -268 -8
zM281 406c-11 7 -20 10 -35 10c-63 0 -78 -29 -83 -65c-5 -28 -5 -22 94 -22c69 0 63 -8 63 12c0 27 -15 53 -39 65z" />
    <glyph glyph-name="f" unicode="f" horiz-adv-x="402" 
d="M219 138v-134c-44 5 -94 -8 -129 -3c-8 50 -2 296 -2 354c-21 0 -44 0 -71 -1l-3 122c28 0 51 0 72 -1c-5 66 12 165 103 194c56 19 125 22 188 19c14 -41 5 -98 0 -135c-31 3 -87 -7 -125 -12c-31 -5 -36 -35 -29 -68h153c-3 -15 0 -27 -1 -46c0 -29 0 -27 -5 -79
c-68 4 -110 7 -151 8v-218z" />
    <glyph glyph-name="scaron" unicode="&#x161;" horiz-adv-x="500" 
d="M257 551l-163 162c3 -3 51 13 115 5c10 0 38 -41 51 -49c10 5 42 46 52 49c24 3 19 1 107 -4c-45 -61 -103 -108 -162 -163zM473 346c-43 -7 -98 -9 -143 0c8 34 -35 65 -69 62c-61 -11 -62 -81 1 -103c75 -11 146 -25 177 -65c29 -48 38 -93 13 -166
c-31 -65 -102 -91 -179 -90c-134 -5 -225 61 -225 168v3v2c44 5 107 1 148 1c3 -61 128 -83 125 -6c8 66 -83 51 -157 83c-150 51 -131 240 -2 274c52 14 154 14 224 -2c63 -27 87 -89 87 -161z" />
    <glyph glyph-name="zcaron" unicode="&#x17e;" horiz-adv-x="473" 
d="M257 551l-163 162c3 -3 51 13 115 5c10 0 38 -41 51 -49c10 5 42 46 52 49c24 3 19 1 107 -4c-45 -61 -103 -108 -162 -163zM443 497c0 -51 -5 -90 0 -134c-68 -73 -154 -147 -222 -223c67 5 145 -5 217 6c0 -43 2 -92 2 -139c-123 -3 -280 -6 -407 -6c3 77 -5 88 -2 128
c64 83 162 154 229 234c-70 -3 -165 -8 -223 -16c-5 73 3 91 0 150c108 0 206 1 278 1c21 -5 117 4 128 -1z" />
    <glyph glyph-name="Scaron" unicode="&#x160;" horiz-adv-x="550" 
d="M459 910l-163 -162c-59 55 -117 102 -162 163c88 5 83 7 107 4c10 -3 42 -44 52 -49c13 8 41 49 51 49c64 8 112 -8 115 -5zM509 474h1c19 100 -22 165 -86 198c-64 29 -157 38 -222 11c-128 -53 -189 -235 -66 -352c19 -16 41 -29 68 -34c56 -11 135 -20 143 -84
c16 -93 -130 -91 -135 -6c-45 -1 -106 6 -153 -1v-3v-3c-8 -127 119 -202 236 -205c82 -3 161 33 193 115c32 69 31 155 -16 215c-39 57 -102 97 -173 105c-28 4 -54 11 -65 43c-1 9 -3 18 0 27c11 75 141 48 125 -25c47 -13 103 -9 150 -1z" />
    <glyph glyph-name="Zcaron" unicode="&#x17d;" horiz-adv-x="501" 
d="M423 910l-163 -162c-59 55 -117 102 -162 163c88 5 83 7 107 4c10 -3 42 -44 52 -49c13 8 41 49 51 49c64 8 112 -8 115 -5zM466 534v1c-1 51 7 107 0 159c-153 1 -301 9 -438 -4c1 -1 2 -3 2 -4v-1c13 -42 -2 -110 14 -137c48 0 181 -5 241 -13
c-78 -110 -187 -247 -245 -376c5 -55 -7 -113 9 -160c143 8 282 6 409 -1v2c4 48 9 109 2 160v3c-114 -5 -145 0 -252 -13l1 1c84 129 180 252 257 383z" />
    <glyph glyph-name="guilsinglleft" unicode="&#x2039;" horiz-adv-x="399" 
d="M357 85l-11 -10l-16 -16c-5 -5 -11 -13 -51 -48l-1 1c-80 83 -174 149 -251 250c50 63 127 135 188 199c20 21 38 40 57 59c24 -13 52 -53 76 -69c-40 -50 -123 -128 -176 -192c63 -55 121 -122 185 -174z" />
    <glyph glyph-name="guilsinglright" unicode="&#x203a;" horiz-adv-x="399" 
d="M49 75l-11 10c64 52 122 119 185 174c-53 64 -136 142 -176 192c24 16 52 56 76 69c19 -19 37 -38 57 -59c61 -64 138 -136 188 -199c-77 -101 -171 -167 -251 -250l-1 -1c-40 35 -46 43 -51 48z" />
    </font>
</defs>
</svg>
