<?xml version="1.0" standalone="no"?>
<!DOCTYPE svg PUBLIC "-//W3C//DTD SVG 1.1//EN" "http://www.w3.org/Graphics/SVG/1.1/DTD/svg11.dtd" >
<svg>
<metadata>
Created by FontForge 20110222 at Tue Jan 29 13:59:26 2013
 By Artūrs Jansons
Copyright (c) 2011, Matthew Desmond (http://www.madtype.com | mattdesmond@gmail.com), with Reserved Font Name Abel.
</metadata>
<defs>
<font id="Abel-Bold" horiz-adv-x="1134" >
  <font-face 
    font-family="Abel"
    font-weight="400"
    font-stretch="normal"
    units-per-em="2048"
    panose-1="2 0 5 6 3 0 0 2 0 4"
    ascent="1638"
    descent="-410"
    x-height="1064.96"
    cap-height="1491.36"
    bbox="-102 -685.52 1997 2077.04"
    underline-thickness="82"
    underline-position="-328"
    unicode-range="U+0020-F6C3"
  />
<missing-glyph horiz-adv-x="2048" 
 />
    <glyph glyph-name=".notdef" horiz-adv-x="2048" 
 />
    <glyph glyph-name=".null" horiz-adv-x="0" 
 />
    <glyph glyph-name="nonmarkingreturn" horiz-adv-x="471" 
 />
    <glyph glyph-name="space" unicode=" " horiz-adv-x="471" 
 />
    <glyph glyph-name="exclam" unicode="!" horiz-adv-x="428" 
d="M298.272 356.28h-168.545l-60.6094 1190.16h289.764zM86 -112.439v276.479h256v-276.479h-256z" />
    <glyph glyph-name="quotedbl" unicode="&#x22;" horiz-adv-x="645" 
d="M516.442 920.28h-141.885l-52.0576 486.161l-52.0576 -486.161h-141.885l-62.7959 586.439h246h21.4766h246z" />
    <glyph glyph-name="numbersign" unicode="#" horiz-adv-x="1311" 
d="M113 1152.24h239.148l31 394.199h223.366l-31 -394.199h229.634l31 394.199h223.371l-31 -394.199h210.48v-220.32h-229.01l-32.6367 -429.84h220.646v-220.319h-240.02l-30 -394.2h-223.495l31 394.2h-229.634l-31 -394.2h-223.366l31 394.2h-210.485v220.319h229.011
l32.6367 429.84h-220.647v220.32zM524.354 502.08h229.657l32.6357 429.84h-229.657z" />
    <glyph glyph-name="dollar" unicode="$" horiz-adv-x="1267" 
d="M771.066 -321.36h-253.843v235.299q-68.668 7.69922 -130.357 29.6885q-73.1309 32.1953 -127.119 88.0957q-53.793 55.7002 -85.1045 130.358q-31.6426 75.4482 -31.6426 160.989v102.831l231 38.5273v-141.358q0 -37.752 13.1113 -70.1455
q16.1289 -32.8262 45.0605 -57.4424q29.1055 -24.7607 68.1387 -39.627q8.17188 -3.11133 16.9131 -5.72266v497.352q-63.0459 20.0459 -122.765 42.4678q-70.7305 32.5225 -125.533 82.9424q-56.71 52.1738 -91.1045 127.35q-34.8213 76.1084 -34.8213 184.06v27.6582
q0 84.5967 31.7002 159.592q31.2578 73.9365 84.8594 130.021q53.9248 56.4189 126.999 89.1758q62.3545 22.6582 130.665 30.293v192.316h253.843v-192.456q67.583 -7.89453 129.435 -30.9209q73.1006 -33.1777 126.749 -88.7217q53.7402 -55.6416 85.0498 -129.708
q31.7002 -74.9951 31.7002 -159.592v-82.3398l-231 -38.5303v120.87q0 36.7207 -15.1523 69.1201q-16.6396 33.0479 -44.6064 57.2617q-27.9648 24.2129 -67.0967 39.5166q-7.31738 2.8623 -15.0781 5.3252v-469.679q62.7637 -20.9502 123.991 -44.583
q73.3242 -33.9707 129.372 -85.1406q58.2402 -53.167 93.6699 -129.869q35.9004 -77.7168 35.9004 -186.789v-44.0547q0 -85.5381 -31.6396 -160.989q-31.3701 -74.7881 -86.2998 -131.065q-54.9229 -56.2734 -127.952 -88.4121q-65.2607 -23.0898 -137.042 -29.7559
v-234.208zM923 302.88v46.4404q0 50.3789 -13.9619 85.9785q-17.5898 36.4443 -47.3096 63.0859q-31.3818 28.1309 -74.7637 49q-7.84961 3.77637 -15.8984 7.45898v-437.257q10.9941 2.94434 21.4092 6.86426q40.0713 15.085 69.2529 41.2441
q29.9199 26.8193 47.4834 62.4414q13.7881 34.3359 13.7881 74.7432zM374 1134.48v-29.1602q0 -45.8887 12.8457 -78.127q15.875 -32.9561 44.5977 -57.8857q31.3818 -27.2363 73.8623 -48.4385q5.8125 -2.89941 11.918 -5.84277v400.343
q-8.28613 -2.68945 -16.3223 -6.00488q-39.6299 -16.3398 -69.0889 -42.3252q-28.6738 -25.3047 -44.7012 -59.6914q-13.1113 -34.1504 -13.1113 -72.8672z" />
    <glyph glyph-name="percent" unicode="%" horiz-adv-x="1586" 
d="M664.83 1267.36v-352.521q0 -46.6377 -19.9141 -88.9551q-19.8896 -42.2666 -55.5439 -73.7373q-35.0938 -30.9766 -82.1475 -49.5078q-48.54 -19.1162 -104.458 -19.1162h-29.7666q-48.8633 0 -91.2793 19.1162q-41.1143 18.5303 -71.7822 49.5078
q-30.9102 31.2207 -48.7773 73.1172q-18.1611 42.5859 -18.1611 89.5752v352.521q0 46.9902 18.1611 89.5752q17.8633 41.8936 48.7773 73.1162q30.6621 30.9844 71.7822 49.5176q42.415 20.4336 91.2793 20.4336h29.7666q55.918 0 104.458 -20.4336
q47.0576 -18.5332 82.1475 -49.5176q35.6543 -31.4717 55.5439 -73.7324q19.9141 -42.3145 19.9141 -88.959zM435.954 926.811v330.038q0 6.06934 -2.62598 11.0811q-2.75 5.24805 -7.38867 8.91016q-5.61328 4.43848 -13.1914 7.14941q-6.0625 2.1709 -14.5576 2.1709
h-21.1904q-7.4248 0 -12.7217 -2.1709q-6.62207 -2.71094 -11.5264 -7.14941q-4.05371 -3.66211 -6.45703 -8.91016q-2.29492 -5.01172 -2.29492 -11.0811v-330.038q0 -11.5859 8.80371 -19.5703q9.70215 -8.80078 24.1963 -8.80078h21.1904q16.5859 0 27.6885 8.80078
q10.0752 7.98438 10.0752 19.5703zM1443 518.106v-351.487q0 -46.6406 -17.4004 -88.9473q-17.3896 -42.2705 -48.5391 -73.7295q-30.6709 -30.9766 -71.7803 -49.5029q-42.4199 -20.4395 -91.2803 -20.4395h-30.8496q-55.1006 0 -103.931 20.4395
q-47.3301 18.5273 -82.6367 49.5029q-35.584 31.2217 -56.1523 73.1113q-20.9062 42.5811 -20.9062 89.5654l1.64551 351.487q0 46.9844 20.7832 89.5654q20.4473 41.8926 55.8184 73.1104q35.0986 30.9736 82.1484 49.5029q48.54 19.1152 103.311 19.1152h30.7695
q48.8701 0 91.2803 -19.1152q41.1094 -18.5273 71.7803 -49.5029q31.1494 -31.458 48.5391 -73.7305q17.4004 -42.3086 17.4004 -88.9453zM1243 177.155v329.089q0 6.07617 -2.29004 11.085q-2.41016 5.24414 -6.45996 8.91113q-4.91016 4.43555 -11.5303 7.14941
q-5.2998 2.1709 -12.7197 2.1709h-22.1895q-8.5 0 -14.5605 -2.1709q-7.58008 -2.71387 -13.1895 -7.14941q-4.64062 -3.66699 -7.39062 -8.91113q-2.62012 -5.00977 -2.62012 -11.085l-0.290039 -329.089q0 -6.0752 2.65039 -11.085q2.75977 -5.24512 7.42969 -8.91113
q5.64062 -4.43555 13.2705 -7.14844q6.09961 -2.1709 14.6396 -2.1709h22.25q7.41992 0 12.7197 2.1709q6.62012 2.71289 11.5303 7.14844q4.0498 3.66602 6.45996 8.91113q2.29004 5.00977 2.29004 11.085zM420.64 -57.3604h-232.393l972.513 1548.72h236.99z" />
    <glyph glyph-name="ampersand" unicode="&#x26;" horiz-adv-x="1272" 
d="M1092 -134.04q-100.588 0 -176.877 47.2627q-46.4111 28.7539 -81.3496 70.1152q-42.7236 -42.459 -95.7168 -71.4678q-83.8691 -45.9102 -181.057 -45.9102h-61q-83.417 0 -157.502 34.1133q-73.5801 33.8799 -128.56 93.2588q-54.9287 59.3232 -86.2959 138.163
q-31.6426 79.5332 -31.6426 169.705v84.2393q0 62.915 15.5225 120.657q15.4746 57.5654 44.2295 107.256q28.3857 49.0518 67.0078 88.9238q9.58301 9.89355 19.7627 19.0439q-10.1787 9.15039 -19.7627 19.0439q-38.623 39.8721 -67.0078 88.9229
q-28.7549 49.6904 -44.2295 107.257q-15.5225 57.7422 -15.5225 120.656v75.5996q0 90.1689 31.6426 169.7q31.3613 78.8408 86.2959 138.165q54.9717 59.3779 128.56 93.2578q74.082 34.1162 157.502 34.1162h61q83.4922 0 157.134 -34.1699
q73.0088 -33.8799 127.929 -93.2041q54.9355 -59.335 86.2949 -138.165q31.6426 -79.5312 31.6426 -169.7v-57.6396l-231 -40.6074v98.2471q0 40.4033 -13.7881 74.7471q-14.1328 35.1865 -38.2744 61.2686q-24.1309 26.0596 -56.7314 41.3311
q-31.7871 14.8926 -69.2061 14.8926h-49q-37.4189 0 -69.2061 -14.8926q-32.79 -15.3574 -57.5205 -41.6445q-24.4326 -25.9629 -38.4854 -60.9551q-13.7881 -34.3438 -13.7881 -74.7471v-97.2002q0 -40.4092 13.7881 -74.7422q14.1377 -35.2021 38.7744 -61.8105
q24.6387 -26.6084 57.2314 -41.875q31.792 -14.8916 69.2061 -14.8916h227v133.238l231 40.6133v-171.692h199v-241.92h-199v-316.271q1.90137 -41.2158 11.7451 -75.7705q9.15918 -32.1504 26.6445 -55.8584q16.1006 -21.8262 40.3604 -34.1777
q24.6699 -12.5615 59.25 -12.5615h89.0801l-33.0498 -241.92h-62.0303zM618.466 122.04q31.8379 14.2559 55.2715 39.1475q24.0645 25.5645 39.1953 59.9648q14.2373 32.3711 16.0674 70.4961v307.632h-227q-37.4141 0 -69.2061 -14.8916
q-32.7871 -15.3574 -57.5205 -41.6465q-24.4316 -25.9658 -38.4854 -60.959q-13.7881 -34.334 -13.7881 -74.7432v-105.84q0 -40.4092 13.7881 -74.7422q14.1377 -35.2021 38.7744 -61.8115q24.6357 -26.6055 57.2314 -41.876q31.79 -14.8906 69.2061 -14.8906h49
q35.8447 0 67.4658 14.1602z" />
    <glyph glyph-name="quotesingle" unicode="'" horiz-adv-x="399" 
d="M235.55 920.28h-143.55v586.439h269.142z" />
    <glyph glyph-name="parenleft" unicode="(" horiz-adv-x="684" 
d="M72 598q0 186.407 33.2139 347.828q33.1738 161.219 92.415 300.959q59.2051 139.656 140.818 259.234q80.9541 118.615 176.885 219.984l36.0576 38.1133l143.094 -154.548l-34.7793 -38.9346q-78.9404 -88.376 -145.928 -195.609q-66.7295 -106.812 -114.788 -229.824
q-48.1113 -123.146 -75.0986 -260.553q-26.8896 -136.915 -26.8896 -286.65q0 -149.731 26.8896 -286.65q26.9873 -137.416 75.0986 -260.558q48.0693 -123.036 114.788 -229.824q67.0059 -107.249 145.928 -195.606l34.7793 -38.9346l-143.094 -154.541l-36.0576 38.1064
q-95.9531 101.401 -176.885 219.987q-81.6494 119.636 -140.851 259.848q-59.2197 140.258 -92.3828 301.425q-33.2139 161.42 -33.2139 346.748z" />
    <glyph glyph-name="parenright" unicode=")" horiz-adv-x="684" 
d="M612 598q0 -185.316 -33.2139 -346.748q-33.1562 -161.146 -92.3828 -301.425q-59.1953 -140.204 -140.851 -259.848q-80.9424 -118.601 -176.885 -219.987l-36.0576 -38.1064l-143.309 154.772l35.209 38.9434q79.7285 88.1816 146.118 195.215
q66.2773 106.849 114.383 229.976q48.1113 123.142 75.0986 260.558q26.8896 136.919 26.8896 286.65q0 149.735 -26.8896 286.65q-26.9873 137.407 -75.0986 260.553q-48.0996 123.12 -114.383 229.986q-66.3965 107.039 -146.118 195.21l-35.209 38.9453l143.309 154.774
l36.0576 -38.1133q95.9209 -101.357 176.885 -219.984q81.6074 -119.567 140.818 -259.234q59.2432 -139.74 92.415 -300.959q33.2139 -161.432 33.2139 -347.828z" />
    <glyph glyph-name="asterisk" unicode="*" horiz-adv-x="993" 
d="M497.744 859.361l-156.569 -282.153l-209.651 163.634l201.278 245.905l-296.744 72.7471l79.8145 262.429l280.399 -128.801l-28.2559 326.808h256.801l-27.3438 -326.808l279.636 128.866l79.834 -262.494l-296.744 -72.7471l201.129 -245.723l-208.62 -164.207z" />
    <glyph glyph-name="plus" unicode="+" horiz-adv-x="1188" 
d="M31 842.28h446v482.759h231v-482.759h449v-249.48h-449v-483.84h-231v483.84h-446v249.48z" />
    <glyph glyph-name="comma" unicode="," horiz-adv-x="440" 
d="M235.55 -359.72h-143.55v586.439h269.142z" />
    <glyph glyph-name="hyphen" unicode="-" horiz-adv-x="588" 
d="M51 567.28v235.439h485v-235.439h-485z" />
    <glyph glyph-name="period" unicode="." horiz-adv-x="440" 
d="M92 -61.2393v276.479h256v-276.479h-256z" />
    <glyph glyph-name="slash" unicode="/" horiz-adv-x="782" 
d="M-30.2129 -245.239l605.688 1923.48h236.737l-605.688 -1923.48h-236.737z" />
    <glyph glyph-name="zero" unicode="0" horiz-adv-x="1257" 
d="M1113 1104.76v-775.525q0 -84.0908 -31.6396 -158.263q-31.3701 -73.5205 -86.2979 -128.847q-54.9248 -55.3193 -127.957 -86.9141q-93.5918 -34.1738 -199.706 -34.1738h-77.5273q-106.017 0 -200.174 34.1123q-73.7803 31.5967 -128.761 86.9727
q-54.9277 55.3223 -86.2949 128.847q-31.6426 74.1709 -31.6426 158.263v775.528q0 84.0898 31.6426 158.264q31.3613 73.5156 86.2949 128.845q54.9727 55.3711 128.761 86.9717q94.1523 34.1172 200.174 34.1172h77.5273q106.112 0 199.706 -34.1719
q73.0371 -31.5996 127.957 -86.917q54.9375 -55.3291 86.2979 -128.845q31.6396 -74.1738 31.6396 -158.264zM882 338.784v756.335q0 36.752 -13.7881 67.9746q-17.6992 32.0107 -48.3809 55.7285q-30.6689 23.7051 -72.1025 37.5938q-40.3984 13.5449 -87.9551 13.5449
h-62.2754q-47.5566 0 -87.9561 -13.5449q-41.6738 -13.9746 -73.1064 -37.875q-31.0508 -23.6191 -48.6475 -55.4473q-13.7881 -31.2227 -13.7881 -67.9746v-756.335q0 -36.7529 13.7881 -67.9795q17.7051 -32.0146 49.0156 -56.2139q31.3115 -24.2002 72.7383 -38.0869
q40.4033 -13.5439 87.9561 -13.5439h62.2754q47.5527 0 87.9551 13.5439q41.1807 13.8037 71.7373 37.8018q30.9375 24.2949 48.7461 56.499q13.7881 31.2275 13.7881 67.9795z" />
    <glyph glyph-name="one" unicode="1" horiz-adv-x="1263" 
d="M1181 -57.3604h-1017v243h365.18v1055.92l-365.18 -143.413v232.729l415.685 160.488h236.136v-1305.72h365.18v-243z" />
    <glyph glyph-name="two" unicode="2" horiz-adv-x="1216" 
d="M630.429 1269.16h-60.9717q-46.5605 0 -86.1143 -14.8936q-40.5654 -15.2715 -70.5928 -41.3311q-30.0371 -26.0713 -47.625 -61.2695q-17.1572 -34.3428 -17.1572 -74.7461v-127.412l-234.968 40.6143v86.7979q0 90.1699 31.6426 169.701
q31.3613 78.8398 86.2959 138.164q54.9209 59.3242 135.527 93.2031q91.6338 34.1719 195.525 34.1719h75.9033q103.153 0 194.821 -32.0762q77.2539 -29.8516 132.717 -86.2051q55.1074 -55.998 86.3975 -133.564q31.1699 -77.2842 31.1699 -172.691
q0 -91.9834 -27.5996 -184.64q-26.7803 -89.8896 -70.2842 -176.483q-43.0684 -85.7354 -98.5586 -166.262q-58.416 -79.3311 -129.731 -149.616q-117.943 -115.944 -258.26 -225.782h594.434v-243h-1011v176.579l18.5791 15.2568q183.985 151.1 353.021 312.658
q76.6055 69.1904 149.703 147.299q72.0586 76.998 128.452 158.252q55.499 79.9658 89.0654 162.554q31.1797 79.5791 31.1797 156.271q0 52.9414 -17.8535 90.6338q-18.6104 36.8926 -48.7803 60.3184q-30.2959 23.5215 -69.5059 35.251q-40.9043 12.2471 -85.4316 12.2471
z" />
    <glyph glyph-name="three" unicode="3" horiz-adv-x="1257" 
d="M1113 427.94v-98.7031q0 -84.0908 -31.6396 -158.263q-31.3701 -73.5205 -86.2979 -128.847q-54.9248 -55.3193 -127.957 -86.9141q-93.5918 -34.1738 -199.706 -34.1738h-77.5273q-106.017 0 -200.174 34.1123q-73.7803 33.8809 -128.761 93.2598
q-54.9277 59.3223 -86.2949 138.164q-31.6426 79.5322 -31.6426 169.704v87.1572l231 38.6807v-125.838q0 -40.4092 13.7881 -74.7432q17.7051 -35.2021 49.0156 -61.8096q31.3115 -26.6064 72.7383 -41.877q40.4033 -14.8906 87.9561 -14.8906h62.2754
q47.5527 0 87.9551 13.2979q41.1807 13.5498 71.7373 37.1074q30.9375 23.8525 48.7461 55.4668q13.7881 30.6572 13.7881 66.7354v114.75q0 36.0781 -13.7881 66.7334q-17.7021 31.4307 -48.3809 54.7061q-30.6768 23.2754 -72.1025 36.9062
q-40.4043 13.2969 -87.9551 13.2969h-186.827v243h186.827q47.5508 0 87.9551 13.1094q41.4258 13.4385 72.1025 36.3877q30.6787 22.9473 48.3809 53.9346q13.7881 30.2246 13.7881 65.793v66.5498q0 35.5645 -13.7881 65.7939q-17.6992 30.9854 -48.3809 53.9355
q-30.6689 22.9395 -72.1025 36.3848q-40.3984 13.1123 -87.9551 13.1123h-62.2754q-47.5566 0 -87.9561 -14.8945q-41.6738 -15.3574 -73.1064 -41.6445q-31.0508 -25.9629 -48.6475 -60.9551q-13.7881 -34.3438 -13.7881 -74.7471v-127.411l-231 40.6133v86.7979
q0 90.1699 31.6426 169.701q31.3613 78.8398 86.2949 138.164q54.9727 59.3779 128.761 93.2578q94.1523 34.1172 200.174 34.1172h77.5273q106.112 0 199.706 -34.1719q73.0371 -31.5996 127.957 -86.917q54.9375 -55.3291 86.2979 -128.845
q31.6396 -74.1738 31.6396 -158.264v-49.3555q0 -58.668 -15.5195 -112.517q-15.4102 -53.4619 -43.4902 -99.6289q-27.96 -45.9834 -66.75 -83.3223q-9.51367 -9.15918 -20.3242 -18.2959q10.7383 -9.00488 20.3242 -18.2305q38.79 -37.3408 66.75 -83.3232
q28.0801 -46.168 43.4902 -99.6289q15.5195 -53.8477 15.5195 -112.521z" />
    <glyph glyph-name="four" unicode="4" horiz-adv-x="1236" 
d="M1093 155.4h-123v-212.761h-231v212.761h-678v130.107l754.229 1205.85h154.771v-1092.96h123v-243zM739 398.4l-25.1787 499.421l-311.547 -499.421h336.726z" />
    <glyph glyph-name="five" unicode="5" horiz-adv-x="1257" 
d="M1118.33 623.366v-285.704q0 -85.8057 -31.6504 -161.489q-31.3594 -75.0195 -86.29 -131.473q-54.9248 -56.4473 -127.957 -88.6855q-93.3125 -34.1748 -199.112 -34.1748h-77.2959q-105.702 0 -199.578 34.1133q-75.2012 33.8809 -130.182 93.2598
q-54.9277 59.3213 -86.2949 138.163q-31.6426 79.5332 -31.6426 169.704v78.8398h231v-78.8398q0 -40.4092 14.9521 -74.7432q17.9141 -35.2021 49.1328 -61.8096q31.2168 -26.6064 72.5205 -41.877q40.2822 -14.8896 87.6943 -14.8896h62.0898q47.4121 0 87.6953 13.6963
q41.0566 13.9609 71.5225 38.2305q30.8457 24.5713 48.6045 57.1406q13.7881 31.583 13.7881 68.75v276.164q0 37.168 -13.7881 68.749q-17.7578 32.5684 -48.6045 57.1416q-30.4658 24.2715 -71.5225 38.2295q-40.2852 13.6982 -87.6953 13.6982h-62.0898
q-47.4092 0 -87.6943 -14.8916q-41.3018 -15.2666 -72.5205 -41.876q-31.2188 -26.6074 -49.1328 -61.8105q-14.9521 -34.333 -14.9521 -74.7432v-55.0791h-236.327l92.1504 945h812.18v-243h-583.275l-38.5518 -253.228q15.9756 6.5791 32.3916 12.1982
q88.8936 30.4297 190.082 30.4297h25.3438q105.798 0 199.112 -32.5195q73.0293 -32.2363 127.957 -88.6875q54.9805 -56.499 86.3506 -132.121q31.5898 -76.1328 31.5898 -161.866z" />
    <glyph glyph-name="six" unicode="6" horiz-adv-x="1257" 
d="M1134 518.858v-184.011q0 -85.3516 -31.6396 -160.637q-31.3701 -74.623 -86.3008 -130.778q-54.9219 -56.1494 -127.954 -88.2188q-93.5918 -34.1738 -199.706 -34.1738h-78.7988q-106.114 0 -199.706 34.1738q-73.0303 31.5938 -127.957 86.9141
q-54.9268 55.3213 -86.2949 128.847q-31.6426 74.1689 -31.6426 158.263v775.525q0 84.0898 31.6426 158.264q31.3623 73.5156 86.2949 128.845q54.9219 55.3174 127.957 86.917q93.5938 34.1719 199.706 34.1719h78.7988q106.112 0 199.706 -34.1719
q73.0371 -33.8789 127.954 -93.2031q54.9404 -59.335 86.3008 -138.164q31.6396 -79.5312 31.6396 -169.701v-86.7979l-231 -40.6133v127.411q0 40.4033 -13.7881 74.7471q-17.5957 34.9922 -48.6475 60.9551q-31.4346 26.2871 -73.1064 41.6445
q-40.3994 14.8945 -87.9561 14.8945h-62.2754q-47.5566 0 -87.9551 -12.8096q-41.4336 -13.1436 -72.1025 -35.5645q-30.6797 -22.4326 -48.3809 -52.7041q-13.7881 -29.5371 -13.7881 -64.3027v-240.445q23.5625 14.5273 52.7344 26.2881q100.247 40.417 213.975 40.417
h26.6904q106.112 0 199.706 -32.3467q73.0293 -32.0674 127.954 -88.2197q54.9307 -56.1523 86.3008 -130.78q31.6396 -75.2812 31.6396 -160.635zM903 337.92v175.938q0 36.5693 -13.7881 67.6455q-17.5967 31.6689 -48.6475 55.1689q-31.4395 23.793 -73.1064 37.6904
q-40.4053 13.4775 -87.9561 13.4775h-62.2754q-47.5508 0 -87.9551 -13.4775q-41.4258 -13.8164 -72.1025 -37.4092q-30.6758 -23.5918 -48.3809 -55.4502q-13.7881 -31.0732 -13.7881 -67.6455v-175.938q0 -36.5703 13.7881 -67.6445q17.8115 -32.0479 48.7461 -56.2217
q30.5566 -23.8799 71.7373 -37.6162q40.4023 -13.4775 87.9551 -13.4775h62.2754q47.5527 0 87.9561 13.4775q41.4287 13.8184 72.7383 37.8984q31.3135 24.083 49.0156 55.9395q13.7881 31.0762 13.7881 67.6445z" />
    <glyph glyph-name="seven" unicode="7" horiz-adv-x="1257" 
d="M1154 1367.32l-679.755 -1424.68h-245.248l628.646 1305.72h-462.644v-206.28h-231v449.28h990v-124.038z" />
    <glyph glyph-name="eight" unicode="8" horiz-adv-x="1257" 
d="M1113 449.091v-119.854q0 -84.0908 -31.6396 -158.263q-31.3701 -73.5205 -86.2979 -128.847q-54.9248 -55.3193 -127.957 -86.9141q-93.5918 -34.1738 -199.706 -34.1738h-77.5273q-106.017 0 -200.174 34.1123q-73.7803 31.5967 -128.761 86.9727
q-54.9277 55.3223 -86.2949 128.847q-31.6426 74.1709 -31.6426 158.263v119.855q0 105.121 49.0576 192.892q31.332 56.0586 75.7842 99.2197q-44.7129 43.7041 -75.8545 99.791q-48.9873 88.2305 -48.9873 193.269v70.502q0 84.0898 31.6426 158.264
q31.3613 73.5156 86.2949 128.845q54.9727 55.3711 128.761 86.9717q94.1523 34.1172 200.174 34.1172h77.5273q106.112 0 199.706 -34.1719q73.0371 -31.5996 127.957 -86.917q54.9375 -55.3291 86.2979 -128.845q31.6396 -74.1738 31.6396 -158.264v-70.502
q0 -104.904 -48.3604 -193.043q-31.1094 -56.7002 -75.543 -100.016q44.4531 -43.292 75.4736 -99.4453q48.4297 -87.6865 48.4297 -192.666zM882 1034.18v66.5498q0 35.5645 -13.7881 65.7939q-17.6992 30.9854 -48.3809 53.9355q-30.6689 22.9395 -72.1025 36.3848
q-40.3984 13.1123 -87.9551 13.1123h-62.2754q-47.5566 0 -87.9561 -13.1123q-41.6738 -13.5215 -73.1064 -36.6543q-31.0508 -22.8643 -48.6475 -53.666q-13.7881 -30.2178 -13.7881 -65.7939v-66.5498q0 -35.5713 13.7881 -65.793q17.5977 -30.8047 48.6475 -53.6621
q31.4375 -23.1416 73.1064 -36.6602q40.4053 -13.1094 87.9561 -13.1094h62.2754q47.5508 0 87.9551 13.1094q41.4258 13.4385 72.1025 36.3877q30.6787 22.9473 48.3809 53.9346q13.7881 30.2246 13.7881 65.793zM882 335.567v114.75q0 36.0781 -13.7881 66.7334
q-17.7021 31.4307 -48.3809 54.7061q-30.6768 23.2754 -72.1025 36.9062q-40.4043 13.2969 -87.9551 13.2969h-62.2754q-47.5508 0 -87.9561 -13.2969q-41.6689 -13.7109 -73.1064 -37.1836q-31.0498 -23.1826 -48.6475 -54.4287q-13.7881 -30.6543 -13.7881 -66.7334
v-114.75q0 -36.0801 13.7881 -66.7354q17.7051 -31.4297 49.0156 -55.1865q31.3115 -23.7559 72.7383 -37.3877q40.4033 -13.2979 87.9561 -13.2979h62.2754q47.5527 0 87.9551 13.2979q41.1807 13.5498 71.7373 37.1074q30.9375 23.8525 48.7461 55.4668
q13.7881 30.6572 13.7881 66.7354z" />
    <glyph glyph-name="nine" unicode="9" horiz-adv-x="1257" 
d="M1134 1104.76v-775.525q0 -84.0908 -31.6396 -158.263q-31.3701 -73.5205 -86.3008 -128.847q-54.9219 -55.3193 -127.954 -86.9141q-93.5918 -34.1738 -199.706 -34.1738h-78.7988q-106.114 0 -199.706 34.1738q-73.0303 33.8779 -127.957 93.1982
q-54.9268 59.3213 -86.2949 138.164q-31.6426 79.5303 -31.6426 169.704v87.1572l231 38.6807v-125.838q0 -40.4092 13.7881 -74.7432q17.8115 -35.4102 48.7461 -62.124q30.5566 -26.3838 71.7373 -41.5625q40.4023 -14.8906 87.9551 -14.8906h62.2754
q47.5527 0 87.9561 12.8115q41.4287 13.1338 72.7383 36.0234q31.3135 22.8926 49.0156 53.1738q13.7881 29.5381 13.7881 64.2988v239.967q-23.6377 -14.6621 -53.2031 -26.6709q-99.6787 -40.4834 -213.506 -40.4834h-26.6904q-106.112 0 -199.706 32.3496
q-73.0264 32.0674 -127.957 88.2236q-54.9775 56.2061 -86.3516 131.433q-31.5859 75.7383 -31.5859 161.023v184.016q0 85.3633 31.6426 160.65q31.3623 74.6279 86.2949 130.789q54.9219 56.1484 127.957 88.2236q93.5938 34.1719 199.706 34.1719h78.7988
q106.112 0 199.706 -34.1719q73.0371 -31.5996 127.954 -86.917q54.9404 -55.3291 86.3008 -128.845q31.6396 -74.1738 31.6396 -158.264zM903 920.04v175.942q0 36.5586 -13.7881 67.6406q-17.5957 31.666 -48.6475 55.166q-31.4346 23.793 -73.1064 37.6924
q-40.3994 13.4795 -87.9561 13.4795h-62.2754q-47.5566 0 -87.9551 -13.4795q-41.4336 -13.8232 -72.1025 -37.4111q-30.6797 -23.5977 -48.3809 -55.4473q-13.7881 -31.0723 -13.7881 -67.6406v-175.942q0 -36.5713 13.7881 -67.6445q17.8096 -32.0469 48.7461 -56.2217
q30.5566 -23.8809 71.7373 -37.6162q40.4043 -13.4775 87.9551 -13.4775h62.2754q47.5508 0 87.9561 13.4775q41.4238 13.8164 72.7383 37.8984q31.3135 24.083 49.0156 55.9395q13.7881 31.0752 13.7881 67.6445z" />
    <glyph glyph-name="colon" unicode=":" horiz-adv-x="440" 
d="M92 843.561v276.479h256v-276.479h-256zM92 -96.04v276.479h256v-276.479h-256z" />
    <glyph glyph-name="semicolon" unicode=";" horiz-adv-x="440" 
d="M92 855.04v276.479h256v-276.479h-256zM235.55 -394.52h-143.55v586.439h269.142z" />
    <glyph glyph-name="less" unicode="&#x3c;" horiz-adv-x="1249" 
d="M1177 1374.19v-272.949l-802.826 -384.146l802.826 -382.174v-274.173l-1126 542.722v229.183z" />
    <glyph glyph-name="equal" unicode="=" horiz-adv-x="1352" 
d="M1239 1048.48v-249.48h-1126v249.48h1126zM1239 637v-249.48h-1126v249.48h1126z" />
    <glyph glyph-name="greater" unicode="&#x3e;" horiz-adv-x="1249" 
d="M873.067 717.092l-801.067 384.179v272.916l1126 -541.537v-229.183l-1126 -542.722v274.14z" />
    <glyph glyph-name="question" unicode="?" horiz-adv-x="950" 
d="M281 -113.239v276.479h255v-276.479h-255zM524 355.48h-231v97.1992q0 80.043 18.5186 141.298q18.4395 60.9893 49.5186 107.854q30.0195 45.2666 68.083 80.8516q34.9043 32.6318 71.8721 62.4355q34.7139 27.9863 67.5039 56.5254q29.1914 25.4082 52.2393 56.4033
q21.4658 28.8682 34.6055 66.125q12.6592 35.877 12.6592 87.3076v20.5195q0 40.4033 -13.7881 74.7461q-14.0508 34.9922 -38.4854 60.9561q-24.7314 26.2871 -57.5205 41.6445q-31.7881 14.8936 -69.2061 14.8936h-28q-37.4189 0 -69.2061 -14.8936
q-32.791 -15.3574 -57.5205 -41.6445q-24.4326 -25.9639 -38.4854 -60.9561q-13.7881 -34.3428 -13.7881 -74.7461v-127.411l-231 40.6113v86.7998q0 90.1689 31.6426 169.7q31.3613 78.8408 86.2959 138.165q54.9717 59.3779 128.56 93.2578
q74.082 34.1162 157.502 34.1162h41q83.4922 0 157.134 -34.1709q73.0088 -33.8789 127.929 -93.2031q54.9355 -59.335 86.2949 -138.165q31.6426 -79.5312 31.6426 -169.7v-20.5195q0 -82.8037 -18.2549 -146.879q-18.1631 -63.7539 -48.7295 -113.582
q-29.8789 -48.71 -67.877 -86.6865q-35.3076 -35.2881 -72.7646 -66.0537q-35.1885 -28.9004 -68.6045 -56.9111q-29.3867 -24.6318 -52.5039 -53.8379q-21.3418 -26.9648 -34.2627 -60.1045q-12.0029 -30.7881 -12.0029 -74.7461v-97.1992z" />
    <glyph glyph-name="at" unicode="@" horiz-adv-x="2046" 
d="M1355.52 225.817q-10.8896 -83.9678 14.1904 -116.539q24.21 -31.4385 84.29 -31.4385q43.8496 0 88.1797 36.3213q49.7402 40.7578 89.5703 115.812q41.5195 78.2256 67.3105 188.1q25.9395 110.502 25.9395 241.888q0 149.503 -40.71 276.865
q-40.1104 125.489 -115.67 215.992q-75.0498 89.8994 -185.33 141.286q-110.82 51.6562 -255.29 51.6562q-115.13 0 -218.663 -35.25q-104.184 -35.4678 -193.753 -99.2852q-89.8057 -63.9902 -162.298 -152.95q-72.8252 -89.3789 -124.43 -197.78
q-51.7588 -108.723 -79.8311 -232.043q-28.0254 -123.112 -28.0254 -255.771q0 -150.292 37.6436 -279.373q36.9238 -126.608 109.312 -219.139q71.5986 -91.5186 177.663 -143.633q106.436 -52.2959 249.381 -52.2959q52.4424 0 102.42 7.56738
q50.8301 7.69629 96.21 19.9482q44.75 12.085 82.1299 28.0322q36.8506 15.7217 62.4502 31.9307l49.5703 31.3818l81.8193 -202.617l-38.2295 -24.9463q-51.6104 -33.6719 -109.5 -58.5703q-57.1299 -24.5615 -115.9 -40.5723q-58.6592 -15.9854 -116.43 -23.4258
q-57.5039 -7.40723 -110.54 -7.40723q-187.849 0 -334.745 70.6416q-147.265 70.8213 -248.159 195.516q-100.185 123.818 -152.429 291.362q-51.667 165.696 -51.667 358.32q0 164.573 36.5762 319.767q36.5176 154.946 103.919 291.502q67.4932 136.739 162.785 249.848
q95.4336 113.259 211.966 194.896q116.934 81.9072 252.65 127.354q136.39 45.6729 285.104 45.6729q187.42 0 337.53 -69.2275q150.46 -69.3799 255.84 -191.905q105.08 -122.191 160.6 -288.238q55.0303 -164.609 55.0303 -356.748q0 -91.7197 -13.5898 -187.116
q-13.6406 -95.6729 -40.9004 -186.308q-27.54 -91.5 -68.96 -171.784q-42.3994 -82.1895 -99.8193 -144.795q-58.9707 -64.3008 -133.341 -101.417q-76.1699 -38.0205 -167.39 -38.0205q-62.3105 0 -110.33 15.1777q-48.5703 15.3545 -85.6201 42.249
q-37.5996 27.2949 -64.2598 65.4619q-3.86035 5.52051 -7.58984 11.2617q-39.3701 -34.7227 -84.6602 -58.8203q-78.6631 -41.8496 -166.54 -41.8496h-30q-67.2988 0 -124.291 25.916q-56.709 25.7881 -98.2715 70.6758q-41.6611 44.9961 -65.0449 105.86
q-23.3926 60.8906 -23.3926 131.268v23.2197q0 15.543 2.60938 31.7783l62.8877 498.077q10.4277 77.5771 46.7471 146.059q35.7686 67.4443 89.2295 117.812q53.4971 50.4014 120.016 79.2598q67.6406 29.3535 138.511 29.3535h31q88.4697 0 159.18 -43.3623
q38.1602 -23.4033 67.2803 -56.0293l58.1699 77.791h123.87zM793.938 250.573q-0.362305 -9.41016 -1.63184 -17.6279q-0.305664 -1.98438 -0.305664 -3.90527q0 -24.7705 7.67578 -44.9541q7.61719 -20.0264 21.3867 -34.8994q13.6543 -14.7461 32.5215 -22.9688
q19.3184 -8.41797 43.416 -8.41797h82q26.9102 0 51.5801 10.9717q26.2197 11.6611 47.3896 31.6074q20.9805 19.7793 35.21 46.7695q13.7598 26.1113 18.4004 56.084l67.5703 518.459l0.849609 2.7666v12.6621q0 23.6875 -7.67969 43.874
q-7.61035 20.0264 -20.8809 34.3594q-13.1592 14.207 -32.0195 22.4287q-19.3203 8.41797 -43.4199 8.41797h-82q-27.0469 0 -52.3232 -11.0781q-26.583 -11.6504 -47.6426 -31.501q-20.9893 -19.7822 -35.2119 -46.7695q-13.6064 -25.8164 -17.3086 -55.3975z" />
    <glyph glyph-name="A" unicode="A" horiz-adv-x="1154" 
d="M928.562 -57.3604l-112.125 360.721h-444.785l-110.944 -360.721h-240.708l487.578 1548.72h170.381l490.291 -1548.72h-239.688zM594.121 964.384l-147.051 -473.104h294.883z" />
    <glyph glyph-name="B" unicode="B" horiz-adv-x="1257" 
d="M1175 442.578v-92.4775q0 -83.9258 -31.6396 -157.952q-31.3701 -73.3779 -86.2998 -128.595q-54.9707 -55.2637 -129.034 -86.8008q-121.834 -34.1133 -259.026 -34.1133h-505v1548.72h505q137.196 0 259.026 -34.1172q74.0635 -31.5361 129.034 -86.7998
q54.9893 -55.2744 86.3496 -129.223q31.5898 -74.4766 31.5898 -158.328v-14.0723q0 -58.5557 -15.5195 -112.3q-15.4805 -53.583 -44.2305 -99.8271q-28.3896 -45.6631 -67.0098 -82.7656q-9.58008 -9.20703 -19.7598 -17.7246q10.1699 -8.51562 19.7598 -17.7256
q38.7197 -37.2061 67.1602 -83.5107q28.6396 -46.6465 44.0801 -100.086q15.5195 -53.7441 15.5195 -112.303zM944 356.976v108.769q0 36.0127 -13.7881 66.6162q-22.4854 31.1875 -62.665 54.3301q-40.6816 23.4307 -94.5986 37.1172q-52.2852 13.2725 -109.948 13.2725
h-268v-451.44h268q57.667 0 109.948 13.2725q53.9209 13.6885 94.5986 37.1182q40.1797 23.1426 62.665 54.3301q13.7881 30.6025 13.7881 66.6152zM944 1048.25v31.9473q0 35.1426 -13.7881 65.0156q-22.6162 30.6182 -63.1416 53.7734q-40.5078 23.1338 -94.1221 36.4277
q-52.2773 12.9502 -109.948 12.9502h-268v-368.28h268q57.6631 0 109.948 12.9531q53.6025 13.2812 94.1221 36.4287q40.5205 23.1475 63.1416 53.7695q13.7881 29.8682 13.7881 65.0146z" />
    <glyph glyph-name="C" unicode="C" horiz-adv-x="1277" 
d="M1154 464.679v-108.398q0 -90.1709 -31.6396 -169.704q-31.3701 -78.8379 -86.2998 -138.164q-54.9229 -59.3193 -127.952 -93.1982q-91.6328 -34.1738 -195.525 -34.1738h-126.921q-103.798 0 -195.984 34.1123q-73.7598 31.5967 -128.74 86.9727
q-54.9277 55.3223 -86.2949 128.847q-31.6426 74.1709 -31.6426 158.263v775.528q0 84.0898 31.6426 158.264q31.3613 73.5156 86.2949 128.845q54.9727 55.3711 128.74 86.9717q92.1826 34.1172 195.984 34.1172h126.921q103.891 0 195.525 -34.1719
q73.0342 -33.8789 127.952 -93.2031q54.9395 -59.335 86.2998 -138.164q31.6396 -79.5312 31.6396 -169.701v-109.838l-231 -38.6807v148.519q0 40.4033 -13.7881 74.7471q-17.3477 35.1865 -47.3877 61.2676q-30.0273 26.0605 -70.5928 41.332
q-39.5537 14.8945 -86.1143 14.8945h-111.989q-46.5615 0 -86.1152 -13.5449q-40.8008 -13.9746 -71.5752 -37.875q-30.4004 -23.6191 -47.6494 -55.4473q-13.7881 -31.2227 -13.7881 -67.9746v-756.335q0 -36.7529 13.7881 -67.9795q17.3535 -32.0146 48.0107 -56.2139
q30.6543 -24.2002 71.2139 -38.0869q39.5576 -13.5439 86.1152 -13.5439h111.989q46.5566 0 86.1143 14.8906q40.3174 15.1787 70.2344 41.5625q30.2891 26.7158 47.7461 62.124q13.7881 34.335 13.7881 74.7432v149.012z" />
    <glyph glyph-name="D" unicode="D" horiz-adv-x="1318" 
d="M1175 1082.89v-732.792q0 -83.9258 -31.6396 -157.952q-31.3701 -73.3779 -86.2998 -128.595q-54.9707 -55.2637 -129.034 -86.8008q-121.834 -34.1133 -259.026 -34.1133h-505v1548.72h505q137.196 0 259.026 -34.1172q74.0635 -31.5361 129.034 -86.7998
q54.9893 -55.2744 86.3496 -129.223q31.5898 -74.4766 31.5898 -158.328zM944 359.825v713.37q0 36.6113 -13.7881 67.7266q-22.6162 31.8818 -63.1416 55.998q-40.5078 24.1055 -94.1221 37.9512q-52.2773 13.4893 -109.948 13.4893h-268v-1062.72h268
q57.667 0 109.948 13.4932q53.9209 13.916 94.5986 37.7344q40.1797 23.5293 62.665 55.2334q13.7881 31.1113 13.7881 67.7246z" />
    <glyph glyph-name="E" unicode="E" horiz-adv-x="1257" 
d="M1175 -57.3604h-1011v1548.72h1011v-243h-780v-410.4h651v-243h-651v-409.32h780v-243z" />
    <glyph glyph-name="F" unicode="F" horiz-adv-x="1216" 
d="M1175 1248.36h-780v-410.4h651v-243h-651v-652.32h-231v1548.72h1011v-243z" />
    <glyph glyph-name="G" unicode="G" horiz-adv-x="1298" 
d="M1154 812.04v-869.4h-119.63l-53.9189 89.2949q-37.9766 -38.2432 -85.7012 -64.7627q-97.5684 -46.1318 -215.764 -46.1318h-93.3242q-103.798 0 -195.984 34.1123q-73.7598 31.5967 -128.74 86.9727q-54.9277 55.3223 -86.2949 128.847
q-31.6426 74.1709 -31.6426 158.263v775.528q0 84.0898 31.6426 158.264q31.3613 73.5156 86.2949 128.845q54.9727 55.3711 128.74 86.9717q92.1826 34.1172 195.984 34.1172h126.921q103.891 0 195.525 -34.1719q73.0342 -33.8789 127.952 -93.2031
q54.9395 -59.335 86.2998 -138.164q31.6396 -79.5312 31.6396 -169.701v-109.838l-231 -38.6807v148.519q0 40.4033 -13.7881 74.7471q-17.3477 35.1865 -47.3877 61.2676q-30.0273 26.0605 -70.5928 41.332q-39.5537 14.8945 -86.1143 14.8945h-111.989
q-46.5615 0 -86.1152 -13.5449q-40.8008 -13.9746 -71.5752 -37.875q-30.4004 -23.6191 -47.6494 -55.4473q-13.7881 -31.2227 -13.7881 -67.9746v-756.335q0 -36.7529 13.7881 -67.9795q17.3535 -32.0146 48.0107 -56.2139q30.6543 -24.2002 71.2139 -38.0869
q39.5576 -13.5439 86.1152 -13.5439h111.989q46.5566 0 86.1143 13.1133q40.3174 13.3652 70.2344 36.5977q4.77246 3.70703 9.21875 7.58984q23.8369 20.8076 38.5273 47.1143q13.7881 30.2344 13.7881 65.8154v235.85h-281.344v243h512.344z" />
    <glyph glyph-name="H" unicode="H" horiz-adv-x="1339" 
d="M1175 -57.3604h-231v652.32h-549v-652.32h-231v1548.72h231v-653.4h549v653.4h231v-1548.72z" />
    <glyph glyph-name="I" unicode="I" horiz-adv-x="559" 
d="M395 -57.3604h-231v1548.72h231v-1548.72z" />
    <glyph glyph-name="J" unicode="J" 
d="M1011 1492.16v-1161.92q0 -84.1367 -31.6426 -158.35q-31.3652 -73.5605 -86.2949 -128.918q-54.9248 -55.3496 -132.014 -86.9609q-93.8721 -34.1748 -200.307 -34.1748h-52.2656q-106.336 0 -200.775 34.1133q-73.7852 33.8818 -128.763 93.2598
q-54.9287 59.3213 -86.2959 138.163q-31.6426 79.5322 -31.6426 169.704v108.398l231 40.6133v-149.012q0 -40.4092 13.7881 -74.7432q17.7549 -35.2021 49.1611 -61.8096q31.4033 -26.6064 72.9561 -41.877q40.5244 -14.8896 88.2207 -14.8896h36.9678
q46.5693 0 87.8438 13.8369q41.7852 14.0107 72.3291 38.2939q31.0303 24.668 49.1572 57.3652q17.5762 31.707 17.5762 69.0195v1149.88h231z" />
    <glyph glyph-name="K" unicode="K" horiz-adv-x="1269" 
d="M395 -57.3604h-231v1548.72h231v-709.205l596.562 709.205h288.947l-652.318 -774.36l652.318 -774.36h-288.947l-596.562 709.205v-709.205z" />
    <glyph glyph-name="L" unicode="L" horiz-adv-x="1066" 
d="M1025 -57.3604h-882v1548.72h231v-1305.72h651v-243z" />
    <glyph glyph-name="M" unicode="M" horiz-adv-x="1645" 
d="M1482 -57.0039h-231v763.103l-357.195 -763.103h-139.5l-359.305 762.541v-762.541h-231v1548.72h153.513l505.437 -1177.93l503.011 1184.33h154.54z" />
    <glyph glyph-name="N" unicode="N" horiz-adv-x="1339" 
d="M1046.15 -57.3604l-24.6104 9.23535l-610.498 989.014v-998.249h-247.042v1548.72h147.575l632.425 -1001.07v1001.07h231v-1548.72h-128.85z" />
    <glyph glyph-name="O" unicode="O" horiz-adv-x="1298" 
d="M1154 1104.76v-775.525q0 -84.0908 -31.6396 -158.263q-31.3701 -73.5205 -86.2998 -128.847q-54.9229 -55.3193 -127.952 -86.9141q-91.6328 -34.1738 -195.525 -34.1738h-126.921q-103.798 0 -195.984 34.1123q-73.7598 31.5967 -128.74 86.9727
q-54.9277 55.3223 -86.2949 128.847q-31.6426 74.1709 -31.6426 158.263v775.528q0 84.0898 31.6426 158.264q31.3613 73.5156 86.2949 128.845q54.9727 55.3711 128.74 86.9717q92.1826 34.1172 195.984 34.1172h126.921q103.891 0 195.525 -34.1719
q73.0342 -31.5996 127.952 -86.917q54.9395 -55.3291 86.2998 -128.845q31.6396 -74.1738 31.6396 -158.264zM923 338.784v756.335q0 36.752 -13.7881 67.9746q-17.3477 32.0107 -47.3877 55.7285q-30.0273 23.7051 -70.5928 37.5938q-39.5537 13.5449 -86.1143 13.5449
h-111.989q-46.5615 0 -86.1152 -13.5449q-40.8008 -13.9746 -71.5752 -37.875q-30.4004 -23.6191 -47.6494 -55.4473q-13.7881 -31.2227 -13.7881 -67.9746v-756.335q0 -36.7529 13.7881 -67.9795q17.3535 -32.0146 48.0107 -56.2139q30.6543 -24.2002 71.2139 -38.0869
q39.5576 -13.5439 86.1152 -13.5439h111.989q46.5566 0 86.1143 13.5439q40.3174 13.8037 70.2344 37.8018q30.2891 24.2949 47.7461 56.499q13.7881 31.2275 13.7881 67.9795z" />
    <glyph glyph-name="P" unicode="P" horiz-adv-x="1257" 
d="M1175 1076.55v-181.957q0 -85.3467 -31.6396 -160.626q-31.3701 -74.623 -86.2998 -130.771q-54.9707 -56.1992 -129.034 -88.2715q-121.83 -32.2881 -259.026 -32.2881h-274v-540h-231v1548.72h505q137.196 0 259.026 -34.1172q74.0635 -32.0771 129.034 -88.2686
q54.9893 -56.2139 86.3496 -131.414q31.5898 -75.7305 31.5898 -161.007zM944 899.554v173.911q0 36.5586 -13.7881 67.6191q-22.6162 31.8379 -63.1416 55.9219q-40.5078 24.0625 -94.1221 37.8867q-52.2773 13.4678 -109.948 13.4678h-268v-522.721h268
q57.6631 0 109.948 13.4717q53.917 13.8926 94.5986 37.6758q40.1797 23.4922 62.665 55.1504q13.7881 31.0625 13.7881 67.6162z" />
    <glyph glyph-name="Q" unicode="Q" horiz-adv-x="1298" 
d="M1154 1116.71v-775.226q0 -80.4355 -28.7002 -152.098q-28.5596 -71.3086 -79.0693 -125.627q-50.3057 -54.1035 -118.076 -87.9316q-40.9258 -19.7051 -90.6436 -30.707l149.939 -330.886h-280.038l-163.738 320.032q-81.2227 5.75195 -153.996 32.6816
q-73.7598 31.5967 -128.74 86.9717q-54.9277 55.3232 -86.2949 128.847q-31.6426 74.1709 -31.6426 158.263v775.528q0 84.0898 31.6426 158.264q31.3613 73.5156 86.2949 128.845q54.9727 55.3711 128.74 86.9717q92.1826 34.1172 195.984 34.1172h126.921
q103.891 0 195.525 -34.1719q73.0342 -31.5889 127.952 -86.8848q54.9395 -55.3076 86.2998 -128.79q31.6396 -74.1533 31.6396 -158.199zM923 350.584v756.335q0 36.752 -13.7881 67.9756q-17.3477 32.0098 -47.3877 55.7275q-30.0273 23.7061 -70.5928 37.5947
q-39.5537 13.543 -86.1143 13.543h-111.989q-46.5615 0 -86.1152 -13.543q-40.8008 -13.9746 -71.5752 -37.876q-30.4004 -23.6191 -47.6494 -55.4463q-13.7881 -31.2236 -13.7881 -67.9756v-756.335q0 -36.7529 13.7881 -67.9795q17.3535 -32.0146 48.0107 -56.2139
q30.6543 -24.1992 71.2139 -38.0859q39.5576 -13.5439 86.1152 -13.5439h111.989q46.5566 0 86.1143 13.5439q40.3174 13.8027 70.2344 37.8008q30.2891 24.2949 47.7461 56.499q13.7881 31.2275 13.7881 67.9795z" />
    <glyph glyph-name="R" unicode="R" horiz-adv-x="1273" 
d="M1232.85 -57.3604h-269.863l-470.477 605.88h-118.51v-605.88h-231v1548.72h563.599q100.98 0 190.046 -34.1719q84.498 -31.5898 139.416 -86.8857q54.9893 -55.3613 86.3496 -129.428q31.5898 -74.584 31.5898 -158.564v-116.789q0 -83.9873 -31.5898 -158.569
q-31.3701 -74.082 -86.3496 -129.432q-54.9258 -55.2988 -139.416 -86.8779q-40.8369 -14.6074 -84.8047 -22.6201zM914.625 964.039v111.802q0 36.0615 -16.6758 66.7012q-17.1963 31.6006 -46.6396 55.4365q-29.0732 23.543 -68.2656 37.0977
q-38.4453 13.2842 -83.7021 13.2842h-325.342v-456.841h325.342q45.251 0 83.7021 13.29q39.1885 13.5439 68.2656 37.0898q29.4424 23.8428 46.6396 55.4385q16.6758 30.6436 16.6758 66.7012z" />
    <glyph glyph-name="S" unicode="S" horiz-adv-x="1267" 
d="M1154 368.113v-42.8496q0 -83.8896 -34.1797 -157.797q-33.4805 -72.3838 -89.8203 -126.821q-56.3965 -54.501 -132.854 -85.6104q-92.4541 -33.9951 -195.14 -33.9951h-127.014q-102.688 0 -195.14 33.9951q-76.457 33.7178 -132.857 92.7822
q-56.3301 58.9951 -89.8125 137.446q-34.1836 80.0938 -34.1836 171.017v108.398l231 40.6133v-149.012q0 -39.543 14.6582 -73.2373q19.0264 -35.5059 51.2207 -62.4209q32.1855 -26.9062 74.959 -42.4072q42.0928 -15.2549 88.7871 -15.2549h110.983
q46.5596 0 87.9326 13.9971q42.3008 14.3096 74.5801 39.2119q32.1934 24.835 51.2207 57.5986q14.6582 31.0869 14.6582 67.5791v42.8525q0 59.835 -23.5518 96.6924q-29.0498 39.666 -77.5361 67.8291q-52.8965 30.7246 -120.282 52.3262
q-74.0264 23.7314 -152.419 47.4902q-81.5166 24.7051 -158.63 54.5742q-71.3232 32.1006 -124.828 80.4238q-55.7227 50.3242 -89.0801 122.542q-33.6729 72.9004 -33.6729 175.726v26.9023q0 83.2031 31.6426 156.6q31.3613 72.7383 86.2949 127.483
q54.9727 54.7881 133.396 86.0547q91.3545 34.1172 194.224 34.1172h113.45q102.959 0 193.771 -34.1719q75.3652 -33.8789 130.283 -93.2031q54.9395 -59.335 86.2998 -138.164q31.6396 -79.5312 31.6396 -169.701v-86.7979l-231 -40.6133v127.411
q0 40.4033 -15.8926 74.7471q-17.4287 35.1865 -47.1982 61.2676q-29.7568 26.0605 -69.959 41.332q-39.1992 14.8945 -85.3418 14.8945h-98.6523q-46.1436 0 -85.3408 -13.7383q-40.4365 -14.1807 -70.9336 -38.4277q-30.1279 -23.9639 -47.457 -56.2451
q-17.0029 -31.6865 -17.0029 -68.9688v-26.9033q0 -54.3477 26.3926 -88.9121q28.9209 -37.874 77.4248 -65.2305q53.3701 -30.1006 121.409 -52.3672q74.4316 -24.3594 153.2 -49.7188q81.4531 -26.2275 157.81 -57.6377q66.9287 -33.6201 120.212 -82.8486
q55.54 -51.3105 88.7803 -124.418q33.5498 -73.7744 33.5498 -176.432z" />
    <glyph glyph-name="T" unicode="T" horiz-adv-x="1099" 
d="M1058 1248.36h-365.18l2.2793 -1305.72h-295.9l6.98145 1305.72h-365.181v243h1017v-243z" />
    <glyph glyph-name="U" unicode="U" horiz-adv-x="1298" 
d="M1154 1492.16v-1161.92q0 -84.1367 -31.6396 -158.35q-31.3701 -73.5605 -86.2998 -128.918q-54.9229 -55.3496 -131.318 -86.9609q-90.4443 -34.1748 -192.99 -34.1748h-125.275q-102.451 0 -193.441 34.1133q-77.1172 31.6133 -132.098 87.0205
q-54.9277 55.3516 -86.2949 128.917q-31.6426 74.2109 -31.6426 158.35v1161.92h231v-1149.88q0 -37.3154 16.9336 -69.0195q17.3643 -32.5059 47.623 -57.0771q30.2578 -24.5684 70.291 -38.6689q39.0439 -13.75 84.998 -13.75h110.537q45.9531 0 84.998 13.75
q39.7949 14.0156 69.3242 38.3809q29.8955 24.668 47.3613 57.3652q16.9336 31.707 16.9336 69.0195v1149.88h231z" />
    <glyph glyph-name="V" unicode="V" horiz-adv-x="1154" 
d="M260.639 1491.36l333.432 -1077.04l334.483 1077.04h239.696l-490.285 -1548.72h-170.379l-487.586 1548.72h240.639z" />
    <glyph glyph-name="W" unicode="W" horiz-adv-x="1848" 
d="M1837.55 1491.36l-507.96 -1548.72h-145.76l-244.352 1020.6l-344.598 -1020.6h-145.78l-408.101 1548.72h234.84l245.072 -1026.69l342.712 1026.69h151.396l241.12 -1028.46l334.721 987.085q2.0498 7.41016 6.09961 21.2871q4.0498 13.8789 5.7998 20.0889h234.79z
" />
    <glyph glyph-name="X" unicode="X" horiz-adv-x="1195" 
d="M1196.34 -57.3604h-252.832l-314.338 574.594l-314.338 -574.594h-253.832l414.737 794.564l-393.611 754.156h252.69l294.362 -530.239l293.293 530.239h252.738l-393.596 -754.156z" />
    <glyph glyph-name="Y" unicode="Y" horiz-adv-x="1154" 
d="M1175.06 1491.36l-427.274 -817.582v-731.139h-275.737v729.064l-431.049 819.656h252.789l314.338 -574.594l314.338 574.594h252.596z" />
    <glyph glyph-name="Z" unicode="Z" horiz-adv-x="1175" 
d="M1093 -57.3604h-1011v123.779l694.825 1181.94h-674.825v243h991v-124.784l-694.788 -1180.94h694.788v-243z" />
    <glyph glyph-name="bracketleft" unicode="[" horiz-adv-x="633" 
d="M581 -545.72h-468v2287.44h468v-230.04h-243v-1827.36h243v-230.04z" />
    <glyph glyph-name="backslash" unicode="\" horiz-adv-x="782" 
d="M575.476 -245.239l-605.688 1923.48h236.737l605.688 -1923.48h-236.737z" />
    <glyph glyph-name="bracketright" unicode="]" horiz-adv-x="633" 
d="M51 -315.68h244v1827.36h-244v230.04h469v-2287.44h-469v230.04z" />
    <glyph glyph-name="asciicircum" unicode="^" horiz-adv-x="1104" 
d="M1067.04 694.6h-253.365l-262.521 521.564l-260.73 -521.564h-253.461l415.806 820.801h198.463z" />
    <glyph glyph-name="underscore" unicode="_" horiz-adv-x="1122" 
d="M1175 -233.239v-236.521h-1228v236.521h1228z" />
    <glyph glyph-name="grave" unicode="`" horiz-adv-x="778" 
d="M71.1318 1498.92h366.255l230.585 -375.84h-206.4z" />
    <glyph glyph-name="a" unicode="a" 
d="M1011 -40.96h-119.294l-47.376 76.748q-33.9336 -32.4893 -74.3857 -55.7197q-98.3086 -42.6289 -216.408 -42.6289h-41.7373q-97.5303 0 -173.837 29.8105q-64.0586 27.3623 -112.023 75.3174q-47.9658 47.9531 -75.3369 111.997q-27.6016 64.5811 -27.6016 137.003
v9.99902q0 72.4219 27.6016 137.005q27.3711 64.0449 75.3369 111.997q47.9707 47.958 112.023 75.3164q76.3145 27.5957 173.837 27.5957h274.201v90.374q0 22.3672 -9.83887 41.6582q-10.1348 19.8701 -32.8701 34.3047q-23.0078 14.4326 -54.6816 22.9932
q-30.751 8.30957 -66.4082 8.30957h-96.9395q-35.6543 0 -66.4062 -10.626q-31.6738 -10.9453 -54.6826 -29.4014q-23.0078 -18.4561 -36.334 -43.8633q-9.83887 -24.668 -9.83887 -53.2695v-104.721l-225 39.5137v57.6475q0 78.2363 27.6016 148
q27.373 69.1885 75.3369 120.986q47.9629 51.7998 112.023 81.3652q79.7627 29.8086 177.3 29.8086h96.9395q97.54 0 173.837 -29.8086q64.0635 -26.8711 112.024 -73.9434q47.9678 -47.0811 75.3359 -109.952q27.6016 -63.4072 27.6016 -134.504v-779.312zM786 286.565
v153.074h-274.201q-35.6562 0 -66.4082 -8.80664q-31.3359 -8.97559 -54.1826 -24.4824q-23.1279 -15.8584 -33.3691 -37.1396q-9.83887 -20.4463 -9.83887 -44.1523v-38.4932q0 -23.7061 9.83887 -44.1514q10.1338 -21.0586 32.8701 -36.3564
q23.0078 -15.2979 54.6816 -24.3701q30.752 -8.80762 66.4082 -8.80762h110.402q35.6572 0 66.4082 8.80762q31.6748 9.07324 54.6816 24.3701q22.7363 15.2979 32.8701 36.3564q9.83887 20.4453 9.83887 44.1514z" />
    <glyph glyph-name="b" unicode="b" 
d="M1011 722.972v-453.144q0 -71.0449 -27.6016 -134.411q-27.3672 -62.8252 -75.3359 -109.876q-47.9629 -47.0439 -112.024 -73.8916q-76.3047 -29.8096 -173.837 -29.8096h-110.402q-97.5303 0 -173.837 29.8096q-64.0586 27.5859 -112.023 75.9336
q-47.9658 48.3447 -75.3369 112.912q-27.6016 65.1094 -27.6016 138.124v1213.54h225v-472.863q13.8574 8.78711 30.6875 16.0986q93.415 35.5645 201.776 35.5645h41.7373q97.54 0 173.837 -29.8076q64.0635 -26.8525 112.024 -73.8945q47.9678 -47.0479 75.3359 -109.875
q27.6016 -63.3643 27.6016 -134.411zM786 275.275v442.25q0 24.6045 -9.83887 45.8262q-10.1348 21.8574 -32.8701 37.7334q-23.0078 15.8779 -54.6816 25.2939q-30.751 9.14062 -66.4082 9.14062h-110.402q-35.6562 0 -66.4082 -9.14062
q-31.6719 -9.41504 -54.6816 -25.2939q-22.7354 -15.876 -32.8701 -37.7334q-9.83887 -21.2217 -9.83887 -45.8262v-442.25q0 -24.6045 9.83887 -45.8262q10.1338 -21.8564 32.8701 -37.7344q23.0078 -15.877 54.6816 -25.2939q30.752 -9.14062 66.4082 -9.14062h110.402
q35.6572 0 66.4082 9.14062q31.6748 9.41699 54.6816 25.2939q22.7363 15.8779 32.8701 37.7344q9.83887 21.2217 9.83887 45.8262z" />
    <glyph glyph-name="c" unicode="c" 
d="M1011 408.727v-91.127q0 -78.2295 -27.6016 -148q-27.3672 -69.1797 -75.3359 -120.987q-47.9629 -51.8008 -112.024 -81.3623q-76.3047 -29.8105 -173.837 -29.8105h-110.402q-97.5303 0 -173.837 29.8105q-64.0586 26.8447 -112.023 73.8906
q-47.9658 47.0459 -75.3369 109.877q-27.6016 63.3604 -27.6016 134.411v453.143q0 71.0518 27.6016 134.411q27.373 62.833 75.3369 109.876q47.9629 47.042 112.023 73.8936q76.2998 29.8086 173.837 29.8086h110.402q97.54 0 173.837 -29.8086
q64.0635 -29.5684 112.024 -81.3652q47.9678 -51.8037 75.3359 -120.986q27.6016 -69.7676 27.6016 -148v-91.127l-225 -39.5137v138.2q0 28.6016 -9.83887 53.2695q-10.1348 25.4072 -32.8701 43.8633q-23.0078 18.4551 -54.6816 29.4014q-30.751 10.626 -66.4082 10.626
h-110.402q-35.6562 0 -66.4082 -9.14062q-31.6719 -9.41602 -54.6816 -25.2939q-22.7354 -15.877 -32.8701 -37.7344q-9.83887 -21.2217 -9.83887 -45.8262v-442.25q0 -24.6035 9.83887 -45.8262q10.1338 -21.8555 32.8701 -37.7344q23.0078 -15.877 54.6816 -25.2939
q30.752 -9.14062 66.4082 -9.14062h110.402q35.6572 0 66.4082 10.626q31.6748 10.9463 54.6816 29.4014q22.7363 18.457 32.8701 43.8633q9.83887 24.6689 9.83887 53.2695v138.2z" />
    <glyph glyph-name="d" unicode="d" 
d="M1011 -56.5605h-119.588l-46.9551 77.5596q-33.5586 -33.0107 -74.5127 -56.5303q-98.3086 -42.6289 -216.408 -42.6289h-41.7373q-97.5303 0 -173.837 29.8096q-64.0586 26.8457 -112.023 73.8916q-47.9658 47.0449 -75.3369 109.876q-27.6016 63.3604 -27.6016 134.411
v453.144q0 71.0518 27.6016 134.411q27.373 62.833 75.3369 109.875q47.9629 47.043 112.023 73.8945q76.2998 29.8076 173.837 29.8076h41.7373q108.357 0 201.776 -35.5645q16.8252 -7.31152 30.6875 -16.0986v472.863h225v-1548.72zM786 275.275v442.25
q0 24.6045 -9.83887 45.8262q-10.1348 21.8574 -32.8701 37.7334q-23.0078 15.8779 -54.6816 25.2939q-30.751 9.14062 -66.4082 9.14062h-110.402q-35.6562 0 -66.4082 -9.14062q-31.6719 -9.41504 -54.6816 -25.2939q-22.7354 -15.876 -32.8701 -37.7334
q-9.83887 -21.2217 -9.83887 -45.8262v-442.25q0 -24.6045 9.83887 -45.8262q10.1338 -21.8564 32.8701 -37.7344q23.0078 -15.877 54.6816 -25.2939q30.752 -9.14062 66.4082 -9.14062h110.402q35.6572 0 66.4082 9.14062q31.6748 9.41699 54.6816 25.2939
q22.7363 15.8779 32.8701 37.7344q9.83887 21.2217 9.83887 45.8262z" />
    <glyph glyph-name="e" unicode="e" 
d="M1011 408.727v-91.127q0 -78.2295 -27.6016 -148q-27.3672 -69.1797 -75.3359 -120.987q-47.9629 -51.8008 -112.024 -81.3623q-76.3047 -29.8105 -173.837 -29.8105h-110.402q-97.5303 0 -173.837 29.8105q-64.0586 26.8447 -112.023 73.8906
q-47.9658 47.0459 -75.3369 109.877q-27.6016 63.3604 -27.6016 134.411v453.143q0 71.0518 27.6016 134.411q27.373 62.833 75.3369 109.876q47.9629 47.042 112.023 73.8936q76.2998 29.8086 173.837 29.8086h110.402q97.54 0 173.837 -29.8086
q64.0635 -27.1211 112.024 -74.6318q47.9678 -47.5195 75.3359 -110.978q27.6016 -63.9971 27.6016 -135.756v-289.267h-663v-159.09q0 -23.8037 9.83887 -44.332q10.1338 -21.1455 32.8701 -36.5059q23.0078 -15.3604 54.6816 -24.4697q30.752 -8.84277 66.4082 -8.84277
h110.402q35.6572 0 66.4082 10.626q31.6748 10.9463 54.6816 29.4014q22.7363 18.457 32.8701 43.8633q9.83887 24.6689 9.83887 53.2695v138.2zM786 659.96v84.6807q0 22.2031 -9.83887 41.3535q-10.1348 19.7236 -32.8701 34.0518q-23.0078 14.3271 -54.6816 22.8232
q-30.751 8.25098 -66.4082 8.25098h-110.402q-35.6562 0 -66.4082 -8.25098q-31.6719 -8.49414 -54.6816 -22.8232q-22.7354 -14.3281 -32.8701 -34.0518q-9.83887 -19.1484 -9.83887 -41.3535v-84.6807h438z" />
    <glyph glyph-name="f" unicode="f" horiz-adv-x="792" 
d="M792 1254.84h-164q-20.4102 0 -37.1973 -7.8623q-17.6016 -8.25098 -30.7402 -22.4424q-13.0137 -14.0615 -24.5381 -33.4043q-11.6621 -18.8135 -11.6621 -41.0508v-101.52h247.138v-236.521h-247.138l-93.8623 -869.4h-225v869.4h-185v236.521h185v95.0391
q0 71.6807 25.0508 135.454q24.873 63.3203 87.8477 110.851q69.0518 47.4668 160.249 74.3262q83.3848 27.1299 149.853 27.1299h164v-236.521z" />
    <glyph glyph-name="g" unicode="g" 
d="M1021 -105.28v-4.31934q0 -78.8262 -28.0254 -145.804q-27.8896 -66.6514 -76.8066 -114.327q-58.2461 -47.0088 -137.223 -72.8203q-78.3525 -25.6094 -166.034 -25.6094h-62.8115q-87.6797 0 -166.033 25.6094q-67.001 25.8096 -115.234 72.8203
q-48.915 47.6729 -76.8066 114.327q-28.0254 66.9756 -28.0254 145.804v4.31934q0 69.8477 26.3193 128.924q13.8008 30.9766 33.252 58.0869q-27.6211 26.2432 -47.2686 59.9453q-35.3027 60.5547 -35.3027 133.275q0 65.1084 28.2861 121.586
q14.7549 29.4609 35.8994 53.9902q-29.2246 34.7031 -49.2598 76.3984q-32.9258 68.5205 -32.9258 148.997v76.0469q0 71.5439 27.6016 135.34q27.373 63.2695 75.3369 110.638q47.9629 47.3682 112.023 74.4053q72.4199 29.8076 161.642 29.8076h62.8125
q107.911 0 199.883 -42.541q50.4658 -23.3467 92.1104 -56.3467l56.7783 77.2881h119.812v-412.117q0 -72.9893 -27.5996 -138.083q-27.3701 -64.5449 -75.3379 -112.879q-55.1641 -48.3291 -134.061 -75.9092q-79.5566 -27.8115 -168.775 -27.8115h-219.224
q-12.4541 0 -23.6143 -2.29199q-13.3447 -2.73926 -21.4648 -7.1416q-6.80176 -3.71289 -10.7402 -9.13867q-4.18359 -5.76465 -4.18359 -11.9521q0 -6.04688 4.00391 -11.4229q4.12305 -5.53418 11.5586 -9.7373q7.49023 -4.20312 19.5518 -6.5332
q11.71 -2.2627 24.8887 -2.2627h206.908q87.6855 0 166.034 -25.6094q78.9814 -25.8154 137.223 -72.8203q48.9189 -47.6777 76.8066 -114.327q28.0254 -66.9775 28.0254 -145.804zM782.871 666.085v83.75q0 24.375 -12.1182 45.3955q-12.3477 21.4219 -33.6826 37.04
q-21.8154 15.9688 -51.0977 25.3936q-28.1289 9.05566 -60.7461 9.05566h-125.623q-32.6143 0 -60.7451 -9.05566q-28.9727 -9.32617 -50.0205 -25.0547q-20.8643 -15.7266 -30.999 -37.3789q-9.83887 -21.0195 -9.83887 -45.3955v-83.75q0 -24.376 9.83887 -45.3955
q10.1348 -21.6523 30.999 -37.3789q21.0479 -15.7285 50.0205 -25.0547q28.1309 -9.05566 60.7451 -9.05566h125.623q32.6172 0 60.7461 9.05566q29.2803 9.4248 51.0977 25.3936q21.335 15.6182 33.6826 37.04q12.1182 21.0215 12.1182 45.3955zM776.713 -116.08v17.2803
q0 27.5547 -11.1758 48.2041q-11.3223 20.9189 -30.2676 34.7617q-20.5693 15.0312 -49.5107 23.6221q-30.2305 8.97266 -65.459 8.97266h-77.5898q-35.2275 0 -65.458 -8.97266q-28.9443 -8.59082 -49.5117 -23.6221q-18.9463 -13.8457 -30.2666 -34.7617
q-11.1758 -20.6514 -11.1758 -48.2041v-17.2803q0 -27.3604 10.9951 -47.334q11.5068 -20.9004 31.0322 -35.5254q20.3574 -15.249 48.9268 -23.7285q30.2305 -8.97168 65.458 -8.97168h77.5898q35.2285 0 65.459 8.97168q28.5684 8.47949 48.9268 23.7285
q19.5254 14.625 31.0312 35.5254q10.9961 19.9736 10.9961 47.334z" />
    <glyph glyph-name="h" unicode="h" 
d="M1011 -57.3604h-225v769.996q0 25.458 -12.8262 47.4141q-13.2109 22.6152 -35.4883 39.0439q-22.2754 16.4268 -52.9424 26.167q-29.7744 9.45898 -64.2969 9.45898h-106.893q-34.5215 0 -64.2969 -9.45898q-30.666 -9.73926 -52.9424 -26.167
q-22.2773 -16.4287 -35.4883 -39.0439q-12.8262 -21.9561 -12.8262 -47.4141v-769.996h-225v1548.72h225v-472.864q18.0645 8.78711 36.6738 16.0996q90.4463 35.5645 195.362 35.5645h40.4102q94.4385 0 175.592 -29.8076q64.0635 -26.8711 112.024 -73.9434
q47.9678 -47.0811 75.3359 -109.953q27.6016 -63.4072 27.6016 -134.503v-779.313z" />
    <glyph glyph-name="i" unicode="i" horiz-adv-x="553" 
d="M399 1204.08h-245v287.28h245v-287.28zM389 -57.3604h-225v1105.92h225v-1105.92z" />
    <glyph glyph-name="j" unicode="j" horiz-adv-x="553" 
d="M399 1220.48h-245v287.279h245v-287.279zM389 1064.96v-1168.56q0 -78.332 -27.668 -147.629q-27.3682 -68.5459 -75.2695 -120.278q-47.8262 -51.6514 -111.665 -81.7363q-64.7568 -30.5176 -137.397 -30.5176h-51v236.521h51q26.4824 0 49.3232 10.626
q23.5254 10.9434 40.6152 29.4004q17.0889 18.457 27.2227 43.8643q9.83887 24.668 9.83887 53.2686v1175.04h225z" />
    <glyph glyph-name="k" unicode="k" 
d="M389 -57.3604h-225v1548.72h225v-928.028l468.799 485.229h293.312l-519.949 -552.961l519.949 -552.96h-293.312l-468.799 485.229v-485.229z" />
    <glyph glyph-name="l" unicode="l" horiz-adv-x="553" 
d="M389 -57.3604h-225v1548.72h225v-1548.72z" />
    <glyph glyph-name="m" unicode="m" horiz-adv-x="1756" 
d="M1633 -41.7607h-225v769.996q0 25.458 -13.0098 47.4141q-13.4102 22.6182 -36.0205 39.0439q-22.6094 16.4297 -53.7197 26.168q-30.21 9.45898 -65.2402 9.45898h-80.6895q-35.04 0 -65.25 -9.45898q-31.4502 -9.84473 -54.8809 -26.5244
q-22.9092 -16.3125 -36.1797 -38.6875q-13.0098 -21.9561 -13.0098 -47.4141v-769.996h-224v769.996q0 25.458 -13.0146 47.4141q-13.2627 22.375 -36.1777 38.6875q-23.4307 16.6797 -54.8799 26.5244q-30.2129 9.45898 -65.2441 9.45898h-80.6895
q-35.0312 0 -65.2441 -9.45898q-20.8867 -6.53809 -37.8477 -16.0312q-8.37598 -4.6875 -15.876 -10.1367q-22.6055 -16.4287 -36.0117 -39.0439q-13.0146 -21.9561 -13.0146 -47.4141v-769.996h-225v1105.92h119.812l46.1025 -77.2871q33.8135 32.999 79.8584 56.3457
q98.7812 42.541 214.684 42.541h13.2275q134.155 0 225.011 -54.5879q46.5801 -30.9033 81.7217 -74.2061q4.98047 6.03711 9.89453 11.5322q32.6338 36.5049 72.3555 62.3721q51.1943 25.8916 112.684 40.3203q62.0303 14.5693 128.431 14.5693h13.2295
q95.8301 0 178.03 -29.8076q64.0498 -26.8682 112.021 -73.9434q47.959 -47.0664 75.3398 -109.953q27.5996 -63.3965 27.5996 -134.503v-779.313z" />
    <glyph glyph-name="n" unicode="n" 
d="M1011 -41.7607h-225v769.996q0 25.458 -12.8262 47.4141q-13.2109 22.6152 -35.4883 39.0439q-22.2754 16.4268 -52.9424 26.168q-29.7744 9.45898 -64.2969 9.45898h-106.893q-34.5215 0 -64.2969 -9.45898q-20.583 -6.53809 -37.2979 -16.0312
q-8.25391 -4.6875 -15.6445 -10.1367q-22.2773 -16.4287 -35.4883 -39.0439q-12.8262 -21.9561 -12.8262 -47.4141v-769.996h-225v1105.92h119.812l46.1025 -77.2871q33.8135 32.999 79.5557 56.3457q97.3486 42.541 211.566 42.541h40.4102q94.4385 0 175.592 -29.8076
q64.0635 -26.8711 112.024 -73.9434q47.9678 -47.0811 75.3359 -109.953q27.6016 -63.4062 27.6016 -134.503v-779.313z" />
    <glyph glyph-name="o" unicode="o" 
d="M1011 738.571v-453.143q0 -71.0459 -27.6016 -134.411q-27.3672 -62.8262 -75.3359 -109.877q-47.9629 -47.0439 -112.024 -73.8906q-76.3047 -29.8105 -173.837 -29.8105h-110.402q-97.5303 0 -173.837 29.8105q-64.0586 26.8447 -112.023 73.8906
q-47.9658 47.0459 -75.3369 109.877q-27.6016 63.3604 -27.6016 134.411v453.143q0 71.0518 27.6016 134.411q27.373 62.833 75.3369 109.876q47.9629 47.042 112.023 73.8936q76.2998 29.8086 173.837 29.8086h110.402q97.54 0 173.837 -29.8086
q64.0635 -26.8516 112.024 -73.8936q47.9678 -47.0479 75.3359 -109.876q27.6016 -63.3633 27.6016 -134.411zM786 290.875v442.25q0 24.6045 -9.83887 45.8262q-10.1348 21.8574 -32.8701 37.7344q-23.0078 15.877 -54.6816 25.2939q-30.751 9.14062 -66.4082 9.14062
h-110.402q-35.6562 0 -66.4082 -9.14062q-31.6719 -9.41602 -54.6816 -25.2939q-22.7354 -15.877 -32.8701 -37.7344q-9.83887 -21.2217 -9.83887 -45.8262v-442.25q0 -24.6035 9.83887 -45.8262q10.1338 -21.8555 32.8701 -37.7344q23.0078 -15.877 54.6816 -25.2939
q30.752 -9.14062 66.4082 -9.14062h110.402q35.6572 0 66.4082 9.14062q31.6748 9.41699 54.6816 25.2939q22.7363 15.8789 32.8701 37.7344q9.83887 21.2227 9.83887 45.8262z" />
    <glyph glyph-name="p" unicode="p" 
d="M1011 754.172v-453.144q0 -71.0449 -27.6016 -134.411q-27.3672 -62.8262 -75.3359 -109.876q-47.9629 -47.0449 -112.024 -73.8916q-72.7979 -29.8096 -162.813 -29.8096h-38.5205q-100.017 0 -186.226 35.5586q-17.7441 7.31934 -34.959 16.1045v-472.863h-250.52
v1548.72h119.812l57.2871 -77.2881q42.0176 33 92.9346 56.3467q92.7949 42.541 201.671 42.541h38.5205q90.0234 0 162.813 -29.8076q64.0635 -26.8525 112.024 -73.8945q47.9678 -47.0479 75.3359 -109.875q27.6016 -63.3643 27.6016 -134.411zM786 306.475v442.25
q0 24.6055 -9.83887 45.8262q-10.1348 21.8574 -31.1787 37.7344q-21.2344 15.877 -50.4678 25.2939q-28.3809 9.14062 -61.29 9.14062h-101.894q-32.9072 0 -61.2891 -9.14062q-29.2324 -9.41602 -50.4678 -25.2939q-21.2354 -15.877 -33.8281 -37.7344
q-12.2266 -21.2207 -12.2266 -45.8262v-442.25q0 -24.6035 12.2266 -45.8262q12.5918 -21.8555 33.8281 -37.7334q21.2344 -15.8779 50.4678 -25.2939q28.3818 -9.14062 61.2891 -9.14062h101.894q32.9092 0 61.29 9.14062q29.2344 9.41602 50.4678 25.2939
q21.0449 15.8779 31.1787 37.7334q9.83887 21.2227 9.83887 45.8262z" />
    <glyph glyph-name="q" unicode="q" 
d="M1011 -468.16h-250.56v472.863q-17.2207 -8.78711 -34.9561 -16.1045q-86.2031 -35.5586 -186.206 -35.5586h-38.5176q-90.0029 0 -162.799 29.8096q-64.0586 26.8457 -112.023 73.8916q-47.9658 47.0449 -75.3369 109.876q-27.6016 63.3604 -27.6016 134.411v453.144
q0 71.0508 27.6016 134.411q27.373 62.833 75.3369 109.875q47.9629 47.043 112.023 73.8945q72.7881 29.8076 162.799 29.8076h38.5176q108.983 0 201.213 -42.6279q50.8838 -23.5195 92.5801 -56.5303l58.3408 77.5586h119.588v-1548.72zM760.44 306.475v442.25
q0 24.6055 -12.2256 45.8262q-12.5918 21.8574 -33.8252 37.7344q-21.2314 15.877 -50.4619 25.2939q-28.3779 9.14062 -61.2832 9.14062h-101.884q-32.9033 0 -61.2832 -9.14062q-29.2285 -9.41602 -50.4619 -25.2939q-21.042 -15.877 -31.1768 -37.7344
q-9.83887 -21.2207 -9.83887 -45.8262v-442.25q0 -24.6035 9.83887 -45.8262q10.1338 -21.8555 31.1768 -37.7334q21.2324 -15.8779 50.4619 -25.2939q28.3799 -9.14062 61.2832 -9.14062h101.884q32.9053 0 61.2832 9.14062q29.2314 9.41602 50.4619 25.2939
q21.2344 15.8779 33.8252 37.7334q12.2256 21.2227 12.2256 45.8262z" />
    <glyph glyph-name="r" unicode="r" horiz-adv-x="690" 
d="M649 827.64h-174q-26.4824 0 -49.3232 -9.42969q-23.5244 -9.71484 -40.6143 -26.0967q-17.0889 -16.3799 -27.2236 -38.9297q-9.83887 -21.8945 -9.83887 -47.2793v-747.665h-225v1105.92h119.812l46.1025 -77.2871q33.8135 32.999 74.7891 56.3457
q74.6777 42.541 162.297 42.541h123v-258.12z" />
    <glyph glyph-name="s" unicode="s" horiz-adv-x="1144" 
d="M1001.89 397.364q29.1104 -57.6865 29.1104 -139.08q0 -70.8379 -30.1201 -130.454q-29.6113 -58.6094 -80.6152 -100.779q-50.084 -41.4082 -115.37 -64.168q-79.6143 -25.4434 -173.597 -25.4434h-108.596q-95.5967 0 -175.788 29.6045
q-65.3926 29.374 -114.823 80.876q-49.3535 51.4199 -78.8594 120.151q-30.2314 70.4209 -30.2314 149.528v91.127l225 39.5137v-138.2q0 -27.499 10.5332 -51.3496q11.6133 -25.5303 36.4912 -44.2568q25.5342 -19.2217 59.3643 -30.583q32.6738 -10.9707 68.3135 -10.9707
h108.596q38.3486 0 73.2373 8.19043q33.8145 7.93652 59.5879 22.4014q23.042 13.2822 33.3984 31.8994q9.47852 17.0391 9.47852 40.3154q0 37.6592 -15.0625 58.7607q-21.2109 24.7422 -60.7529 41.8076q-45.3477 19.5732 -104.476 32.7393
q-66.4297 14.793 -136.209 29.5977q-73.1904 15.5283 -137.779 35.5811q-57.9443 22.0508 -103.624 58.1621q-48.0371 37.9756 -76.8975 94.5928q-29.1992 57.2773 -29.1992 138.772q0 70.4238 28.7734 129.75q28.3701 58.4922 77.0586 100.712
q48.1699 41.7676 111.713 64.7266q81.0107 25.6719 175.4 25.6719h95.3525q95.9443 0 174.74 -29.8086q64.0635 -29.5684 112.024 -81.3652q47.9678 -51.8037 75.3359 -120.986q27.6016 -69.7676 27.6016 -148v-51.168l-225 -39.5127v98.2402q0 28.6016 -9.83887 53.2695
q-13.123 25.4072 -35.7549 43.8633q-22.6309 18.4551 -53.7871 29.4014q-30.248 10.626 -65.3213 10.626h-95.3525q-37.8828 0 -70.3887 -7.9834q-30.7197 -7.54395 -52.6113 -21.1094q-20.9951 -13.0117 -33.3682 -31.6055q-11.5771 -17.7695 -11.5771 -42.1113
q0 -35.1836 18.9023 -54.5742q23.3613 -23.6602 63.1768 -40.4785q45.5928 -19.2617 105.022 -32.4932q66.7197 -14.8594 136.838 -30.8447q72.4102 -16.5098 130.143 -37.5322q57.668 -23.042 103.116 -59.5264q47.9111 -38.4609 76.6914 -95.4971z" />
    <glyph glyph-name="t" unicode="t" horiz-adv-x="915" 
d="M812 -51.959h-163q-66.3701 0 -149.934 27.0557q-92.5889 23.8223 -161.233 66.0283q-61.7529 41.7412 -87.0352 96.7734q-25.7979 56.1562 -25.7979 119.857v559.686h-184v236.521h184v257.45l318.816 39.5059v-296.956h268.184v-236.521h-268.184v-544.57
q0 -18.7773 11.4707 -34.2178q11.6357 -16.1904 24.7754 -28.2783q13.0127 -11.9707 30.9229 -18.9863q17.4229 -6.82715 38.0146 -6.82715h163v-236.521z" />
    <glyph glyph-name="u" unicode="u" 
d="M1011 -40.1602h-119.588l-46.9551 77.5586q-33.5586 -33.0107 -79.3867 -56.5303q-96.7617 -42.6289 -211.106 -42.6289h-40.4102q-94.4287 0 -175.592 29.8105q-64.0586 26.8633 -112.023 73.9424q-47.9658 47.0771 -75.3369 109.952q-27.6016 63.4033 -27.6016 134.503
v779.312h225v-769.995q0 -25.458 12.8262 -47.4141q13.21 -22.6143 35.4883 -39.0439q22.2754 -16.4277 52.9424 -26.168q29.7754 -9.45898 64.2969 -9.45898h106.893q34.5225 0 64.2969 9.45898q20.1465 6.39941 36.5791 15.626q8.6543 4.8584 16.3633 10.542
q22.2783 16.4297 35.4883 39.0439q12.8262 21.9561 12.8262 47.4141v769.995h225v-1105.92z" />
    <glyph glyph-name="v" unicode="v" horiz-adv-x="1031" 
d="M1053.38 1064.96l-435.661 -1105.92h-162.051l-435.668 1105.92h231.575l285.626 -736.162l284.557 736.162h231.622z" />
    <glyph glyph-name="w" unicode="w" horiz-adv-x="1654" 
d="M1672.61 1064.96l-478.07 -1105.92h-141.29l-206.447 717.197l-308.447 -717.197h-142.289l-376.066 1105.92h233.199l210.234 -720.242l308.787 720.242h149.21l205.829 -719.921l312.15 719.921h233.2z" />
    <glyph glyph-name="x" unicode="x" horiz-adv-x="1072" 
d="M1061.96 -40.96h-249.87l-240.036 366.367l-240.036 -366.367h-250.018l333.278 552.96l-333.278 552.96h250.018l240.036 -366.367l240.036 366.367h249.87l-331.923 -552.96z" />
    <glyph glyph-name="y" unicode="y" horiz-adv-x="1011" 
d="M1053.85 1081.36l-625.162 -1548.72h-259.422l226.529 553.807l-375.795 994.914h231.59l285.626 -736.162l284.556 736.162h232.078z" />
    <glyph glyph-name="z" unicode="z" horiz-adv-x="1052" 
d="M970 -40.96h-888v115.255l556.406 754.145h-536.406v236.521h868v-115.256l-556.406 -754.144h556.406v-236.521z" />
    <glyph glyph-name="braceleft" unicode="{" horiz-adv-x="778" 
d="M283 290.2q0 45.5537 -13.3516 81.6035q-13.0322 35.1826 -35.9111 59.4893q-23.001 24.4336 -55.6953 38.1406q-33.5947 14.0859 -74.042 14.0859h-73v228.961h82.9121q38.3906 2.01953 69.1396 16.1309q30.4727 13.9863 52.2803 38.3506
q21.999 24.5791 34.7764 59.2871q12.8916 35.0205 12.8916 79.5508v399.601q0 94.0352 30.3262 173.75q30.4404 80.0176 85.3027 138.639q54.6689 58.4287 128.49 91.1748q73.8184 32.7559 158.881 32.7559h61v-230.04h-61q-40.3379 0 -73.3516 -14.0078
q-32.3086 -13.7051 -55.3857 -38.2207q-22.8799 -24.3105 -35.9111 -59.4863q-13.3516 -36.0508 -13.3516 -80.5254v-400.679q0 -118.793 -48.7158 -215.354q-30.7861 -61.0225 -75.3398 -105.979q44.5508 -45.668 75.2061 -105.651q48.8496 -95.5869 48.8496 -214.537
v-400.679q0 -44.4736 13.3516 -80.5244q13.0322 -35.1855 35.9111 -59.4883q23.0781 -24.5146 55.3857 -38.2227q33.0098 -14.0049 73.3516 -14.0049h61v-230.04h-61q-85.0693 0 -158.881 32.751q-73.8262 32.7588 -128.49 91.1758q-54.8643 58.6299 -85.3027 138.641
q-30.3262 79.7168 -30.3262 173.752v399.601z" />
    <glyph glyph-name="bar" unicode="|" horiz-adv-x="457" 
d="M113 -545.72v2287.44h231v-2287.44h-231z" />
    <glyph glyph-name="braceright" unicode="}" horiz-adv-x="778" 
d="M495 -109.4q0 -94.0352 -30.3262 -173.752q-30.4385 -80.0098 -85.3027 -138.641q-54.6641 -58.417 -128.49 -91.1758q-73.8105 -32.751 -158.881 -32.751h-61v230.04h61q40.3408 0 73.3516 14.0049q32.5098 13.793 56.1826 38.5361q23.1631 24.209 36.1143 59.1748
q13.3516 36.0508 13.3516 80.5244v400.679q0 118.657 47.6055 214.053q30.207 60.5332 75.2695 106.422q-45.167 45.7412 -75.335 106.585q-47.54 95.8828 -47.54 214.462v400.679q0 44.4746 -13.3516 80.5254q-12.9512 34.959 -36.1143 59.1738
q-23.6748 24.7422 -56.1826 38.5332q-33.0156 14.0078 -73.3516 14.0078h-61v230.04h61q85.0645 0 158.881 -32.7559q73.8223 -32.7461 128.49 -91.1748q54.8623 -58.6211 85.3027 -138.639q30.3262 -79.7148 30.3262 -173.75v-399.601q0 -45.5537 13.3516 -81.6035
q12.9512 -34.9678 36.1143 -59.1748q23.6729 -24.7412 56.1826 -38.5361q33.0088 -14.0049 73.3516 -14.0049h73v-228.961h-82.4531q-37.8467 -1.00781 -68.8184 -15.4609q-31.1494 -14.5381 -53.5703 -39.5713q-22.2969 -24.8965 -34.5723 -59.2803
q-12.5859 -35.2559 -12.5859 -79.0068v-399.601z" />
    <glyph glyph-name="asciitilde" unicode="~" horiz-adv-x="985" 
d="M659 657.64q15.2178 0 25.4463 5.90918q11.8203 6.83008 20.1299 18.4941q9.30078 13.0586 14.5996 32.0156q5.82422 20.835 5.82422 46.1807v55.0811h209v-55.0811q0 -66.3457 -16.1221 -124.803q-16.8379 -61.0527 -51.0537 -107.244
q-35.3955 -47.7852 -88.6084 -74.8301q-52.8145 -26.8428 -121.216 -26.8428q-47.3965 0 -87.8496 14.7881q-37.167 13.585 -69.4531 33.5098q-31.1758 19.2383 -59.0645 42.7314q-23.5039 19.8018 -45.9229 35.9414q-20.8086 14.9824 -40.8311 25.1045
q-13.2236 6.68555 -27.8789 6.68555q-28.8682 0 -45.0576 -22.7568q-20.9424 -29.4375 -20.9424 -78.7627v-55.0811h-209v55.0811q0 66.3486 16.1221 124.803q16.9053 61.292 51.8311 107.616q35.8291 47.5205 88.8311 74.458q52.8164 26.8428 120.216 26.8428
q70.4023 0 125.917 -30.9893q48.0889 -26.8447 89.3359 -59.6689q36.8848 -29.3535 70.7549 -53.3916q22.248 -15.791 44.9922 -15.791z" />
    <glyph glyph-name="uni00A0" unicode="&#xa0;" horiz-adv-x="471" 
 />
    <glyph glyph-name="exclamdown" unicode="&#xa1;" horiz-adv-x="428" 
d="M358.882 -522.439h-289.764l60.6094 1190.16h168.545zM342 1136.44v-276.479h-256v276.479h256z" />
    <glyph glyph-name="cent" unicode="&#xa2;" horiz-adv-x="930" 
d="M114.746 -134.04l87.748 304.961q-51.916 45.9775 -85.7744 109.972q-44.7197 84.5215 -44.7197 185.547v500.041q0 78.2344 27.6016 148.003q27.3691 69.1738 75.3369 120.981q47.9551 51.7969 112.023 81.3672q64.5938 29.8076 137.038 29.8076h82
q14.6279 0 29.5732 -1.10156l63.8379 222.501h214.5l-86.4512 -305.563q51.9238 -45.3057 85.8203 -109.371q44.7197 -84.5205 44.7197 -186.624v-91.1279l-225 -39.5107v93.0508l-171.677 -606.093h44.6768q26.4834 0 49.3232 10.626q23.5244 10.9453 40.6143 29.4014
q17.0898 18.457 27.2236 43.8643q9.83887 24.667 9.83887 53.2686v138.721l225 -41.4873v-90.7539q0 -78.2275 -27.6016 -148.001q-27.3652 -69.1768 -75.3359 -120.985q-47.9629 -51.8008 -112.024 -81.3633q-64.5967 -29.8096 -137.038 -29.8096h-82
q-14.6191 0 -29.9316 1.12988l-63.4678 -221.45h-215.854zM297 503.603l172.547 607.598h-45.5469q-26.4834 0 -49.3232 -10.627q-23.2744 -10.8223 -40.2451 -29.5381q-17.3506 -19.127 -27.5928 -44.8096q-9.83887 -24.6641 -9.83887 -53.2656v-469.357z" />
    <glyph glyph-name="sterling" unicode="&#xa3;" horiz-adv-x="1108" 
d="M235.197 737.8q-4.68457 17.7158 -9.27246 35.2295q-14.4404 55.1465 -25.7783 111.917q-11.4561 57.3711 -18.7305 118.536q-7.41602 62.3574 -7.41602 128.518q0 90.1689 31.6426 169.7q31.3613 78.8301 86.2949 138.165q54.9707 59.3779 128.561 93.2578
q74.082 34.1162 157.502 34.1162h28q83.4922 0 157.134 -34.1709q73.0088 -33.8789 127.929 -93.2031q54.9355 -59.335 86.2949 -138.165q31.6426 -79.5312 31.6426 -169.7v-86.7998l-231 -40.6113v127.411q0 40.4033 -13.7881 74.7461q-14.1328 35.1875 -38.2744 61.2695
q-24.1309 26.0605 -56.7314 41.3311q-31.7871 14.8936 -69.2061 14.8936h-16q-37.4189 0 -69.2061 -14.8936q-32.791 -15.3574 -57.5205 -41.6445q-24.4326 -25.9639 -38.4854 -60.9561q-13.7881 -34.3428 -13.7881 -74.7461q0 -55.4902 6.9873 -108.312
q7.14355 -54.0039 19.0469 -106.455q12.1621 -53.5957 27.2617 -107.256q10.0557 -35.7227 19.9727 -72.1768h352.731v-220.319h-301.999q4.87402 -29.3818 8.94141 -58.8369q9.05762 -65.5879 9.05762 -136.644q0 -80.6465 -23.3701 -152.676
q-6.57031 -20.248 -14.5928 -39.5635h506.963v-243h-944v243h86q36.666 0 64.9004 14.2559q28.7266 14.5049 48.6416 39.1992q20.7363 25.7129 32.4951 60.8477q11.9629 35.7441 11.9629 77.9365q0 60.2744 -8.81836 117.922q-5.93164 38.7812 -13.7246 77.5586h-221.457
v220.319h163.197z" />
    <glyph glyph-name="currency" unicode="&#xa4;" horiz-adv-x="1237" 
d="M214.721 1329.99l156.793 -170.468q44.5781 29.3223 94.29 47.9307q71.6055 26.7949 152.196 26.7949q80.5195 0 152.579 -26.752q49.498 -18.3818 93.5244 -47.7354l158.416 169.96l161.211 -177.974l-155.66 -168.114q26.1191 -48.6191 42.7402 -101.62
q24.1895 -77.1807 24.1895 -162.925q0 -85.6924 -24.1602 -163.34q-16.8701 -54.2314 -44.0293 -102.207l159.59 -173.49l-164.561 -173.863l-160.285 170.86q-43.6523 -27.8945 -92.4268 -45.4531q-70.8516 -25.5068 -151.128 -25.5068q-79.1523 0 -150.9 25.4258
q-49.7021 17.6123 -93.3799 45.417l-158.326 -170.992l-164.797 174.112l159.651 173.551q-27.1475 48.3613 -43.3174 102.886q-22.9307 77.3164 -22.9307 162.601q0 85.418 23.0029 161.764q16.1035 53.4463 41.9199 101.044l-155.419 170.111zM368 719.083
q0 -57.9414 19.4639 -107.584q19.6904 -50.2207 53.3193 -86.9873q33.6074 -36.7451 79.6133 -58.4258q45.248 -21.3223 97.6035 -21.3223q53.4463 0 99.2578 21.3955q46.5645 21.7471 80.6797 58.5908q33.9746 36.6934 53.5986 86.749q19.4639 49.6465 19.4639 107.584
q0 58.0312 -19.5273 108.287q-19.6846 50.6621 -53.7529 87.9023q-34.0469 37.2188 -80.4619 58.8945q-45.8115 21.3965 -99.2578 21.3965q-52.3584 0 -97.6035 -21.3242q-45.8633 -21.6152 -79.3965 -58.7256q-33.7266 -37.3252 -53.4727 -88.1436
q-19.5273 -50.2559 -19.5273 -108.287z" />
    <glyph glyph-name="yen" unicode="&#xa5;" horiz-adv-x="950" 
d="M315.041 765.6l-356 780.84h252.621l263.338 -574.594l263.338 574.594h252.621l-356 -780.84h243.041v-221.399h-286v-33.4805h286v-220.319h-286v-402.84h-231v402.84h-289v220.319h289v33.4805h-289v221.399h243.041z" />
    <glyph glyph-name="brokenbar" unicode="&#xa6;" horiz-adv-x="457" 
d="M113 -545.72v1088.64h231v-1088.64h-231zM113 653.08v1088.64h231v-1088.64h-231z" />
    <glyph glyph-name="section" unicode="&#xa7;" horiz-adv-x="1073" 
d="M92 1149.2q0 90.1689 31.6426 169.7q31.3613 78.8398 86.2959 138.164q54.9717 59.3789 128.56 93.2588q74.082 34.1162 157.502 34.1162h92q83.4922 0 157.134 -34.1709q73.0088 -33.8789 127.929 -93.2041q54.9355 -59.334 86.2949 -138.164
q31.6426 -79.5312 31.6426 -169.7v-86.7998l-231 -40.6123v127.412q0 40.4033 -13.7881 74.7461q-14.1328 35.1875 -38.2744 61.2686q-24.1309 26.0605 -56.7314 41.332q-31.7881 14.8926 -69.2061 14.8926h-80q-37.4189 0 -69.2061 -14.8926
q-32.79 -15.3574 -57.5205 -41.6445q-24.4326 -25.9639 -38.4854 -60.9561q-13.7881 -34.3428 -13.7881 -74.7461v-29.1611q0 -58.8916 21.4033 -96.3564q23.4521 -41.0479 62.7842 -70.6953q43.2803 -32.6221 98.4551 -56.7549q60.3594 -26.3984 124.234 -53.8838
q66.0537 -28.4229 128.581 -62.4648q66.9277 -36.4375 120.215 -89.792q55.5381 -55.6084 88.7803 -134.839q33.5469 -79.9561 33.5469 -191.213v-46.4404q0 -59.8018 -15.0898 -114.967q-10.3926 -37.9893 -26.8477 -73.3525q16.6172 -36.9014 27.0918 -77.7959
q14.8457 -57.9639 14.8457 -130.245v-46.4395q0 -90.917 -34.1826 -171.017q-33.4795 -78.4482 -89.8145 -137.445q-56.4014 -59.0674 -130.76 -92.7842q-74.9736 -33.9932 -158.243 -33.9932h-103q-83.2734 0 -158.243 33.9932q-74.3604 33.7197 -130.76 92.7842
q-56.3311 58.9922 -89.8145 137.445q-34.1826 80.0938 -34.1826 171.017v109.839l231 38.6787v-148.518q0 -39.5439 14.6582 -73.2354q15.3574 -35.3008 41.2598 -61.5801q26.2012 -26.5811 61.082 -42.1699q34.1348 -15.2539 72 -15.2539h90q37.7568 0 71.3066 15.167
q34.4971 15.5967 60.7754 42.2568q25.9014 26.2793 41.2598 61.5801q14.6582 33.6895 14.6582 73.2354v46.4395q0 64.8447 -21.8887 104.787q-23.5586 42.9863 -62.876 73.5078q-42.8887 33.291 -97.541 56.707q-60.0293 25.7197 -123.602 51.4658
q-66.1045 26.7725 -128.638 59.1445q-67.1973 34.7871 -120.702 87.1553q-55.7227 54.5371 -89.0801 132.802q-33.6729 79.0029 -33.6729 191.512v28.0801q0 62.9951 15.5645 120.271q11.0127 40.5264 28.7969 78.582q-18.0127 36.9912 -28.9932 79.5967
q-15.3682 59.623 -15.3682 135.189v29.1611zM770 364.04q0 60.6719 -19.4336 99.7666q-20.4805 41.1982 -54.6377 70.2754q-37.1914 31.6611 -85.9668 54.168q-53.998 24.916 -111.413 48.2344q-59.3945 24.123 -118.75 50.9717q-28.7295 12.9951 -56.5625 28.8555
q-0.236328 -5.14258 -0.236328 -9.91113v-28.0801q0 -56.5127 19.1592 -92.3252q21.0068 -39.2656 55.6191 -68.291q37.3975 -31.3594 86.9639 -54.5078q54.7705 -25.582 113.493 -50.6279q60.3896 -25.7588 120.332 -54.2852q26.4395 -12.584 51.4326 -27.4941v33.251z" />
    <glyph glyph-name="dieresis" unicode="&#xa8;" horiz-adv-x="950" 
d="M154 1169.8v275.4h255v-275.4h-255zM541 1169.8v275.4h255v-275.4h-255z" />
    <glyph glyph-name="copyright" unicode="&#xa9;" horiz-adv-x="1679" 
d="M51 717q0 117.778 28.4131 226.625q28.2725 108.305 79.5732 202.956q51.2998 94.6514 122.951 172.044q71.6348 77.3711 159.299 132.785q87.6768 55.4258 188.494 85.9688q101.246 30.6602 210.27 30.6602q109.056 0 209.84 -30.6816q100.271 -30.5322 187.92 -85.9473
q87.6504 -55.3926 159.301 -132.785q71.6592 -77.3818 122.949 -172.044q51.3008 -94.6621 79.5801 -202.956q28.4102 -108.838 28.4102 -226.625q0 -117.742 -28.3896 -227.092q-28.2998 -108.954 -79.6709 -203.161q-51.2295 -93.957 -122.739 -171.77
q-71.7803 -78.0977 -159.64 -133.059q-87.5605 -54.7783 -187.721 -85.2725q-100.793 -30.6865 -209.84 -30.6865q-109.019 0 -210.27 30.665q-100.717 30.5049 -188.293 85.2939q-87.8652 54.9697 -159.634 133.059q-71.5068 77.8037 -122.749 171.77
q-51.3701 94.2021 -79.6602 203.161q-28.3945 109.357 -28.3945 227.092zM268 717q0 -130.446 44.0654 -244.464q44.2109 -114.396 121.314 -199.154q77.0713 -84.7236 181.508 -133.914q103.749 -48.8682 225.112 -48.8682q120.363 0 224.11 48.8682
q104.45 49.1943 181.51 133.914q77.1201 84.7783 121.319 199.154q44.0605 114.034 44.0605 244.464t-44.0605 244.464q-44.1992 114.366 -121.319 199.157q-77.0596 84.7148 -181.51 133.909q-103.743 48.8701 -224.11 48.8701q-121.367 0 -225.112 -48.8701
q-104.445 -49.1943 -181.508 -133.909q-77.1055 -84.7695 -121.314 -199.157q-44.0654 -114.018 -44.0654 -244.464zM1128.79 347.863q-21.9502 -54.6553 -60.5205 -95.6416q-38.2695 -40.6748 -88.4756 -64.1934q-51.21 -23.9883 -109.794 -23.9883h-61
q-58.584 0 -109.794 23.9883q-50.4053 23.6123 -88.2686 64.5049q-37.8662 40.8955 -59.7256 95.3301q-22.2119 55.3105 -22.2119 118.576v500.041q0 63.2656 22.2119 118.573q21.7715 54.2266 59.4385 95.5576q37.9492 41.6562 88.5557 65.3613
q51.2061 23.9883 109.794 23.9883h61q58.5879 0 109.794 -23.9883q50.4062 -23.6191 88.7666 -65.0479q38.3691 -41.4287 60.2295 -95.8711q22.21 -55.3076 22.21 -118.573v-102.209l-217 -36.6836v138.893q0 15.373 -5.14941 27.959q-5.64941 13.8086 -14.9131 23.8135
q-9.26367 10.0029 -22.0498 16.1055q-11.6523 5.56152 -25.8877 5.56152h-53q-13.458 0 -25.7822 -5.74609q-13.0488 -6.08984 -22.1553 -15.9209q-9.26367 -10.0049 -14.9131 -23.8135q-5.14941 -12.5859 -5.14941 -27.959v-500.041q0 -14.293 5.14941 -26.8789
q5.64941 -13.8086 14.9131 -23.8135q9.10645 -9.83594 22.1553 -15.9209q12.3242 -5.74609 25.7822 -5.74609h53q14.2354 0 25.8877 5.56055q12.7861 6.10254 22.0498 16.1064q9.26367 10.0049 14.9131 23.8135q5.14941 12.5859 5.14941 26.8789v139.973l217 -36.6836
v-103.289q0 -63.2754 -22.21 -118.576z" />
    <glyph glyph-name="ordfeminine" unicode="&#xaa;" horiz-adv-x="717" 
d="M295 1234.56q19.5156 3.23926 39 3.23926h94v37.7998q0 10.292 -3.37598 18.8037q-3.63086 9.14648 -9.68652 15.6924q-6.5 7.01953 -15.6416 11.5342q-7.39941 3.65039 -16.2959 3.65039h-43q-8.89648 0 -16.2959 -3.65039q-9.1416 -4.51465 -15.6416 -11.5342
q-6.05566 -6.5459 -9.68652 -15.6924q-3.37598 -8.51172 -3.37598 -18.8037v-41.0391zM197.303 1192.75l-98.3027 27.1074v42.7783q0 54.9512 18.1934 103.734q18.1025 48.5459 50.2285 85.2881q32.3262 36.9678 76.374 58.709q45.0977 22.2686 96.2041 22.2686h43
q50.6016 0 94.835 -20.7676q43.6172 -20.4766 76.0762 -56.2256q32.2012 -35.4561 50.9648 -82.749q19.124 -48.1895 19.124 -101.617v-547.561h-119.011l-19.7061 31.333q-15.0547 -10.5518 -31.2129 -19.165q-49.1699 -26.208 -102.07 -26.208h-18
q-50.4678 0 -95.0898 20.6543q-44.4971 20.5957 -77.1592 57.2549q-32.1436 36.0771 -50.8281 84.5068q-18.9229 49.0488 -18.9229 105.424q0 54.6592 19.2285 102.428q18.8584 46.8398 51.21 81.7783q15.6123 16.8682 34.8643 31.0283zM428 1044.48h-94
q-18.876 0 -31.9375 -14.1055q-13.0625 -14.1152 -13.0625 -35.5752v-28.0801q0 -9.21387 3.37598 -17.7217q3.82812 -9.64551 10.3604 -16.9727q6.27832 -7.04199 14.9678 -11.3311q7.39941 -3.6543 16.2959 -3.6543h49q8.89648 0 16.2959 3.6543
q8.68945 4.28906 14.9678 11.3311q6.53223 7.32715 10.3604 16.9727q3.37598 8.50781 3.37598 17.7217v77.7607zM92 656.761h532v-194.4h-532v194.4z" />
    <glyph glyph-name="guillemotleft" unicode="&#xab;" horiz-adv-x="961" 
d="M796.714 -24.8438l-448.276 491.844l448.276 491.844l108.239 -116.898l-253.78 -374.945l253.78 -374.945zM458.714 -24.8438l-448.276 491.844l448.276 491.844l108.239 -116.898l-253.78 -374.945l253.78 -374.945z" />
    <glyph glyph-name="logicalnot" unicode="&#xac;" horiz-adv-x="1270" 
d="M1198 856v-621h-231v371.52h-895v249.48h1126z" />
    <glyph glyph-name="registered" unicode="&#xae;" horiz-adv-x="1679" 
d="M955 953.52q0 14.5352 -5.32129 27.8447q-5.63477 14.0938 -14.7412 23.9287t-22.1553 15.9199q-12.3242 5.74707 -25.7822 5.74707h-121v-263.521h121q13.458 0 25.7822 5.74707q13.0488 6.08594 22.1553 15.9209t14.7412 23.9277q5.32129 13.3105 5.32129 28.9248
v115.56zM973.004 177l-207.004 351.315v-351.315h-217v1078.92h342q58.5879 0 109.79 -23.9863q50.4102 -23.6191 88.2705 -64.5088q37.8691 -40.8887 59.7295 -95.332q22.21 -55.3018 22.21 -118.573v-115.56q0 -56.2314 -17.6201 -108.081
q-17.6494 -51.9092 -49.5693 -92.3506q-31.7002 -40.1602 -74.8105 -67.0459q-10.7402 -6.69824 -22.9004 -12.6406q7.25 -12.2959 14.5107 -24.71q27.5693 -47.1006 55.1396 -94.7402q27.5996 -47.6982 54.2998 -93.0762q26.8701 -45.6699 49.5703 -82.9873l20.54 -33.7471
q23.8096 20.998 45.46 44.8008q77.1201 84.7783 121.319 199.154q44.0605 114.034 44.0605 244.464t-44.0605 244.464q-44.1992 114.366 -121.319 199.157q-77.0596 84.7148 -181.51 133.909q-103.743 48.8701 -224.11 48.8701q-121.367 0 -225.112 -48.8701
q-104.445 -49.1943 -181.508 -133.909q-77.1055 -84.7695 -121.314 -199.157q-44.0654 -114.018 -44.0654 -244.464t44.0654 -244.464q44.2109 -114.396 121.314 -199.154q77.0713 -84.7236 181.508 -133.914q103.749 -48.8682 225.112 -48.8682q120.363 0 224.11 48.8682
q35.4893 16.7158 67.8193 37.5322h-158.926zM51 717q0 117.778 28.4131 226.625q28.2725 108.305 79.5732 202.956q51.2998 94.6514 122.951 172.044q71.6348 77.3711 159.299 132.785q87.6768 55.4258 188.494 85.9688q101.246 30.6602 210.27 30.6602
q109.056 0 209.84 -30.6816q100.271 -30.5322 187.92 -85.9473q87.6504 -55.3926 159.301 -132.785q71.6592 -77.3818 122.949 -172.044q51.3008 -94.6621 79.5801 -202.956q28.4102 -108.838 28.4102 -226.625q0 -117.742 -28.3896 -227.092
q-28.2998 -108.954 -79.6709 -203.161q-51.2295 -93.957 -122.739 -171.77q-71.7803 -78.0977 -159.64 -133.059q-87.5605 -54.7783 -187.721 -85.2725q-100.793 -30.6865 -209.84 -30.6865q-109.019 0 -210.27 30.665q-100.717 30.5049 -188.293 85.2939
q-87.8652 54.9697 -159.634 133.059q-71.5068 77.8037 -122.749 171.77q-51.3701 94.2021 -79.6602 203.161q-28.3945 109.357 -28.3945 227.092z" />
    <glyph glyph-name="macron" unicode="&#xaf;" horiz-adv-x="1010" 
d="M154 1388h702v-216h-702v216z" />
    <glyph glyph-name="degree" unicode="&#xb0;" horiz-adv-x="856" 
d="M92 1168.96q0 75.124 26.6943 141.75q26.3623 65.8027 71.7441 114.814q45.376 49.0098 106.309 77.4893q61.6943 28.8252 131.253 28.8252q69.5566 0 131.253 -28.8252q60.9326 -28.4795 106.31 -77.4893q45.3828 -49.0117 71.7432 -114.814
q26.6943 -66.626 26.6943 -141.75q0 -75.2227 -26.7656 -141.395q-26.3545 -65.1504 -71.6719 -114.094q-45.3828 -49.0127 -106.31 -77.4834q-61.6963 -28.8291 -131.253 -28.8291q-69.5586 0 -131.253 28.8291q-60.9268 28.4717 -106.309 77.4834
q-45.3154 48.9385 -71.6729 114.094q-26.7656 66.1719 -26.7656 141.395zM309 1168.96q0 -26.4932 9.37598 -50.124q9.74219 -24.5479 26.0723 -42.5732q16.0361 -17.6904 37.915 -27.9824q21.2588 -10.001 45.6367 -10.001q24.375 0 45.6367 10.001
q21.8789 10.292 37.915 27.9824q16.3301 18.0254 26.0723 42.5732q9.37598 23.6309 9.37598 50.124q0 27.4102 -9.25879 50.3701q-9.75195 24.1816 -26.1895 42.3262q-16.0361 17.6895 -37.915 27.9824q-21.2588 10 -45.6367 10q-24.375 0 -45.6367 -10
q-21.8789 -10.293 -37.915 -27.9824q-16.4385 -18.1445 -26.1895 -42.3262q-9.25879 -22.96 -9.25879 -50.3701z" />
    <glyph glyph-name="plusminus" unicode="&#xb1;" horiz-adv-x="1188" 
d="M477 224.28v373.68h-446v249.479h446v482.761h231v-482.761h449v-249.479h-449v-373.68h449v-249.48h-1126v249.48h446z" />
    <glyph glyph-name="twosuperior" unicode="&#xb2;" horiz-adv-x="692" 
d="M340 1311.12q-13.876 0 -23.4375 -10.3252q-9.5625 -10.3359 -9.5625 -25.3145v-114.707l-200 28.6523v86.0547q0 52.7686 18.9248 98.582q18.2344 44.1396 48.6436 77.6631q31.0283 34.2031 72.7549 53.6211q42.1592 19.6143 88.6768 19.6143h29
q48.1777 0 90.0645 -18.793q42.1016 -18.8887 73.3672 -53.3633q31.3643 -34.5811 48.6514 -82.9873q16.917 -47.3682 16.917 -104.058q0 -43.2432 -11.9102 -88.916q-11.1465 -42.7354 -29.459 -84.6934q-17.7266 -40.6084 -40.2402 -79.9746
q-22.0693 -38.5898 -45.2461 -72.7207q-21.0859 -31.0928 -44.8486 -62.4951h177.704v-214.92h-508v165.552l18.8574 16.5312q81.9414 71.8398 145.296 147.517q26.5479 31.7461 52.2539 68.2393q24.9199 35.3926 44.2393 72.1445q18.6416 35.4775 30.0996 71.6475
q10.2539 32.3672 10.2539 62.0889q0 26.9248 -8.40625 35.4463q-9.78125 9.91406 -22.5938 9.91406h-22z" />
    <glyph glyph-name="threesuperior" unicode="&#xb3;" horiz-adv-x="672" 
d="M232 1169.88l-140 22.918v85.1582q0 50.2412 18.1611 95.7734q17.8633 44.7871 48.7773 78.1699q30.6621 33.125 71.7812 52.9316q42.416 20.4443 91.2803 20.4443h28q48.8643 0 91.2803 -20.4443q41.1201 -19.8066 71.7822 -52.9316q31.1553 -33.6523 48.5352 -78.8398
q17.4023 -45.2412 17.4023 -95.1035v-24.8408q0 -91.3145 -46.0645 -154.656q12.3379 -18.6953 22.1807 -39.9492q23.8838 -51.5918 23.8838 -107.795v-49.6797q0 -49.8633 -17.4023 -95.1094q-17.3799 -45.1904 -48.5352 -78.8379q-30.668 -33.1211 -71.7822 -52.9336
q-42.417 -20.4395 -91.2803 -20.4395h-28q-48.8643 0 -91.2803 20.4395q-41.1133 19.8125 -71.7812 52.9336q-30.9102 33.3809 -48.7773 78.1758q-18.1611 45.5322 -18.1611 95.7715v85.1631l140 22.9121v160.77zM293 995v-93.96q0 -13.2295 8.80273 -22.3496
q9.70312 -10.0508 24.1973 -10.0508h20q14.4941 0 24.1973 10.0508q8.80273 9.12012 8.80273 22.3496v58.3203q0 14.9844 -9.5625 25.3125q-9.5625 10.3271 -23.4375 10.3271h-53zM293 1208.84h53q7.4248 0 12.7217 2.48438q6.62207 3.08887 11.5264 8.1543
q4.05273 4.18945 6.45703 10.1836q2.29492 5.72461 2.29492 12.6582v35.6406q0 6.93359 -2.29492 12.6562q-2.40332 5.99414 -6.45703 10.1855q-4.9043 5.06445 -11.5264 8.15332q-5.29688 2.4834 -12.7217 2.4834h-20q-7.4248 0 -12.7217 -2.4834
q-6.62207 -3.08887 -11.5264 -8.15332q-4.05273 -4.19141 -6.45703 -10.1855q-2.29492 -5.72266 -2.29492 -12.6562v-69.1211z" />
    <glyph glyph-name="acute" unicode="&#xb4;" horiz-adv-x="778" 
d="M316.429 1123.08h-206.723l232 375.84h365.162z" />
    <glyph glyph-name="mu" unicode="&#xb5;" horiz-adv-x="930" 
d="M72 1131.84h225v-865.079q0 -28.6025 9.83887 -53.2695q10.1338 -25.4072 27.2236 -43.8643q17.0889 -18.4561 40.6143 -29.4014q22.8408 -10.626 49.3232 -10.626h82q26.4834 0 49.3232 10.626q15.4551 7.19043 28.0605 17.5547q6.63965 5.45996 12.5537 11.8467
q17.0898 18.457 27.2236 43.8643q9.83887 24.667 9.83887 53.2695v865.079h225v-1216.08h-119.588l-46.9551 77.5576q-33.5576 -33.0107 -74.5127 -56.5303q-74.2275 -42.6279 -161.944 -42.6279h-31q-59.5371 0 -112.609 19.7422q-6.75684 2.51367 -14.3906 5.72266
v-322.465h-225v1534.68z" />
    <glyph glyph-name="paragraph" unicode="&#xb6;" horiz-adv-x="1155" 
d="M737 -538.84h-231v1126.44h-51q-83.4199 0 -157.502 34.1133q-73.5801 33.8818 -128.56 93.2598q-54.9277 59.3184 -86.2959 138.162q-31.6426 79.5312 -31.6426 169.705v103.68q0 90.0938 31.5859 170.101q31.3662 79.4561 86.3525 138.845
q54.9717 59.3779 128.56 93.2578q74.082 34.1172 157.502 34.1172h587v-2101.68h-231v1858.68h-74v-1858.68z" />
    <glyph glyph-name="periodcentered" unicode="&#xb7;" horiz-adv-x="440" 
d="M92 593.761v276.479h256v-276.479h-256z" />
    <glyph glyph-name="cedilla" unicode="&#xb8;" horiz-adv-x="741" 
d="M260.448 -206.511l30.7305 -39.8281q2.55762 -3.3125 8.7041 -9.21387q4.24316 -4.07422 12.0928 -8.46973q9.32031 -5.21973 21.3145 -9.14551q9.26758 -3.03223 20.71 -3.03223q18.7031 0 30.0791 10.1172q6.9209 6.15723 6.9209 21.2031q0 12.2773 -3.60352 19.6504
q-3.97266 8.12793 -10.8936 13.5645q-8.24609 6.47656 -19.3154 9.32324q-13.0723 3.36035 -28.9521 1.93164zM235.103 -208.791l-7.23242 -0.651367l159.582 281.003h203.717l-80.3584 -147.538q13.6123 -12.2451 26.3359 -28.2012q20.1855 -25.3164 34.6865 -59.3633
q16.167 -37.9561 16.167 -85.6582q0 -52.8965 -18.5195 -97.1904q-18.543 -44.3457 -51.3418 -75.4297q-32.1553 -30.4736 -75.7979 -46.415q-41.9502 -15.3252 -90.3408 -15.3252q-56.5947 0 -103.549 24.3145q-44.3545 22.9678 -79.5127 60.9385l-29.2744 31.6152z" />
    <glyph glyph-name="onesuperior" unicode="&#xb9;" horiz-adv-x="694" 
d="M92 662.36v214.92h156v386.1l-156 -70.2002v227.438l214.865 96.0225h141.135v-639.359h154v-214.92h-510z" />
    <glyph glyph-name="ordmasculine" unicode="&#xba;" horiz-adv-x="717" 
d="M604.876 869.423q-18.7676 -47.2959 -50.9648 -82.751q-32.459 -35.7422 -76.0762 -56.2246q-44.2256 -20.7676 -94.835 -20.7676h-49q-50.4678 0 -95.0898 20.6543q-44.2627 20.4873 -76.8213 56.3379q-32.1963 35.4551 -50.9648 82.751
q-19.124 48.1904 -19.124 101.617v300.24q0 53.4277 19.124 101.617q18.7637 47.293 50.9648 82.749q32.5527 35.8457 76.8213 56.3438q44.6221 20.6494 95.0898 20.6494h49q50.6016 0 94.835 -20.7676q43.6172 -20.4766 76.0762 -56.2256q32.2012 -35.4561 50.9648 -82.749
q19.124 -48.1895 19.124 -101.617v-300.24q0 -53.4268 -19.124 -101.617zM428 1275.6q0 10.292 -3.37598 18.8037q-3.63086 9.14648 -9.68652 15.6924q-6.5 7.01953 -15.6416 11.5342q-7.39941 3.65039 -16.2959 3.65039h-49q-8.89648 0 -16.2959 -3.65039
q-9.1416 -4.51465 -15.6416 -11.5342q-6.05566 -6.5459 -9.68652 -15.6924q-3.37598 -8.51172 -3.37598 -18.8037v-308.88q0 -9.21387 3.37598 -17.7217q3.82812 -9.64551 10.3604 -16.9727q6.27832 -7.04199 14.9678 -11.3311q7.39941 -3.6543 16.2959 -3.6543h49
q8.89648 0 16.2959 3.6543q8.68945 4.28906 14.9678 11.3311q6.53223 7.32715 10.3604 16.9727q3.37598 8.50781 3.37598 17.7217v308.88zM92 656.761h532v-194.4h-532v194.4z" />
    <glyph glyph-name="guillemotright" unicode="&#xbb;" horiz-adv-x="961" 
d="M56.0469 92.0547l253.78 374.945l-253.78 374.945l108.239 116.898l448.276 -491.844l-448.276 -491.844zM394.047 92.0547l253.78 374.945l-253.78 374.945l108.239 116.898l448.276 -491.844l-448.276 -491.844z" />
    <glyph glyph-name="onequarter" unicode="&#xbc;" horiz-adv-x="1364" 
d="M1216 16.0801v-128.52h-192v128.52h-260v120.289l314.2 602.23h137.8v-517.319h56v-205.2h-56zM199.247 -112.439l875.113 1658.88h232.45l-876.188 -1658.88h-231.375zM92 692.16v214.92h156v386.1l-156 -70.1992v227.438l214.865 96.0215h141.135v-639.359h154v-214.92
h-510z" />
    <glyph glyph-name="onehalf" unicode="&#xbd;" horiz-adv-x="1448" 
d="M92 692.16v214.92h156v386.1l-156 -70.1992v227.438l214.865 96.0215h141.135v-639.359h154v-214.92h-510zM1096 535.561q-13.8701 0 -23.4395 -10.3271q-9.56055 -10.3271 -9.56055 -25.3135v-112.919l-201 26.3125v86.6064q0 52.7734 18.9248 98.582
q18.3467 44.4053 49.5127 78.0645q31.4092 33.9238 72.8828 53.2197q42.1602 19.6143 88.6797 19.6143h28q47.8203 0 89.4395 -17.9805q42.4707 -18.3477 73.9902 -53.0957q31.3604 -34.5752 48.6504 -82.9834q16.9199 -47.3662 16.9199 -104.061
q0 -43.2461 -11.9102 -88.915q-11.1094 -42.6045 -29.3398 -84.9609q-17.6602 -41.0381 -39.5703 -80.2852q-21.6797 -38.8301 -44.9102 -73.0391q-20.9199 -31.4541 -44.5 -62.6797h177.23v-213.84h-508v165.551l18.8574 16.5322q81.9521 71.8516 145.293 147.517
q26.5693 31.7617 52.2598 68.2441q24.9199 35.3955 44.2402 72.1436q18.6299 35.4619 30.0996 71.6416q10.25 32.3672 10.25 62.0908q0 25.5088 -8.53027 33.9854q-10.3594 10.2949 -22.4697 10.2949h-22zM199.247 -112.439l875.113 1658.88h232.45l-876.188 -1658.88
h-231.375z" />
    <glyph glyph-name="threequarters" unicode="&#xbe;" horiz-adv-x="1364" 
d="M232 1199.36l-140 22.918v85.1572q0 50.2422 18.1611 95.7744q17.8633 44.7881 48.7773 78.1709q30.6621 33.123 71.7812 52.9307q42.416 20.4443 91.2803 20.4443h28q48.8643 0 91.2803 -20.4443q41.1201 -19.8076 71.7822 -52.9307q31.1553 -33.6523 48.5352 -78.8398
q17.4023 -45.2412 17.4023 -95.1055v-24.8398q0 -91.3135 -46.0645 -154.655q12.3379 -18.6953 22.1807 -39.9492q23.8838 -51.5918 23.8838 -107.795v-49.6807q0 -49.8623 -17.4023 -95.1084q-17.3799 -45.1904 -48.5352 -78.8379q-30.668 -33.1221 -71.7822 -52.9346
q-42.417 -20.4385 -91.2803 -20.4385h-28q-48.8643 0 -91.2803 20.4385q-41.1133 19.8125 -71.7812 52.9346q-30.9102 33.3809 -48.7773 78.1758q-18.1611 45.5312 -18.1611 95.7705v85.1641l140 22.9121v160.769zM293 1024.48v-93.9609q0 -13.2295 8.80273 -22.3496
q9.70312 -10.0498 24.1973 -10.0498h20q14.4941 0 24.1973 10.0498q8.80273 9.12012 8.80273 22.3496v58.3203q0 14.9854 -9.5625 25.3135q-9.5625 10.3271 -23.4375 10.3271h-53zM293 1238.32h53q7.4248 0 12.7217 2.48438q6.62207 3.08789 11.5264 8.15332
q4.05273 4.19043 6.45703 10.1846q2.29492 5.72363 2.29492 12.6572v35.6396q0 6.93457 -2.29492 12.6582q-2.40332 5.99414 -6.45703 10.1846q-4.9043 5.06445 -11.5264 8.15332q-5.29688 2.48438 -12.7217 2.48438h-20q-7.4248 0 -12.7217 -2.48438
q-6.62207 -3.08887 -11.5264 -8.15332q-4.05273 -4.19043 -6.45703 -10.1846q-2.29492 -5.72363 -2.29492 -12.6582v-69.1191zM1216 15.7607v-128.521h-192v128.521h-260v120.288l314.2 602.231h137.8v-517.32h56v-205.199h-56zM199.247 -112.761l875.113 1658.88h232.45
l-876.188 -1658.88h-231.375z" />
    <glyph glyph-name="questiondown" unicode="&#xbf;" horiz-adv-x="950" 
d="M669 1137.24v-276.479h-255v276.479h255zM426 668.52h231v-97.1992q0 -80.0508 -18.5186 -141.298q-18.4443 -60.9961 -49.5186 -107.854q-30.0156 -45.2617 -68.083 -80.8516q-34.8936 -32.624 -71.8721 -62.4355q-34.7412 -28.0068 -67.5029 -56.5254
q-29.1992 -25.416 -52.2402 -56.4033q-21.4678 -28.873 -34.6055 -66.1201q-12.6592 -35.8887 -12.6592 -87.3125v-20.5195q0 -40.4092 13.7881 -74.7422q14.0537 -34.9932 38.4854 -60.96q24.7305 -26.2871 57.5205 -41.6475q31.79 -14.8896 69.2061 -14.8896h28
q37.416 0 69.2061 14.8896q32.7881 15.3604 57.5205 41.6475q24.4326 25.9668 38.4854 60.96q13.7881 34.335 13.7881 74.7422v127.411l231 -40.6133v-86.7979q0 -90.1709 -31.6426 -169.704q-31.3652 -78.8389 -86.2949 -138.163q-54.9287 -59.3232 -127.929 -93.1992
q-73.6416 -34.1729 -157.134 -34.1729h-41q-83.4199 0 -157.502 34.1113q-73.5801 33.8818 -128.56 93.2607q-54.9287 59.3203 -86.2959 138.163q-31.6426 79.5332 -31.6426 169.704v20.5195q0 82.8018 18.2549 146.879q18.1641 63.7549 48.7295 113.582
q29.8809 48.7119 67.877 86.6865q35.3037 35.2832 72.7646 66.0527q35.3115 29.0059 68.6055 56.9121q29.3877 24.6348 52.5029 53.8379q21.3418 26.9639 34.2627 60.1045q12.0029 30.7891 12.0029 74.7461v97.1992z" />
    <glyph glyph-name="Agrave" unicode="&#xc0;" horiz-adv-x="1154" 
d="M928.562 -73.7197l-112.125 360.72h-444.785l-110.944 -360.72h-240.708l487.578 1548.72h170.381l490.291 -1548.72h-239.688zM594.121 948.023l-147.051 -473.104h294.883zM631.241 1540.88l-447.03 375.84h418.487l272.149 -375.84h-243.606z" />
    <glyph glyph-name="Aacute" unicode="&#xc1;" horiz-adv-x="1154" 
d="M928.562 -73.7197l-112.125 360.72h-444.785l-110.944 -360.72h-240.708l487.578 1548.72h170.381l490.291 -1548.72h-239.688zM594.121 948.023l-147.051 -473.104h294.883zM1003.95 1916.72l-447.232 -375.84h-243.987l273.819 375.84h417.4z" />
    <glyph glyph-name="Acircumflex" unicode="&#xc2;" horiz-adv-x="1154" 
d="M928.562 -73.7197l-112.125 360.72h-444.785l-110.944 -360.72h-240.708l487.578 1548.72h170.381l490.291 -1548.72h-239.688zM594.121 948.023l-147.051 -473.104h294.883zM695.438 1916.72l324.192 -375.84h-284.25l-141.399 148.393l-141.4 -148.393h-284.388
l325.599 375.84h201.646z" />
    <glyph glyph-name="Atilde" unicode="&#xc3;" horiz-adv-x="1154" 
d="M928.562 -73.7197l-112.125 360.72h-444.785l-110.944 -360.72h-240.708l487.578 1548.72h170.381l490.291 -1548.72h-239.688zM594.121 948.023l-147.051 -473.104h294.883zM709.928 1805.19q21.1084 -11.5889 45.7471 -11.5889q18.1914 0 26.1875 10.4766
q15.1221 19.8184 15.1221 57.5635v55.0801h217.096v-55.0801q0 -56.5488 -13.5801 -106.293q-14.3047 -52.3906 -43.4619 -92.0918q-30.4287 -41.0293 -83.2871 -64.8652q-53.2998 -24.0293 -120.436 -24.0293q-70.6836 0 -126.356 25.1211
q-46.8672 21.1455 -87.5674 46.5684q-36.3604 22.7021 -69.0254 41.5801q-18.9131 10.9307 -38.0811 10.9307q-17.3574 0 -24.2734 -9.49414q-14.6758 -20.1416 -14.6758 -57.4668v-55.0801h-216.256v55.0801q0 56.3115 12.9619 105.311q13.7061 51.8086 42.2432 91.5303
q30.1738 41.6348 83.7383 65.0703q53.0439 23.209 120.982 23.209q67.8643 0 121.673 -25.6826q43.9727 -20.9951 83.0088 -45.5859q34.418 -21.6875 68.2402 -40.2627z" />
    <glyph glyph-name="Adieresis" unicode="&#xc4;" horiz-adv-x="1154" 
d="M928.562 -71.7607l-112.125 360.721h-444.785l-110.944 -360.721h-240.708l487.578 1548.72h170.381l490.291 -1548.72h-239.688zM594.121 949.984l-147.051 -473.104h294.883zM516.083 1589.28h-294.003v276.479h294.003v-276.479zM966.08 1589.28h-294.203v276.479
h294.203v-276.479z" />
    <glyph glyph-name="Aring" unicode="&#xc5;" horiz-adv-x="1154" 
d="M300.944 1452.6q-16.1602 43.6855 -16.1602 91.6367q0 58.8281 24.3408 110.798q23.9297 51.0957 65.5059 89.8125q41.7109 38.8379 97.6953 61.4531q57.0566 23.0576 121.685 23.0576q64.6289 0 121.686 -23.0576q55.7393 -22.5195 97.917 -61.1182
q42.1865 -38.5986 66.793 -89.5967q25.1924 -52.207 25.1924 -111.349q0 -48.3291 -17.0195 -92.3496q-16.7041 -40.2842 -46.5732 -73.8506q-29.9463 -33.6533 -70.7832 -57.9199q-15.8662 -9.42969 -33.1396 -17.0645l430.187 -1373.42h-239.675l-112.125 360.721
h-444.786l-110.944 -360.721h-240.739l429.076 1374.27q-17.7959 8.14258 -33.2842 17.5059q-40.0615 24.2461 -69.2891 57.2939q-29.4619 33.3076 -45.5586 73.8945zM594.152 951.384l-147.051 -473.104h294.884zM532.179 1570.13q-5.44238 -12.0107 -5.44238 -25.8887
q0 -12.5381 5.2373 -23.8135q5.46094 -11.7607 14.9014 -20.4004q10.1104 -9.24512 23.3799 -14.8496q11.0107 -4.65625 23.7559 -4.65625q14.5156 0 27.1455 5.07617q13.833 5.55176 23.5312 14.4297q9.44141 8.63965 14.9023 20.4004q5.2373 11.2754 5.2373 23.8135
q0 13.8779 -5.44238 25.8887q-5.64551 12.4521 -15.3877 21.6641q-9.47852 8.96484 -22.8408 14.332q-12.6299 5.07617 -27.1455 5.07617q-12.7451 0 -23.7559 -4.65527q-12.8047 -5.39941 -22.6885 -14.7529q-9.74023 -9.21191 -15.3877 -21.6641z" />
    <glyph glyph-name="AE" unicode="&#xc6;" horiz-adv-x="1971" 
d="M1929 -57.3604h-960.426v360.721h-481.602l-213.353 -360.721h-253.62l972.388 1548.72h936.612v-243h-711.52v-410.4h581.52v-243h-581.52v-409.32h711.52v-243zM632.533 491.28h336.041v560.562z" />
    <glyph glyph-name="Ccedilla" unicode="&#xc7;" horiz-adv-x="1277" 
d="M506.318 -203.49l-84.3496 -6.10059l38.2402 -39.8281q2.63281 -2.74316 10.167 -8.24902q6.42188 -4.69531 16.9551 -9.43457q11.5957 -5.21973 26.5205 -9.14355q11.5322 -3.03418 25.7705 -3.03418q23.2715 0 37.4277 10.1182q8.6123 6.15625 8.6123 21.2021
q0 12.2764 -4.48438 19.6504q-4.94141 8.12793 -13.5547 13.5645q-10.1201 6.3877 -24.333 9.25586q-17.042 3.44141 -36.9717 1.99902zM294.664 -369.772l95.7666 157.901l-7.74609 -0.667969l109.516 156.557q-53.1172 8.5332 -102.522 26.8154
q-73.7598 31.5967 -128.74 86.9707q-54.9277 55.3232 -86.2949 128.848q-31.6426 74.1709 -31.6426 158.264v775.528q0 84.0889 31.6426 158.264q31.3613 73.5146 86.2949 128.844q54.9727 55.3711 128.74 86.9727q92.1826 34.1162 195.984 34.1162h126.921
q103.891 0 195.525 -34.1709q73.0342 -33.8789 127.952 -93.2041q54.9395 -59.335 86.2998 -138.164q31.6396 -79.5322 31.6396 -169.7v-109.839l-231 -38.6797v148.519q0 40.4023 -13.7881 74.7461q-17.3477 35.1875 -47.3877 61.2686q-30.0273 26.0605 -70.5928 41.3311
q-39.5537 14.8936 -86.1143 14.8936h-111.989q-46.5615 0 -86.1152 -13.543q-40.8008 -13.9746 -71.5752 -37.876q-30.4004 -23.6191 -47.6494 -55.4463q-13.7881 -31.2236 -13.7881 -67.9756v-756.335q0 -36.752 13.7881 -67.9795q17.3535 -32.0146 48.0107 -56.2139
q30.6543 -24.1992 71.2139 -38.0859q39.5576 -13.5449 86.1152 -13.5449h111.989q46.5566 0 86.1143 14.8916q40.3174 15.1787 70.2344 41.5625q30.2891 26.7148 47.7461 62.123q13.7881 34.3359 13.7881 74.7432v149.012l231 -40.6133v-108.398
q0 -90.1699 -31.6396 -169.705q-31.3701 -78.8359 -86.2998 -138.162q-54.9229 -59.3203 -127.952 -93.1982q-76.8545 -28.6631 -163.173 -33.3271l-10.7441 -16.2734q17.7803 -13.002 33.3643 -29.2324q24.0508 -25.0479 41.876 -58.6836
q20.1172 -37.9561 20.1172 -85.6582q0 -52.8965 -23.0449 -97.1904q-23.0732 -44.3457 -63.8848 -75.4297q-39.9004 -30.3887 -93.4238 -46.3359q-51.7002 -15.4033 -112.062 -15.4033q-70.2432 0 -129.168 24.1875q-48.7686 22.9854 -84.0273 61.0654z" />
    <glyph glyph-name="Egrave" unicode="&#xc8;" horiz-adv-x="1257" 
d="M1175 -73.7197h-1011v1548.72h1011v-243h-780v-410.4h651v-243h-651v-409.319h780v-243zM658.454 1540.88l-440.685 375.84h409.168l288.683 -375.84h-257.166z" />
    <glyph glyph-name="Eacute" unicode="&#xc9;" horiz-adv-x="1257" 
d="M1175 -73.7197h-1011v1548.72h1011v-243h-780v-410.4h651v-243h-651v-409.319h780v-243zM1080.23 1916.72l-450.701 -375.84h-249.823l281.34 375.84h419.185z" />
    <glyph glyph-name="Ecircumflex" unicode="&#xca;" horiz-adv-x="1257" 
d="M1175 -73.7197h-1011v1548.72h1011v-243h-780v-410.4h651v-243h-651v-409.319h780v-243zM775.749 1916.72l320.141 -375.84h-276.56l-150.286 148.554l-149.242 -148.554h-276.688l320.138 375.84h212.498z" />
    <glyph glyph-name="Edieresis" unicode="&#xcb;" horiz-adv-x="1257" 
d="M1175 -71.7607h-1011v1548.72h1011v-242.999h-780v-410.4h651v-243h-651v-409.321h780v-243zM536.98 1589.28h-280.98v276.479h280.98v-276.479zM1001 1589.28h-301.014v276.479h301.014v-276.479z" />
    <glyph glyph-name="Igrave" unicode="&#xcc;" horiz-adv-x="559" 
d="M478.23 -73.7197h-231v1548.72h231v-1548.72zM395.854 1540.88l-391.854 375.84h366.525l232 -375.84h-206.672z" />
    <glyph glyph-name="Iacute" unicode="&#xcd;" horiz-adv-x="559" 
d="M439.294 -73.7197h-231v1548.72h231v-1548.72zM684.525 1916.72l-391.854 -375.84h-206.672l232 375.84h366.525z" />
    <glyph glyph-name="Icircumflex" unicode="&#xce;" horiz-adv-x="763" 
d="M554.887 -73.7197h-231v1548.72h231v-1548.72zM525.774 1916.72l392 -375.84h-317.12l-160.633 148.554l-149.504 -148.554h-327.518l392 375.84h170.774z" />
    <glyph glyph-name="Idieresis" unicode="&#xcf;" horiz-adv-x="559" 
d="M395 -71.7607h-231v1548.72h231v-1548.72zM215 1589.28h-256v276.479h256v-276.479zM602 1589.28h-256v276.479h256v-276.479z" />
    <glyph glyph-name="Eth" unicode="&#xd0;" horiz-adv-x="1343" 
d="M61 738.6h127v752.761h506q137.653 0 259.065 -34.1719q73.0742 -31.5352 127.995 -86.7451q54.9893 -55.2744 86.3496 -129.232q31.5898 -74.4668 31.5898 -158.318v-732.79q0 -83.9258 -31.6396 -157.951q-31.3701 -73.376 -86.2998 -128.594
q-54.9209 -55.2119 -127.995 -86.7432q-121.409 -34.1748 -259.065 -34.1748h-506v575.641h-127v220.319zM968 359.825v713.37q0 36.6113 -13.7881 67.7266q-22.8096 32.0762 -62.9463 56.2891q-39.6328 23.9004 -93.0586 37.6602q-52.4072 13.4893 -110.207 13.4893h-269
v-509.761h240v-220.319h-240v-332.641h269q57.7949 0 110.207 13.4932q53.7422 13.8359 93.5332 37.4541q39.7969 23.6221 62.4717 55.5137q13.7881 31.1113 13.7881 67.7246z" />
    <glyph glyph-name="Ntilde" unicode="&#xd1;" horiz-adv-x="1339" 
d="M1046.15 -73.7197l-24.6104 9.23438l-610.498 989.015v-998.249h-247.042v1548.72h147.575l632.425 -1001.07v1001.07h231v-1548.72h-128.85zM791.671 1805.19q21.3252 -11.5889 46.2139 -11.5889q18.376 0 26.4551 10.4766q15.2764 19.8184 15.2764 57.5635v55.0801
h207.384v-55.0801q0 -56.5488 -13.5801 -106.293q-14.2998 -52.3906 -43.46 -92.0918q-30.1318 -41.0293 -74.918 -64.8652q-51.7197 -24.0293 -119.541 -24.0293q-71.4072 0 -127.644 25.1211q-47.3555 21.1572 -88.4609 46.5684q-36.7148 22.6914 -69.7295 41.5801
q-19.1074 10.9307 -38.4707 10.9307q-17.5342 0 -24.5215 -9.49414q-14.8252 -20.1416 -14.8252 -57.4668v-55.0801h-221.85v55.0801q0 56.3115 12.9619 105.311q13.7061 51.8086 42.2441 91.5303q34.4307 41.6348 88.543 65.0703q53.584 23.209 122.216 23.209
q68.5566 0 122.915 -25.6826q44.4209 -20.9951 83.8555 -45.5859q34.7676 -21.6875 68.9355 -40.2627z" />
    <glyph glyph-name="Ograve" unicode="&#xd2;" horiz-adv-x="1298" 
d="M1154 1089.2v-775.526q0 -84.0898 -31.6396 -158.262q-31.3701 -73.5215 -86.2998 -128.846q-54.9229 -55.3213 -127.952 -86.915q-91.6328 -34.1738 -195.525 -34.1738h-126.921q-103.798 0 -195.984 34.1123q-73.7598 31.5967 -128.74 86.9717
q-54.9277 55.3232 -86.2949 128.847q-31.6426 74.1719 -31.6426 158.264v775.528q0 84.0889 31.6426 158.264q31.3613 73.5156 86.2949 128.844q54.9727 55.3721 128.74 86.9717q92.1826 34.1182 195.984 34.1182h126.921q103.891 0 195.525 -34.1719
q73.0342 -31.6006 127.952 -86.918q54.9395 -55.3281 86.2998 -128.844q31.6396 -74.1748 31.6396 -158.264zM923 323.225v756.335q0 36.752 -13.7881 67.9746q-17.3477 32.0107 -47.3877 55.7275q-30.0273 23.7061 -70.5928 37.5957q-39.5537 13.543 -86.1143 13.543
h-111.989q-46.5615 0 -86.1152 -13.543q-40.8008 -13.9756 -71.5752 -37.876q-30.4004 -23.6201 -47.6494 -55.4473q-13.7881 -31.2227 -13.7881 -67.9746v-756.335q0 -36.7529 13.7881 -67.9805q17.3535 -32.0137 48.0107 -56.2139q30.6543 -24.1992 71.2139 -38.0859
q39.5576 -13.5439 86.1152 -13.5439h111.989q46.5566 0 86.1143 13.5439q40.3174 13.8037 70.2344 37.8018q30.2891 24.2949 47.7461 56.498q13.7881 31.2285 13.7881 67.9805zM359.066 1821.32q-9.95312 9.10449 -99.9346 96.1953h423.953l276.209 -375.84h-246.002z" />
    <glyph glyph-name="Oacute" unicode="&#xd3;" horiz-adv-x="1298" 
d="M1154 1089.2v-775.526q0 -84.0898 -31.6396 -158.262q-31.3701 -73.5215 -86.2998 -128.846q-54.9229 -55.3213 -127.952 -86.915q-91.6328 -34.1738 -195.525 -34.1738h-126.921q-103.798 0 -195.984 34.1123q-73.7598 31.5967 -128.74 86.9717
q-54.9277 55.3232 -86.2949 128.847q-31.6426 74.1719 -31.6426 158.264v775.528q0 84.0889 31.6426 158.264q31.3613 73.5156 86.2949 128.844q54.9727 55.3721 128.74 86.9717q92.1826 34.1182 195.984 34.1182h126.921q103.891 0 195.525 -34.1719
q73.0342 -31.6006 127.952 -86.918q54.9395 -55.3281 86.2998 -128.844q31.6396 -74.1748 31.6396 -158.264zM923 323.225v756.335q0 36.752 -13.7881 67.9746q-17.3477 32.0107 -47.3877 55.7275q-30.0273 23.7061 -70.5928 37.5957q-39.5537 13.543 -86.1143 13.543
h-111.989q-46.5615 0 -86.1152 -13.543q-40.8008 -13.9756 -71.5752 -37.876q-30.4004 -23.6201 -47.6494 -55.4473q-13.7881 -31.2227 -13.7881 -67.9746v-756.335q0 -36.7529 13.7881 -67.9805q17.3535 -32.0137 48.0107 -56.2139q30.6543 -24.1992 71.2139 -38.0859
q39.5576 -13.5439 86.1152 -13.5439h111.989q46.5566 0 86.1143 13.5439q40.3174 13.8037 70.2344 37.8018q30.2891 24.2949 47.7461 56.498q13.7881 31.2285 13.7881 67.9805zM1080.23 1917.52l-445.571 -375.84h-254.953l286.471 375.84h414.054z" />
    <glyph glyph-name="Ocircumflex" unicode="&#xd4;" horiz-adv-x="1298" 
d="M1154 1089.2v-775.526q0 -84.0898 -31.6396 -158.262q-31.3701 -73.5215 -86.2998 -128.846q-54.9229 -55.3213 -127.952 -86.915q-91.6328 -34.1738 -195.525 -34.1738h-126.921q-103.798 0 -195.984 34.1123q-73.7598 31.5967 -128.74 86.9717
q-54.9277 55.3232 -86.2949 128.847q-31.6426 74.1719 -31.6426 158.264v775.528q0 84.0889 31.6426 158.264q31.3613 73.5156 86.2949 128.844q54.9727 55.3721 128.74 86.9717q92.1826 34.1182 195.984 34.1182h126.921q103.891 0 195.525 -34.1719
q73.0342 -31.6006 127.952 -86.918q54.9395 -55.3281 86.2998 -128.844q31.6396 -74.1748 31.6396 -158.264zM923 323.225v756.335q0 36.752 -13.7881 67.9746q-17.3477 32.0107 -47.3877 55.7275q-30.0273 23.7061 -70.5928 37.5957q-39.5537 13.543 -86.1143 13.543
h-111.989q-46.5615 0 -86.1152 -13.543q-40.8008 -13.9756 -71.5752 -37.876q-30.4004 -23.6201 -47.6494 -55.4473q-13.7881 -31.2227 -13.7881 -67.9746v-756.335q0 -36.7529 13.7881 -67.9805q17.3535 -32.0137 48.0107 -56.2139q30.6543 -24.1992 71.2139 -38.0859
q39.5576 -13.5439 86.1152 -13.5439h111.989q46.5566 0 86.1143 13.5439q40.3174 13.8037 70.2344 37.8018q30.2891 24.2949 47.7461 56.498q13.7881 31.2285 13.7881 67.9805zM754.749 1917.52l320.141 -375.84h-276.691l-149.242 148.554l-150.286 -148.554h-275.217
l318.705 375.84h212.591z" />
    <glyph glyph-name="Otilde" unicode="&#xd5;" horiz-adv-x="1298" 
d="M1154 1089.2v-775.526q0 -84.0898 -31.6396 -158.262q-31.3701 -73.5215 -86.2998 -128.846q-54.9229 -55.3213 -127.952 -86.915q-91.6328 -34.1738 -195.525 -34.1738h-126.921q-103.798 0 -195.984 34.1123q-73.7598 31.5967 -128.74 86.9717
q-54.9277 55.3232 -86.2949 128.847q-31.6426 74.1719 -31.6426 158.264v775.528q0 84.0889 31.6426 158.264q31.3613 73.5156 86.2949 128.844q54.9727 55.3721 128.74 86.9717q92.1826 34.1182 195.984 34.1182h126.921q103.891 0 195.525 -34.1719
q73.0342 -31.6006 127.952 -86.918q54.9395 -55.3281 86.2998 -128.844q31.6396 -74.1748 31.6396 -158.264zM923 323.225v756.335q0 36.752 -13.7881 67.9746q-17.3477 32.0107 -47.3877 55.7275q-30.0273 23.7061 -70.5928 37.5957q-39.5537 13.543 -86.1143 13.543
h-111.989q-46.5615 0 -86.1152 -13.543q-40.8008 -13.9756 -71.5752 -37.876q-30.4004 -23.6201 -47.6494 -55.4473q-13.7881 -31.2227 -13.7881 -67.9746v-756.335q0 -36.7529 13.7881 -67.9805q17.3535 -32.0137 48.0107 -56.2139q30.6543 -24.1992 71.2139 -38.0859
q39.5576 -13.5439 86.1152 -13.5439h111.989q46.5566 0 86.1143 13.5439q40.3174 13.8037 70.2344 37.8018q30.2891 24.2949 47.7461 56.498q13.7881 31.2285 13.7881 67.9805zM768.875 1806q22.2559 -11.5986 48.2314 -11.5986q19.1768 0 27.6074 10.4756
q15.9434 19.8184 15.9434 57.5635v55.0801h205.343v-55.0801q0 -56.5488 -13.5801 -106.293q-14.2197 -52.0986 -42.6299 -91.6279q-29.7031 -41.3525 -74.748 -65.3291q-49.6436 -24.0293 -120.425 -24.0293q-74.3496 0 -133.529 24.9912q-50.2197 21.2002 -93.25 46.6982
q-38.3359 22.7031 -72.7705 41.5811q-19.9414 10.9297 -38.9062 10.9297q-18.2988 0 -25.5898 -9.49414q-15.4727 -20.1416 -15.4727 -57.4658v-55.0801h-206.099v55.0801q0 56.6562 13.6338 105.947q14.2305 51.4512 42.5723 90.8926q29.9053 41.6348 75.29 65.0703
q49.0156 23.209 120.643 23.209q70.3047 0 127.033 -25.6826q46.1162 -20.8857 87.7412 -45.3594q37.1738 -21.8486 72.9619 -40.4785z" />
    <glyph glyph-name="Odieresis" unicode="&#xd6;" horiz-adv-x="1298" 
d="M1154 1091.16v-775.526q0 -84.0898 -31.6396 -158.262q-31.3701 -73.5215 -86.2998 -128.847q-54.9229 -55.3203 -127.952 -86.9141q-91.6328 -34.1748 -195.525 -34.1748h-126.921q-103.798 0 -195.984 34.1133q-73.7598 31.5967 -128.74 86.9717
q-54.9277 55.3232 -86.2949 128.847q-31.6426 74.1719 -31.6426 158.264v775.528q0 84.0889 31.6426 158.264q31.3613 73.5146 86.2949 128.844q54.9727 55.3711 128.74 86.9727q92.1826 34.1172 195.984 34.1172h126.921q103.891 0 195.525 -34.1719
q73.0342 -31.6006 127.952 -86.918q54.9395 -55.3291 86.2998 -128.844q31.6396 -74.1748 31.6396 -158.264zM923 325.184v756.335q0 36.7529 -13.7881 67.9756q-17.3477 32.0107 -47.3877 55.7285q-30.0273 23.7051 -70.5928 37.5938q-39.5537 13.5439 -86.1143 13.5439
h-111.989q-46.5615 0 -86.1152 -13.5439q-40.8008 -13.9746 -71.5752 -37.875q-30.4004 -23.6191 -47.6494 -55.4473q-13.7881 -31.2227 -13.7881 -67.9756v-756.335q0 -36.752 13.7881 -67.9785q17.3535 -32.0156 48.0107 -56.2139q30.6543 -24.2002 71.2139 -38.0869
q39.5576 -13.5439 86.1152 -13.5439h111.989q46.5566 0 86.1143 13.5439q40.3174 13.8027 70.2344 37.8008q30.2891 24.2959 47.7461 56.5q13.7881 31.2275 13.7881 67.9785zM566.997 1590.08h-290.997v276.48h290.997v-276.48zM1021 1590.08h-289.753v276.48h289.753
v-276.48z" />
    <glyph glyph-name="multiply" unicode="&#xd7;" horiz-adv-x="1400" 
d="M267.432 1290.67l454.197 -396.506l454.201 396.506l162.77 -177.778l-426.972 -393.967l429.632 -399.495l-166.26 -173.77l-453.371 396.057l-453.369 -396.057l-166.26 173.77l429.631 399.495l-426.975 393.967z" />
    <glyph glyph-name="Oslash" unicode="&#xd8;" horiz-adv-x="1298" 
d="M325.275 -123.239h-223.275l123.273 249.141q-20.9365 37.8916 -33.5615 79.9941q-17.1924 57.3291 -17.1924 119.534v778.103q0 84.3584 31.6426 158.782q31.3623 73.7637 86.2949 129.275q54.9727 55.5557 141.848 87.2529q87.5205 34.1172 186.071 34.1172h120.502
q85.3213 0 163.459 -26.708q40.7822 -13.9434 77.749 -33.6641l54.2637 104.651h221.511l-124.08 -252.017q20.8701 -37.3799 33.7695 -77.7393q17.9697 -56.2236 17.9697 -118.907v-778.101q0 -84.3691 -31.6396 -158.786q-31.3701 -73.7646 -86.2998 -129.272
q-54.9199 -55.5029 -141.067 -87.2031q-86.9971 -34.1738 -185.635 -34.1738h-120.502q-87.2969 0 -164.519 25.3906q-40.9873 13.4756 -79.1162 33.6025zM944.076 356.28v656.544l-445.604 -810.541q18.7744 -13.0049 40.6719 -22.4385q39.1924 -16.8848 88.3193 -16.8848
h106.325q44.2031 0 81.7588 14.8906q38.2793 15.1787 66.6836 41.5625q28.7568 26.7158 45.5557 62.124q16.2891 34.335 16.2891 74.7432zM415.996 1077.72v-656.341l444.894 810.079q-18.2549 12.8838 -39.8008 21.8369q-40.0967 16.666 -87.2998 16.666h-106.325
q-44.2061 0 -81.7588 -14.8945q-38.7373 -15.3574 -67.9541 -41.6445q-28.8643 -25.9629 -45.4648 -60.9551q-16.29 -34.3438 -16.29 -74.7471z" />
    <glyph glyph-name="Ugrave" unicode="&#xd9;" horiz-adv-x="1298" 
d="M1154 1475.8v-1161.92q0 -84.1367 -31.6396 -158.35q-31.3701 -73.5605 -86.2998 -128.917q-54.9229 -55.3496 -131.318 -86.9619q-90.4443 -34.1738 -192.99 -34.1738h-125.275q-102.451 0 -193.441 34.1123q-77.1172 31.6133 -132.098 87.0205
q-54.9277 55.3516 -86.2949 128.917q-31.6426 74.2109 -31.6426 158.35v1161.92h231v-1149.88q0 -37.3145 16.9336 -69.0195q17.3643 -32.5049 47.623 -57.0771q30.2578 -24.5684 70.291 -38.6689q39.0439 -13.75 84.998 -13.75h110.537q45.9531 0 84.998 13.75
q39.7949 14.0156 69.3242 38.3809q29.8955 24.668 47.3613 57.3652q16.9336 31.707 16.9336 69.0195v1149.88h231zM663.389 1541.68l-445.619 375.84h414.511l284.939 -375.84h-253.831z" />
    <glyph glyph-name="Uacute" unicode="&#xda;" horiz-adv-x="1298" 
d="M1154 1475.8v-1161.92q0 -84.1367 -31.6396 -158.35q-31.3701 -73.5605 -86.2998 -128.917q-54.9229 -55.3496 -131.318 -86.9619q-90.4443 -34.1738 -192.99 -34.1738h-125.275q-102.451 0 -193.441 34.1123q-77.1172 31.6133 -132.098 87.0205
q-54.9277 55.3516 -86.2949 128.917q-31.6426 74.2109 -31.6426 158.35v1161.92h231v-1149.88q0 -37.3145 16.9336 -69.0195q17.3643 -32.5049 47.623 -57.0771q30.2578 -24.5684 70.291 -38.6689q39.0439 -13.75 84.998 -13.75h110.537q45.9531 0 84.998 13.75
q39.7949 14.0156 69.3242 38.3809q29.8955 24.668 47.3613 57.3652q16.9336 31.707 16.9336 69.0195v1149.88h231zM1080.23 1917.52l-445.392 -375.84h-253.831l284.94 375.84h414.282z" />
    <glyph glyph-name="Ucircumflex" unicode="&#xdb;" horiz-adv-x="1298" 
d="M1154 1475.8v-1161.92q0 -84.1367 -31.6396 -158.35q-31.3701 -73.5605 -86.2998 -128.917q-54.9229 -55.3496 -131.318 -86.9619q-90.4443 -34.1738 -192.99 -34.1738h-125.275q-102.451 0 -193.441 34.1123q-77.1172 31.6133 -132.098 87.0205
q-54.9277 55.3516 -86.2949 128.917q-31.6426 74.2109 -31.6426 158.35v1161.92h231v-1149.88q0 -37.3145 16.9336 -69.0195q17.3643 -32.5049 47.623 -57.0771q30.2578 -24.5684 70.291 -38.6689q39.0439 -13.75 84.998 -13.75h110.537q45.9531 0 84.998 13.75
q39.7949 14.0156 69.3242 38.3809q29.8955 24.668 47.3613 57.3652q16.9336 31.707 16.9336 69.0195v1149.88h231zM753.371 1917.52l321.519 -375.84h-278.633l-147.307 148.554l-148.338 -148.554h-277.159l320.084 375.84h209.834z" />
    <glyph glyph-name="Udieresis" unicode="&#xdc;" horiz-adv-x="1298" 
d="M1154 1477.76v-1161.92q0 -84.1357 -31.6396 -158.349q-31.3701 -73.5615 -86.2998 -128.918q-54.9229 -55.3506 -131.318 -86.9619q-90.4443 -34.1748 -192.99 -34.1748h-125.275q-102.451 0 -193.441 34.1133q-77.1172 31.6133 -132.098 87.0205
q-54.9277 55.3516 -86.2949 128.917q-31.6426 74.2109 -31.6426 158.35v1161.92h231v-1149.88q0 -37.3164 16.9336 -69.0195q17.3643 -32.5068 47.623 -57.0771q30.2578 -24.5693 70.291 -38.6689q39.0439 -13.751 84.998 -13.751h110.537q45.9531 0 84.998 13.751
q39.7949 14.0156 69.3242 38.3809q29.8955 24.667 47.3613 57.3652q16.9336 31.7061 16.9336 69.0195v1149.88h231zM568.054 1590.08h-292.054v276.48h292.054v-276.48zM1021 1590.08h-290.826v276.48h290.826v-276.48z" />
    <glyph glyph-name="Yacute" unicode="&#xdd;" horiz-adv-x="1154" 
d="M1175.06 1475l-427.274 -817.581v-731.139h-275.737v729.063l-431.049 819.656h252.789l314.338 -574.594l314.338 574.594h252.596zM1059 1916.72l-439.618 -375.84h-246.76l276.931 375.84h409.447z" />
    <glyph glyph-name="Thorn" unicode="&#xde;" horiz-adv-x="1257" 
d="M1175 799.68v-117.97q0 -84.1836 -31.6396 -158.435q-31.3701 -73.6045 -86.2998 -128.988q-54.9707 -55.4326 -128.732 -87.0674q-91.5605 -31.8477 -194.669 -31.8477h-338.659v-332.732h-231v1548.72h231v-285.348h338.659q103.108 0 194.669 -31.8486
q73.7617 -31.6328 128.732 -87.0596q54.9297 -55.3926 86.2998 -128.989q31.6396 -74.2529 31.6396 -158.436zM944 679.2v126.36q0 40.4062 -13.7881 74.7422q-17.1396 34.9922 -47.3369 60.959q-30.5742 26.291 -71.0947 41.6465q-39.2939 14.8916 -85.5371 14.8916
h-331.243v-510.84h331.243q46.2432 0 85.5371 14.8906q40.5205 15.3574 71.0947 41.6475q30.1973 25.9658 47.3369 60.96q13.7881 34.335 13.7881 74.7422z" />
    <glyph glyph-name="germandbls" unicode="&#xdf;" horiz-adv-x="1257" 
d="M573 -58.1602v236.521h162q37.416 0 69.2061 13.1748q32.5967 13.5098 56.7314 36.5723q24.1387 23.0654 38.2744 54.208q13.7881 30.3779 13.7881 66.127v125.176q0 35.749 -13.7881 66.127q-14.2188 31.3262 -38.5615 54.9639q-24.043 23.3457 -56.4443 36.7725
q-31.792 13.1748 -69.2061 13.1748h-162v208.305h162q37.4141 0 69.2061 13.1748q7.3623 3.0498 14.2725 6.60059q23.5527 12.0947 42.1719 30.1729q24.3428 23.6367 38.5615 54.9639q13.7881 30.377 13.7881 66.127v59.4004q0 40.4023 -13.7881 74.7461
q-14.1328 35.1875 -38.2744 61.2686q-24.1309 26.0605 -56.7314 41.3311q-31.7881 14.8936 -69.2061 14.8936h-60q-37.4189 0 -69.2061 -14.8936q-32.6006 -15.2705 -88.8584 -41.3311q-56.5371 -26.0713 -89.6426 -61.2686q-32.293 -34.3438 -32.293 -74.7461v-1141.56
h-225v1135.08q0 89.9863 31.0107 169.366q30.7109 78.623 83.8594 137.883q53.5059 59.6484 146.661 93.6904q153.829 34.3008 237.469 34.3008h66q83.4922 0 157.134 -34.1719q73.0088 -33.8789 127.926 -93.2031q54.9404 -59.335 86.3008 -138.164
q31.6396 -79.5312 31.6396 -169.701v-27q0 -57.0605 -15.5195 -109.431q-15.4102 -51.9941 -43.4902 -96.8936q-28.0605 -44.8799 -67.5205 -81.2852q-9.29004 -8.57812 -19.6455 -17.0215q10.3457 -8.44531 19.6455 -17.0225q39.46 -36.4053 67.5205 -81.2852
q28.0801 -44.8994 43.4902 -96.8926q15.5195 -52.3701 15.5195 -109.432v-100.891q0 -81.7803 -31.6396 -153.915q-31.3701 -71.5049 -86.3008 -125.31q-54.9219 -53.8018 -127.926 -84.5273q-73.6396 -34.1748 -157.134 -34.1748h-162z" />
    <glyph glyph-name="agrave" unicode="&#xe0;" 
d="M1011 -56.5605h-119.294l-47.376 76.749q-33.9336 -32.4893 -74.3857 -55.7197q-98.3086 -42.6289 -216.408 -42.6289h-41.7373q-97.5303 0 -173.837 29.8096q-64.0586 27.3633 -112.023 75.3184q-47.9658 47.9531 -75.3369 111.997q-27.6016 64.5811 -27.6016 137.003
v9.99805q0 72.4219 27.6016 137.005q27.3711 64.0449 75.3369 111.997q47.9707 47.959 112.023 75.3174q76.3145 27.5947 173.837 27.5947h274.201v90.375q0 22.3672 -9.83887 41.6582q-10.1348 19.8691 -32.8701 34.3047q-23.0078 14.4326 -54.6816 22.9932
q-30.751 8.30859 -66.4082 8.30859h-96.9395q-35.6543 0 -66.4062 -10.626q-31.6738 -10.9443 -54.6826 -29.4014q-23.0078 -18.4561 -36.334 -43.8633q-9.83887 -24.667 -9.83887 -53.2686v-104.721l-225 39.5127v57.6475q0 78.2373 27.6016 148.001
q27.373 69.1885 75.3369 120.986q47.9629 51.7998 112.023 81.3652q79.7627 29.8076 177.3 29.8076h96.9395q97.54 0 173.837 -29.8076q64.0635 -26.8711 112.024 -73.9434q47.9678 -47.0811 75.3359 -109.953q27.6016 -63.4062 27.6016 -134.503v-779.313zM786 270.966
v153.074h-274.201q-35.6562 0 -66.4082 -8.80664q-31.3359 -8.97559 -54.1826 -24.4834q-23.1279 -15.8574 -33.3691 -37.1387q-9.83887 -20.4473 -9.83887 -44.1533v-38.4922q0 -23.707 9.83887 -44.1514q10.1338 -21.0586 32.8701 -36.3564
q23.0078 -15.2979 54.6816 -24.3701q30.752 -8.80762 66.4082 -8.80762h110.402q35.6572 0 66.4082 8.80762q31.6748 9.07227 54.6816 24.3701q22.7363 15.2979 32.8701 36.3564q9.83887 20.4443 9.83887 44.1514zM609.505 1116.32l-452.373 375.84h418.342l280.82 -375.84
h-246.789z" />
    <glyph glyph-name="aacute" unicode="&#xe1;" 
d="M1011 -56.5605h-119.294l-47.376 76.749q-33.9336 -32.4893 -74.3857 -55.7197q-98.3086 -42.6289 -216.408 -42.6289h-41.7373q-97.5303 0 -173.837 29.8096q-64.0586 27.3633 -112.023 75.3184q-47.9658 47.9531 -75.3369 111.997q-27.6016 64.5811 -27.6016 137.003
v9.99805q0 72.4219 27.6016 137.005q27.3711 64.0449 75.3369 111.997q47.9707 47.959 112.023 75.3174q76.3145 27.5947 173.837 27.5947h274.201v90.375q0 22.3672 -9.83887 41.6582q-10.1348 19.8691 -32.8701 34.3047q-23.0078 14.4326 -54.6816 22.9932
q-30.751 8.30859 -66.4082 8.30859h-96.9395q-35.6543 0 -66.4062 -10.626q-31.6738 -10.9443 -54.6826 -29.4014q-23.0078 -18.4561 -36.334 -43.8633q-9.83887 -24.667 -9.83887 -53.2686v-104.721l-225 39.5127v57.6475q0 78.2373 27.6016 148.001
q27.373 69.1885 75.3369 120.986q47.9629 51.7998 112.023 81.3652q79.7627 29.8076 177.3 29.8076h96.9395q97.54 0 173.837 -29.8076q64.0635 -26.8711 112.024 -73.9434q47.9678 -47.0811 75.3359 -109.953q27.6016 -63.4062 27.6016 -134.503v-779.313zM786 270.966
v153.074h-274.201q-35.6562 0 -66.4082 -8.80664q-31.3359 -8.97559 -54.1826 -24.4834q-23.1279 -15.8574 -33.3691 -37.1387q-9.83887 -20.4473 -9.83887 -44.1533v-38.4922q0 -23.707 9.83887 -44.1514q10.1338 -21.0586 32.8701 -36.3564
q23.0078 -15.2979 54.6816 -24.3701q30.752 -8.80762 66.4082 -8.80762h110.402q35.6572 0 66.4082 8.80762q31.6748 9.07227 54.6816 24.3701q22.7363 15.2979 32.8701 36.3564q9.83887 20.4443 9.83887 44.1514zM976.868 1492.16l-452.373 -375.84h-246.468
l279.027 375.84h419.813z" />
    <glyph glyph-name="acircumflex" unicode="&#xe2;" 
d="M1011 -56.5605h-119.294l-47.376 76.749q-33.9336 -32.4893 -74.3857 -55.7197q-99.0654 -42.6289 -216.869 -42.6289h-41.6338q-97.2852 0 -173.479 29.8096q-64.0586 27.3633 -112.023 75.3184q-47.9658 47.9531 -75.3369 111.997q-27.6016 64.5811 -27.6016 137.003
v9.99805q0 72.4219 27.6016 137.005q27.3711 64.0449 75.3369 111.997q47.9707 47.959 112.023 75.3174q76.2002 27.5947 173.479 27.5947h274.559v90.375q0 22.3672 -9.83887 41.6582q-10.8555 19.8691 -33.8057 34.3047q-22.9502 14.4326 -54.5459 22.9932
q-30.6738 8.30859 -66.2412 8.30859h-96.6963q-35.5674 0 -66.2422 -10.626q-31.5938 -10.9443 -54.5449 -29.4014q-22.9512 -18.4561 -36.2461 -43.8633q-9.83887 -24.667 -9.83887 -53.2686v-104.721l-225 39.5127v57.6475q0 78.2373 27.6016 148.001
q27.373 69.1885 75.3369 120.986q47.9629 51.7998 112.023 81.3652q79.6162 29.8076 176.91 29.8076h96.6963q97.2969 0 174.47 -29.8076q64.0635 -26.8711 112.024 -73.9434q47.9678 -47.0811 75.3359 -109.953q27.6016 -63.4062 27.6016 -134.503v-779.313zM786 270.966
v153.074h-274.559q-35.5664 0 -66.2412 -8.80664q-31.2578 -8.97559 -54.0479 -24.4834q-23.0723 -15.8574 -33.3135 -37.1387q-9.83887 -20.4473 -9.83887 -44.1533v-38.4922q0 -23.707 9.83887 -44.1514q10.1338 -21.0586 32.8154 -36.3564
q22.9512 -15.2979 54.5459 -24.3701q30.6748 -8.80762 66.2412 -8.80762h110.127q35.5674 0 66.2412 8.80762q31.5967 9.07227 54.5459 24.3701q22.9512 15.2979 33.8057 36.3564q9.83887 20.4443 9.83887 44.1514zM708.712 1492.16l305.178 -375.84h-258.14
l-162.205 148.554l-161.079 -148.554h-271.353l318.248 375.84h229.351z" />
    <glyph glyph-name="atilde" unicode="&#xe3;" 
d="M1011 -56.5605h-119.294l-47.376 76.749q-33.9336 -32.4893 -74.3857 -55.7197q-98.3086 -42.6289 -216.408 -42.6289h-41.7373q-97.5303 0 -173.837 29.8096q-64.0586 27.3633 -112.023 75.3184q-47.9658 47.9531 -75.3369 111.997q-27.6016 64.5811 -27.6016 137.003
v9.99805q0 72.4219 27.6016 137.005q27.3711 64.0449 75.3369 111.997q47.9707 47.959 112.023 75.3174q76.3145 27.5947 173.837 27.5947h274.201v90.375q0 22.3672 -9.83887 41.6582q-10.1348 19.8691 -32.8701 34.3047q-23.0078 14.4326 -54.6816 22.9932
q-30.751 8.30859 -66.4082 8.30859h-96.9395q-35.6543 0 -66.4062 -10.626q-31.6738 -10.9443 -54.6826 -29.4014q-23.0078 -18.4561 -36.334 -43.8633q-9.83887 -24.667 -9.83887 -53.2686v-104.721l-225 39.5127v57.6475q0 78.2373 27.6016 148.001
q27.373 69.1885 75.3369 120.986q47.9629 51.7998 112.023 81.3652q79.7627 29.8076 177.3 29.8076h96.9395q97.54 0 173.837 -29.8076q64.0635 -26.8711 112.024 -73.9434q47.9678 -47.0811 75.3359 -109.953q27.6016 -63.4062 27.6016 -134.503v-779.313zM786 270.966
v153.074h-274.201q-35.6562 0 -66.4082 -8.80664q-31.3359 -8.97559 -54.1826 -24.4834q-23.1279 -15.8574 -33.3691 -37.1387q-9.83887 -20.4473 -9.83887 -44.1533v-38.4922q0 -23.707 9.83887 -44.1514q10.1338 -21.0586 32.8701 -36.3564
q23.0078 -15.2979 54.6816 -24.3701q30.752 -8.80762 66.4082 -8.80762h110.402q35.6572 0 66.4082 8.80762q31.6748 9.07227 54.6816 24.3701q22.7363 15.2979 32.8701 36.3564q9.83887 20.4443 9.83887 44.1514zM699.267 1379.55q24.0811 -11.5879 52.1865 -11.5879
q18.7197 0 25.5205 10.6797q13.0264 20.4668 13.0264 58.4395v55.0801h196v-55.0801q0 -56.5488 -13.582 -106.294q-14.2227 -52.0986 -42.624 -91.627q-29.708 -41.3535 -74.752 -65.3291q-45.1592 -24.0303 -106.282 -24.0303q-80.6309 0 -144.138 25.1211
q-53.1279 21.0166 -99.2725 45.6943q-41.8076 22.3564 -79.3594 41.375q-21.5762 10.9297 -43.4434 10.9297q-18.2529 0 -24.1123 -9.49316q-12.4346 -20.1416 -12.4346 -56.3877v-55.0781h-196v55.0781q0 55.1455 12.915 104.588q13.7002 52.4551 42.291 92.2539
q29.9053 41.6348 75.29 65.0703q44.9414 23.209 107.436 23.209q77.417 0 138.8 -25.6826q50.4795 -21.124 95.3135 -46.4717q38.9805 -22.043 77.2217 -40.457z" />
    <glyph glyph-name="adieresis" unicode="&#xe4;" 
d="M1011 -54.5605h-119.294l-47.376 76.749q-33.9336 -32.4893 -74.3857 -55.7197q-98.3086 -42.6289 -216.408 -42.6289h-41.7373q-97.5303 0 -173.837 29.8096q-64.0586 27.3633 -112.023 75.3184q-47.9658 47.9531 -75.3369 111.997q-27.6016 64.5811 -27.6016 137.003
v9.99805q0 72.4219 27.6016 137.005q27.3711 64.0449 75.3369 111.997q47.9707 47.959 112.023 75.3174q76.3145 27.5947 173.837 27.5947h274.201v90.375q0 22.3672 -9.83887 41.6582q-10.1348 19.8691 -32.8701 34.3047q-23.0078 14.4326 -54.6816 22.9932
q-30.751 8.30859 -66.4082 8.30859h-96.9395q-35.6543 0 -66.4062 -10.626q-31.6738 -10.9443 -54.6826 -29.4014q-23.0078 -18.4561 -36.334 -43.8633q-9.83887 -24.667 -9.83887 -53.2686v-104.721l-225 39.5127v57.6475q0 78.2373 27.6016 148.001
q27.373 69.1885 75.3369 120.986q47.9629 51.7998 112.023 81.3652q79.7627 29.8076 177.3 29.8076h96.9395q97.54 0 173.837 -29.8076q64.0635 -26.8711 112.024 -73.9434q47.9678 -47.0811 75.3359 -109.953q27.6016 -63.4062 27.6016 -134.503v-779.313zM786 272.966
v153.074h-274.201q-35.6562 0 -66.4082 -8.80664q-31.3359 -8.97559 -54.1826 -24.4834q-23.1279 -15.8574 -33.3691 -37.1387q-9.83887 -20.4473 -9.83887 -44.1533v-38.4922q0 -23.707 9.83887 -44.1514q10.1338 -21.0586 32.8701 -36.3564
q23.0078 -15.2979 54.6816 -24.3701q30.752 -8.80762 66.4082 -8.80762h110.402q35.6572 0 66.4082 8.80762q31.6748 9.07227 54.6816 24.3701q22.7363 15.2979 32.8701 36.3564q9.83887 20.4443 9.83887 44.1514zM506.413 1164.76h-291.413v275.4h291.413v-275.4z
M960 1164.76h-277.212v275.4h277.212v-275.4z" />
    <glyph glyph-name="aring" unicode="&#xe5;" 
d="M1011 -62.04h-119.294l-47.376 76.748q-33.9336 -32.4893 -74.3857 -55.7197q-98.3086 -42.6279 -216.408 -42.6279h-41.7373q-97.5303 0 -173.837 29.8086q-64.0586 27.3633 -112.023 75.3184q-47.9658 47.9531 -75.3369 111.997q-27.6016 64.582 -27.6016 137.003
v9.99902q0 72.4219 27.6016 137.005q27.3711 64.0449 75.3369 111.997q47.9707 47.958 112.023 75.3164q76.3145 27.5957 173.837 27.5957h274.201v90.374q0 22.3682 -9.83887 41.6582q-10.1348 19.8701 -32.8701 34.3047q-23.0078 14.4336 -54.6816 22.9932
q-30.751 8.30957 -66.4082 8.30957h-96.9395q-35.6543 0 -66.4062 -10.626q-31.6738 -10.9443 -54.6826 -29.4004q-23.0078 -18.4561 -36.334 -43.8643q-9.83887 -24.668 -9.83887 -53.2695v-104.72l-225 39.5127v57.6475q0 78.2363 27.6016 148.001
q27.373 69.1875 75.3369 120.986q47.9629 51.7998 112.023 81.3643q79.7627 29.8086 177.3 29.8086h96.9395q97.54 0 173.837 -29.8086q64.0635 -26.8701 112.024 -73.9434q47.9678 -47.0811 75.3359 -109.953q27.6016 -63.4062 27.6016 -134.503v-779.312zM786 265.486
v153.074h-274.201q-35.6562 0 -66.4082 -8.80762q-31.3359 -8.97559 -54.1826 -24.4824q-23.1279 -15.8574 -33.3691 -37.1396q-9.83887 -20.4463 -9.83887 -44.1523v-38.4922q0 -23.707 9.83887 -44.1523q10.1338 -21.0576 32.8701 -36.3564
q23.0078 -15.2979 54.6816 -24.3701q30.752 -8.80762 66.4082 -8.80762h110.402q35.6572 0 66.4082 8.80762q31.6748 9.07324 54.6816 24.3701q22.7363 15.2988 32.8701 36.3564q9.83887 20.4453 9.83887 44.1523zM278.624 1238.72q-20.624 51.9697 -20.624 110.797
q0 58.8281 20.624 110.798q20.2754 51.0947 55.501 89.8125q35.585 38.8369 99.4492 61.4521q65.0869 23.0576 138.811 23.0576q73.7256 0 138.812 -23.0576q61.1299 -22.5176 96.8652 -61.1172q35.7441 -38.5996 56.5918 -89.5977q21.3457 -52.207 21.3457 -111.348
t-21.3457 -111.348q-20.9443 -51.2246 -56.9072 -89.4023q-35.8428 -38.0371 -97.2373 -59.9395q-64.7881 -22.2695 -138.125 -22.2695q-73.333 0 -138.124 22.2695q-63.9971 22.0098 -99.8232 60.2852q-35.4492 38.2861 -55.8135 89.6074zM500.504 1375.41
q-6.20801 -12.0107 -6.20801 -25.8887q0 -12.7979 6.20801 -24.8066q6.21777 -12.0215 16.7637 -20.4873q11.2949 -9.06152 26.748 -14.6348q13.4873 -4.87109 28.3691 -4.87109q16.2314 0 29.7168 4.87109q15.4531 5.57324 26.7471 14.6348
q11.0684 8.87695 17.9932 21.5352q6.32617 11.5557 6.32617 23.7588q0 13.2852 -6.32617 24.8408q-6.9248 12.6572 -17.9932 21.5352q-11.2939 9.06152 -26.7471 14.6338q-13.4854 4.87109 -29.7168 4.87109q-14.8828 0 -28.3691 -4.87109
q-15.4551 -5.57227 -26.748 -14.6338q-10.5459 -8.46777 -16.7637 -20.4873z" />
    <glyph glyph-name="ae" unicode="&#xe6;" horiz-adv-x="1695" 
d="M1572 408.727v-91.127q0 -78.2402 -27.5996 -148q-27.3809 -69.1953 -75.3398 -120.987q-47.9707 -51.8047 -112.021 -81.3623q-68.6299 -29.8105 -149.71 -29.8105h-91.7695q-54.8105 0 -106.53 13.8994q-51.4082 13.8125 -95.8965 39.0654
q-44.5508 25.2881 -81.1689 61.2549q-6.08984 5.98047 -12.3037 12.6367q-13.3379 -14.71 -27.1592 -27.1992q-41.1982 -37.2285 -87.0645 -59.6787q-45.6514 -22.3447 -93.125 -31.377q-45.2002 -8.60156 -89.9492 -8.60156h-34.6963q-81.0752 0 -149.705 29.8105
q-64.0586 27.3623 -112.023 75.3174q-47.9658 47.9531 -75.3369 111.997q-27.6016 64.5811 -27.6016 137.003v9.99902q0 72.4219 27.6016 137.005q27.3711 64.0449 75.3369 111.997q47.9707 47.958 112.023 75.3164q68.6348 27.5957 149.705 27.5957h233.919v94.7754
q-0.926758 20.4756 -12.1182 38.8213q-11.8301 19.3936 -31.1738 33.6865q-19.1123 14.123 -44.9297 22.3418q-25.1768 8.01465 -53.9199 8.01465h-80.585q-29.6406 0 -55.2041 -10.626q-26.3291 -10.9453 -45.4561 -29.4014t-30.3604 -43.8633
q-9.83887 -24.668 -9.83887 -53.2695v-104.721l-225 39.5137v57.6475q0 78.2363 27.6016 148q27.373 69.1885 75.3369 120.986q47.9629 51.7998 112.023 81.3652q69.8154 29.8086 150.897 29.8086h80.585q94.5293 0 176.871 -41.3105q50.168 -25.1738 90.585 -61.5146
q40.3857 36.3652 89.9395 61.4287q81.8398 41.3965 178.721 41.3965h91.7695q81.0898 0 149.71 -29.8086q64.0498 -26.2871 112.021 -72.3477q47.959 -46.0508 75.3398 -107.578q27.5996 -62.0293 27.5996 -131.601v-280.409h-598.586v-169.977q0 -25.4316 11.0107 -47.3662
q11.3428 -22.5908 30.4756 -39.002q19.1191 -16.4111 45.4492 -26.1426q25.5605 -9.44922 55.2109 -9.44922h91.7695q29.6396 0 55.21 10.626q26.3203 10.9424 45.4502 29.4014q19.04 18.4541 29.1699 43.8633q9.83984 24.668 9.83984 53.2695v138.2zM721.586 286.565
v153.074h-233.919q-29.6396 0 -55.2041 -8.80664q-26.0488 -8.97559 -45.042 -24.4824q-19.3408 -15.8584 -29.582 -37.1396q-9.83887 -20.4463 -9.83887 -44.1523v-38.4932q0 -23.7061 9.83887 -44.1514q10.1338 -21.0586 29.167 -36.3564q19.127 -15.2979 45.457 -24.3701
q25.5645 -8.80762 55.2041 -8.80762h91.7773q29.6406 0 55.2041 8.80762q26.332 9.07324 45.457 24.3701q19.127 15.2979 30.4697 36.3564q11.0107 20.4453 11.0107 44.1514zM1347 604.88v109.08q0 28.6016 -9.83984 53.2695q-10.1299 25.4092 -29.1699 43.8633
q-19.1299 18.459 -45.4502 29.4014q-25.5703 10.626 -55.21 10.626h-91.7695q-28.75 0 -53.9209 -10.248q-25.8193 -10.5098 -44.9297 -28.5674q-19.3477 -18.2773 -31.1777 -43.0762q-11.1914 -23.458 -12.1182 -49.6387v-114.71h373.586z" />
    <glyph glyph-name="ccedilla" unicode="&#xe7;" 
d="M425.948 -187.09l-81.5654 -6.0166l33.0205 -39.9131q3.44043 -3.31152 11.7178 -9.21289q5.71289 -4.07227 16.2832 -8.4707q12.5469 -5.21875 28.6953 -9.14258q12.4775 -3.03418 27.8838 -3.03418q25.1807 0 40.498 10.1182q9.31738 6.15527 9.31738 21.2012
q0 12.2764 -4.85156 19.6504q-5.34766 8.12891 -14.667 13.5654q-10.9502 6.38672 -26.3281 9.25586q-18.4404 3.44043 -40.0039 1.99902zM223.664 -353.372l95.4961 157.995l-8.47559 -0.762695l100.807 157.624q-43.5977 7.63379 -73.5293 21.4453
q-64.0586 26.8457 -112.023 73.8916q-47.9658 47.0449 -75.3369 109.876q-27.6016 63.3604 -27.6016 134.411v453.143q0 71.0527 27.6016 134.412q27.373 62.833 75.3369 109.875q47.9629 47.043 112.023 73.8945q76.2998 29.8066 173.837 29.8066h110.402
q97.54 0 173.837 -29.8066q64.0635 -29.5684 112.024 -81.3662q47.9678 -51.8037 75.3359 -120.985q27.6016 -69.7695 27.6016 -148.001v-91.1279l-225 -39.5127v138.2q0 28.6025 -9.83887 53.2686q-10.1348 25.4082 -32.8701 43.8643q-23.0078 18.4561 -54.6816 29.4014
q-30.751 10.626 -66.4082 10.626h-110.402q-35.6562 0 -66.4082 -9.14062q-31.6719 -9.41504 -54.6816 -25.2939q-22.7354 -15.877 -32.8701 -37.7344q-9.83887 -21.2207 -9.83887 -45.8262v-442.249q0 -24.6045 9.83887 -45.8262q10.1338 -21.8574 32.8701 -37.7344
q23.0078 -15.8779 54.6816 -25.2939q30.752 -9.14062 66.4082 -9.14062h110.402q35.6572 0 66.4082 10.626q31.6748 10.9453 54.6816 29.4004q22.7363 18.458 32.8701 43.8643q9.83887 24.668 9.83887 53.2686v138.2l225 -39.5127v-91.127q0 -76.0039 -26.5547 -143.565
q-26.1084 -66.4219 -70.9814 -117.404q-44.9375 -51.0557 -105.366 -82.4316q-50.1641 -25.0703 -122.203 -33.4502l-13.3613 -18.7012q18.9023 -12.6299 36.0332 -28.5869q27.5596 -25.6729 46.4961 -60.1973q17.9375 -37.6035 17.9375 -84.8232
q0 -52.5146 -21.1982 -96.5107q-24.3086 -44.7725 -68.8271 -76.1094q-43.2949 -30.4746 -102.052 -46.417q-56.4805 -15.3223 -121.633 -15.3223q-76.2002 0 -126.839 24.3135q-44.3545 22.9668 -79.5127 60.9395z" />
    <glyph glyph-name="egrave" unicode="&#xe8;" 
d="M1011 393.127v-91.127q0 -78.2295 -27.6016 -148.001q-27.3672 -69.1797 -75.3359 -120.986q-47.9629 -51.8008 -112.024 -81.3633q-76.3047 -29.8096 -173.837 -29.8096h-110.402q-97.5303 0 -173.837 29.8096q-64.0586 26.8457 -112.023 73.8916
q-47.9658 47.0449 -75.3369 109.876q-27.6016 63.3604 -27.6016 134.411v453.144q0 71.0518 27.6016 134.411q27.373 62.833 75.3369 109.875q47.9629 47.043 112.023 73.8945q76.2998 29.8076 173.837 29.8076h110.402q97.54 0 173.837 -29.8076
q64.0635 -27.1211 112.024 -74.6328q47.9678 -47.5186 75.3359 -110.977q27.6016 -63.9971 27.6016 -135.756v-289.268h-663v-159.09q0 -23.8027 9.83887 -44.332q10.1338 -21.1455 32.8701 -36.5049q23.0078 -15.3613 54.6816 -24.4697q30.752 -8.84277 66.4082 -8.84277
h110.402q35.6572 0 66.4082 10.626q31.6748 10.9453 54.6816 29.4014q22.7363 18.457 32.8701 43.8633q9.83887 24.668 9.83887 53.2686v138.2zM786 644.36v84.6797q0 22.2041 -9.83887 41.3535q-10.1348 19.7246 -32.8701 34.0527q-23.0078 14.3271 -54.6816 22.8232
q-30.751 8.25 -66.4082 8.25h-110.402q-35.6562 0 -66.4082 -8.25q-31.6719 -8.49414 -54.6816 -22.8232q-22.7354 -14.3281 -32.8701 -34.0527q-9.83887 -19.1475 -9.83887 -41.3535v-84.6797h438zM609.505 1116.32l-452.373 375.84h418.342l280.82 -375.84h-246.789z" />
    <glyph glyph-name="eacute" unicode="&#xe9;" 
d="M1011 393.127v-91.127q0 -78.2295 -27.6016 -148.001q-27.3672 -69.1797 -75.3359 -120.986q-47.9629 -51.8008 -112.024 -81.3633q-76.3047 -29.8096 -173.837 -29.8096h-110.402q-97.5303 0 -173.837 29.8096q-64.0586 26.8457 -112.023 73.8916
q-47.9658 47.0449 -75.3369 109.876q-27.6016 63.3604 -27.6016 134.411v453.144q0 71.0518 27.6016 134.411q27.373 62.833 75.3369 109.875q47.9629 47.043 112.023 73.8945q76.2998 29.8076 173.837 29.8076h110.402q97.54 0 173.837 -29.8076
q64.0635 -27.1211 112.024 -74.6328q47.9678 -47.5186 75.3359 -110.977q27.6016 -63.9971 27.6016 -135.756v-289.268h-663v-159.09q0 -23.8027 9.83887 -44.332q10.1338 -21.1455 32.8701 -36.5049q23.0078 -15.3613 54.6816 -24.4697q30.752 -8.84277 66.4082 -8.84277
h110.402q35.6572 0 66.4082 10.626q31.6748 10.9453 54.6816 29.4014q22.7363 18.457 32.8701 43.8633q9.83887 24.668 9.83887 53.2686v138.2zM786 644.36v84.6797q0 22.2041 -9.83887 41.3535q-10.1348 19.7246 -32.8701 34.0527q-23.0078 14.3271 -54.6816 22.8232
q-30.751 8.25 -66.4082 8.25h-110.402q-35.6562 0 -66.4082 -8.25q-31.6719 -8.49414 -54.6816 -22.8232q-22.7354 -14.3281 -32.8701 -34.0527q-9.83887 -19.1475 -9.83887 -41.3535v-84.6797h438zM976.868 1492.16l-452.373 -375.84h-246.468l279.027 375.84h419.813z" />
    <glyph glyph-name="ecircumflex" unicode="&#xea;" 
d="M1011 393.127v-91.127q0 -78.2295 -27.6016 -148.001q-27.3672 -69.1797 -75.3359 -120.986q-47.9629 -51.8008 -112.024 -81.3633q-77.1807 -29.8096 -174.47 -29.8096h-110.127q-97.2852 0 -173.479 29.8096q-64.0586 26.8457 -112.023 73.8916
q-47.9658 47.0449 -75.3369 109.876q-27.6016 63.3604 -27.6016 134.411v453.144q0 71.0518 27.6016 134.411q27.373 62.833 75.3369 109.875q47.9629 47.043 112.023 73.8945q76.1865 29.8076 173.479 29.8076h110.127q97.2969 0 174.47 -29.8076
q64.0635 -27.1211 112.024 -74.6328q47.9678 -47.5186 75.3359 -110.977q27.6016 -63.9971 27.6016 -135.756v-289.268h-663v-159.09q0 -23.8027 9.83887 -44.332q10.1338 -21.1455 32.8154 -36.5049q22.9512 -15.3613 54.5459 -24.4697q30.6748 -8.84277 66.2412 -8.84277
h110.127q35.5674 0 66.2412 10.626q31.5967 10.9453 54.5459 29.4014q22.9512 18.457 33.8057 43.8633q9.83887 24.668 9.83887 53.2686v138.2zM786 644.36v84.6797q0 22.2041 -9.83887 41.3535q-10.8555 19.7246 -33.8057 34.0527q-22.9502 14.3271 -54.5459 22.8232
q-30.6738 8.25 -66.2412 8.25h-110.127q-35.5664 0 -66.2412 -8.25q-31.5938 -8.49414 -54.5459 -22.8232q-22.6807 -14.3281 -32.8154 -34.0527q-9.83887 -19.1475 -9.83887 -41.3535v-84.6797h438zM708.712 1492.16l305.178 -375.84h-258.14l-162.205 148.554
l-161.079 -148.554h-271.353l318.248 375.84h229.351z" />
    <glyph glyph-name="edieresis" unicode="&#xeb;" 
d="M1011 395.127v-91.127q0 -78.2295 -27.6016 -148.001q-27.3672 -69.1797 -75.3359 -120.986q-47.9629 -51.8008 -112.024 -81.3633q-76.3047 -29.8096 -173.837 -29.8096h-110.402q-97.5303 0 -173.837 29.8096q-64.0586 26.8457 -112.023 73.8916
q-47.9658 47.0449 -75.3369 109.876q-27.6016 63.3604 -27.6016 134.411v453.144q0 71.0518 27.6016 134.411q27.373 62.833 75.3369 109.875q47.9629 47.043 112.023 73.8945q76.2998 29.8076 173.837 29.8076h110.402q97.54 0 173.837 -29.8076
q64.0635 -27.1211 112.024 -74.6328q47.9678 -47.5186 75.3359 -110.977q27.6016 -63.9971 27.6016 -135.756v-289.268h-663v-159.09q0 -23.8027 9.83887 -44.332q10.1338 -21.1455 32.8701 -36.5049q23.0078 -15.3613 54.6816 -24.4697q30.752 -8.84277 66.4082 -8.84277
h110.402q35.6572 0 66.4082 10.626q31.6748 10.9453 54.6816 29.4014q22.7363 18.457 32.8701 43.8633q9.83887 24.668 9.83887 53.2686v138.2zM786 646.36v84.6797q0 22.2041 -9.83887 41.3535q-10.1348 19.7246 -32.8701 34.0527q-23.0078 14.3271 -54.6816 22.8232
q-30.751 8.25 -66.4082 8.25h-110.402q-35.6562 0 -66.4082 -8.25q-31.6719 -8.49414 -54.6816 -22.8232q-22.7354 -14.3281 -32.8701 -34.0527q-9.83887 -19.1475 -9.83887 -41.3535v-84.6797h438zM506.413 1164.76h-291.413v275.4h291.413v-275.4zM960 1164.76h-277.212
v275.4h277.212v-275.4z" />
    <glyph glyph-name="igrave" unicode="&#xec;" horiz-adv-x="553" 
d="M471.868 -57.3604h-225v1105.92h225v-1105.92zM390.439 1115.52l-390.439 375.841h366.163l232 -375.841h-207.724z" />
    <glyph glyph-name="iacute" unicode="&#xed;" horiz-adv-x="553" 
d="M433.294 -57.3604h-225v1105.92h225v-1105.92zM680.525 1491.36l-391.854 -375.841h-206.672l232 375.841h366.525z" />
    <glyph glyph-name="icircumflex" unicode="&#xee;" horiz-adv-x="757" 
d="M548.887 -57.3604h-225v1105.92h225v-1105.92zM521.774 1491.36l392 -375.841h-309.863l-167.89 148.555l-166.422 -148.555h-310.6l392 375.841h170.774z" />
    <glyph glyph-name="idieresis" unicode="&#xef;" horiz-adv-x="553" 
d="M389 -55.3604h-225v1105.92h225v-1105.92zM211 1163.96h-256v275.399h256v-275.399zM598 1163.96h-256v275.399h256v-275.399z" />
    <glyph glyph-name="eth" unicode="&#xf0;" 
d="M285.385 1228.65l194.305 52.7354q-18.998 15.2822 -38.3945 29.4844q-60.2822 44.1504 -111.095 81.5078l-128.316 99.7812h366.561l16.4912 -9.07227q94.2725 -51.8613 180.972 -132.278l247.593 74.3037l51.9805 -176.429l-182.056 -56.8838
q48.0127 -89.3916 81.2627 -192.982q46.3125 -130.559 46.3125 -278.701v-451.466q0 -70.7822 -27.6016 -133.913q-27.3672 -62.5938 -75.3359 -109.471q-47.9629 -46.8701 -118.945 -73.6182q-83.4805 -29.8096 -177.094 -29.8096h-105.97q-93.6113 0 -168.092 29.8096
q-64.0586 26.8457 -112.023 73.8916q-47.9658 47.0449 -75.3369 109.876q-27.6016 63.3604 -27.6016 134.411v453.144q0 71.0518 27.6016 134.411q27.373 62.833 75.3369 109.875q47.9629 47.043 112.023 73.8945q74.4717 29.8076 168.092 29.8076h105.97
q28.6533 0 56.9912 -2.95898q-16.9062 29.8291 -37.874 58.7305l-300.576 -74.2725zM776.145 275.275v442.25q0 24.6045 -12.7148 45.8262q-13.0967 21.8574 -35.1807 37.7334q-22.084 15.8779 -52.4863 25.2939q-29.5156 9.14062 -63.7393 9.14062h-105.97
q-34.2227 0 -63.7393 -9.14062q-30.4014 -9.41504 -52.4863 -25.2939q-21.8545 -15.876 -31.9893 -37.7334q-9.83887 -21.2217 -9.83887 -45.8262v-442.25q0 -24.6045 9.83887 -45.8262q10.1338 -21.8564 31.9893 -37.7344q22.084 -15.877 52.4863 -25.2939
q29.5166 -9.14062 63.7393 -9.14062h105.97q34.2236 0 63.7393 9.14062q30.4033 9.41699 52.4863 25.2939q22.085 15.8779 35.1807 37.7344q12.7148 21.2217 12.7148 45.8262z" />
    <glyph glyph-name="ntilde" unicode="&#xf1;" 
d="M1011 -57.3604h-225v769.996q0 25.458 -12.8262 47.4141q-13.2109 22.6152 -35.4883 39.0439q-22.2754 16.4268 -52.9424 26.167q-29.7744 9.45898 -64.2969 9.45898h-106.893q-34.5215 0 -64.2969 -9.45898q-20.583 -6.53809 -37.2979 -16.0312
q-8.25391 -4.68652 -15.6445 -10.1357q-22.2773 -16.4287 -35.4883 -39.0439q-12.8262 -21.9561 -12.8262 -47.4141v-769.996h-225v1105.92h119.812l46.1025 -77.2881q33.8135 33 79.5557 56.3467q97.3486 42.541 211.566 42.541h40.4102q94.4385 0 175.592 -29.8076
q64.0635 -26.8711 112.024 -73.9434q47.9678 -47.0811 75.3359 -109.953q27.6016 -63.4072 27.6016 -134.503v-779.313zM695.062 1378.75q23.3145 -11.5889 50.5264 -11.5889q19.7793 0 28.6445 10.6807q15.7666 20.4658 15.7666 58.4395v55.0801h196v-55.0801
q0 -56.5488 -13.582 -106.294q-14.2227 -52.0996 -42.624 -91.627q-29.708 -41.3535 -74.752 -65.3291q-45.1592 -24.0303 -112.06 -24.0303q-78.0684 0 -139.557 25.1211q-51.4385 21.0156 -96.1172 45.6943q-40.4775 22.3564 -76.8359 41.375
q-20.8906 10.9297 -42.0615 10.9297q-19.1709 0 -26.8096 -9.49316q-15.6016 -20.1426 -15.6016 -56.3867v-55.0801h-196v55.0801q0 55.1445 12.915 104.587q13.7002 52.4561 42.291 92.2539q29.9053 41.6338 75.29 65.0703q44.9414 23.209 113.129 23.209
q74.9551 0 134.386 -25.6826q48.875 -21.125 92.2842 -46.4727q37.7412 -22.043 74.7676 -40.4561z" />
    <glyph glyph-name="ograve" unicode="&#xf2;" 
d="M1011 722.972v-453.144q0 -71.0449 -27.6016 -134.411q-27.3672 -62.8252 -75.3359 -109.876q-47.9629 -47.0439 -112.024 -73.8916q-76.3047 -29.8096 -173.837 -29.8096h-110.402q-97.5303 0 -173.837 29.8096q-64.0586 26.8457 -112.023 73.8916
q-47.9658 47.0449 -75.3369 109.876q-27.6016 63.3604 -27.6016 134.411v453.144q0 71.0518 27.6016 134.411q27.373 62.833 75.3369 109.875q47.9629 47.043 112.023 73.8945q76.2998 29.8076 173.837 29.8076h110.402q97.54 0 173.837 -29.8076
q64.0635 -26.8525 112.024 -73.8945q47.9678 -47.0479 75.3359 -109.875q27.6016 -63.3643 27.6016 -134.411zM786 275.275v442.25q0 24.6045 -9.83887 45.8262q-10.1348 21.8574 -32.8701 37.7334q-23.0078 15.8779 -54.6816 25.2939q-30.751 9.14062 -66.4082 9.14062
h-110.402q-35.6562 0 -66.4082 -9.14062q-31.6719 -9.41504 -54.6816 -25.2939q-22.7354 -15.876 -32.8701 -37.7334q-9.83887 -21.2217 -9.83887 -45.8262v-442.25q0 -24.6045 9.83887 -45.8262q10.1338 -21.8564 32.8701 -37.7344q23.0078 -15.877 54.6816 -25.2939
q30.752 -9.14062 66.4082 -9.14062h110.402q35.6572 0 66.4082 9.14062q31.6748 9.41699 54.6816 25.2939q22.7363 15.8779 32.8701 37.7344q9.83887 21.2217 9.83887 45.8262zM609.505 1116.32l-452.373 375.84h418.342l280.82 -375.84h-246.789z" />
    <glyph glyph-name="oacute" unicode="&#xf3;" 
d="M1011 722.972v-453.144q0 -71.0449 -27.6016 -134.411q-27.3672 -62.8252 -75.3359 -109.876q-47.9629 -47.0439 -112.024 -73.8916q-76.3047 -29.8096 -173.837 -29.8096h-110.402q-97.5303 0 -173.837 29.8096q-64.0586 26.8457 -112.023 73.8916
q-47.9658 47.0449 -75.3369 109.876q-27.6016 63.3604 -27.6016 134.411v453.144q0 71.0518 27.6016 134.411q27.373 62.833 75.3369 109.875q47.9629 47.043 112.023 73.8945q76.2998 29.8076 173.837 29.8076h110.402q97.54 0 173.837 -29.8076
q64.0635 -26.8525 112.024 -73.8945q47.9678 -47.0479 75.3359 -109.875q27.6016 -63.3643 27.6016 -134.411zM786 275.275v442.25q0 24.6045 -9.83887 45.8262q-10.1348 21.8574 -32.8701 37.7334q-23.0078 15.8779 -54.6816 25.2939q-30.751 9.14062 -66.4082 9.14062
h-110.402q-35.6562 0 -66.4082 -9.14062q-31.6719 -9.41504 -54.6816 -25.2939q-22.7354 -15.876 -32.8701 -37.7334q-9.83887 -21.2217 -9.83887 -45.8262v-442.25q0 -24.6045 9.83887 -45.8262q10.1338 -21.8564 32.8701 -37.7344q23.0078 -15.877 54.6816 -25.2939
q30.752 -9.14062 66.4082 -9.14062h110.402q35.6572 0 66.4082 9.14062q31.6748 9.41699 54.6816 25.2939q22.7363 15.8779 32.8701 37.7344q9.83887 21.2217 9.83887 45.8262zM976.868 1492.16l-452.373 -375.84h-246.468l279.027 375.84h419.813z" />
    <glyph glyph-name="ocircumflex" unicode="&#xf4;" 
d="M1011 722.972v-453.144q0 -71.0449 -27.6016 -134.411q-27.3672 -62.8252 -75.3359 -109.876q-47.9629 -47.0439 -112.024 -73.8916q-76.3047 -29.8096 -173.837 -29.8096h-110.402q-97.5303 0 -173.837 29.8096q-64.0586 26.8457 -112.023 73.8916
q-47.9658 47.0449 -75.3369 109.876q-27.6016 63.3604 -27.6016 134.411v453.144q0 71.0518 27.6016 134.411q27.373 62.833 75.3369 109.875q47.9629 47.043 112.023 73.8945q76.2998 29.8076 173.837 29.8076h110.402q97.54 0 173.837 -29.8076
q64.0635 -26.8525 112.024 -73.8945q47.9678 -47.0479 75.3359 -109.875q27.6016 -63.3643 27.6016 -134.411zM786 275.275v442.25q0 24.6045 -9.83887 45.8262q-10.1348 21.8574 -32.8701 37.7334q-23.0078 15.8779 -54.6816 25.2939q-30.751 9.14062 -66.4082 9.14062
h-110.402q-35.6562 0 -66.4082 -9.14062q-31.6719 -9.41504 -54.6816 -25.2939q-22.7354 -15.876 -32.8701 -37.7334q-9.83887 -21.2217 -9.83887 -45.8262v-442.25q0 -24.6045 9.83887 -45.8262q10.1338 -21.8564 32.8701 -37.7344q23.0078 -15.877 54.6816 -25.2939
q30.752 -9.14062 66.4082 -9.14062h110.402q35.6572 0 66.4082 9.14062q31.6748 9.41699 54.6816 25.2939q22.7363 15.8779 32.8701 37.7344q9.83887 21.2217 9.83887 45.8262zM681.289 1492.16l311.598 -375.84h-264.585l-161.302 148.392l-161.302 -148.392h-264.245
l309.81 375.84h230.026z" />
    <glyph glyph-name="otilde" unicode="&#xf5;" 
d="M1011 722.972v-453.144q0 -71.0449 -27.6016 -134.411q-27.3672 -62.8252 -75.3359 -109.876q-47.9629 -47.0439 -112.024 -73.8916q-76.3047 -29.8096 -173.837 -29.8096h-110.402q-97.5303 0 -173.837 29.8096q-64.0586 26.8457 -112.023 73.8916
q-47.9658 47.0449 -75.3369 109.876q-27.6016 63.3604 -27.6016 134.411v453.144q0 71.0518 27.6016 134.411q27.373 62.833 75.3369 109.875q47.9629 47.043 112.023 73.8945q76.2998 29.8076 173.837 29.8076h110.402q97.54 0 173.837 -29.8076
q64.0635 -26.8525 112.024 -73.8945q47.9678 -47.0479 75.3359 -109.875q27.6016 -63.3643 27.6016 -134.411zM786 275.275v442.25q0 24.6045 -9.83887 45.8262q-10.1348 21.8574 -32.8701 37.7334q-23.0078 15.8779 -54.6816 25.2939q-30.751 9.14062 -66.4082 9.14062
h-110.402q-35.6562 0 -66.4082 -9.14062q-31.6719 -9.41504 -54.6816 -25.2939q-22.7354 -15.876 -32.8701 -37.7334q-9.83887 -21.2217 -9.83887 -45.8262v-442.25q0 -24.6045 9.83887 -45.8262q10.1338 -21.8564 32.8701 -37.7344q23.0078 -15.877 54.6816 -25.2939
q30.752 -9.14062 66.4082 -9.14062h110.402q35.6572 0 66.4082 9.14062q31.6748 9.41699 54.6816 25.2939q22.7363 15.8779 32.8701 37.7344q9.83887 21.2217 9.83887 45.8262zM699.267 1379.55q24.0811 -11.5879 52.1865 -11.5879q18.7197 0 25.5205 10.6797
q13.0264 20.4668 13.0264 58.4395v55.0801h196v-55.0801q0 -56.5488 -13.582 -106.294q-14.2227 -52.0986 -42.624 -91.627q-29.708 -41.3535 -74.752 -65.3291q-45.1592 -24.0303 -106.282 -24.0303q-80.6309 0 -144.138 25.1211q-53.1279 21.0166 -99.2725 45.6943
q-41.8076 22.3564 -79.3594 41.375q-21.5762 10.9297 -43.4434 10.9297q-18.2529 0 -24.1123 -9.49316q-12.4346 -20.1416 -12.4346 -56.3877v-55.0781h-196v55.0781q0 55.1455 12.915 104.588q13.7002 52.4551 42.291 92.2539q29.9053 41.6348 75.29 65.0703
q44.9414 23.209 107.436 23.209q77.417 0 138.8 -25.6826q50.4795 -21.124 95.3135 -46.4717q38.9805 -22.043 77.2217 -40.457z" />
    <glyph glyph-name="odieresis" unicode="&#xf6;" 
d="M1011 724.972v-453.144q0 -71.0449 -27.6016 -134.411q-27.3672 -62.8252 -75.3359 -109.876q-47.9629 -47.0439 -112.024 -73.8916q-76.3047 -29.8096 -173.837 -29.8096h-110.402q-97.5303 0 -173.837 29.8096q-64.0586 26.8457 -112.023 73.8916
q-47.9658 47.0449 -75.3369 109.876q-27.6016 63.3604 -27.6016 134.411v453.144q0 71.0518 27.6016 134.411q27.373 62.833 75.3369 109.875q47.9629 47.043 112.023 73.8945q76.2998 29.8076 173.837 29.8076h110.402q97.54 0 173.837 -29.8076
q64.0635 -26.8525 112.024 -73.8945q47.9678 -47.0479 75.3359 -109.875q27.6016 -63.3643 27.6016 -134.411zM786 277.275v442.25q0 24.6045 -9.83887 45.8262q-10.1348 21.8574 -32.8701 37.7334q-23.0078 15.8779 -54.6816 25.2939q-30.751 9.14062 -66.4082 9.14062
h-110.402q-35.6562 0 -66.4082 -9.14062q-31.6719 -9.41504 -54.6816 -25.2939q-22.7354 -15.876 -32.8701 -37.7334q-9.83887 -21.2217 -9.83887 -45.8262v-442.25q0 -24.6045 9.83887 -45.8262q10.1338 -21.8564 32.8701 -37.7344q23.0078 -15.877 54.6816 -25.2939
q30.752 -9.14062 66.4082 -9.14062h110.402q35.6572 0 66.4082 9.14062q31.6748 9.41699 54.6816 25.2939q22.7363 15.8779 32.8701 37.7344q9.83887 21.2217 9.83887 45.8262zM478.139 1164.76h-283.139v275.4h283.139v-275.4zM939 1164.76h-283.139v275.4h283.139v-275.4z
" />
    <glyph glyph-name="divide" unicode="&#xf7;" horiz-adv-x="1392" 
d="M82 842.2h1228v-249.48h-1228v249.48zM493.065 995.883q-17.6104 37.9844 -17.6104 79.5977q0 42.9082 17.7822 80.5029q17.2402 36.4502 47.1475 64.2812q30.0586 27.9727 70.0674 44.0322q40.8193 16.3828 85.5479 16.3828q46.1064 0 86.5234 -16.5449
q39.1855 -16.0381 69.0918 -43.8701q29.9102 -27.8311 47.1475 -64.2812q17.7822 -37.6055 17.7822 -80.5029q0 -41.6133 -17.6104 -79.5977q-17.2568 -37.2188 -47.3193 -65.1904q-29.9121 -27.8281 -69.0918 -43.8682q-40.417 -16.5439 -86.5234 -16.5439
q-44.7285 0 -85.5479 16.3848q-40.0039 16.0566 -70.0674 44.0273q-30.0645 27.9736 -47.3193 65.1904zM493.065 280.924q-17.6104 37.9844 -17.6104 79.5957q0 42.9033 17.7822 80.5039q17.2402 36.458 47.1475 64.2842q30.0664 27.9736 70.0674 44.0273
q40.8242 16.3848 85.5479 16.3848q46.1094 0 86.5234 -16.5439q39.1836 -16.041 69.0918 -43.8682q29.9102 -27.8291 47.1475 -64.2842q17.7822 -37.6035 17.7822 -80.5039q0 -41.6152 -17.6104 -79.5957q-17.2568 -37.2188 -47.3193 -65.1904
q-29.9082 -27.8271 -69.0918 -43.8691q-40.4141 -16.5449 -86.5234 -16.5449q-44.7236 0 -85.5479 16.3848q-40.002 16.0557 -70.0674 44.0293q-30.0645 27.9736 -47.3193 65.1904z" />
    <glyph glyph-name="oslash" unicode="&#xf8;" horiz-adv-x="1136" 
d="M289.356 -106.84h-228.356l140.545 226.438q-38.5117 72.8447 -38.5117 161.295v455.807q0 71.4697 27.6016 135.201q27.3721 63.2041 75.3359 110.522q49.4287 47.3203 126.571 74.3281q77.7871 29.8086 165.026 29.8086h98.7461q76.1543 0 144.396 -22.9502
q33.4688 -11.2539 63.9482 -26.8252l62.2188 94.0547h227.093l-142.069 -229.359q13.96 -27.8643 23.75 -58.3184q15.3799 -47.873 15.3799 -100.056v-455.807q0 -71.4639 -27.6006 -135.201q-27.3652 -63.1963 -75.334 -110.522q-49.6113 -47.3213 -126.757 -74.3262
q-77.791 -29.8105 -165.024 -29.8105h-98.7461q-75.583 0 -143.335 21.5205q-33.4521 10.626 -64.5947 26.1494zM404.631 713.96v-354.255l323.458 474.694q-6.4668 3.18555 -13.1045 5.83984q-27.1904 10.8809 -58.6699 10.8809h-98.7461q-31.8916 0 -59.3965 -10.626
q-28.3301 -10.9453 -48.9092 -29.4014q-20.5801 -18.4561 -32.7842 -43.8633q-11.8477 -24.668 -11.8477 -53.2695zM809.251 310.04v350.194l-322.544 -472.601q5.28906 -2.3623 10.7256 -4.38672q27.8271 -10.3672 60.1357 -10.3672h98.7461q31.8906 0 59.3945 10.626
q28.3311 10.9463 48.9102 29.4014q20.5791 18.457 32.7822 43.8633q11.8496 24.6689 11.8496 53.2695z" />
    <glyph glyph-name="ugrave" unicode="&#xf9;" 
d="M1017.87 -56.5605h-119.59l-46.9551 77.5596q-33.5586 -33.0107 -79.3877 -56.5303q-96.7598 -42.6289 -211.105 -42.6289h-40.4102q-94.4277 0 -175.592 29.8096q-64.0576 26.8643 -112.024 73.9424q-47.9639 47.0781 -75.3359 109.952
q-27.6016 63.4033 -27.6016 134.503v779.313h225v-769.996q0 -25.458 12.8271 -47.4141q13.21 -22.6143 35.4863 -39.0439q22.2764 -16.4277 52.9434 -26.167q29.7754 -9.45898 64.2969 -9.45898h106.894q34.5225 0 64.2959 9.45898q20.1465 6.39941 36.5791 15.625
q8.6543 4.8584 16.3643 10.542q22.2773 16.4297 35.4873 39.0439q12.8262 21.9561 12.8262 47.4141v769.996h225.002v-1105.92zM561.577 1116.32l-438.577 375.84h405.628l293.535 -375.84h-260.586z" />
    <glyph glyph-name="uacute" unicode="&#xfa;" 
d="M1011 -56.5605h-119.588l-46.9551 77.5596q-33.5586 -33.0107 -79.3867 -56.5303q-96.7617 -42.6289 -211.106 -42.6289h-40.4102q-94.4287 0 -175.592 29.8096q-64.0586 26.8643 -112.023 73.9424q-47.9658 47.0781 -75.3369 109.952q-27.6016 63.4033 -27.6016 134.503
v779.313h225v-769.996q0 -25.458 12.8262 -47.4141q13.21 -22.6143 35.4883 -39.0439q22.2754 -16.4277 52.9424 -26.167q29.7754 -9.45898 64.2969 -9.45898h106.893q34.5225 0 64.2969 9.45898q20.1465 6.39941 36.5791 15.625q8.6543 4.8584 16.3633 10.542
q22.2783 16.4297 35.4883 39.0439q12.8262 21.9561 12.8262 47.4141v769.996h225v-1105.92zM1017.87 1492.16l-438.578 -375.84h-261.586l293.231 375.84h406.933z" />
    <glyph glyph-name="ucircumflex" unicode="&#xfb;" 
d="M1011 -56.5605h-119.588l-46.9551 77.5596q-33.5586 -33.0107 -79.3867 -56.5303q-96.7617 -42.6289 -211.106 -42.6289h-40.4102q-94.4287 0 -175.592 29.8096q-64.0586 26.8643 -112.023 73.9424q-47.9658 47.0781 -75.3369 109.952q-27.6016 63.4033 -27.6016 134.503
v779.313h225v-769.996q0 -25.458 12.8262 -47.4141q13.21 -22.6143 35.4883 -39.0439q22.2754 -16.4277 52.9424 -26.167q29.7754 -9.45898 64.2969 -9.45898h106.893q34.5225 0 64.2969 9.45898q20.1465 6.39941 36.5791 15.625q8.6543 4.8584 16.3633 10.542
q22.2783 16.4297 35.4883 39.0439q12.8262 21.9561 12.8262 47.4141v769.996h225v-1105.92zM677.656 1492.16l315.23 -375.84h-269.713l-156.174 148.392l-156.174 -148.392h-269.373l313.49 375.84h222.713z" />
    <glyph glyph-name="udieresis" unicode="&#xfc;" 
d="M1011 -54.5605h-119.588l-46.9551 77.5596q-33.5586 -33.0107 -79.3867 -56.5303q-96.7617 -42.6289 -211.106 -42.6289h-40.4102q-94.4287 0 -175.592 29.8096q-64.0586 26.8643 -112.023 73.9424q-47.9658 47.0781 -75.3369 109.952q-27.6016 63.4033 -27.6016 134.503
v779.313h225v-769.996q0 -25.458 12.8262 -47.4141q13.21 -22.6143 35.4883 -39.0439q22.2754 -16.4277 52.9424 -26.167q29.7754 -9.45898 64.2969 -9.45898h106.893q34.5225 0 64.2969 9.45898q20.1465 6.39941 36.5791 15.625q8.6543 4.8584 16.3633 10.542
q22.2783 16.4297 35.4883 39.0439q12.8262 21.9561 12.8262 47.4141v769.996h225v-1105.92zM480.964 1164.76h-285.964v275.4h285.964v-275.4zM939 1164.76h-285.964v275.4h285.964v-275.4z" />
    <glyph glyph-name="yacute" unicode="&#xfd;" horiz-adv-x="1011" 
d="M1053.85 1064.96l-625.162 -1548.72h-259.422l226.529 553.808l-375.795 994.913h231.59l285.626 -736.162l284.556 736.162h232.078zM978.434 1507.76l-443.094 -375.84h-251.698l282.546 375.84h412.246z" />
    <glyph glyph-name="thorn" unicode="&#xfe;" 
d="M1011 738.571v-453.143q0 -71.0459 -27.6016 -134.411q-27.3672 -62.8262 -75.3359 -109.877q-47.9629 -47.0439 -112.024 -73.8906q-76.3047 -29.8105 -173.837 -29.8105h-41.7373q-108.369 0 -201.776 35.5586q-16.834 7.32031 -30.6875 16.1055v-472.864h-225v1991.52
h225v-472.863q13.8574 8.78711 30.6875 16.0986q93.415 35.5654 201.776 35.5654h41.7373q97.54 0 173.837 -29.8086q64.0635 -26.8516 112.024 -73.8936q47.9678 -47.0479 75.3359 -109.876q27.6016 -63.3633 27.6016 -134.411zM786 290.875v442.25
q0 24.6045 -9.83887 45.8262q-10.1348 21.8574 -32.8701 37.7344q-23.0078 15.877 -54.6816 25.2939q-30.751 9.14062 -66.4082 9.14062h-110.402q-35.6562 0 -66.4082 -9.14062q-31.6719 -9.41602 -54.6816 -25.2939q-22.7354 -15.877 -32.8701 -37.7344
q-9.83887 -21.2217 -9.83887 -45.8262v-442.25q0 -24.6035 9.83887 -45.8262q10.1338 -21.8555 32.8701 -37.7344q23.0078 -15.877 54.6816 -25.2939q30.752 -9.14062 66.4082 -9.14062h110.402q35.6572 0 66.4082 9.14062q31.6748 9.41699 54.6816 25.2939
q22.7363 15.8789 32.8701 37.7344q9.83887 21.2227 9.83887 45.8262z" />
    <glyph glyph-name="ydieresis" unicode="&#xff;" horiz-adv-x="1011" 
d="M1053.85 1066.96l-625.162 -1548.72h-259.422l226.529 553.808l-375.795 994.913h231.59l285.626 -736.162l284.556 736.162h232.078zM469.117 1180.36h-293.914v275.399h293.914v-275.399zM919.203 1180.36h-289.328v275.399h289.328v-275.399z" />
    <glyph glyph-name="hbar" unicode="&#x127;" 
d="M1011 -57.3604h-225v769.996q0 25.458 -12.8262 47.4141q-13.2109 22.6152 -35.4883 39.0439q-22.2754 16.4268 -52.9424 26.167q-29.7744 9.45898 -64.2969 9.45898h-106.893q-34.5215 0 -64.2969 -9.45898q-30.666 -9.73926 -52.9424 -26.167
q-22.2773 -16.4287 -35.4883 -39.0439q-12.8262 -21.9561 -12.8262 -47.4141v-769.996h-225v1172.88h-123v220.32h123v155.521h225v-155.521h472v-220.32h-472v-97.0234q18.0645 8.78711 36.6738 16.0996q90.4463 35.5645 195.362 35.5645h40.4102
q94.4385 0 175.592 -29.8076q64.0635 -26.8711 112.024 -73.9434q47.9678 -47.0811 75.3359 -109.953q27.6016 -63.4072 27.6016 -134.503v-779.313z" />
    <glyph glyph-name="Itilde" unicode="&#x128;" horiz-adv-x="763" 
d="M497 -73.7197h-231v1548.72h231v-1548.72zM478.239 1805.19q17.8857 -11.5889 141.761 -11.5889q15.4121 0 22.1875 10.4766q12.8125 19.8184 12.8125 57.5635v55.0801h196v-55.0801q0 -56.5488 -13.582 -106.293q-14.3027 -52.3906 -43.46 -92.0918
q-30.1289 -41.0293 -74.916 -64.8652q-45.1572 -24.0293 -102.042 -24.0293q-160.75 0 -208.311 24.9912q-40.3613 21.2109 -74.9404 46.6982q-30.7998 22.7021 -58.4824 41.5801q-118.025 10.9307 -134.267 10.9307q-14.7051 0 -20.5654 -9.49414
q-12.4346 -20.1416 -12.4346 -57.4668v-55.0801h-196v55.0801q0 56.3115 12.9619 105.311q13.7061 51.8086 42.2441 91.5303q29.9062 41.6348 75.29 65.0703q44.9424 23.209 102.504 23.209q159.501 0 205.091 -25.6826q37.2627 -20.9951 70.3311 -45.5859
q29.1533 -21.6875 57.8174 -40.2627z" />
    <glyph glyph-name="itilde" unicode="&#x129;" horiz-adv-x="757" 
d="M491 -57.3604h-225v1105.92h225v-1105.92zM476.239 1378.75q49.0137 -11.5889 140.761 -11.5889q15.5146 0 22.7803 11.1562q13.2197 20.3047 13.2197 57.9639v55.0801h196v-55.0801q0 -56.5488 -13.582 -106.294q-14.3027 -52.3906 -43.46 -92.0908
q-30.1289 -41.0303 -74.916 -64.8652q-45.1572 -24.0303 -102.042 -24.0303q-161.889 0 -209.057 25.1211q-39.4648 21.0156 -73.7334 45.6943q-31.04 22.3447 -58.9434 41.375q-118.025 10.9297 -134.267 10.9297q-14.7051 0 -20.5654 -9.49316
q-12.4346 -20.1426 -12.4346 -56.3867v-55.0801h-196v55.0801q0 55.1445 12.915 104.587q13.7002 52.4668 42.291 92.2539q29.9053 41.6338 75.29 65.0703q44.9424 23.209 102.504 23.209q159.501 0 205.091 -25.6826q37.4932 -21.125 70.793 -46.4727
q28.9521 -22.043 57.3555 -40.4561z" />
    <glyph glyph-name="dotlessi" unicode="&#x131;" horiz-adv-x="553" 
d="M389 -40.96h-225v1105.92h225v-1105.92z" />
    <glyph glyph-name="IJ" unicode="&#x132;" horiz-adv-x="1590" 
d="M395 -56.5605h-231v1548.72h231v-1548.72zM1468 1492.16v-1161.92q0 -84.1367 -31.6396 -158.35q-31.3701 -73.5713 -86.2998 -128.917q-54.9902 -55.4121 -130.69 -87.0205q-84.2998 -34.1133 -179.22 -34.1133h-46.6475q-95.0029 0 -178.793 34.1748
q-83.0674 33.8779 -145.562 93.1982q-62.502 59.3252 -98.1904 138.163q-36.0039 79.5342 -36.0039 169.704v108.398l262.841 40.6133v-149.012q0 -40.4072 15.6885 -74.7432q16.084 -35.2002 44.1182 -61.8096q28.0312 -26.6064 65.1201 -41.877
q36.1719 -14.8896 78.748 -14.8896h31.8604q42.5703 0 78.7402 13.75q37.0898 14.0977 65.1191 38.6689q28.0303 24.5654 44.1211 57.0771q15.6895 31.7012 15.6895 69.0195v1149.88h231z" />
    <glyph glyph-name="ij" unicode="&#x133;" horiz-adv-x="1105" 
d="M403.533 1220.48h-249.533v287.279h249.533v-287.279zM389 -40.96h-225v1105.92h225v-1105.92zM952 1220.48h-250.533v287.279h250.533v-287.279zM941 1064.96v-1168.56q0 -78.3271 -27.668 -147.629q-27.3633 -68.54 -75.2695 -120.278
q-47.8252 -51.6523 -111.666 -81.7363q-89.4014 -30.5176 -194.97 -30.5176h-74.1201v236.521h74.1201q38.4873 0 71.6836 10.626q34.1895 10.9434 59.0254 29.4004q24.8369 18.457 39.5654 43.8643q14.2988 24.666 14.2988 53.2686v1175.04h225z" />
    <glyph glyph-name="Jcircumflex" unicode="&#x134;" horiz-adv-x="1236" 
d="M1011 1475.8l97.6504 -1161.92q0 -84.1367 -42.1309 -158.35q-41.7695 -73.5605 -114.906 -128.917q-73.1318 -55.3496 -170.338 -86.9619q-98.0527 -34.1738 -209.226 -34.1738h-54.5918q-111.07 0 -209.715 34.1123q-73.8271 33.8818 -128.805 93.2598
q-54.9287 59.3213 -86.2959 138.163q-31.6426 79.5322 -31.6426 169.704v108.399l231 40.6133v-149.013q0 -40.4092 13.7881 -74.7422q18.502 -35.2031 51.3057 -61.8105q32.8037 -26.6055 76.2051 -41.876q42.3281 -14.8906 92.1484 -14.8906h38.6133
q48.6436 0 91.7549 13.8379q43.6455 14.0107 75.5508 38.293q32.4111 24.668 51.3447 57.3652q18.3594 31.707 18.3594 69.0195l-21.0703 1149.88h231zM979.887 1917.52l392.003 -375.84h-326.59l-151.166 148.554l-121.534 -148.554h-325.167l361.681 375.84h170.773z" />
    <glyph glyph-name="jcircumflex" unicode="&#x135;" horiz-adv-x="757" 
d="M548.887 1064.96l88.5225 -1168.56q0 -78.332 -49.4395 -147.629q-48.9023 -68.5459 -134.497 -120.278q-85.457 -51.6514 -199.53 -81.7363q-86.415 -30.5176 -159.056 -30.5176h-51v236.521h51q26.4834 0 49.3232 10.626q23.5254 10.9434 40.6143 29.4004
q17.0898 18.457 32.958 43.8643q17.5811 24.668 17.5811 53.2686l88.5234 1175.04h225zM521.774 1507.76l392 -375.84h-309.863l-167.89 148.555l-166.422 -148.555h-310.6l392 375.84h170.774z" />
    <glyph glyph-name="kcommaaccent" unicode="&#x137;" 
d="M758.589 -100.16l-160.585 -585.359h-182.164v585.359h342.749zM389 -33.2002h-225v1548.72h225v-928.027l468.799 485.228h293.312l-519.949 -552.959l519.949 -552.961h-293.312l-468.799 485.228v-485.228z" />
    <glyph glyph-name="kgreenlandic" unicode="&#x138;" 
d="M389 -40.96h-225v1105.92h225v-485.228l468.799 485.228h293.312l-519.949 -552.96l519.949 -552.96h-293.312l-468.799 485.228v-485.228z" />
    <glyph glyph-name="Ldotaccent" unicode="&#x13f;" horiz-adv-x="1046" 
d="M1025 -57.3604h-882v1548.72h231v-1305.72h651v-243zM868 594.96h-312.254v276.479h312.254v-276.479z" />
    <glyph glyph-name="ldot" unicode="&#x140;" horiz-adv-x="768" 
d="M389 -57.3604h-225v1548.72h225v-1548.72zM706 594.96h-255v276.479h255v-276.479z" />
    <glyph glyph-name="Lslash" unicode="&#x141;" horiz-adv-x="1046" 
d="M1025 -57.3604h-882v506.622l-127 -72.5957v236.398l127 71.5879v806.708h231v-667.561l483 216.12v-233.435l-455.445 -216.127v-404.719h623.445v-243z" />
    <glyph glyph-name="lslash" unicode="&#x142;" horiz-adv-x="688" 
d="M456 -57.3604h-225v548.356l-170 -91.7539v234.783l170 90.7441v766.591h225v-645.597l170 90.7451v-234.336l-170 -90.7461v-668.787z" />
    <glyph glyph-name="Nacute" unicode="&#x143;" horiz-adv-x="1339" 
d="M1046.15 -73.7197l-24.6104 9.23438l-610.498 989.015v-998.249h-247.042v1548.72h147.575l632.425 -1001.07v1001.07h231v-1548.72h-128.85zM1121.23 1916.72l-433.125 -375.84h-246.413l276.612 375.84h402.926z" />
    <glyph glyph-name="nacute" unicode="&#x144;" 
d="M1011 -57.3604h-225v769.996q0 25.458 -12.8262 47.4141q-13.2109 22.6152 -35.4883 39.0439q-22.2754 16.4268 -52.9424 26.167q-29.7744 9.45898 -64.2969 9.45898h-106.893q-34.5215 0 -64.2969 -9.45898q-20.583 -6.53809 -37.2979 -16.0312
q-8.25391 -4.68652 -15.6445 -10.1357q-22.2773 -16.4287 -35.4883 -39.0439q-12.8262 -21.9561 -12.8262 -47.4141v-769.996h-225v1105.92h119.812l46.1025 -77.2881q33.8135 33 79.5557 56.3467q97.3486 42.541 211.566 42.541h40.4102q94.4385 0 175.592 -29.8076
q64.0635 -26.8711 112.024 -73.9434q47.9678 -47.0811 75.3359 -109.953q27.6016 -63.4072 27.6016 -134.503v-779.313zM976.868 1491.36l-451.022 -375.841h-247.818l279.344 375.841h419.497z" />
    <glyph glyph-name="OE" unicode="&#x152;" horiz-adv-x="1812" 
d="M1120.09 594.96v-258.918q0 -64.3164 -23.4795 -122.956q-5.51074 -13.7412 -12.2705 -27.4463h645.66v-243h-916.68q-30.4492 -9.02637 -60.9629 -14.6943q-37.1699 -6.90527 -76.6387 -6.90527h-112.473q-91.9814 0 -173.672 34.1123
q-73.6562 31.5967 -128.637 86.9727q-54.9277 55.3223 -86.2949 128.847q-31.6426 74.1709 -31.6426 158.263v775.528q0 84.0898 31.6426 158.264q31.3613 73.5156 86.2949 128.845q54.9727 55.3711 128.637 86.9717q81.6875 34.1172 173.672 34.1172h112.473
q39.457 0 76.6387 -6.90137q30.4854 -5.6582 60.9619 -14.6982h916.681v-243h-646.28q7.14062 -14.3105 12.7803 -28.1348q23.5898 -57.8223 23.5898 -122.31v-259.956h480.91v-243h-480.91zM865.378 338.784v756.335q0 36.752 -15.2041 67.9746
q-15.584 32.0107 -42.2041 55.7285q-26.6074 23.7051 -62.5557 37.5938q-35.0508 13.5449 -76.3105 13.5449h-99.2412q-41.2607 0 -76.3115 -13.5449q-36.1572 -13.9746 -63.4268 -37.875q-26.9404 -23.6191 -42.3359 -55.4473q-13.7881 -31.2227 -13.7881 -67.9746
v-756.335q0 -36.7529 13.7881 -67.9795q15.4893 -32.0146 42.6562 -56.2139q27.165 -24.2002 63.1064 -38.0869q35.0547 -13.5439 76.3115 -13.5439h99.2412q41.2568 0 76.3105 13.5439q35.7275 13.8037 62.2402 37.8018q26.8398 24.2949 42.5195 56.499
q15.2041 31.2275 15.2041 67.9795z" />
    <glyph glyph-name="oe" unicode="&#x153;" horiz-adv-x="1697" 
d="M1574 408.727v-91.127q0 -78.2402 -27.5996 -148q-27.3809 -69.1953 -75.3398 -120.987q-47.9707 -51.8047 -112.021 -81.3623q-68.6201 -29.8105 -149.68 -29.8105h-91.75q-96.6504 0 -179.462 41.2305q-50.5508 25.1689 -91.2051 61.5938
q-40.1172 -36.2715 -89.2715 -61.3418q-81.3281 -41.4824 -178.28 -41.4824h-91.7539q-81.0557 0 -149.676 29.8105q-64.0586 26.8447 -112.023 73.8906q-47.9658 47.0459 -75.3369 109.877q-27.6016 63.3604 -27.6016 134.411v453.143q0 71.0518 27.6016 134.411
q27.373 62.833 75.3369 109.876q47.9629 47.042 112.023 73.8936q68.6143 29.8086 149.676 29.8086h91.7539q97.1396 0 178.601 -42.1855q49.2041 -25.4814 88.9502 -61.2246q40.6377 36.0752 90.8906 61.4844q82.9365 41.9258 179.777 41.9258h91.75
q81.0693 0 149.68 -29.8086q64.0498 -27.1172 112.021 -74.6318q47.959 -47.5039 75.3398 -110.978q27.5996 -63.9873 27.5996 -135.756v-289.267h-598.499v-159.09q0 -23.8037 11.0088 -44.332q11.3398 -21.1455 30.46 -36.5059q19.1201 -15.3594 45.4502 -24.4697
q25.5498 -8.84277 55.1904 -8.84277h91.75q29.6299 0 55.1895 10.626q26.3203 10.9424 45.4502 29.4014q19.0303 18.4541 29.1602 43.8633q9.83984 24.668 9.83984 53.2695v138.2zM721.499 290.875v442.25q0 24.6045 -11.0088 45.8262q-11.3408 21.8574 -30.4619 37.7344
q-19.1221 15.877 -45.4463 25.2939q-25.5566 9.14062 -55.1904 9.14062h-91.7539q-29.6328 0 -55.1904 -9.14062q-26.3232 -9.41602 -45.4453 -25.2939q-19.0283 -15.877 -29.1631 -37.7344q-9.83887 -21.2217 -9.83887 -45.8262v-442.25q0 -24.6035 9.83887 -45.8262
q10.1338 -21.8555 29.1631 -37.7344q19.1211 -15.877 45.4453 -25.2939q25.5576 -9.14062 55.1904 -9.14062h91.7539q29.6338 0 55.1904 9.14062q26.3252 9.41699 45.4463 25.2939q19.1221 15.8789 30.4619 37.7344q11.0088 21.2227 11.0088 45.8262zM1349 659.96v84.6807
q0 22.2051 -9.83984 41.3535q-10.1299 19.7256 -29.1602 34.0518q-19.1299 14.3301 -45.4502 22.8232q-25.5596 8.25098 -55.1895 8.25098h-91.75q-29.6406 0 -55.1904 -8.25098q-26.3301 -8.49609 -45.4502 -22.8232q-19.1191 -14.3281 -30.46 -34.0518
q-11.0088 -19.1504 -11.0088 -41.3535v-84.6807h373.499z" />
    <glyph glyph-name="Racute" unicode="&#x154;" horiz-adv-x="1273" 
d="M1232.85 -73.7197h-269.863l-470.477 605.88h-118.51v-605.88h-231v1548.72h563.599q100.98 0 190.046 -34.1709q84.498 -31.5908 139.416 -86.8857q54.9893 -55.3613 86.3496 -129.428q31.5898 -74.584 31.5898 -158.565v-116.789q0 -83.9873 -31.5898 -158.569
q-31.3701 -74.0811 -86.3496 -129.431q-54.9258 -55.2998 -139.416 -86.8789q-40.8369 -14.6064 -84.8047 -22.6201zM914.625 947.679v111.803q0 36.0605 -16.6758 66.7002q-17.1963 31.6006 -46.6396 55.4355q-29.0732 23.5449 -68.2656 37.0986
q-38.4453 13.2842 -83.7021 13.2842h-325.342v-456.84h325.342q45.251 0 83.7021 13.2891q39.1885 13.5439 68.2656 37.0908q29.4424 23.8418 46.6396 55.4385q16.6758 30.6426 16.6758 66.7002zM1025.87 1916.72l-459.048 -375.84h-240.116l270.687 375.84h428.478z" />
    <glyph glyph-name="Rcommaaccent" unicode="&#x156;" horiz-adv-x="1273" 
d="M1232.85 -33.2002h-269.863l-470.477 605.88h-118.51v-605.88h-231v1548.72h563.599q100.98 0 190.046 -34.1709q84.498 -31.5898 139.416 -86.8857q54.9893 -55.3604 86.3496 -129.427q31.5898 -74.585 31.5898 -158.566v-116.789q0 -83.9873 -31.5898 -158.568
q-31.3701 -74.0811 -86.3496 -129.432q-54.9258 -55.2988 -139.416 -86.8789q-40.8369 -14.6064 -84.8047 -22.6191zM914.625 988.199v111.802q0 36.0605 -16.6758 66.7012q-17.1963 31.6006 -46.6396 55.4365q-29.0732 23.5439 -68.2656 37.0977
q-38.4453 13.2832 -83.7021 13.2832h-325.342v-456.84h325.342q45.251 0 83.7021 13.2891q39.1885 13.5449 68.2656 37.0908q29.4424 23.8428 46.6396 55.4395q16.6758 30.6426 16.6758 66.7002zM808.404 -100.16l-151.962 -585.359h-172.383v585.359h324.345z" />
    <glyph glyph-name="rcommaaccent" unicode="&#x157;" horiz-adv-x="690" 
d="M649 851.8h-174q-26.4824 0 -49.3232 -9.43066q-23.5244 -9.71484 -40.6143 -26.0957q-17.0889 -16.3809 -27.2236 -38.9297q-9.83887 -21.8936 -9.83887 -47.2793v-747.664h-225v1105.92h119.812l46.1025 -77.2871q33.8135 32.999 74.7891 56.3457
q74.6777 42.541 162.297 42.541h123v-258.12zM391.175 -84.5605l-125.646 -585.359h-142.529v585.359h268.175z" />
    <glyph glyph-name="Rcaron" unicode="&#x158;" horiz-adv-x="1273" 
d="M1232.85 -73.7197h-269.863l-470.477 605.88h-118.51v-605.88h-231v1548.72h563.599q100.98 0 190.046 -34.1709q84.498 -31.5908 139.416 -86.8857q54.9893 -55.3613 86.3496 -129.428q31.5898 -74.584 31.5898 -158.565v-116.789q0 -83.9873 -31.5898 -158.569
q-31.3701 -74.0811 -86.3496 -129.431q-54.9258 -55.2998 -139.416 -86.8789q-40.8369 -14.6064 -84.8047 -22.6201zM914.625 947.679v111.803q0 36.0605 -16.6758 66.7002q-17.1963 31.6006 -46.6396 55.4355q-29.0732 23.5449 -68.2656 37.0986
q-38.4453 13.2842 -83.7021 13.2842h-325.342v-456.84h325.342q45.251 0 83.7021 13.2891q39.1885 13.5439 68.2656 37.0908q29.4424 23.8418 46.6396 55.4385q16.6758 30.6426 16.6758 66.7002zM1041.89 1916.72l-334.218 -375.84h-205.333l-312.226 375.84h269.994
l144.897 -148.392l144.898 148.392h291.986z" />
    <glyph glyph-name="rcaron" unicode="&#x159;" horiz-adv-x="792" 
d="M808.887 812.04h-182.508q-37.1445 0 -69.1816 -9.43066q-32.998 -9.71387 -56.9697 -26.0957q-23.9697 -16.3809 -38.1836 -38.9297q-13.8018 -21.8945 -13.8018 -47.2803v-747.664h-267.355v1105.92h119.812l64.668 -77.2881q47.4287 33 104.901 56.3467
q104.747 42.541 215.619 42.541h123v-258.12zM901.774 1491.36l-307.813 -375.841h-239.538l-305.423 375.841h256.445l168.231 -148.555l169.41 148.555h258.688z" />
    <glyph glyph-name="Scaron" unicode="&#x160;" horiz-adv-x="1277" 
d="M1154 352.554v-42.8506q0 -83.8896 -34.1797 -157.796q-33.4805 -72.3838 -89.8203 -126.821q-56.3965 -54.501 -132.854 -85.6113q-92.4541 -33.9941 -195.14 -33.9941h-127.014q-102.688 0 -195.14 33.9941q-76.457 33.7188 -132.857 92.7832
q-56.3301 58.9941 -89.8125 137.445q-34.1836 80.0938 -34.1836 171.017v108.399l231 40.6133v-149.013q0 -39.543 14.6582 -73.2363q19.0264 -35.5059 51.2207 -62.4209q32.1855 -26.9062 74.959 -42.4072q42.0928 -15.2549 88.7871 -15.2549h110.983
q46.5596 0 87.9326 13.9961q42.3008 14.3105 74.5801 39.2119q32.1934 24.8359 51.2207 57.5996q14.6582 31.0869 14.6582 67.5791v42.8525q0 59.835 -23.5518 96.6914q-29.0498 39.667 -77.5361 67.8301q-52.8965 30.7236 -120.282 52.3262
q-74.0264 23.7305 -152.419 47.4893q-81.5166 24.7051 -158.63 54.5742q-71.3232 32.1016 -124.828 80.4238q-55.7227 50.3242 -89.0801 122.543q-33.6729 72.9004 -33.6729 175.725v26.9033q0 83.2031 31.6426 156.6q31.3613 72.7383 86.2949 127.483
q54.9727 54.7881 133.396 86.0537q91.3545 34.1182 194.224 34.1182h113.45q102.959 0 193.771 -34.1719q75.3652 -33.8799 130.283 -93.2041q54.9395 -59.335 86.2998 -138.164q31.6396 -79.5312 31.6396 -169.7v-86.7988l-231 -40.6133v127.412
q0 40.4023 -15.8926 74.7471q-17.4287 35.1855 -47.1982 61.2686q-29.7568 26.0605 -69.959 41.3311q-39.1992 14.8936 -85.3418 14.8936h-98.6523q-46.1436 0 -85.3408 -13.7373q-40.4365 -14.1807 -70.9336 -38.4268q-30.1279 -23.9658 -47.457 -56.2471
q-17.0029 -31.6865 -17.0029 -68.9688v-26.9033q0 -54.3467 26.3926 -88.9121q28.9209 -37.873 77.4248 -65.2305q53.3701 -30.1006 121.409 -52.3662q74.4316 -24.3604 153.2 -49.7197q81.4531 -26.2266 157.81 -57.6377q66.9287 -33.6191 120.212 -82.8477
q55.54 -51.3096 88.7803 -124.417q33.5498 -73.7754 33.5498 -176.433zM1064.89 1917.52l-321.095 -375.84h-210.59l-321.092 375.84h277.901l148.938 -148.554l147.901 148.554h278.036z" />
    <glyph glyph-name="scaron" unicode="&#x161;" horiz-adv-x="1154" 
d="M1001.89 381.765q29.1104 -57.6865 29.1104 -139.08q0 -70.8379 -30.1201 -130.454q-29.6113 -58.6104 -80.6152 -100.78q-50.084 -41.4082 -115.37 -64.167q-79.6143 -25.4434 -173.597 -25.4434h-108.596q-95.5967 0 -175.788 29.6045q-65.3926 29.373 -114.823 80.876
q-49.3535 51.4189 -78.8594 120.151q-30.2314 70.4209 -30.2314 149.528v91.127l225 39.5127v-138.2q0 -27.498 10.5332 -51.3486q11.6133 -25.5312 36.4912 -44.2578q25.5342 -19.2217 59.3643 -30.582q32.6738 -10.9707 68.3135 -10.9707h108.596
q38.3486 0 73.2373 8.18945q33.8145 7.93652 59.5879 22.4014q23.042 13.2832 33.3984 31.9004q9.47852 17.0381 9.47852 40.3154q0 37.6592 -15.0625 58.7607q-21.2109 24.7412 -60.7529 41.8066q-45.3477 19.5732 -104.476 32.7393q-66.4297 14.793 -136.209 29.5986
q-73.1904 15.5283 -137.779 35.5801q-57.9443 22.0518 -103.624 58.1631q-48.0371 37.9746 -76.8975 94.5918q-29.1992 57.2783 -29.1992 138.772q0 70.4238 28.7734 129.75q28.3701 58.4922 77.0586 100.713q48.1699 41.7676 111.713 64.7256
q81.0107 25.6719 175.4 25.6719h95.3525q95.9443 0 174.74 -29.8076q64.0635 -29.5684 112.024 -81.3652q47.9678 -51.8037 75.3359 -120.986q27.6016 -69.7686 27.6016 -148.001v-51.167l-225 -39.5127v98.2402q0 28.6016 -9.83887 53.2686
q-13.123 25.4072 -35.7549 43.8633q-22.6309 18.4561 -53.7871 29.4014q-30.248 10.626 -65.3213 10.626h-95.3525q-37.8828 0 -70.3887 -7.98242q-30.7197 -7.54395 -52.6113 -21.1104q-20.9951 -13.0107 -33.3682 -31.6055q-11.5771 -17.7686 -11.5771 -42.1104
q0 -35.1836 18.9023 -54.5752q23.3613 -23.6592 63.1768 -40.4775q45.5928 -19.2617 105.022 -32.4932q66.7197 -14.8604 136.838 -30.8447q72.4102 -16.5098 130.143 -37.5332q57.668 -23.041 103.116 -59.5264q47.9111 -38.4609 76.6914 -95.4961zM1002.55 1492.16
l-311.707 -375.84h-226.262l-313.468 375.84h267.224l158.663 -148.393l158.663 148.393h266.887z" />
    <glyph glyph-name="Ydieresis" unicode="&#x178;" horiz-adv-x="1154" 
d="M1175.06 1476.96l-427.274 -817.582v-731.139h-275.737v729.064l-431.049 819.656h252.789l314.338 -574.594l314.338 574.594h252.596zM529.345 1589.28h-293.218v276.479h293.218v-276.479zM980.127 1589.28h-293.218v276.479h293.218v-276.479z" />
    <glyph glyph-name="Zcaron" unicode="&#x17d;" horiz-adv-x="1175" 
d="M1093 -73.7197h-1011v123.779l694.825 1181.94h-674.825v243h991v-124.783l-694.788 -1180.94h694.788v-243zM1013.89 1916.72l-320.141 -375.84h-212.498l-320.138 375.84h276.688l149.242 -148.554l150.286 148.554h276.56z" />
    <glyph glyph-name="zcaron" unicode="&#x17e;" horiz-adv-x="1052" 
d="M970 -57.3604h-888v115.256l556.406 754.145h-536.406v236.521h868v-115.257l-556.406 -754.144h556.406v-236.521zM660.879 1135.34q-10.293 -9.91406 -20.5898 -19.8184h-230.026l-309.81 375.841h264.245l161.302 -148.393l161.302 148.393h264.585z" />
    <glyph glyph-name="florin" unicode="&#x192;" horiz-adv-x="956" 
d="M211.965 -135.146l138.374 826.728h-217.836l35.8018 218.081h219.445l43.9043 258.103q11.1748 70.7939 50.25 133.293q38.4736 61.5391 96.2959 107.633q58.0234 46.2461 130.426 72.4473q72.0098 26.6211 137.823 26.6211h171.94l-31.8154 -236.52h-156.125
q-21.0957 0 -40.416 -8.41406q-21.1816 -8.96289 -40.9375 -24.5039q-19.377 -15.25 -32.0869 -35.9531q-12.2373 -19.9277 -15.582 -43.3848l-43.6406 -249.995h257.112l-29.9492 -218.071h-264.861l-139.423 -834.062q-10.1934 -71.751 -49.9814 -134.279
q-38.9248 -61.1719 -95.7949 -107.049q-57.4395 -46.3369 -129.315 -72.6006q-71.2168 -26.6885 -137.124 -26.6885h-170.449l29.9492 236.521h157.5q19.9346 0 38.624 8.28906q20.0332 8.86133 39.1494 24.2383q19.4443 15.6377 33.0059 37.0146
q12.4717 19.6553 15.7363 42.5518z" />
    <glyph glyph-name="circumflex" unicode="&#x2c6;" horiz-adv-x="942" 
d="M845.887 1123.08h-255.082l-119.805 148.392l-119.805 -148.392h-255.082l290 375.84h169.773z" />
    <glyph glyph-name="caron" unicode="&#x2c7;" horiz-adv-x="942" 
d="M555.887 1123.08h-169.773l-290 375.84h255.082l119.805 -148.393l119.805 148.393h255.082z" />
    <glyph glyph-name="breve" unicode="&#x2d8;" horiz-adv-x="952" 
d="M350 1455.28q0 -23.2744 7.76172 -39.4199q7.80566 -16.2324 21.7168 -26.8711q16.499 -12.625 39.6143 -19.2559q25.5664 -7.33301 55.9072 -7.33301q30.4434 0 56.5957 7.38672q23.5098 6.6416 39.9258 19.2021q14.2422 10.8975 22.5742 27.6045
q7.9043 15.8555 7.9043 38.6865v55.0801h197v-55.0801q0 -74.4336 -26.7803 -132.948q-26.5596 -58.0283 -71.9941 -97.0166q-44.1787 -37.9082 -103.57 -57.1533q-57.1689 -18.5225 -121.655 -18.5225q-64.6328 0 -120.928 18.6084q-58.2363 19.2568 -102.298 57.0674
q-45.6299 39.1494 -71.7021 97.4814q-26.0723 58.3193 -26.0723 132.483v55.0801h196v-55.0801z" />
    <glyph glyph-name="dotaccent" unicode="&#x2d9;" horiz-adv-x="563" 
d="M154 1169.8v275.4h255v-275.4h-255z" />
    <glyph glyph-name="ring" unicode="&#x2da;" horiz-adv-x="834" 
d="M154 1357.92q0 58.8281 20.624 110.798q20.2754 51.0938 55.501 89.8125q35.3408 38.8359 82.7744 61.4521q48.3428 23.0576 103.101 23.0576t103.101 -23.0576q47.2266 -22.5186 82.9619 -61.1172q35.7432 -38.5996 56.5918 -89.5977q21.3457 -52.207 21.3457 -111.348
t-21.3457 -111.348q-20.9443 -51.2246 -56.9072 -89.3916q-35.8428 -38.0479 -83.1572 -59.9502q-48.1211 -22.2705 -102.59 -22.2705q-54.4668 0 -102.59 22.2705q-47.5312 21.999 -82.9717 60.2852q-35.4492 38.2852 -55.8145 89.6074q-20.624 51.9688 -20.624 110.797z
M358 1357.92q0 -12.7979 4.61133 -24.8076q4.61719 -12.0205 12.4512 -20.4873q8.38867 -9.06152 19.8662 -14.6348q10.0176 -4.87012 21.0713 -4.87012q12.0537 0 22.0713 4.87012q11.4775 5.57324 19.8662 14.6348q7.83398 8.4668 12.4512 20.4873
q4.61133 12.0098 4.61133 24.8076q0 13.8779 -4.61133 25.8877q-4.61719 12.0205 -12.4512 20.4873q-8.38867 9.06152 -19.8662 14.6338q-10.0176 4.87109 -22.0713 4.87109q-11.0537 0 -21.0713 -4.87109q-11.4775 -5.57227 -19.8662 -14.6338
q-7.83398 -8.4668 -12.4512 -20.4873q-4.61133 -12.0098 -4.61133 -25.8877z" />
    <glyph glyph-name="ogonek" unicode="&#x2db;" horiz-adv-x="713" 
d="M409.45 -10.8838q-16.7891 -32.2354 -30.8506 -66.6582q-11.4521 -27.5928 -20.4121 -62.9121q-8.1875 -32.2764 -8.1875 -62.666q0 -42.54 14.1787 -58.3896q13.4629 -15.0508 41.8213 -15.0508q13.0732 0 22.6777 3.74609q13.0996 5.1084 23.1865 11.168
q12.458 8.55859 22.9453 18.2666l84.1904 77.9355v-219.251l-14.9375 -16.1318q-20.6592 -22.3125 -46.8613 -38.1045q-21.8076 -13.6582 -50.8701 -23.9072q-32.2158 -11.3613 -71.3311 -11.3613q-44.1553 0 -83.7383 15.8594q-40.8906 16.3838 -71.5137 48.0166
q-30.7393 31.7559 -48.3457 77.5352q-17.4023 45.2441 -17.4023 101.589q0 59.2832 15.3848 111.688q14.21 48.4023 31.875 86.5566q20.1865 44.8115 47.4131 82.7939l15.3135 21.3623h188.216z" />
    <glyph glyph-name="tilde" unicode="&#x2dc;" horiz-adv-x="1042" 
d="M657 1373.48q15.1729 0 21.9736 10.6807q13.0264 20.4658 13.0264 58.4385v55.0801h197v-55.0801q0 -56.5488 -13.582 -106.293q-14.3027 -52.3916 -43.46 -92.0918q-30.1299 -41.0293 -74.916 -64.8652q-45.1592 -24.0293 -102.042 -24.0293
q-59.8887 0 -107.057 25.1201q-39.4648 21.0176 -73.7334 45.6953q-31.0508 22.3564 -58.9443 41.375q-16.0244 10.9287 -32.2656 10.9287q-14.7061 0 -20.5654 -9.49316q-12.4346 -20.1416 -12.4346 -56.3857v-55.0801h-196v55.0801q0 55.1445 12.915 104.587
q13.6992 52.4561 42.291 92.2539q29.9053 41.6338 75.29 65.0693q44.9414 23.209 102.504 23.209q57.5 0 103.091 -25.6816q37.4961 -21.1367 70.793 -46.4727q28.9443 -22.043 57.3555 -40.457q17.8857 -11.5879 38.7607 -11.5879z" />
    <glyph glyph-name="hungarumlaut" unicode="&#x2dd;" horiz-adv-x="1098" 
d="M635.377 1123.08h-206.671l164.404 266.339l-276.682 -266.339h-206.723l232 375.84h319h46.1621h320.362z" />
    <glyph glyph-name="dotaccentcmb" unicode="&#x307;" horiz-adv-x="563" 
d="M154 1169.8v275.4h255v-275.4h-255z" />
    <glyph glyph-name="endash" unicode="&#x2013;" horiz-adv-x="1126" 
d="M1075 802.72v-235.439h-1024v235.439h1024z" />
    <glyph glyph-name="emdash" unicode="&#x2014;" horiz-adv-x="2048" 
d="M1997 802.72v-235.439h-1946v235.439h1946z" />
    <glyph glyph-name="quoteleft" unicode="&#x2018;" horiz-adv-x="399" 
d="M205.539 1506.72h142.461v-586.439h-269.284z" />
    <glyph glyph-name="quoteright" unicode="&#x2019;" horiz-adv-x="399" 
d="M235.55 920.28h-143.55v586.439h269.142z" />
    <glyph glyph-name="quotesinglbase" unicode="&#x201a;" horiz-adv-x="440" 
d="M235.55 -359.72h-143.55v586.439h269.142z" />
    <glyph glyph-name="quotedblleft" unicode="&#x201c;" horiz-adv-x="645" 
d="M164.539 1506.72h142.461v-478.774l103.539 478.774h142.461v-586.439h-246h-23.2842h-246z" />
    <glyph glyph-name="quotedblright" unicode="&#x201d;" horiz-adv-x="645" 
d="M480.461 920.28h-142.461v478.374l-102.45 -478.374h-143.55v586.439h246h23.1416h246.143z" />
    <glyph glyph-name="quotedblbase" unicode="&#x201e;" horiz-adv-x="645" 
d="M480.461 -359.72h-142.461v478.379l-102.45 -478.379h-143.55v586.439h246h23.1416h246.143z" />
    <glyph glyph-name="dagger" unicode="&#x2020;" horiz-adv-x="926" 
d="M345.22 1108.96l-5.94629 453.881h247.575l-6.9375 -453.881l315.089 23.6855v-274.667l-318.659 23.8096l-15.9561 -1420.63h-194.656l-18.9463 1420.6l-315.782 -23.8184v274.726z" />
    <glyph glyph-name="daggerdbl" unicode="&#x2021;" horiz-adv-x="926" 
d="M348.695 1108.95l-9.91211 453.891h248.557l-10.9023 -453.891l318.562 23.6504v-274.57l-323.35 23.8584l-8.6377 -372.18l6.89453 -367.602l325.093 23.8398v-274.177l-318.565 21.5039l10.9121 -452.113h-248.563l9.91211 453.893l-317.695 -23.6621v274.594
l322.506 -23.8711l9.47461 365.582l-9.50488 374.189l-322.476 -23.8691v274.596z" />
    <glyph glyph-name="bullet" unicode="&#x2022;" horiz-adv-x="958" 
d="M72 709.04q0 91.3604 32.2178 171.514q31.8633 79.2695 87.2207 139.054q55.4111 59.8398 129.385 94.2598q74.6602 34.7324 158.177 34.7324q84.5195 0 159.177 -34.7324q73.9775 -34.4199 129.386 -94.2598q55.3594 -59.7891 87.2197 -139.054
q32.2178 -80.1562 32.2178 -171.514q0 -91.2822 -32.1611 -171.911q-31.8682 -79.8945 -87.2764 -139.736q-55.4082 -59.8408 -129.386 -94.2588q-74.6572 -34.7334 -159.177 -34.7334q-83.5166 0 -158.177 34.7334q-73.9736 34.4141 -129.385 94.2588
q-55.4092 59.8408 -87.2773 139.736q-32.1611 80.6318 -32.1611 171.911z" />
    <glyph glyph-name="ellipsis" unicode="&#x2026;" horiz-adv-x="1485" 
d="M92 -61.2393v276.479h256v-276.479h-256zM615 -61.2393v276.479h255v-276.479h-255zM1137 -61.2393v276.479h255v-276.479h-255z" />
    <glyph glyph-name="guilsinglleft" unicode="&#x2039;" horiz-adv-x="623" 
d="M458.714 -24.8438l-448.276 491.844l448.276 491.844l108.239 -116.898l-253.78 -374.945l253.78 -374.945z" />
    <glyph glyph-name="guilsinglright" unicode="&#x203a;" horiz-adv-x="623" 
d="M56.0469 92.0547l253.78 374.945l-253.78 374.945l108.239 116.898l448.276 -491.844l-448.276 -491.844z" />
    <glyph glyph-name="fraction" unicode="&#x2044;" horiz-adv-x="936" 
d="M-85.7529 -112.439l875.113 1658.88h232.39l-875.11 -1658.88h-232.393z" />
    <glyph glyph-name="Euro" unicode="&#x20ac;" horiz-adv-x="1155" 
d="M405 484.8v-183.6q0 -40.4092 13.7881 -74.7422q14.1377 -35.2021 38.7744 -61.8115q24.6357 -26.6055 57.2314 -41.876q31.79 -14.8906 69.2061 -14.8906h90q37.416 0 69.2061 14.8906q32.4023 15.1787 56.4443 41.5645q24.3418 26.7129 38.5615 62.123
q13.7881 34.335 13.7881 74.7422v125.837l231 -38.6787v-87.1582q0 -90.1709 -31.6396 -169.705q-31.3701 -78.8369 -86.2979 -138.163q-54.9248 -59.3184 -127.929 -93.1982q-73.6396 -34.1738 -157.134 -34.1738h-102q-83.417 0 -157.502 34.1133
q-73.582 33.8809 -128.561 93.2588q-54.9277 59.3252 -86.2949 138.163q-31.6426 79.5322 -31.6426 169.705v183.6h-143v220.32h143v22.6797h-143v221.4h143v183.6q0 90.1689 31.6426 169.7q31.3613 78.8301 86.2949 138.165q54.9707 59.3779 128.561 93.2578
q74.082 34.1162 157.502 34.1162h102q83.4922 0 157.134 -34.1699q73.0088 -33.8799 127.929 -93.2041q54.9375 -59.335 86.2979 -138.165q31.6396 -79.5312 31.6396 -169.7v-86.7998l-231 -40.6113v127.411q0 40.4033 -13.7881 74.7471q-14.1328 35.1865 -38.2744 61.2686
q-24.1309 26.0596 -56.7314 41.3311q-31.7871 14.8926 -69.2061 14.8926h-90q-37.4189 0 -69.2061 -14.8926q-32.791 -15.3574 -57.5205 -41.6445q-24.4326 -25.9629 -38.4854 -60.9551q-13.7881 -34.3438 -13.7881 -74.7471v-183.6h509.988l-117.428 -221.4h-392.561
v-22.6797h379.417l-118 -220.32h-261.417z" />
    <glyph glyph-name="trademark" unicode="&#x2122;" horiz-adv-x="1475" 
d="M444 1303.36v-627.48h-208v627.48h-205v212.76h614h4h142.82l222.359 -490.698l224.11 490.698h143.71v-840.24h-206v225.995l-102.14 -225.995h-118.72l-101.141 223.808v-223.808h-209v627.48h-201z" />
    <glyph glyph-name="minus" unicode="&#x2212;" horiz-adv-x="1188" 
d="M1157 842.239v-249.479h-1126v249.479h1126z" />
    <glyph glyph-name="dotlessj" unicode="&#xf6be;" horiz-adv-x="451" 
d="M310.332 -289.909q-27.3682 -68.5459 -75.2705 -120.277q-47.8242 -51.6514 -111.664 -81.7354q-64.7568 -30.5176 -137.397 -30.5176h-51v236.52h51q26.4824 0 49.3232 10.626q23.5254 10.9453 40.6143 29.4014q17.0898 18.457 27.2236 43.8633
q9.83887 24.6689 9.83887 53.2686v1285.2h225v-1278.72q0 -78.3311 -27.668 -147.629z" />
    <glyph glyph-name="commaaccent" unicode="&#xf6c3;" horiz-adv-x="440" 
d="M235.53 -676.68h-143.53v585.359h269.175z" />
    <glyph glyph-name="foundryicon" horiz-adv-x="1753" 
d="M1109.29 -116.466q-112.462 -38.1738 -235.29 -38.1738q-111.035 0 -213.808 31.2168q-102.333 31.084 -191.505 87.5977q-89.2969 56.5947 -162.511 136.821q-73.085 80.084 -124.844 176.903q-51.7334 96.7695 -80.4648 208.25q-28.8682 112.007 -28.8682 232.931
q0 117.574 27.3154 225.164q27.1846 107.076 70.3262 189.199q44.4824 84.6611 100.397 135.811q63.2705 57.8662 128.961 57.8662q70.2617 0 110.897 -47.3262q39.1025 -45.543 39.1025 -121.154q0 -35.9209 -9.70703 -98.2363q-9.16797 -58.8555 -22.8594 -130.044
q-13.6055 -70.7471 -29.209 -144.68q-15.5459 -73.6494 -29.0742 -135.889q-13.4229 -61.7354 -22.3945 -104.802l-1.12305 -5.4248q8.82715 1.18359 18.4941 2.81641q29.9053 5.04492 60.8564 13.1484q30.7783 8.05762 55.1152 16.9854l1.73828 0.647461
q0.908203 4.33105 1.95215 9.18164q5.55078 26.1611 14.584 67.3506q8.87695 40.4756 19.2822 92.3799q10.4619 52.1855 21.4287 108.722q11.1172 57.3262 21.9805 113.838q10.8125 56.2764 18.6436 106.494q7.84961 50.3389 12.7295 90.374q4.5625 37.4756 4.5625 57.6182
q0 32.54 -11.4766 53.6436q-12.4141 22.8301 -33.8418 37.8867q-24.0996 16.9453 -57.4941 25.5312q-36.1826 9.29883 -77.1875 9.29883q-3.18457 0 -8.36621 -0.400391q-4.61523 -0.355469 -8.83691 -1.1123l-46.4033 -7.16016l-50.7881 82.2744l44.1064 30.1748
q95.542 65.3398 204.728 103.118q110.612 38.2646 233.561 38.2646q111.979 0 215.68 -31.1787q103.36 -31.0723 193.021 -87.5664q89.8701 -56.625 163.12 -136.891q72.9902 -79.9854 125.229 -176.688q52.3105 -96.833 81.0801 -208.466
q28.8701 -111.994 28.8701 -232.931q0 -117.561 -27.3203 -225.164q-27.1797 -107.079 -70.3193 -189.196q-44.4902 -84.665 -100.4 -135.812q-63.2598 -57.8682 -128.96 -57.8682q-70.2598 0 -110.9 47.3281q-39.0996 45.5439 -39.0996 120.072q0 35.8896 9.68945 98.6943
q9.18066 59.4678 22.9004 130.209q13.5703 70.0996 29.1699 144.513q15.5703 74.2939 29.1104 136.078q13.4404 61.2822 22.3994 103.762q0.580078 2.66211 1.46094 6.94727q-8.60059 -1.13281 -18.8604 -2.86426q-29.9004 -5.0459 -60.8506 -13.1484
q-30.2197 -7.91113 -53.5195 -17.1055l-3.40039 -1.38086q-2.45996 -11.3965 -5.94922 -27.5029q-9.46094 -43.5498 -22.8906 -108.052q-13.4102 -64.3799 -28.3301 -141.703q-14.96 -77.5205 -28.4102 -150.692q-13.2598 -72.1738 -21.5898 -131.929
q-7.92969 -56.9316 -7.92969 -85.2256q0 -32.5439 11.4805 -53.6455q12.4092 -22.8301 33.8398 -37.8896q24.0898 -16.9336 57.4902 -25.5225q36.1797 -9.30273 77.1895 -9.30273h12.5q2.28027 0 4.7002 0.4375q11.1797 1.72266 21.7998 1.72266h21.1201l64.2295 -69.3623
l-54.2793 -36.7158q-96.5508 -65.3135 -207.78 -103.067zM888.81 473.178q2.8291 13.7666 6.94727 33.4141q9.48633 45.2881 22.4785 107.895q13.1865 63.5723 27.4707 133.24q14.6533 71.4795 26.958 132.637q12.3906 61.5654 20.2578 105.644
q0.605469 3.41895 1.375 7.78711q-6.27246 -0.736328 -12.3574 -1.57324q-25.7139 -3.53516 -53.9375 -9.63086q-26.8838 -5.80664 -50.874 -14.4434q-7.00293 -2.52051 -12.9375 -5.32422q-2.82617 -13.7559 -6.94727 -33.4141q-9.48633 -45.2881 -22.4785 -107.895
q-13.1855 -63.5625 -27.4707 -133.24q-14.6504 -71.4844 -26.958 -132.637q-12.3906 -61.5635 -20.2578 -105.644q-0.902344 -5.05566 -1.75586 -9.99023q6.04688 0.696289 12.7383 1.61621q24.9033 3.42285 52.3506 10.3398q27.7051 6.98242 52.4609 15.8945
q7.00195 2.52051 12.9375 5.32422z" />
    <glyph glyph-name="grave.cap" horiz-adv-x="778" 
d="M71.1318 1907.92h366.255l230.585 -375.84h-206.4z" />
    <glyph glyph-name="acute.cap" horiz-adv-x="778" 
d="M316.429 1532.08h-206.723l232 375.84h365.162z" />
    <glyph glyph-name="caron.cap" horiz-adv-x="942" 
d="M555.887 1532.08h-169.773l-290 375.84h255.082l119.805 -148.393l119.805 148.393h255.082z" />
    <glyph glyph-name="circumflex.cap" horiz-adv-x="942" 
d="M845.887 1532.08h-255.082l-119.805 148.392l-119.805 -148.392h-255.082l290 375.84h169.773z" />
    <glyph glyph-name="ring.cap" horiz-adv-x="834" 
d="M154 1791.92q0 58.8281 20.624 110.798q20.2754 51.0938 55.501 89.8125q35.3408 38.8359 82.7744 61.4521q48.3428 23.0566 103.101 23.0566t103.101 -23.0566q47.2266 -22.5186 82.9619 -61.1172q35.7432 -38.5996 56.5918 -89.5977q21.3457 -52.207 21.3457 -111.348
t-21.3457 -111.348q-20.9443 -51.2246 -56.9072 -89.3916q-35.8428 -38.0479 -83.1572 -59.9512q-48.1211 -22.2695 -102.59 -22.2695q-54.4668 0 -102.59 22.2695q-47.5312 22 -82.9717 60.2861q-35.4492 38.2852 -55.8145 89.6074q-20.624 51.9688 -20.624 110.797z
M358 1791.92q0 -12.5391 4.4375 -23.8145q4.79688 -12.1924 13.2119 -21.5781q8.19629 -9.14746 19.2793 -14.5371q10.0176 -4.87012 21.0713 -4.87012q12.0537 0 22.0713 4.87012q11.083 5.38965 19.2793 14.5371q8.41504 9.38574 13.2119 21.5781
q4.4375 11.2754 4.4375 23.8145q0 13.8779 -4.61133 25.8877q-4.78516 12.4531 -13.0381 21.665q-8.19629 9.14746 -19.2793 14.5371q-10.0176 4.87012 -22.0713 4.87012q-11.0537 0 -21.0713 -4.87012q-11.083 -5.38965 -19.2793 -14.5371
q-8.25488 -9.20215 -13.0381 -21.665q-4.61133 -12.0098 -4.61133 -25.8877z" />
    <glyph glyph-name="dieresis.cap" horiz-adv-x="950" 
d="M154 1578.76v276.479h255v-276.479h-255zM541 1578.76v276.479h255v-276.479h-255z" />
    <glyph glyph-name="tilde.cap" horiz-adv-x="1069" 
d="M657 1783.56q15.4121 0 22.1875 10.4756q12.8125 19.8184 12.8125 57.5635v55.0801h197v-55.0801q0 -56.5488 -13.582 -106.293q-14.3027 -52.3916 -43.46 -92.0918q-30.1299 -41.0293 -74.916 -64.8652q-45.1592 -24.0293 -102.042 -24.0293
q-59.8887 0 -107.057 25.1201q-39.7129 21.1465 -74.1943 46.5703q-30.8057 22.7012 -58.4834 41.5801q-16.0244 10.9287 -32.2656 10.9287q-14.7061 0 -20.5654 -9.49316q-12.4346 -20.1416 -12.4346 -57.4658v-55.0801h-196v55.0801q0 56.3105 12.9619 105.311
q13.7061 51.8076 42.2441 91.5303q29.9053 41.6338 75.29 65.0693q44.9414 23.209 102.504 23.209q57.5 0 103.091 -25.6816q37.2568 -20.9961 70.3311 -45.5879q29.1602 -21.6855 57.8174 -40.2627q17.8857 -11.5869 38.7607 -11.5869z" />
    </font>
</defs>
</svg>
